<svg width="56" height="56" viewBox="0 0 56 56" fill="none" xmlns="http://www.w3.org/2000/svg">
<g id="content-marketing_9836431 1">
<g id="Group">
<g id="Group_2">
<path id="Vector" fill-rule="evenodd" clip-rule="evenodd" d="M37.3151 43.0273L18.5451 43.2681L14.375 50.4239C14.1918 50.7383 14.4395 51.083 14.7538 51.083H41.2466C41.5608 51.083 41.8085 50.7384 41.6253 50.4239L37.3151 43.0273Z" fill="#004960"/>
<path id="Vector_2" fill-rule="evenodd" clip-rule="evenodd" d="M52.1948 4.91675C53.7462 4.91675 55.0156 6.18594 55.0156 7.73753V41.693C55.0156 43.2445 53.7462 44.5137 52.1948 44.5137H3.80505C2.25378 44.5138 0.984375 43.2446 0.984375 41.693V7.73753C0.984375 6.18605 2.25378 4.91675 3.80505 4.91675H52.1948Z" fill="#E6F8FF"/>
<path id="Vector_3" fill-rule="evenodd" clip-rule="evenodd" d="M55.0156 39.7908H0.984375V41.693C0.984375 43.2445 2.25378 44.5138 3.80505 44.5138H52.1948C53.7461 44.5138 55.0155 43.2446 55.0155 41.693V39.7908H55.0156Z" fill="#007BA1"/>
</g>
<g id="Group_3">
<path id="Vector_4" d="M52.2392 31.7007C52.3048 28.5773 49.826 25.9921 46.7026 25.9265C43.5791 25.8609 40.9939 28.3398 40.9283 31.4632C40.8627 34.5866 43.3416 37.1718 46.465 37.2374C49.5884 37.303 52.1736 34.8241 52.2392 31.7007Z" fill="#EB3B48"/>
<path id="Vector_5" fill-rule="evenodd" clip-rule="evenodd" d="M49.3536 31.9053L45.2249 34.2889C44.9787 34.4311 44.6729 34.2545 44.6729 33.9702V29.2029C44.6729 28.9186 44.9787 28.7421 45.2249 28.8841L49.3536 31.2678C49.5983 31.4091 49.5982 31.764 49.3536 31.9053Z" fill="#EFF4F7"/>
</g>
<g id="Group_4">
<path id="Vector_6" d="M11.7127 19.5668C14.7518 18.8484 16.6331 15.8024 15.9147 12.7633C15.1963 9.72422 12.1502 7.84292 9.11115 8.56131C6.07207 9.27969 4.19077 12.3257 4.90915 15.3648C5.62754 18.4039 8.67357 20.2852 11.7127 19.5668Z" fill="#EB3B48"/>
<path id="Vector_7" fill-rule="evenodd" clip-rule="evenodd" d="M13.1962 14.3887L9.06764 16.7724C8.82144 16.9145 8.51562 16.7379 8.51562 16.4536V11.6863C8.51562 11.402 8.82144 11.2254 9.06764 11.3676L13.1962 13.7512C13.4411 13.8925 13.441 14.2474 13.1962 14.3887Z" fill="#EFF4F7"/>
</g>
<g id="Group_5">
<path id="Vector_8" fill-rule="evenodd" clip-rule="evenodd" d="M42.5341 11.4888C42.9512 11.249 43.4838 11.393 43.7235 11.8101C43.9633 12.2273 43.8193 12.7598 43.4022 12.9996L40.7373 14.538C40.3201 14.7778 39.7876 14.6338 39.5478 14.2167C39.3081 13.7995 39.452 13.267 39.8692 13.0272L42.5341 11.4888ZM38.6123 7.74071L37.0591 10.431C36.8175 10.8482 36.9598 11.3822 37.3769 11.6239C37.7941 11.8655 38.3282 11.7232 38.5698 11.306L40.123 8.61571C40.3646 8.19855 40.2223 7.66447 39.8052 7.42287C39.3881 7.18126 38.8539 7.32355 38.6123 7.74071ZM44.6891 16.52C45.1723 16.52 45.5641 16.9118 45.5641 17.395C45.5641 17.8782 45.1723 18.27 44.6891 18.27H41.5826C41.0994 18.27 40.7076 17.8782 40.7076 17.395C40.7076 16.9118 41.0994 16.52 41.5826 16.52H44.6891Z" fill="#FFE600"/>
<g id="Group_6">
<path id="Vector_9" fill-rule="evenodd" clip-rule="evenodd" d="M22.7462 25.6055L20.2275 27.8655L25.1126 36.3265C25.3361 36.7136 25.8343 36.8473 26.2214 36.6237L27.683 35.7799C28.0702 35.5563 28.2036 35.0581 27.9801 34.6709L22.7462 25.6055Z" fill="#2D4853"/>
<path id="Vector_10" fill-rule="evenodd" clip-rule="evenodd" d="M21.1965 28.6232L17.7047 23.502L15.3398 24.8673C13.8677 25.7172 13.3587 27.617 14.2085 29.0889C15.0585 30.561 16.9583 31.07 18.4303 30.2201L21.1965 28.6232Z" fill="#2D4853"/>
<path id="Vector_11" fill-rule="evenodd" clip-rule="evenodd" d="M36.6038 19.062C37.9004 18.3133 38.3488 16.6399 37.6002 15.3432C36.8515 14.0465 35.1781 13.5982 33.8815 14.3467C32.5848 15.0954 32.1365 16.7688 32.885 18.0655C33.6337 19.3621 35.3072 19.8105 36.6038 19.062Z" fill="#2D4853"/>
</g>
<path id="Vector_12" fill-rule="evenodd" clip-rule="evenodd" d="M20.1924 19.3017L16.008 21.7176C15.205 22.1812 14.9281 23.2144 15.3918 24.0174L18.9841 30.2394C19.4477 31.0424 20.4809 31.3193 21.2839 30.8556L25.4683 28.4398L38.541 25.5549C38.8792 25.4514 39.1274 25.2219 39.257 24.8928C39.3866 24.5637 39.3614 24.2267 39.1847 23.9204L30.9644 9.68271C30.7875 9.37635 30.5082 9.18615 30.1584 9.13387C29.8086 9.08158 29.4857 9.18177 29.2271 9.42294L20.1924 19.3017Z" fill="#FFE600"/>
<path id="Vector_13" fill-rule="evenodd" clip-rule="evenodd" d="M28.7323 8.15742C28.0821 8.53291 27.8572 9.37192 28.2326 10.0223L37.5248 26.1168C37.9002 26.767 38.7393 26.9919 39.3895 26.6165C40.0397 26.2412 40.2646 25.402 39.8891 24.7518L30.5972 8.65705C30.2217 8.00681 29.3826 7.78205 28.7323 8.15742Z" fill="#EB3B48"/>
<path id="Vector_14" fill-rule="evenodd" clip-rule="evenodd" d="M18.9839 30.2395C19.4476 31.0426 20.4807 31.3193 21.2838 30.8558C22.6786 30.0505 24.0734 29.2453 25.4681 28.4399C23.7095 25.3939 21.9508 22.3479 20.1922 19.3018L16.0078 21.7176C15.2054 22.1809 14.9281 23.2145 15.3916 24.0175C16.5891 26.0914 17.7865 28.1655 18.9839 30.2395Z" fill="#EB3B48"/>
</g>
</g>
</g>
</svg>
