<svg width="56" height="56" viewBox="0 0 56 56" fill="none" xmlns="http://www.w3.org/2000/svg">
<g id="airplane_2200326 1" clip-path="url(#clip0_1353_9347)">
<path id="Vector" d="M29.6033 54.7746C44.1816 54.7746 55.9997 42.9565 55.9997 28.3782C55.9997 13.8 44.1816 1.98193 29.6033 1.98193C15.0251 1.98193 3.20703 13.8 3.20703 28.3782C3.20703 42.9565 15.0251 54.7746 29.6033 54.7746Z" fill="url(#paint0_linear_1353_9347)"/>
<path id="Vector_2" d="M48.1902 14.4945C47.2844 13.8292 46.324 13.2189 45.3176 12.6647C44.7633 11.6581 44.1531 10.6978 43.4877 9.792C39.7929 4.76221 34.8621 1.99219 29.6039 1.99219C24.3456 1.99219 19.4148 4.76221 15.72 9.792C15.0546 10.6978 14.4445 11.6582 13.8903 12.6647C12.8837 13.2189 11.9234 13.8291 11.0176 14.4945C5.9878 18.1894 3.21777 23.12 3.21777 28.3783C3.21777 33.6366 5.9878 38.5673 11.0176 42.2621C11.9234 42.9275 12.8838 43.5377 13.8903 44.0919C14.4445 45.0984 15.0546 46.0588 15.72 46.9646C19.4149 51.9944 24.3456 54.7644 29.6039 54.7644C34.8621 54.7644 39.7929 51.9944 43.4877 46.9646C44.1531 46.0588 44.7633 45.0984 45.3176 44.0918C46.324 43.5376 47.2845 42.9274 48.1902 42.262C53.22 38.5672 55.99 33.6365 55.99 28.3782C55.99 23.1199 53.22 18.1894 48.1902 14.4945ZM29.6039 53.5223C28.1548 53.5223 26.6189 51.3637 25.4045 47.6804C26.7808 47.8422 28.1837 47.9261 29.6039 47.9261C31.0241 47.9261 32.4269 47.8422 33.8032 47.6804C32.5889 51.3638 31.053 53.5223 29.6039 53.5223ZM29.6039 46.684C28.0339 46.684 26.4975 46.5777 25.0064 46.3763C24.1789 43.4503 23.5781 39.9379 23.2343 36.1031C25.2926 36.2502 27.4282 36.3261 29.6039 36.3261C31.7795 36.3261 33.9151 36.2502 35.9735 36.1031C35.6298 39.9379 35.029 43.4502 34.2015 46.3763C32.7103 46.5777 31.174 46.684 29.6039 46.684ZM29.6039 3.2344C31.053 3.2344 32.5889 5.39303 33.8032 9.0763C32.4269 8.91434 31.0241 8.83045 29.6039 8.83045C28.1837 8.83045 26.7808 8.91434 25.4045 9.0763C26.6189 5.39292 28.1548 3.2344 29.6039 3.2344ZM29.6039 10.0727C31.174 10.0727 32.7103 10.1789 34.2015 10.3804C35.029 13.3065 35.6298 16.8188 35.9735 20.6536C33.9151 20.5064 31.7795 20.4306 29.6039 20.4306C27.4282 20.4306 25.2928 20.5064 23.2343 20.6536C23.5779 16.8188 24.1788 13.3065 25.0064 10.3804C26.4975 10.1789 28.0339 10.0727 29.6039 10.0727ZM22.8982 28.3783C22.8982 26.1635 22.978 23.9932 23.1319 21.9063C25.2187 21.7524 27.389 21.6726 29.6039 21.6726C31.8186 21.6726 33.989 21.7524 36.0758 21.9063C36.2298 23.9932 36.3096 26.1634 36.3096 28.3783C36.3096 30.5931 36.2298 32.7634 36.0758 34.8501C33.989 35.0041 31.8186 35.0839 29.6039 35.0839C27.3891 35.0839 25.2187 35.0041 23.1319 34.8501C22.978 32.7635 22.8982 30.5931 22.8982 28.3783ZM21.8791 34.7479C18.0443 34.4042 14.5319 33.8034 11.6059 32.9758C11.4045 31.4846 11.2981 29.9483 11.2981 28.3783C11.2981 26.8083 11.4044 25.2719 11.6059 23.7808C14.5319 22.9533 18.0443 22.3525 21.8791 22.0087C21.7319 24.0671 21.656 26.2026 21.656 28.3783C21.656 30.5539 21.7318 32.6895 21.8791 34.7479ZM37.3288 22.0088C41.1636 22.3525 44.6759 22.9533 47.6019 23.7809C47.8033 25.272 47.9097 26.8084 47.9097 28.3784C47.9097 29.9484 47.8034 31.4848 47.6019 32.9759C44.6759 33.8035 41.1636 34.4042 37.3288 34.748C37.4759 32.6896 37.5518 30.5541 37.5518 28.3784C37.5518 26.2026 37.4759 24.0672 37.3288 22.0088ZM37.2292 20.7531C36.9021 16.9943 36.3319 13.5282 35.547 10.5906C38.7862 11.1643 41.7817 12.1958 44.3967 13.5856C45.7864 16.2006 46.8179 19.1959 47.3917 22.4352C44.4541 21.6504 40.988 21.0802 37.2292 20.7531ZM21.9785 20.7531C18.2197 21.0802 14.7537 21.6504 11.8161 22.4352C12.3898 19.1959 13.4213 16.2006 14.8111 13.5856C17.4261 12.1958 20.4214 11.1643 23.6606 10.5906C22.8759 13.5282 22.3058 16.9943 21.9785 20.7531ZM10.3018 32.5776C6.61851 31.3633 4.45988 29.8274 4.45988 28.3783C4.45988 26.9292 6.6184 25.3933 10.3018 24.1789C10.1399 25.5552 10.0559 26.9581 10.0559 28.3783C10.0559 29.7985 10.1399 31.2013 10.3018 32.5776ZM21.9785 36.0036C22.3056 39.7624 22.8759 43.2285 23.6606 46.1661C20.4214 45.5924 17.4261 44.5609 14.8111 43.1711C13.4213 40.5561 12.3898 37.5608 11.8161 34.3215C14.7538 35.1063 18.2198 35.6765 21.9785 36.0036ZM37.2292 36.0036C40.988 35.6765 44.4541 35.1063 47.3917 34.3215C46.8179 37.5608 45.7864 40.5561 44.3967 43.1711C41.7817 44.561 38.7863 45.5924 35.547 46.1661C36.3319 43.2285 36.9021 39.7623 37.2292 36.0036ZM48.906 24.1791C52.5892 25.3934 54.7478 26.9292 54.7478 28.3784C54.7478 29.8275 52.5892 31.3634 48.906 32.5777C49.0678 31.2015 49.1517 29.7986 49.1517 28.3784C49.1518 26.9581 49.0679 25.5553 48.906 24.1791ZM54.4545 25.5809C53.2391 24.5445 51.3124 23.6128 48.7184 22.8156C48.2667 19.9555 47.4671 17.2306 46.3479 14.7347C50.5949 17.5001 53.5485 21.2977 54.4545 25.5809ZM43.2477 11.6344C40.7518 10.5152 38.0268 9.71558 35.1667 9.26373C34.3695 6.66961 33.4378 4.743 32.4014 3.52758C36.6846 4.43368 40.4821 7.38729 43.2477 11.6344ZM26.8065 3.52769C25.7701 4.74311 24.8384 6.66972 24.0412 9.26384C21.181 9.71558 18.456 10.5152 15.9602 11.6344C18.7256 7.38729 22.5232 4.43368 26.8065 3.52769ZM12.8599 14.7346C11.7408 17.2304 10.9411 19.9555 10.4893 22.8156C7.8952 23.6128 5.96858 24.5445 4.75316 25.5809C5.65915 21.2977 8.61288 17.5001 12.8599 14.7346ZM4.75316 31.1758C5.96858 32.2122 7.8952 33.1439 10.4893 33.9411C10.9411 36.8012 11.7408 39.5262 12.8599 42.0221C8.61288 39.2566 5.65915 35.459 4.75316 31.1758ZM15.9601 45.1223C18.4559 46.2415 21.1809 47.0411 24.0411 47.4928C24.8383 50.087 25.77 52.0136 26.8064 53.229C22.5232 52.323 18.7256 49.3693 15.9601 45.1223ZM32.4012 53.229C33.4377 52.0136 34.3694 50.087 35.1665 47.4928C38.0267 47.0411 40.7517 46.2414 43.2476 45.1223C40.4821 49.3693 36.6846 52.323 32.4012 53.229ZM46.3479 42.0221C47.4671 39.5262 48.2667 36.8012 48.7184 33.9412C51.3125 33.144 53.2392 32.2123 54.4545 31.1759C53.5485 35.459 50.5949 39.2566 46.3479 42.0221Z" fill="url(#paint1_linear_1353_9347)"/>
<path id="Vector_3" d="M20.5251 3.58546C13.9162 6.00619 8.54567 10.9943 5.61995 17.3417C5.27319 18.094 5.10156 18.9151 5.10156 19.7434C5.10156 21.2863 5.71449 22.7659 6.80539 23.8569L7.34486 24.3964C9.76252 26.814 13.0415 28.1722 16.4606 28.1722C16.9714 28.1722 17.3854 27.7581 17.3854 27.2474C17.3854 26.7366 16.9714 26.3226 16.4606 26.3226H13.6176C12.3065 26.3226 11.2434 25.2597 11.2434 23.9484C11.2434 22.6372 12.3063 21.5742 13.6176 21.5742H15.8381C18.5006 21.5742 21.0541 20.5166 22.9367 18.6339L26.3651 15.2055C27.1117 14.4589 28.1243 14.0394 29.18 14.0394C30.7074 14.0394 32.1 13.1656 32.7645 11.7903C33.5788 10.1048 32.3508 8.14781 30.479 8.14781H26.0556C24.755 8.14781 23.7007 7.09358 23.7007 5.79296C23.7006 4.15183 22.0663 3.02095 20.5251 3.58546Z" fill="url(#paint2_linear_1353_9347)"/>
<path id="Vector_4" d="M55.3854 22.6909C55.0209 21.031 53.5367 19.8569 51.8373 19.8569H48.1163H46.1272C42.7465 19.8569 40.0059 22.5975 40.0059 25.9783V26.7231C40.0059 29.6925 42.4131 32.0997 45.3825 32.0997C46.8923 32.0997 48.1163 33.3237 48.1163 34.8335V41.9723C48.1163 43.8326 50.5318 44.5737 51.5656 43.0271C53.714 39.8131 55.1755 36.1005 55.7402 32.0997C55.911 30.8844 56 29.6412 56 28.3784C55.9999 26.4254 55.7876 24.5226 55.3854 22.6909Z" fill="url(#paint3_linear_1353_9347)"/>
<path id="Vector_5" d="M41.4115 4.76587C43.1919 8.31901 44.1954 12.3289 44.1954 16.5737C44.1954 31.152 32.3774 42.9701 17.7991 42.9701C13.5543 42.9701 9.54436 41.9666 5.99121 40.1862C10.3252 48.8359 19.2702 54.7746 29.6037 54.7746C44.1819 54.7746 56 42.9567 56 28.3783C56 18.0449 50.0612 9.09983 41.4115 4.76587Z" fill="url(#paint4_linear_1353_9347)"/>
<path id="Vector_6" d="M42.9264 17.4707C41.603 16.1473 38.313 17.2418 32.0498 23.0917L28.3897 22.6406L27.2074 21.4208C26.5754 20.7889 25.551 20.7889 24.919 21.4208C24.768 21.5719 24.6546 21.7458 24.5762 21.9312L23.6349 20.9841C23.003 20.3522 21.9785 20.3522 21.3466 20.9841C21.1352 21.1955 20.9963 21.4511 20.9262 21.7209L19.5106 21.5464C19.1731 21.5048 18.7857 21.6592 18.493 21.952L16.0701 24.375C15.8143 24.6307 15.8155 24.9991 16.0726 25.1098L23.3642 32.2353C21.2384 34.7083 19.2961 37.1537 17.8048 39.2612L14.1749 38.7685C14.0291 38.7488 13.8607 38.815 13.7335 38.9421L12.6028 40.0729C12.3845 40.2912 12.3649 40.6043 12.5618 40.7308L15.2879 43.3761C14.8303 44.3772 14.7041 45.0864 15.0075 45.3898L23.737 54.1193C25.6239 54.5476 27.5872 54.7746 29.6037 54.7746C43.4804 54.7746 54.8555 44.0666 55.9183 30.4627L42.9264 17.4707Z" fill="url(#paint5_linear_1353_9347)"/>
<path id="Vector_7" d="M22.4901 23.7464C23.3838 23.7464 24.1082 23.022 24.1082 22.1283C24.1082 21.2347 23.3838 20.5103 22.4901 20.5103C21.5965 20.5103 20.8721 21.2347 20.8721 22.1283C20.8721 23.022 21.5965 23.7464 22.4901 23.7464Z" fill="url(#paint6_linear_1353_9347)"/>
<path id="Vector_8" d="M22.4901 23.4788C23.236 23.4788 23.8406 22.8742 23.8406 22.1283C23.8406 21.3825 23.236 20.7778 22.4901 20.7778C21.7443 20.7778 21.1396 21.3825 21.1396 22.1283C21.1396 22.8742 21.7443 23.4788 22.4901 23.4788Z" fill="url(#paint7_linear_1353_9347)"/>
<path id="Vector_9" d="M24.0263 21.6165C23.9495 21.8476 23.8191 22.0649 23.6352 22.2489C23.0033 22.8808 21.9788 22.8808 21.3469 22.2489C21.1628 22.0649 21.0326 21.8476 20.9558 21.6165C20.7687 22.1792 20.899 22.8244 21.3469 23.2723C21.9788 23.9042 23.0033 23.9042 23.6352 23.2723C24.0831 22.8244 24.2134 22.1793 24.0263 21.6165Z" fill="url(#paint8_linear_1353_9347)"/>
<path id="Vector_10" d="M22.4901 23.7464C23.3838 23.7464 24.1082 23.022 24.1082 22.1283C24.1082 21.2347 23.3838 20.5103 22.4901 20.5103C21.5965 20.5103 20.8721 21.2347 20.8721 22.1283C20.8721 23.022 21.5965 23.7464 22.4901 23.7464Z" fill="url(#paint9_linear_1353_9347)"/>
<path id="Vector_11" d="M27.2076 23.709C26.5756 24.341 25.5512 24.341 24.9193 23.709C24.2873 23.0771 24.2873 22.0526 24.9193 21.4207C25.5512 20.7888 26.5756 20.7888 27.2076 21.4207C27.8394 22.0526 27.8394 23.0772 27.2076 23.709Z" fill="url(#paint10_linear_1353_9347)"/>
<path id="Vector_12" d="M26.0634 23.9156C26.8092 23.9156 27.4138 23.3109 27.4138 22.5651C27.4138 21.8192 26.8092 21.2146 26.0634 21.2146C25.3175 21.2146 24.7129 21.8192 24.7129 22.5651C24.7129 23.3109 25.3175 23.9156 26.0634 23.9156Z" fill="url(#paint11_linear_1353_9347)"/>
<path id="Vector_13" d="M27.5986 22.0535C27.5217 22.2846 27.3914 22.5019 27.2075 22.6859C26.5755 23.3179 25.5511 23.3179 24.9191 22.6859C24.7351 22.5019 24.6049 22.2846 24.528 22.0535C24.3409 22.6162 24.4713 23.2614 24.9191 23.7093C25.5511 24.3412 26.5755 24.3412 27.2075 23.7093C27.6553 23.2613 27.7857 22.6162 27.5986 22.0535Z" fill="url(#paint12_linear_1353_9347)"/>
<path id="Vector_14" d="M27.2076 23.709C26.5756 24.341 25.5512 24.341 24.9193 23.709C24.2873 23.0771 24.2873 22.0526 24.9193 21.4207C25.5512 20.7888 26.5756 20.7888 27.2076 21.4207C27.8394 22.0526 27.8394 23.0772 27.2076 23.709Z" fill="url(#paint13_linear_1353_9347)"/>
<path id="Vector_15" d="M38.2685 39.5247C39.1621 39.5247 39.8865 38.8003 39.8865 37.9066C39.8865 37.013 39.1621 36.2886 38.2685 36.2886C37.3748 36.2886 36.6504 37.013 36.6504 37.9066C36.6504 38.8003 37.3748 39.5247 38.2685 39.5247Z" fill="url(#paint14_linear_1353_9347)"/>
<path id="Vector_16" d="M38.2684 39.2571C39.0143 39.2571 39.6189 38.6525 39.6189 37.9066C39.6189 37.1608 39.0143 36.5562 38.2684 36.5562C37.5226 36.5562 36.918 37.1608 36.918 37.9066C36.918 38.6525 37.5226 39.2571 38.2684 39.2571Z" fill="url(#paint15_linear_1353_9347)"/>
<path id="Vector_17" d="M38.7802 36.3712C38.549 36.4481 38.3317 36.5784 38.1477 36.7624C37.5158 37.3943 37.5158 38.4188 38.1477 39.0507C38.3317 39.2347 38.549 39.3649 38.7802 39.4418C38.2174 39.6289 37.5722 39.4986 37.1243 39.0507C36.4924 38.4188 36.4924 37.3943 37.1243 36.7624C37.5722 36.3145 38.2173 36.1842 38.7802 36.3712Z" fill="url(#paint16_linear_1353_9347)"/>
<path id="Vector_18" d="M38.2685 39.5247C39.1621 39.5247 39.8865 38.8003 39.8865 37.9066C39.8865 37.013 39.1621 36.2886 38.2685 36.2886C37.3748 36.2886 36.6504 37.013 36.6504 37.9066C36.6504 38.8003 37.3748 39.5247 38.2685 39.5247Z" fill="url(#paint17_linear_1353_9347)"/>
<path id="Vector_19" d="M36.6878 33.19C36.0559 33.8219 36.0559 34.8464 36.6878 35.4783C37.3197 36.1102 38.3442 36.1102 38.9761 35.4783C39.608 34.8464 39.608 33.8219 38.9761 33.19C38.3442 32.5581 37.3197 32.5581 36.6878 33.19Z" fill="url(#paint18_linear_1353_9347)"/>
<path id="Vector_20" d="M37.8319 35.6846C38.5778 35.6846 39.1824 35.08 39.1824 34.3341C39.1824 33.5883 38.5778 32.9836 37.8319 32.9836C37.0861 32.9836 36.4814 33.5883 36.4814 34.3341C36.4814 35.08 37.0861 35.6846 37.8319 35.6846Z" fill="url(#paint19_linear_1353_9347)"/>
<path id="Vector_21" d="M38.3437 32.7987C38.1125 32.8756 37.8952 33.0059 37.7112 33.1898C37.0793 33.8218 37.0793 34.8462 37.7112 35.4782C37.8952 35.6622 38.1125 35.7924 38.3437 35.8693C37.7809 36.0564 37.1357 35.9261 36.6878 35.4782C36.0559 34.8462 36.0559 33.8218 36.6878 33.1898C37.1357 32.742 37.7808 32.6117 38.3437 32.7987Z" fill="url(#paint20_linear_1353_9347)"/>
<path id="Vector_22" d="M36.6878 33.19C36.0559 33.8219 36.0559 34.8464 36.6878 35.4783C37.3197 36.1102 38.3442 36.1102 38.9761 35.4783C39.608 34.8464 39.608 33.8219 38.9761 33.19C38.3442 32.5581 37.3197 32.5581 36.6878 33.19Z" fill="url(#paint21_linear_1353_9347)"/>
<path id="Vector_23" d="M12.5618 40.7308L16.03 42.9591L19.4982 39.491L14.1749 38.7686C14.0291 38.7488 13.8606 38.815 13.7335 38.9422L12.6027 40.0729C12.3844 40.2912 12.365 40.6043 12.5618 40.7308Z" fill="url(#paint22_linear_1353_9347)"/>
<path id="Vector_24" d="M12.941 39.7347L12.6028 40.0729C12.3845 40.2911 12.3649 40.6043 12.5618 40.7308L16.0301 42.9592L18.7057 40.2836L13.3824 39.5611C13.2366 39.5413 13.0681 39.6076 12.941 39.7347Z" fill="url(#paint23_linear_1353_9347)"/>
<path id="Vector_25" d="M19.6659 47.8354L17.4375 44.3671L20.9057 40.8989L21.6281 46.2222C21.6478 46.368 21.5816 46.5366 21.4546 46.6636L20.3238 47.7944C20.1054 48.0127 19.7924 48.0321 19.6659 47.8354Z" fill="url(#paint24_linear_1353_9347)"/>
<path id="Vector_26" d="M20.662 47.4561L20.3238 47.7943C20.1055 48.0126 19.7924 48.0321 19.6659 47.8353L17.4375 44.367L20.1131 41.6914L20.8355 47.0147C20.8554 47.1605 20.789 47.3291 20.662 47.4561Z" fill="url(#paint25_linear_1353_9347)"/>
<path id="Vector_27" d="M16.0724 25.1097L27.109 29.8662L33.6823 23.2929L19.5105 21.5465C19.1729 21.5049 18.7855 21.6593 18.4928 21.9521L16.0699 24.375C15.8142 24.6306 15.8154 24.9989 16.0724 25.1097Z" fill="url(#paint26_linear_1353_9347)"/>
<path id="Vector_28" d="M16.9312 23.5138L16.0699 24.3751C15.8142 24.6308 15.8154 24.9992 16.0725 25.1099L27.1091 29.8664L32.1208 24.8547L17.9489 23.1083C17.6114 23.0666 17.2241 23.221 16.9312 23.5138Z" fill="url(#paint27_linear_1353_9347)"/>
<path id="Vector_29" d="M23.2386 23.7599L17.9489 23.108C17.6114 23.0664 17.2241 23.2208 16.9312 23.5136L16.0699 24.3749C15.8142 24.6307 15.8154 24.9991 16.0725 25.1097L20.1371 26.8614L23.2386 23.7599Z" fill="url(#paint28_linear_1353_9347)"/>
<path id="Vector_30" d="M16.0724 25.1098L27.109 29.8663L29.3694 27.6059L17.134 23.311L16.07 24.375C15.8142 24.6307 15.8154 24.9991 16.0724 25.1098Z" fill="url(#paint29_linear_1353_9347)"/>
<path id="Vector_31" d="M35.2876 44.3248L30.5312 33.2881L37.1046 26.7148L38.851 40.8867C38.8926 41.2242 38.7382 41.6116 38.4454 41.9044L36.0225 44.3272C35.7668 44.5829 35.3984 44.5817 35.2876 44.3248Z" fill="url(#paint30_linear_1353_9347)"/>
<path id="Vector_32" d="M36.8837 43.4659L36.0224 44.3272C35.7667 44.5829 35.3983 44.5817 35.2876 44.3246L30.5312 33.288L35.5429 28.2764L37.2894 42.4482C37.331 42.7857 37.1766 43.173 36.8837 43.4659Z" fill="url(#paint31_linear_1353_9347)"/>
<path id="Vector_33" d="M36.6377 37.1584L37.2896 42.4481C37.3312 42.7857 37.1768 43.173 36.8839 43.4658L36.0226 44.3271C35.7669 44.5828 35.3985 44.5816 35.2878 44.3246L33.5361 40.26L36.6377 37.1584Z" fill="url(#paint32_linear_1353_9347)"/>
<path id="Vector_34" d="M35.2876 44.3246L30.5312 33.288L32.7917 31.0276L37.0864 43.2631L36.0224 44.3271C35.7668 44.5828 35.3984 44.5816 35.2876 44.3246Z" fill="url(#paint33_linear_1353_9347)"/>
<path id="Vector_35" d="M35.1735 30.5496C27.4639 38.2591 16.4781 46.8603 15.0074 45.3896C13.5367 43.9189 22.1379 32.9332 29.8474 25.2235C37.557 17.514 41.4556 15.9999 42.9263 17.4706C44.3971 18.9414 42.8831 22.84 35.1735 30.5496Z" fill="url(#paint34_linear_1353_9347)"/>
<path id="Vector_36" d="M34.6024 30.3243C27.2692 37.6575 16.9401 45.9588 15.6894 44.708C14.4387 43.4572 22.74 33.1282 30.0731 25.795C37.4062 18.4619 40.9943 16.9017 42.2449 18.1524C43.4957 19.4031 41.9354 22.9912 34.6024 30.3243Z" fill="url(#paint35_linear_1353_9347)"/>
<path id="Vector_37" d="M35.1739 30.5496C42.8834 22.8399 44.3975 18.9414 42.9268 17.4707L15.0078 45.3897C16.4786 46.8604 27.4643 38.2592 35.1739 30.5496Z" fill="url(#paint36_linear_1353_9347)"/>
<path id="Vector_38" d="M36.3601 20.3305C35.888 20.7416 35.3925 21.1842 34.8729 21.6597C34.7401 21.7814 34.7522 21.9702 34.8959 21.9961C35.7848 22.1562 36.5872 22.5455 37.2196 23.1779C37.8519 23.8103 38.2413 24.6128 38.4014 25.5016C38.4273 25.6453 38.616 25.6574 38.7377 25.5245C39.2133 25.0049 39.6559 24.5095 40.067 24.0373C40.3468 23.7159 40.4673 23.3116 40.3767 22.9853C40.1787 22.2723 39.8202 21.629 39.2943 21.1032C38.7683 20.5772 38.125 20.2187 37.4122 20.0207C37.0858 19.93 36.6815 20.0506 36.3601 20.3305Z" fill="url(#paint37_linear_1353_9347)"/>
<path id="Vector_39" d="M40.0668 24.0371C39.7055 24.4532 39.319 24.887 38.9072 25.3394C38.8512 25.4008 38.7952 25.4623 38.7381 25.5249C38.6163 25.6578 38.4274 25.6457 38.401 25.5019C38.2418 24.6125 37.852 23.8098 37.2196 23.1773C37.1822 23.14 37.1449 23.1037 37.1065 23.0697C36.6574 22.6535 36.1303 22.3527 35.5527 22.1616C36.0721 21.6884 36.5651 21.247 37.0362 20.8374C37.3579 20.5574 37.762 20.4366 38.0881 20.5277C38.4757 20.6354 38.8425 20.7902 39.1818 20.9944C39.2202 21.0295 39.2575 21.0658 39.2949 21.1031C39.8208 21.6291 40.1788 22.2725 40.3764 22.9852C40.4676 23.3113 40.3468 23.7154 40.0668 24.0371Z" fill="url(#paint38_linear_1353_9347)"/>
<path id="Vector_40" d="M38.4015 25.5014C38.4275 25.6452 38.6162 25.6573 38.7379 25.5244C39.2134 25.0048 39.6561 24.5094 40.0672 24.0372C40.3469 23.7158 40.4675 23.3115 40.3769 22.9852C40.1788 22.2722 39.8203 21.6289 39.2945 21.103L37.2197 23.1778C37.8521 23.8101 38.2415 24.6127 38.4015 25.5014Z" fill="url(#paint39_linear_1353_9347)"/>
<path id="Vector_41" d="M17.5983 43.0308L17.3663 42.7987C17.1722 42.6047 17.2388 42.2317 17.511 41.9881L21.5183 38.4008C21.6943 38.2432 21.9276 38.2183 22.0531 38.3439C22.1786 38.4694 22.1538 38.7027 21.9961 38.8787L18.4088 42.886C18.1653 43.1581 17.7923 43.2248 17.5983 43.0308Z" fill="url(#paint40_linear_1353_9347)"/>
<path id="Vector_42" d="M3.50867 51.2293C3.27831 51.2293 3.05661 51.2152 2.84524 51.1874C2.548 51.1482 2.35321 50.8566 2.43336 50.5677L2.65319 49.7743C2.71666 49.5453 2.93429 49.3934 3.1707 49.4165C3.61475 49.46 4.16552 49.412 4.79832 49.2737C5.05417 49.2177 5.30935 49.3728 5.37743 49.6257L5.58924 50.4123C5.66248 50.6844 5.49173 50.9602 5.21657 51.0213C4.59496 51.1594 4.02223 51.2293 3.50867 51.2293ZM7.44888 49.7825L7.14417 49.0282C7.04403 48.7801 7.16009 48.4988 7.40573 48.393C7.95804 48.1553 8.54275 47.8774 9.1526 47.5629C9.39131 47.4398 9.68526 47.531 9.81164 47.768L10.1944 48.4858C10.3235 48.7279 10.2288 49.0293 9.98491 49.1551C9.32817 49.4939 8.69636 49.7939 8.09738 50.0512C7.8445 50.1599 7.55209 50.038 7.44888 49.7825ZM0.792345 49.1533C0.513992 49.2713 0.193914 49.1133 0.122651 48.8194C0.0411765 48.4829 0 48.1154 0 47.7206C0 47.3053 0.0455686 46.8508 0.135937 46.3646C0.187435 46.0873 0.459639 45.9081 0.734039 45.9733L1.52638 46.1617C1.77948 46.2219 1.94265 46.4698 1.89609 46.7258C1.82999 47.0899 1.79661 47.423 1.79661 47.7204C1.79661 47.9273 1.81275 48.1159 1.84449 48.2849C1.88742 48.5131 1.76806 48.7398 1.55427 48.8304L0.792345 49.1533ZM11.8806 47.5366L11.4659 46.8367C11.3288 46.6051 11.4027 46.3063 11.6328 46.1669C12.1757 45.838 12.7353 45.4851 13.3046 45.1125C13.5302 44.965 13.8328 45.0277 13.9821 45.252L14.4327 45.9293C14.5843 46.157 14.5203 46.4641 14.2914 46.6139C13.702 46.9996 13.122 47.3654 12.5588 47.7064C12.3246 47.8483 12.0201 47.7722 11.8806 47.5366ZM16.7119 44.9559C16.4896 45.1146 16.1806 45.0631 16.0232 44.8398L16.7119 44.9559ZM2.08232 44.3876L1.32303 44.0954C1.06565 43.9964 0.938824 43.7055 1.04391 43.4506C1.29206 42.8485 1.58502 42.2116 1.91904 41.5482C2.04246 41.303 2.34311 41.2052 2.58654 41.3322L3.30784 41.7084C3.5459 41.8326 3.63978 42.1253 3.51911 42.3651C3.21067 42.9782 2.94077 43.5643 2.7126 44.1163C2.61059 44.3632 2.33158 44.4836 2.08232 44.3876ZM4.22526 40.0481L3.52251 39.6384C3.28621 39.5007 3.20737 39.197 3.34737 38.9621C3.35187 38.9546 3.35638 38.9471 3.36077 38.9396C3.50088 38.7048 3.80613 38.6291 4.03947 38.7715L4.73387 39.1952C4.96402 39.3357 5.03769 39.6355 4.89945 39.8671C4.8978 39.87 4.89605 39.8727 4.8944 39.8756C4.75638 40.107 4.45815 40.1838 4.22526 40.0481ZM43.7608 17.0397L43.0944 16.5733C42.8734 16.4186 42.818 16.1143 42.9712 15.8923C43.3563 15.3342 43.725 14.7827 44.0728 14.245C44.2191 14.0187 44.5206 13.9537 44.7481 14.0981L45.4348 14.5341C45.6656 14.6807 45.7325 14.987 45.5839 15.2166C45.2252 15.7714 44.845 16.3399 44.4482 16.915C44.293 17.14 43.9847 17.1964 43.7608 17.0397ZM46.441 12.8853L45.7389 12.4744C45.5068 12.3386 45.427 12.0407 45.5603 11.8071C45.8995 11.2127 46.2097 10.6362 46.4871 10.0849C46.6077 9.84528 46.8976 9.74755 47.1392 9.86427L47.8717 10.2183C48.119 10.3379 48.2209 10.6361 48.0975 10.8816C47.8037 11.466 47.4757 12.0758 47.1175 12.7034C46.9815 12.9413 46.6775 13.0237 46.441 12.8853ZM48.6517 8.43342L47.8937 8.13816C47.6448 8.0412 47.5206 7.76318 47.6107 7.51173C47.8411 6.86817 48.006 6.27995 48.1033 5.7541C48.1503 5.50045 48.3864 5.32817 48.6427 5.35803L49.4522 5.45268C49.7332 5.48551 49.9297 5.74784 49.8798 6.02619C49.7642 6.66942 49.5679 7.37766 49.2933 8.142C49.1997 8.40202 48.909 8.53367 48.6517 8.43342ZM41.9574 3.81342L41.6207 3.07257C41.5071 2.82244 41.6206 2.52652 41.873 2.4177C42.5817 2.11223 43.2511 1.86374 43.8724 1.6751C44.1402 1.59384 44.4217 1.74977 44.4928 2.02054L44.6992 2.80795C44.7659 3.06236 44.6212 3.32479 44.3697 3.40166C43.8243 3.56823 43.232 3.78882 42.6 4.0607C42.3541 4.16644 42.0681 4.05708 41.9574 3.81342ZM48.4634 3.68759C48.263 3.76467 48.0314 3.70614 47.9023 3.53463C47.8725 3.49499 47.8404 3.45799 47.8058 3.4234C47.5401 3.15778 47.1011 3.02272 46.5008 3.02184H46.4838V1.22534V2.12365L46.4848 1.74065C46.4856 1.45143 46.7354 1.22238 47.0232 1.25169C47.8766 1.33866 48.5638 1.64084 49.0761 2.15297C49.2322 2.309 49.3696 2.48315 49.4874 2.67366C49.6484 2.93411 49.5285 3.27769 49.2428 3.3876L48.4634 3.68759Z" fill="url(#paint41_linear_1353_9347)"/>
<path id="Vector_43" d="M18.178 10.1672C19.0254 10.1672 19.7124 9.48022 19.7124 8.63279C19.7124 7.78536 19.0254 7.09839 18.178 7.09839C17.3305 7.09839 16.6436 7.78536 16.6436 8.63279C16.6436 9.48022 17.3305 10.1672 18.178 10.1672Z" fill="url(#paint42_linear_1353_9347)"/>
<path id="Vector_44" d="M10.0022 21.5253C10.8496 21.5253 11.5366 20.8384 11.5366 19.9909C11.5366 19.1435 10.8496 18.4565 10.0022 18.4565C9.15475 18.4565 8.46777 19.1435 8.46777 19.9909C8.46777 20.8384 9.15475 21.5253 10.0022 21.5253Z" fill="url(#paint43_linear_1353_9347)"/>
<path id="Vector_45" d="M51.8401 25.4499C52.6875 25.4499 53.3745 24.7629 53.3745 23.9155C53.3745 23.0681 52.6875 22.3811 51.8401 22.3811C50.9926 22.3811 50.3057 23.0681 50.3057 23.9155C50.3057 24.7629 50.9926 25.4499 51.8401 25.4499Z" fill="url(#paint44_linear_1353_9347)"/>
</g>
<defs>
<linearGradient id="paint0_linear_1353_9347" x1="16.8207" y1="15.5958" x2="48.8139" y2="47.5888" gradientUnits="userSpaceOnUse">
<stop stop-color="#00AEFC"/>
<stop offset="1" stop-color="#3F3CEE"/>
</linearGradient>
<linearGradient id="paint1_linear_1353_9347" x1="33.6383" y1="57.4397" x2="24.1403" y2="-10.9779" gradientUnits="userSpaceOnUse">
<stop stop-color="#00AEFC" stop-opacity="0"/>
<stop offset="1" stop-color="#18CFFC"/>
</linearGradient>
<linearGradient id="paint2_linear_1353_9347" x1="21.3113" y1="17.7977" x2="62.901" y2="47.3075" gradientUnits="userSpaceOnUse">
<stop stop-color="#E5F3FF"/>
<stop offset="1" stop-color="#B3CCFF"/>
</linearGradient>
<linearGradient id="paint3_linear_1353_9347" x1="44.0143" y1="30.6299" x2="62.6519" y2="33.9088" gradientUnits="userSpaceOnUse">
<stop stop-color="#E5F3FF"/>
<stop offset="1" stop-color="#B3CCFF"/>
</linearGradient>
<linearGradient id="paint4_linear_1353_9347" x1="38.3195" y1="23.1612" x2="57.7218" y2="-14.7452" gradientUnits="userSpaceOnUse">
<stop stop-color="#3F3CEE" stop-opacity="0"/>
<stop offset="1" stop-color="#2F43BC"/>
</linearGradient>
<linearGradient id="paint5_linear_1353_9347" x1="41.1141" y1="43.5774" x2="27.6803" y2="30.1435" gradientUnits="userSpaceOnUse">
<stop stop-color="#3F3CEE" stop-opacity="0"/>
<stop offset="1" stop-color="#2F43BC"/>
</linearGradient>
<linearGradient id="paint6_linear_1353_9347" x1="22.5075" y1="21.2582" x2="22.5075" y2="24.2215" gradientUnits="userSpaceOnUse">
<stop stop-color="#F9F7FC"/>
<stop offset="1" stop-color="#F0DDFC"/>
</linearGradient>
<linearGradient id="paint7_linear_1353_9347" x1="22.5076" y1="22.8618" x2="22.5076" y2="20.7912" gradientUnits="userSpaceOnUse">
<stop stop-color="#E9EDF5" stop-opacity="0"/>
<stop offset="1" stop-color="white"/>
</linearGradient>
<linearGradient id="paint8_linear_1353_9347" x1="22.1097" y1="22.5923" x2="26.6069" y2="21.2402" gradientUnits="userSpaceOnUse">
<stop stop-color="#F0DDFC" stop-opacity="0"/>
<stop offset="0.2889" stop-color="#C8B7E0" stop-opacity="0.289"/>
<stop offset="0.5915" stop-color="#A595C8" stop-opacity="0.592"/>
<stop offset="0.8395" stop-color="#8F81B8" stop-opacity="0.84"/>
<stop offset="1" stop-color="#8779B3"/>
</linearGradient>
<linearGradient id="paint9_linear_1353_9347" x1="22.6539" y1="21.2959" x2="22.3889" y2="22.7779" gradientUnits="userSpaceOnUse">
<stop stop-color="#F0DDFC" stop-opacity="0"/>
<stop offset="0.2889" stop-color="#C8B7E0" stop-opacity="0.289"/>
<stop offset="0.5915" stop-color="#A595C8" stop-opacity="0.592"/>
<stop offset="0.8395" stop-color="#8F81B8" stop-opacity="0.84"/>
<stop offset="1" stop-color="#8779B3"/>
</linearGradient>
<linearGradient id="paint10_linear_1353_9347" x1="26.0803" y1="21.6947" x2="26.0803" y2="24.658" gradientUnits="userSpaceOnUse">
<stop stop-color="#F9F7FC"/>
<stop offset="1" stop-color="#F0DDFC"/>
</linearGradient>
<linearGradient id="paint11_linear_1353_9347" x1="26.0803" y1="23.2984" x2="26.0802" y2="21.2279" gradientUnits="userSpaceOnUse">
<stop stop-color="#E9EDF5" stop-opacity="0"/>
<stop offset="1" stop-color="white"/>
</linearGradient>
<linearGradient id="paint12_linear_1353_9347" x1="25.6815" y1="23.0291" x2="30.1785" y2="21.677" gradientUnits="userSpaceOnUse">
<stop stop-color="#F0DDFC" stop-opacity="0"/>
<stop offset="0.2889" stop-color="#C8B7E0" stop-opacity="0.289"/>
<stop offset="0.5915" stop-color="#A595C8" stop-opacity="0.592"/>
<stop offset="0.8395" stop-color="#8F81B8" stop-opacity="0.84"/>
<stop offset="1" stop-color="#8779B3"/>
</linearGradient>
<linearGradient id="paint13_linear_1353_9347" x1="26.2267" y1="21.7324" x2="25.9616" y2="23.2144" gradientUnits="userSpaceOnUse">
<stop stop-color="#F0DDFC" stop-opacity="0"/>
<stop offset="0.2889" stop-color="#C8B7E0" stop-opacity="0.289"/>
<stop offset="0.5915" stop-color="#A595C8" stop-opacity="0.592"/>
<stop offset="0.8395" stop-color="#8F81B8" stop-opacity="0.84"/>
<stop offset="1" stop-color="#8779B3"/>
</linearGradient>
<linearGradient id="paint14_linear_1353_9347" x1="39.1423" y1="37.8929" x2="36.179" y2="37.893" gradientUnits="userSpaceOnUse">
<stop stop-color="#F9F7FC"/>
<stop offset="1" stop-color="#F0DDFC"/>
</linearGradient>
<linearGradient id="paint15_linear_1353_9347" x1="37.5387" y1="37.8929" x2="39.6093" y2="37.8929" gradientUnits="userSpaceOnUse">
<stop stop-color="#E9EDF5" stop-opacity="0"/>
<stop offset="1" stop-color="white"/>
</linearGradient>
<linearGradient id="paint16_linear_1353_9347" x1="37.8081" y1="38.2916" x2="39.1602" y2="33.7945" gradientUnits="userSpaceOnUse">
<stop stop-color="#F0DDFC" stop-opacity="0"/>
<stop offset="0.2889" stop-color="#C8B7E0" stop-opacity="0.289"/>
<stop offset="0.5915" stop-color="#A595C8" stop-opacity="0.592"/>
<stop offset="0.8395" stop-color="#8F81B8" stop-opacity="0.84"/>
<stop offset="1" stop-color="#8779B3"/>
</linearGradient>
<linearGradient id="paint17_linear_1353_9347" x1="39.1046" y1="37.7465" x2="37.6227" y2="38.0116" gradientUnits="userSpaceOnUse">
<stop stop-color="#F0DDFC" stop-opacity="0"/>
<stop offset="0.2889" stop-color="#C8B7E0" stop-opacity="0.289"/>
<stop offset="0.5915" stop-color="#A595C8" stop-opacity="0.592"/>
<stop offset="0.8395" stop-color="#8F81B8" stop-opacity="0.84"/>
<stop offset="1" stop-color="#8779B3"/>
</linearGradient>
<linearGradient id="paint18_linear_1353_9347" x1="38.7059" y1="34.3209" x2="35.7425" y2="34.3209" gradientUnits="userSpaceOnUse">
<stop stop-color="#F9F7FC"/>
<stop offset="1" stop-color="#F0DDFC"/>
</linearGradient>
<linearGradient id="paint19_linear_1353_9347" x1="37.1023" y1="34.3209" x2="39.1728" y2="34.3209" gradientUnits="userSpaceOnUse">
<stop stop-color="#E9EDF5" stop-opacity="0"/>
<stop offset="1" stop-color="white"/>
</linearGradient>
<linearGradient id="paint20_linear_1353_9347" x1="37.3717" y1="34.7196" x2="38.7237" y2="30.2225" gradientUnits="userSpaceOnUse">
<stop stop-color="#F0DDFC" stop-opacity="0"/>
<stop offset="0.2889" stop-color="#C8B7E0" stop-opacity="0.289"/>
<stop offset="0.5915" stop-color="#A595C8" stop-opacity="0.592"/>
<stop offset="0.8395" stop-color="#8F81B8" stop-opacity="0.84"/>
<stop offset="1" stop-color="#8779B3"/>
</linearGradient>
<linearGradient id="paint21_linear_1353_9347" x1="38.6682" y1="34.1746" x2="37.1861" y2="34.4396" gradientUnits="userSpaceOnUse">
<stop stop-color="#F0DDFC" stop-opacity="0"/>
<stop offset="0.2889" stop-color="#C8B7E0" stop-opacity="0.289"/>
<stop offset="0.5915" stop-color="#A595C8" stop-opacity="0.592"/>
<stop offset="0.8395" stop-color="#8F81B8" stop-opacity="0.84"/>
<stop offset="1" stop-color="#8779B3"/>
</linearGradient>
<linearGradient id="paint22_linear_1353_9347" x1="16.0206" y1="39.6751" x2="15.6406" y2="42.2155" gradientUnits="userSpaceOnUse">
<stop stop-color="#FFDA45"/>
<stop offset="0.3043" stop-color="#FFCE3E"/>
<stop offset="0.8558" stop-color="#FFAE2B"/>
<stop offset="1" stop-color="#FFA425"/>
</linearGradient>
<linearGradient id="paint23_linear_1353_9347" x1="15.1456" y1="40.6999" x2="18.9162" y2="36.8478" gradientUnits="userSpaceOnUse">
<stop stop-color="#FFDA45" stop-opacity="0"/>
<stop offset="1" stop-color="#B53759"/>
</linearGradient>
<linearGradient id="paint24_linear_1353_9347" x1="20.727" y1="44.382" x2="18.1867" y2="44.7621" gradientUnits="userSpaceOnUse">
<stop stop-color="#FFDA45"/>
<stop offset="0.3043" stop-color="#FFCE3E"/>
<stop offset="0.8558" stop-color="#FFAE2B"/>
<stop offset="1" stop-color="#FFA425"/>
</linearGradient>
<linearGradient id="paint25_linear_1353_9347" x1="19.7023" y1="45.2569" x2="23.5543" y2="41.4864" gradientUnits="userSpaceOnUse">
<stop stop-color="#FFDA45" stop-opacity="0"/>
<stop offset="1" stop-color="#B53759"/>
</linearGradient>
<linearGradient id="paint26_linear_1353_9347" x1="25.367" y1="23.0063" x2="21.425" y2="29.5955" gradientUnits="userSpaceOnUse">
<stop stop-color="#FFDA45"/>
<stop offset="0.3043" stop-color="#FFCE3E"/>
<stop offset="0.8558" stop-color="#FFAE2B"/>
<stop offset="1" stop-color="#FFA425"/>
</linearGradient>
<linearGradient id="paint27_linear_1353_9347" x1="22.2889" y1="27.306" x2="30.3924" y2="15.2292" gradientUnits="userSpaceOnUse">
<stop stop-color="#FFDA45" stop-opacity="0"/>
<stop offset="1" stop-color="#B53759"/>
</linearGradient>
<linearGradient id="paint28_linear_1353_9347" x1="20.2805" y1="25.212" x2="24.1963" y2="30.1229" gradientUnits="userSpaceOnUse">
<stop stop-color="#F0DDFC" stop-opacity="0"/>
<stop offset="0.2889" stop-color="#C8B7E0" stop-opacity="0.289"/>
<stop offset="0.5915" stop-color="#A595C8" stop-opacity="0.592"/>
<stop offset="0.8395" stop-color="#8F81B8" stop-opacity="0.84"/>
<stop offset="1" stop-color="#8779B3"/>
</linearGradient>
<linearGradient id="paint29_linear_1353_9347" x1="22.4669" y1="26.4456" x2="20.8299" y2="29.4856" gradientUnits="userSpaceOnUse">
<stop stop-color="#FFDA45" stop-opacity="0"/>
<stop offset="1" stop-color="#B53759"/>
</linearGradient>
<linearGradient id="paint30_linear_1353_9347" x1="37.3947" y1="35.0339" x2="30.8056" y2="38.9759" gradientUnits="userSpaceOnUse">
<stop stop-color="#FFDA45"/>
<stop offset="0.3043" stop-color="#FFCE3E"/>
<stop offset="0.8558" stop-color="#FFAE2B"/>
<stop offset="1" stop-color="#FFA425"/>
</linearGradient>
<linearGradient id="paint31_linear_1353_9347" x1="33.8877" y1="37.5803" x2="45.9645" y2="29.4768" gradientUnits="userSpaceOnUse">
<stop stop-color="#FFDA45" stop-opacity="0"/>
<stop offset="1" stop-color="#B53759"/>
</linearGradient>
<linearGradient id="paint32_linear_1353_9347" x1="35.6499" y1="40.4877" x2="30.7391" y2="36.572" gradientUnits="userSpaceOnUse">
<stop stop-color="#FFDA45" stop-opacity="0"/>
<stop offset="1" stop-color="#B53759"/>
</linearGradient>
<linearGradient id="paint33_linear_1353_9347" x1="33.9556" y1="37.9338" x2="30.9156" y2="39.5708" gradientUnits="userSpaceOnUse">
<stop stop-color="#FFDA45" stop-opacity="0"/>
<stop offset="1" stop-color="#B53759"/>
</linearGradient>
<linearGradient id="paint34_linear_1353_9347" x1="27.889" y1="30.3553" x2="31.2216" y2="33.6879" gradientUnits="userSpaceOnUse">
<stop stop-color="#E5F3FF"/>
<stop offset="1" stop-color="#B3CCFF"/>
</linearGradient>
<linearGradient id="paint35_linear_1353_9347" x1="30.1985" y1="32.5312" x2="25.4564" y2="28.2971" gradientUnits="userSpaceOnUse">
<stop stop-color="#E5F3FF" stop-opacity="0"/>
<stop offset="1" stop-color="white"/>
</linearGradient>
<linearGradient id="paint36_linear_1353_9347" x1="28.7304" y1="35.7179" x2="36.1097" y2="-15.7933" gradientUnits="userSpaceOnUse">
<stop stop-color="#B3CCFF" stop-opacity="0"/>
<stop offset="1" stop-color="#9FB0CB"/>
</linearGradient>
<linearGradient id="paint37_linear_1353_9347" x1="36.6308" y1="20.7338" x2="39.533" y2="25.2944" gradientUnits="userSpaceOnUse">
<stop stop-color="#8B788A"/>
<stop offset="1" stop-color="#6E566E"/>
</linearGradient>
<linearGradient id="paint38_linear_1353_9347" x1="38.0957" y1="23.027" x2="37.3271" y2="20.3642" gradientUnits="userSpaceOnUse">
<stop stop-color="#8B788A" stop-opacity="0"/>
<stop offset="1" stop-color="#9E8C92"/>
</linearGradient>
<linearGradient id="paint39_linear_1353_9347" x1="38.6917" y1="23.6301" x2="40.5157" y2="18.9363" gradientUnits="userSpaceOnUse">
<stop stop-color="#555A66" stop-opacity="0"/>
<stop offset="1" stop-color="#555A66"/>
</linearGradient>
<linearGradient id="paint40_linear_1353_9347" x1="19.6791" y1="40.541" x2="20.0742" y2="40.9361" gradientUnits="userSpaceOnUse">
<stop stop-color="#E5F3FF"/>
<stop offset="1" stop-color="#B3CCFF"/>
</linearGradient>
<linearGradient id="paint41_linear_1353_9347" x1="0" y1="26.2273" x2="49.8874" y2="26.2273" gradientUnits="userSpaceOnUse">
<stop stop-color="#FF7044"/>
<stop offset="1" stop-color="#F92814"/>
</linearGradient>
<linearGradient id="paint42_linear_1353_9347" x1="18.059" y1="8.51398" x2="19.7491" y2="10.204" gradientUnits="userSpaceOnUse">
<stop stop-color="#FF7044"/>
<stop offset="1" stop-color="#F92814"/>
</linearGradient>
<linearGradient id="paint43_linear_1353_9347" x1="9.35312" y1="19.3419" x2="11.1963" y2="21.1852" gradientUnits="userSpaceOnUse">
<stop stop-color="#92F37F"/>
<stop offset="1" stop-color="#4AB272"/>
</linearGradient>
<linearGradient id="paint44_linear_1353_9347" x1="50.893" y1="22.9684" x2="53.5374" y2="25.6129" gradientUnits="userSpaceOnUse">
<stop stop-color="#92F37F"/>
<stop offset="1" stop-color="#4AB272"/>
</linearGradient>
<clipPath id="clip0_1353_9347">
<rect width="56" height="56" fill="white"/>
</clipPath>
</defs>
</svg>
