<svg width="56" height="56" viewBox="0 0 56 56" fill="none" xmlns="http://www.w3.org/2000/svg">
<g id="vehicles_5044923 1">
<g id="Group">
<g id="Group_2">
<path id="Vector" d="M28 37.9986C27.5168 37.9986 27.125 37.6068 27.125 37.1236V32.5344C27.125 32.0512 27.5168 31.6594 28 31.6594C28.4832 31.6594 28.875 32.0512 28.875 32.5344V37.1236C28.875 37.6068 28.4832 37.9986 28 37.9986Z" fill="#F79219"/>
</g>
<g id="Group_3">
<g id="Group_4">
<path id="Vector_2" d="M9.12106 46.0123H4.33984C3.85663 46.0123 3.46484 45.6205 3.46484 45.1373V23.5305C3.46484 23.0473 3.85663 22.6555 4.33984 22.6555H6.58159C7.06481 22.6555 7.45659 23.0473 7.45659 23.5305C7.45659 24.0137 7.06481 24.4055 6.58159 24.4055H5.21484V44.2623H9.12106C9.60428 44.2623 9.99606 44.6541 9.99606 45.1373C9.99606 45.6205 9.60428 46.0123 9.12106 46.0123Z" fill="#F79219"/>
</g>
<g id="Group_5">
<path id="Vector_3" d="M51.6599 46.0123H46.8936C46.4103 46.0123 46.0186 45.6205 46.0186 45.1373C46.0186 44.6541 46.4103 44.2623 46.8936 44.2623H50.7849V24.4055H49.2055C48.7223 24.4055 48.3305 24.0137 48.3305 23.5305C48.3305 23.0473 48.7223 22.6555 49.2055 22.6555H51.6599C52.1431 22.6555 52.5349 23.0473 52.5349 23.5305V45.1373C52.5349 45.6205 52.1431 46.0123 51.6599 46.0123Z" fill="#F79219"/>
</g>
</g>
<g id="Group_6">
<g id="Group_7">
<g id="Group_8">
<g id="Group_9">
<g id="Group_10">
<path id="Vector_4" d="M42.197 50.8459C45.3498 50.8459 47.9057 48.29 47.9057 45.1372C47.9057 41.9843 45.3498 39.4285 42.197 39.4285C39.0442 39.4285 36.4883 41.9843 36.4883 45.1372C36.4883 48.29 39.0442 50.8459 42.197 50.8459Z" fill="#58595B"/>
</g>
<g id="Group_11">
<path id="Vector_5" d="M42.1973 49.0973C44.3844 49.0973 46.1574 47.3243 46.1574 45.1373C46.1574 42.9502 44.3844 41.1772 42.1973 41.1772C40.0103 41.1772 38.2373 42.9502 38.2373 45.1373C38.2373 47.3243 40.0103 49.0973 42.1973 49.0973Z" fill="#E6E7E8"/>
</g>
<g id="Group_12">
<path id="Vector_6" d="M45.313 42.6925C45.117 42.4429 44.8915 42.2176 44.6421 42.0216L42.6718 43.9919V41.2055C42.5163 41.1869 42.3579 41.1772 42.1973 41.1772C42.0368 41.1772 41.8784 41.1869 41.7229 41.2055V43.9919L39.7526 42.0216C39.503 42.2176 39.2777 42.4432 39.0817 42.6925L41.052 44.6628H38.2655C38.2469 44.8183 38.2373 44.9767 38.2373 45.1373C38.2373 45.2978 38.2469 45.4562 38.2655 45.6117H41.052L39.0817 47.582C39.2777 47.8316 39.5032 48.0569 39.7526 48.2529L41.7229 46.2827V49.0691C41.8784 49.0877 42.0368 49.0973 42.1973 49.0973C42.3579 49.0973 42.5163 49.0877 42.6718 49.0691V46.2827L44.6421 48.2529C44.8917 48.0569 45.117 47.8314 45.313 47.582L43.3427 45.6117H46.1291C46.1477 45.4562 46.1574 45.2978 46.1574 45.1373C46.1574 44.9767 46.1477 44.8183 46.1291 44.6628H43.3427L45.313 42.6925Z" fill="#FFA91A"/>
</g>
<g id="Group_13">
<path id="Vector_7" d="M42.1973 46.7231C43.0732 46.7231 43.7832 46.0131 43.7832 45.1372C43.7832 44.2613 43.0732 43.5513 42.1973 43.5513C41.3214 43.5513 40.6113 44.2613 40.6113 45.1372C40.6113 46.0131 41.3214 46.7231 42.1973 46.7231Z" fill="#F79219"/>
</g>
</g>
</g>
<g id="Group_14">
<g id="Group_15">
<path id="Vector_8" d="M13.9209 39.311C10.7033 39.311 8.09473 41.9194 8.09473 45.137C8.09473 48.3546 10.7031 50.9632 13.9209 50.9632C17.1387 50.9632 19.7471 48.3548 19.7471 45.137C19.7471 41.9194 17.1387 39.311 13.9209 39.311ZM13.9209 49.1786C11.689 49.1786 9.87951 47.3691 9.87951 45.1372C9.87951 42.9053 11.689 41.0958 13.9209 41.0958C16.1528 41.0958 17.9623 42.9053 17.9623 45.1372C17.9623 47.3691 16.153 49.1786 13.9209 49.1786Z" fill="#8C3F0A"/>
</g>
<g id="Group_16">
<path id="Vector_9" d="M8.73242 44.3245H19.1093V45.9493H8.73242V44.3245Z" fill="#8C3F0A"/>
</g>
<g id="Group_17">
<path id="Vector_10" d="M14.7334 44.7126V50.3256H13.1085V44.7126H14.7334Z" fill="#8C3F0A"/>
</g>
<g id="Group_18">
<path id="Vector_11" d="M15.0442 46.7459H12.7969C12.1199 46.7459 11.5713 46.1971 11.5713 45.5203V44.7542C11.5713 44.0772 12.1201 43.5286 12.7969 43.5286H15.0442C15.7212 43.5286 16.2698 44.0774 16.2698 44.7542V45.5203C16.2698 46.1971 15.7212 46.7459 15.0442 46.7459Z" fill="#F79219"/>
</g>
</g>
</g>
<g id="Group_19">
<g id="Group_20">
<path id="Vector_12" d="M33.5856 46.8138L32.1322 45.5218C32.1556 45.2679 32.1556 45.0069 32.1322 44.7529L33.5856 43.461C33.7357 43.3275 33.7713 43.107 33.6709 42.9334L32.7443 41.3286C32.6439 41.1547 32.4352 41.0753 32.2447 41.1387L30.3991 41.7512C30.1904 41.6031 29.9675 41.4739 29.7328 41.3658L29.3408 39.462C29.3003 39.2654 29.1273 39.1243 28.9265 39.1243H27.0734C26.8728 39.1243 26.6996 39.2654 26.6591 39.462L26.2671 41.3658C26.0324 41.4739 25.8095 41.6031 25.6008 41.7512L23.7552 41.1387C23.5647 41.0755 23.356 41.1547 23.2556 41.3286L22.3292 42.9334C22.2288 43.1073 22.2644 43.3275 22.4145 43.461L23.8679 44.7529C23.8445 45.0069 23.8445 45.2679 23.8679 45.522L22.4145 46.814C22.2644 46.9474 22.2288 47.1677 22.3292 47.3416L23.2556 48.9466C23.356 49.1205 23.5647 49.1997 23.7552 49.1365L25.6006 48.5237C25.8093 48.6718 26.0322 48.8011 26.2669 48.9092L26.6589 50.813C26.6994 51.0096 26.8724 51.1505 27.0732 51.1505H28.9262C29.127 51.1505 29.3001 51.0094 29.3405 50.813L29.7325 48.9092C29.9673 48.8011 30.1902 48.6718 30.3989 48.5237L32.2442 49.1365C32.4348 49.1997 32.6435 49.1203 32.7439 48.9466L33.6705 47.3416C33.7713 47.1675 33.7357 46.947 33.5856 46.8138ZM28.0003 47.4147C26.7425 47.4147 25.7229 46.3951 25.7229 45.1373C25.7229 43.8795 26.7425 42.8599 28.0003 42.8599C29.2581 42.8599 30.2777 43.8795 30.2777 45.1373C30.2777 46.3951 29.2581 47.4147 28.0003 47.4147Z" fill="#F79219"/>
<g id="Group_21">
<g id="Group_22">
<path id="Vector_13" d="M28.0003 40.9875C25.7084 40.9875 23.8506 42.8454 23.8506 45.1372C23.8506 47.4291 25.7084 49.2867 28.0003 49.2867C30.2921 49.2867 32.15 47.4289 32.15 45.1372C32.15 42.8454 30.2921 40.9875 28.0003 40.9875ZM28.0003 47.4146C26.7425 47.4146 25.7229 46.395 25.7229 45.1372C25.7229 43.8794 26.7425 42.8598 28.0003 42.8598C29.2581 42.8598 30.2777 43.8794 30.2777 45.1372C30.2777 46.395 29.2581 47.4146 28.0003 47.4146Z" fill="#EF7816"/>
</g>
</g>
<path id="Vector_14" d="M28.0006 42.0105C26.2738 42.0105 24.874 43.4105 24.874 45.1373C24.874 46.8641 26.2738 48.2639 28.0006 48.2639C29.7274 48.2639 31.1274 46.8639 31.1274 45.1373C31.1274 43.4105 29.7274 42.0105 28.0006 42.0105ZM28.0006 47.4147C26.7428 47.4147 25.7232 46.3951 25.7232 45.1373C25.7232 43.8795 26.7428 42.8599 28.0006 42.8599C29.2584 42.8599 30.278 43.8795 30.278 45.1373C30.278 46.3951 29.2584 47.4147 28.0006 47.4147Z" fill="#FFA91A"/>
</g>
</g>
</g>
<g id="Group_23">
<g id="Group_24">
<g id="Group_25">
<g id="Group_26">
<g id="Group_27">
<g id="Group_28">
<path id="Vector_15" d="M42.5189 14.0488L42.52 14.0523C42.5929 13.8574 42.7537 13.7005 42.9663 13.643L46.8112 12.6057C47.2019 12.5002 47.5952 12.7667 47.6421 13.1687L47.9017 15.3963C47.9398 15.7224 47.7333 16.0271 47.4161 16.1127L42.6222 17.4029C42.2569 17.5013 41.8725 17.3296 41.7019 16.9918C41.6019 16.7936 41.5888 16.5629 41.6658 16.3548L42.5189 14.0488Z" fill="#D10028"/>
</g>
</g>
</g>
<g id="Group_29">
<g id="Group_30">
<g id="Group_31">
<path id="Vector_16" d="M13.2867 14.0488L13.2856 14.0523C13.2128 13.8574 13.052 13.7005 12.8394 13.643L8.99439 12.6057C8.6037 12.5002 8.21039 12.7667 8.16358 13.1687L7.90392 15.3963C7.86586 15.7224 8.07236 16.0271 8.38955 16.1127L13.1835 17.4029C13.5488 17.5013 13.9331 17.3296 14.1037 16.9918C14.2037 16.7936 14.2168 16.5629 14.1398 16.3548L13.2867 14.0488Z" fill="#D10028"/>
</g>
</g>
</g>
</g>
<g id="Group_32">
<g id="Group_33">
<g id="Group_34">
<path id="Vector_17" d="M15.9023 36.754H10.8352C9.8475 36.754 9.04688 35.9534 9.04688 34.9655V26.3884C9.04688 25.4007 9.8475 24.5999 10.8352 24.5999H15.9023C16.8899 24.5999 17.6908 25.4005 17.6908 26.3884V34.9655C17.6908 35.9532 16.8899 36.754 15.9023 36.754Z" fill="#414042"/>
</g>
</g>
<g id="Group_35">
<g id="Group_36">
<path id="Vector_18" d="M44.9718 36.754H39.9047C38.9171 36.754 38.1162 35.9534 38.1162 34.9655V26.3884C38.1162 25.4007 38.9168 24.5999 39.9047 24.5999H44.9718C45.9595 24.5999 46.7601 25.4005 46.7601 26.3884V34.9655C46.7601 35.9532 45.9595 36.754 44.9718 36.754Z" fill="#414042"/>
</g>
</g>
</g>
<g id="Group_37">
<g id="Group_38">
<path id="Vector_19" d="M44.3883 32.5348H11.4174C10.6094 32.5348 9.92534 31.9383 9.81531 31.1378L8.45053 21.211C8.13334 18.9045 9.92578 16.8489 12.2539 16.8489H43.5518C45.88 16.8489 47.6722 18.9045 47.3552 21.211L45.9904 31.1378C45.8804 31.9383 45.1964 32.5348 44.3883 32.5348Z" fill="#E63950"/>
</g>
</g>
<g id="Group_39">
<path id="Vector_20" d="M45.6631 17.4802C46.1562 18.2262 46.3944 19.1495 46.2614 20.117L44.8966 30.0439C44.7866 30.8443 44.1026 31.4408 43.2945 31.4408H10.3236C10.1652 31.4408 10.0117 31.4179 9.86621 31.375C10.0657 32.0533 10.6916 32.5346 11.4174 32.5346H44.3882C45.1963 32.5346 45.8803 31.9381 45.9904 31.1377L47.3551 21.2108C47.5654 19.6817 46.8485 18.2629 45.6631 17.4802Z" fill="#D10028"/>
</g>
<g id="Group_40">
<g id="Group_41">
<path id="Vector_21" d="M9.06348 25.6694L9.81532 31.1377C9.92535 31.9382 10.6094 32.5347 11.4174 32.5347H44.3883C45.1964 32.5347 45.8804 31.9382 45.9904 31.1377L46.7423 25.6694H9.06348Z" fill="#D10028"/>
</g>
</g>
<g id="Group_42">
<g id="Group_43">
<path id="Vector_22" d="M37.8349 7.62891H17.9715C16.7708 7.62891 15.6978 8.37812 15.2844 9.50534L12.5898 16.8488H43.2166L40.5222 9.50534C40.1086 8.37812 39.0356 7.62891 37.8349 7.62891Z" fill="#E63950"/>
</g>
</g>
<g id="Group_44">
<g id="Group_45">
<path id="Vector_23" d="M19.1794 23.657H11.9044C11.5562 23.657 11.2615 23.3996 11.2149 23.0546L11.0679 21.9663C11.0115 21.5489 11.3361 21.1775 11.7574 21.1775H19.0322C19.3804 21.1775 19.6749 21.435 19.7214 21.7799L19.8684 22.8682C19.9251 23.2856 19.6005 23.657 19.1794 23.657Z" fill="#F1F2F2"/>
</g>
</g>
<g id="Group_46">
<g id="Group_47">
<path id="Vector_24" d="M36.6263 23.657H43.9011C44.2493 23.657 44.544 23.3996 44.5906 23.0546L44.7376 21.9663C44.794 21.5489 44.4694 21.1775 44.0481 21.1775H36.7733C36.4251 21.1775 36.1307 21.435 36.0841 21.7799L35.9371 22.8682C35.8806 23.2856 36.205 23.657 36.6263 23.657Z" fill="#F1F2F2"/>
</g>
</g>
<g id="Group_48">
<g id="Group_49">
<path id="Vector_25" d="M40.436 16.8486H15.3701L17.4756 10.6501C17.7002 9.98927 18.2193 9.5603 18.7944 9.5603H37.0121C37.5872 9.5603 38.1061 9.98927 38.331 10.6501L40.436 16.8486Z" fill="#F1F2F2"/>
</g>
</g>
<g id="Group_50">
<path id="Vector_26" d="M38.3308 10.6501C38.1061 9.98925 37.587 9.56006 37.0119 9.56006H36.516L38.2485 14.6611H16.1132L15.3701 16.8486H40.436L38.3308 10.6501Z" fill="#E6E7E8"/>
</g>
<g id="Group_51">
<path id="Vector_27" d="M38.3306 10.65C38.137 10.0803 37.7246 9.68308 37.2462 9.58398L39.3421 15.7547H15.7416L15.3701 16.8485H40.436L38.3306 10.65Z" fill="#D1D3D4"/>
</g>
</g>
</g>
<g id="Group_52">
<path id="Vector_28" d="M9.74965 21.4703C9.53309 21.4703 9.34715 21.3085 9.31652 21.0919C9.29902 20.9563 9.28809 20.8206 9.28809 20.6872C9.28809 19.9719 9.5484 19.2785 10.0187 18.7403C10.5831 18.095 11.3968 17.7231 12.2543 17.7231H34.1884C34.429 17.7231 34.6259 17.92 34.6259 18.1606C34.6259 18.4035 34.429 18.5981 34.1884 18.5981H12.2543C11.6506 18.5981 11.0753 18.8606 10.6793 19.3156C10.3468 19.6963 10.1631 20.1819 10.1631 20.6872C10.1631 20.7791 10.1696 20.8753 10.1828 20.9716C10.2003 21.0875 10.1696 21.2035 10.0996 21.2953C10.0296 21.3894 9.92684 21.4506 9.8109 21.466C9.79121 21.4681 9.77152 21.4703 9.74965 21.4703ZM35.9384 18.5981C35.6976 18.5981 35.5009 18.4035 35.5009 18.1606C35.5009 17.92 35.6976 17.7231 35.9384 17.7231C36.181 17.7231 36.3759 17.92 36.3759 18.1606C36.3759 18.4035 36.181 18.5981 35.9384 18.5981Z" fill="#E8566F"/>
</g>
</g>
</g>
</svg>
