<svg width="56" height="56" viewBox="0 0 56 56" fill="none" xmlns="http://www.w3.org/2000/svg">
<g id="jet_486211 1" clip-path="url(#clip0_1353_10034)">
<path id="Vector" d="M21.8322 16.5465C22.252 16.5465 22.672 16.3862 22.9922 16.066L25.007 14.0513C25.6478 13.4106 25.6478 12.3717 25.007 11.731C24.3663 11.0904 23.3275 11.0903 22.6867 11.731L20.6719 13.7457C20.0312 14.3864 20.0312 15.4252 20.6719 16.066C20.9924 16.3862 21.4122 16.5465 21.8322 16.5465Z" fill="#FFD55E"/>
<path id="Vector_2" d="M42.2548 35.3278L44.2695 33.313C44.9101 32.6723 44.9101 31.6334 44.2695 30.9927C43.6288 30.3521 42.59 30.3521 41.9492 30.9927L39.9346 33.0075C39.2939 33.6481 39.2939 34.687 39.9346 35.3278C40.2549 35.6481 40.6748 35.8083 41.0946 35.8083C41.5144 35.8083 41.9345 35.648 42.2548 35.3278Z" fill="#FFAE3D"/>
<path id="Vector_3" d="M13.7852 10.8729L11.7705 12.8877C11.1299 13.5284 11.1299 14.5673 11.7705 15.208C12.0909 15.5284 12.5107 15.6885 12.9305 15.6885C13.3503 15.6885 13.7703 15.5284 14.0907 15.2079L16.1054 13.1931C16.746 12.5524 16.746 11.5135 16.1054 10.8728C15.4648 10.2322 14.4261 10.2321 13.7852 10.8729Z" fill="#FFD55E"/>
<path id="Vector_4" d="M45.1272 39.8944C44.4865 39.2536 43.4476 39.2536 42.8069 39.8944L40.7921 41.909C40.1513 42.5497 40.1513 43.5885 40.7921 44.2293C41.1124 44.5498 41.5323 44.7099 41.9522 44.7099C42.372 44.7099 42.792 44.5497 43.1122 44.2293L45.127 42.2146C45.7678 41.5739 45.7678 40.5351 45.1272 39.8944Z" fill="#FFAE3D"/>
<path id="Vector_5" d="M31.0393 16.3062C30.0904 15.3574 28.8421 14.7665 27.5068 14.6341L6.6533 12.5672C6.32922 12.5351 6.00733 12.6463 5.77207 12.8714L0.367618 18.0437C0.162102 18.2404 0.0238514 18.5027 0.00307015 18.7864C-0.031383 19.2567 0.226961 19.6842 0.635915 19.879L17.9055 28.1049L27.8953 38.0947L36.1212 55.3643C36.2789 55.6953 36.5892 55.9277 36.9511 55.9859C37.0102 55.9954 37.0695 56.0001 37.1283 56.0001C37.4301 56.0001 37.722 55.8776 37.9341 55.6559L43.1287 50.2281C43.3539 49.9929 43.465 49.671 43.4329 49.3469L41.366 28.4932C41.2337 27.158 40.6429 25.9095 39.6939 24.9607L31.0393 16.3062Z" fill="#333333"/>
<path id="Vector_6" d="M35.3666 20.6334L31.0393 16.3061C30.0904 15.3572 28.8421 14.7664 27.5069 14.6339L6.6533 12.5672C6.32922 12.5351 6.00722 12.6463 5.77206 12.8714L0.367617 18.0437C0.162101 18.2404 0.0238503 18.5027 0.00306905 18.7864C-0.0313841 19.2567 0.22707 19.6842 0.635914 19.879L17.9055 28.1049L22.9004 33.0999L35.3666 20.6334Z" fill="#707070"/>
<path id="Vector_7" d="M55.1389 0.861046C54.2223 -0.0556274 52.8877 -0.259503 51.7392 0.341623L39.1544 6.92776C39.0543 6.98015 38.9627 7.04742 38.8829 7.12726L34.0966 11.9135L34.0856 11.9024C33.8764 11.6932 33.5926 11.5757 33.2968 11.5757C33.0009 11.5757 32.7172 11.6932 32.508 11.9024L16.516 29.4941L2.58902 33.5316C2.12845 33.6652 1.80469 34.0782 1.78512 34.5574C1.76554 35.0365 2.0544 35.4747 2.50251 35.6453L15.4298 40.57L20.3545 53.4972C20.5252 53.9454 20.9638 54.2352 21.4425 54.2146C21.9216 54.195 22.3346 53.8714 22.4682 53.4107L26.5058 39.4836L44.0974 23.4919C44.3066 23.2826 44.4241 22.9989 44.4241 22.7031C44.4241 22.4073 44.3065 22.1235 44.0974 21.9142L44.0862 21.9032L48.8725 17.1169C48.9523 17.0371 49.0197 16.9455 49.072 16.8455L55.6582 4.26065C56.2594 3.1121 56.0556 1.77772 55.1389 0.861046Z" fill="#18A379"/>
<path id="Vector_8" d="M55.1389 0.861046C54.2223 -0.0556274 52.8877 -0.259503 51.7392 0.341623L39.1544 6.92776C39.0543 6.98015 38.9627 7.04742 38.8829 7.12726L34.0966 11.9135L34.0856 11.9024C33.8764 11.6932 33.5926 11.5757 33.2968 11.5757C33.0009 11.5757 32.7172 11.6932 32.508 11.9024L16.516 29.4941L2.58902 33.5316C2.12845 33.6652 1.80469 34.0782 1.78512 34.5574C1.76554 35.0365 2.0544 35.4747 2.50251 35.6453L15.4298 40.57L55.1389 0.861046Z" fill="#33CCA3"/>
<path id="Vector_9" d="M55.1388 0.861046C54.2222 -0.0556274 52.8876 -0.259503 51.739 0.341623L45.5332 3.58941L52.4104 10.4666L55.6582 4.26076C56.2593 3.1121 56.0554 1.77772 55.1388 0.861046Z" fill="#F07F35"/>
<path id="Vector_10" d="M55.1388 0.861046C54.2222 -0.0556274 52.8876 -0.259503 51.739 0.341623L45.5332 3.58941L48.9721 7.02828L55.1388 0.861046Z" fill="#FFAE3D"/>
<path id="Vector_11" d="M42.8255 13.7099L42.29 13.1744C41.7362 12.6206 40.8383 12.6206 40.2845 13.1744L36.8802 16.5787C36.3264 17.1324 36.3264 18.0303 36.8802 18.5842L37.4157 19.1197C37.9694 19.6734 38.8673 19.6734 39.4212 19.1197L42.8255 15.7154C43.3792 15.1615 43.3792 14.2636 42.8255 13.7099Z" fill="#EBEBEB"/>
<path id="Vector_12" d="M42.5579 13.4423L42.29 13.1744C41.7362 12.6206 40.8383 12.6206 40.2845 13.1744L36.8802 16.5787C36.3264 17.1324 36.3264 18.0303 36.8802 18.5842L37.1481 18.8521L42.5579 13.4423Z" fill="#F5F5F5"/>
<path id="Vector_13" d="M25.6746 30.3257C25.034 29.6851 23.9951 29.6851 23.3543 30.3257L20.171 33.509C19.5302 34.1497 19.5302 35.1886 20.171 35.8293C20.4913 36.1497 20.9112 36.3099 21.331 36.3099C21.7508 36.3099 22.1708 36.1497 22.491 35.8293L25.6744 32.646C26.3155 32.0054 26.3155 30.9664 25.6746 30.3257Z" fill="#333333"/>
<path id="Vector_14" d="M25.6746 30.3257C25.034 29.6851 23.9951 29.6851 23.3543 30.3257L20.171 33.509C19.5302 34.1497 19.5302 35.1886 20.171 35.8293L25.6746 30.3257Z" fill="#707070"/>
</g>
<defs>
<clipPath id="clip0_1353_10034">
<rect width="56" height="56" fill="white"/>
</clipPath>
</defs>
</svg>
