<svg width="56" height="46" viewBox="0 0 56 46" fill="none" xmlns="http://www.w3.org/2000/svg">
<g id="business_15025055 1" clip-path="url(#clip0_1353_9479)">
<g id="Group">
<g id="Group_2">
<g id="Group_3">
<path id="Vector" d="M52.3687 46.0033H3.63125C1.62969 46.0033 0 44.3736 0 42.372V11.5939C0 9.5814 1.62969 7.96265 3.63125 7.96265H52.3578C54.3703 7.96265 55.9891 9.59233 55.9891 11.5939V42.372C56 44.3736 54.3703 46.0033 52.3687 46.0033Z" fill="url(#paint0_linear_1353_9479)"/>
<path id="Vector_2" d="M56 30.2094V34.65C53.375 34.1469 50.8156 33.9282 48.2781 34.1797C43.6953 34.6391 39.4406 36.7829 34.8797 40.9282C34.1469 41.5954 33.4031 42.2844 32.6922 42.9516C31.5984 43.9688 30.5047 44.9969 29.3562 46.0032H22.2688C24.8938 44.2532 27.2453 42.0547 29.7063 39.7579C30.4391 39.0797 31.1828 38.3688 31.9375 37.6907C37.2313 32.8891 42.2844 30.3844 47.8406 29.8266C50.5859 29.5532 53.3641 29.761 56 30.2094ZM29.2141 7.95161C28.8422 19.1844 19.5891 28.1969 8.26875 28.1969C5.3375 28.1969 2.5375 27.5954 0 26.4907V21.6016C2.43906 23.0125 5.26094 23.811 8.26875 23.811C17.1719 23.811 24.4562 16.7563 24.8281 7.94067H29.2141V7.95161Z" fill="url(#paint1_linear_1353_9479)"/>
<g id="Group_4">
<path id="Vector_3" d="M56 40.7314V42.3721C56 44.3846 54.3703 46.0033 52.3687 46.0033H3.63125C1.62969 46.0033 0 44.3736 0 42.3721V40.7314H56Z" fill="url(#paint2_linear_1353_9479)"/>
<path id="Vector_4" d="M51.8984 46.0033H52.3687C54.3812 46.0033 56 44.3736 56 42.372V11.5939C56 9.5814 54.3703 7.96265 52.3687 7.96265H51.8984V46.0033Z" fill="url(#paint3_linear_1353_9479)"/>
<path id="Vector_5" d="M56 13.2235V11.5829C56 9.57041 54.3703 7.95166 52.3687 7.95166H3.63125C1.62969 7.95166 0 9.58135 0 11.5938V13.2345H56V13.2235Z" fill="url(#paint4_linear_1353_9479)"/>
<path id="Vector_6" d="M4.10156 7.95166H3.63125C1.62969 7.95166 0 9.58135 0 11.5938V42.372C0 44.3845 1.62969 46.0032 3.63125 46.0032H4.10156V7.95166Z" fill="url(#paint5_linear_1353_9479)"/>
</g>
</g>
<g id="Group_5">
<path id="Vector_7" d="M11.725 26.4798H6.35469C5.53437 26.4798 4.86719 25.8126 4.86719 24.9923V21.4267C4.86719 20.6064 5.53437 19.9392 6.35469 19.9392H11.725C12.5453 19.9392 13.2125 20.6064 13.2125 21.4267V24.9923C13.2016 25.8126 12.5453 26.4798 11.725 26.4798Z" fill="url(#paint6_linear_1353_9479)"/>
<path id="Vector_8" d="M11.7254 26.3923H6.34414C5.57852 26.3923 4.95508 25.7688 4.95508 25.0032V21.4267C4.95508 20.661 5.57852 20.0376 6.34414 20.0376H11.7254C12.491 20.0376 13.1145 20.661 13.1145 21.4267V25.0032C13.1145 25.7688 12.491 26.3923 11.7254 26.3923Z" fill="url(#paint7_linear_1353_9479)"/>
<path id="Vector_9" d="M13.1145 23.3188V23.1001H10.2707V22.1376L11.0035 21.4048H13.1145C13.1145 21.3282 13.1035 21.2517 13.0926 21.186H10.9488C10.916 21.186 10.8941 21.197 10.8723 21.2188L10.1066 21.9845H9.14414V20.0376H8.92539V21.9845H7.97383L7.2082 21.2188C7.18633 21.197 7.15352 21.186 7.13164 21.186H4.97695C4.96602 21.2517 4.95508 21.3282 4.95508 21.4048H7.08789L7.80977 22.1267V23.1001H4.95508V23.3188H7.80977V24.2923L7.08789 25.0142H4.95508C4.95508 25.0907 4.96602 25.1673 4.97695 25.2329H7.13164C7.16445 25.2329 7.18633 25.222 7.2082 25.2001L7.97383 24.4345H8.92539V26.3813H9.14414V24.4345H10.1066L10.8723 25.2001C10.8941 25.222 10.916 25.2329 10.9488 25.2329H13.0926C13.1035 25.1673 13.1145 25.0907 13.1145 25.0142H11.0035L10.2707 24.2813V23.3188H13.1145ZM10.052 24.2157H8.02852V22.2032H10.052V24.2157Z" fill="url(#paint8_linear_1353_9479)"/>
<g id="Group_6">
<path id="Vector_10" d="M11.7148 20.0266H11.7258C12.4914 20.0266 13.1148 20.65 13.1148 21.4157V24.9922C13.1148 25.7579 12.4914 26.3813 11.7258 26.3813H11.7148V20.0266Z" fill="url(#paint9_linear_1353_9479)"/>
<path id="Vector_11" d="M13.1145 25.0688C13.0816 25.8017 12.4691 26.3923 11.7254 26.3923H6.34414C5.60039 26.3923 4.98789 25.8017 4.95508 25.0688H13.1145Z" fill="url(#paint10_linear_1353_9479)"/>
<path id="Vector_12" d="M6.36602 20.0266H6.34414C5.57852 20.0266 4.95508 20.65 4.95508 21.4157V24.9922C4.95508 25.7579 5.57852 26.3813 6.34414 26.3813H6.35508V20.0266H6.36602Z" fill="url(#paint11_linear_1353_9479)"/>
<path id="Vector_13" d="M13.1145 21.361C13.0816 20.6282 12.4691 20.0376 11.7254 20.0376H6.34414C5.60039 20.0376 4.98789 20.6282 4.95508 21.361H13.1145Z" fill="url(#paint12_linear_1353_9479)"/>
</g>
</g>
<path id="Vector_14" d="M50.1371 26.3156C50.0824 26.3156 50.0386 26.3046 49.9949 26.2828C49.8308 26.2062 49.7652 26.0093 49.8527 25.8453C50.6949 24.1718 50.6949 22.2578 49.8527 20.5843C49.7761 20.4203 49.8418 20.2234 49.9949 20.1468C50.159 20.0703 50.3558 20.1359 50.4324 20.289C51.373 22.1484 51.373 24.2812 50.4324 26.1406C50.3668 26.25 50.2574 26.3156 50.1371 26.3156ZM49.0105 25.6921C49.8965 24.1171 49.8965 22.3015 49.0105 20.7265C48.923 20.5734 48.7261 20.5078 48.5621 20.6062C48.409 20.6937 48.3433 20.8906 48.4418 21.0546C49.2183 22.4328 49.2183 24.0078 48.4418 25.375C48.3543 25.5281 48.409 25.7359 48.5621 25.8234C48.6168 25.8562 48.6715 25.8671 48.7261 25.8671C48.8355 25.8562 48.9449 25.8015 49.0105 25.6921ZM47.6105 25.2546C48.4746 23.9968 48.4746 22.4328 47.6105 21.164C47.5121 21.0109 47.3043 20.9781 47.1511 21.0765C46.998 21.175 46.9652 21.3828 47.0636 21.5359C47.7636 22.564 47.7636 23.8546 47.0636 24.8828C46.9652 25.0359 46.998 25.2328 47.1511 25.3421C47.2058 25.3859 47.2715 25.3968 47.3371 25.3968C47.4465 25.3968 47.5449 25.3421 47.6105 25.2546ZM46.134 24.8281C46.6152 24.3906 46.8777 23.8109 46.8777 23.2093C46.8777 22.6078 46.6152 22.0281 46.134 21.5906C46.0027 21.4703 45.7949 21.4703 45.6746 21.6125C45.5543 21.7437 45.5543 21.9515 45.6965 22.0718C46.0355 22.389 46.2215 22.7937 46.2215 23.2093C46.2215 23.625 46.0355 24.0296 45.6965 24.3468C45.5652 24.4671 45.5543 24.675 45.6746 24.8062C45.7402 24.8718 45.8277 24.9156 45.9152 24.9156C45.9918 24.9156 46.0683 24.8828 46.134 24.8281Z" fill="url(#paint13_linear_1353_9479)"/>
<path id="Vector_15" d="M27.6723 40.4907H5.2832C5.09727 40.4907 4.95508 40.3485 4.95508 40.1626C4.95508 39.9767 5.09727 39.8345 5.2832 39.8345H27.6723C27.8582 39.8345 28.0004 39.9767 28.0004 40.1626C28.0004 40.3485 27.8582 40.4907 27.6723 40.4907Z" fill="url(#paint14_linear_1353_9479)"/>
<path id="Vector_16" d="M50.8049 40.4907H46.583C46.3971 40.4907 46.2549 40.3485 46.2549 40.1626C46.2549 39.9767 46.3971 39.8345 46.583 39.8345H50.8049C50.9908 39.8345 51.133 39.9767 51.133 40.1626C51.133 40.3485 50.9799 40.4907 50.8049 40.4907ZM44.7893 40.1626C44.7893 39.9767 44.6471 39.8345 44.4611 39.8345H40.2393C40.0533 39.8345 39.9111 39.9767 39.9111 40.1626C39.9111 40.3485 40.0533 40.4907 40.2393 40.4907H44.4611C44.6471 40.4907 44.7893 40.3376 44.7893 40.1626Z" fill="url(#paint15_linear_1353_9479)"/>
<path id="Vector_17" d="M5.2832 15.411C5.09727 15.411 4.95508 15.2688 4.95508 15.0829V13.8032C4.95508 13.6173 5.09727 13.4751 5.2832 13.4751C5.46914 13.4751 5.61133 13.6173 5.61133 13.8032V15.0829C5.61133 15.2688 5.46914 15.411 5.2832 15.411ZM7.39414 15.0829V13.8032C7.39414 13.6173 7.25195 13.4751 7.06602 13.4751C6.88008 13.4751 6.73789 13.6173 6.73789 13.8032V15.0829C6.73789 15.2688 6.88008 15.411 7.06602 15.411C7.25195 15.411 7.39414 15.2688 7.39414 15.0829ZM9.18789 15.0829V13.8032C9.18789 13.6173 9.0457 13.4751 8.85977 13.4751C8.67383 13.4751 8.53164 13.6173 8.53164 13.8032V15.0829C8.53164 15.2688 8.67383 15.411 8.85977 15.411C9.03477 15.411 9.18789 15.2688 9.18789 15.0829ZM10.9707 15.0829V13.8032C10.9707 13.6173 10.8285 13.4751 10.6426 13.4751C10.4566 13.4751 10.3145 13.6173 10.3145 13.8032V15.0829C10.3145 15.2688 10.4566 15.411 10.6426 15.411C10.8285 15.411 10.9707 15.2688 10.9707 15.0829Z" fill="url(#paint16_linear_1353_9479)"/>
<g id="Group_7">
<g id="Group_8">
<path id="Vector_18" d="M6.59551 35.7111C5.69863 35.7111 4.96582 34.9783 4.96582 34.0814V32.233C4.96582 31.3361 5.69863 30.6033 6.59551 30.6033C7.49238 30.6033 8.22519 31.3361 8.22519 32.233V34.0814C8.22519 34.9783 7.49238 35.7111 6.59551 35.7111ZM6.59551 31.5876C6.24551 31.5876 5.9502 31.872 5.9502 32.233V34.0814C5.9502 34.4314 6.23457 34.7267 6.59551 34.7267C6.95645 34.7267 7.24082 34.4423 7.24082 34.0814V32.233C7.24082 31.872 6.95645 31.5876 6.59551 31.5876Z" fill="url(#paint17_linear_1353_9479)"/>
</g>
<g id="Group_9">
<path id="Vector_19" d="M11.5066 35.7111C10.6098 35.7111 9.87695 34.9783 9.87695 34.0814V32.233C9.87695 31.3361 10.6098 30.6033 11.5066 30.6033C12.4035 30.6033 13.1363 31.3361 13.1363 32.233V34.0814C13.1363 34.9783 12.4035 35.7111 11.5066 35.7111ZM11.5066 31.5876C11.1566 31.5876 10.8613 31.872 10.8613 32.233V34.0814C10.8613 34.4314 11.1457 34.7267 11.5066 34.7267C11.8676 34.7267 12.152 34.4423 12.152 34.0814V32.233C12.152 31.872 11.8676 31.5876 11.5066 31.5876Z" fill="url(#paint18_linear_1353_9479)"/>
</g>
<g id="Group_10">
<path id="Vector_20" d="M19.2283 35.7111C18.3314 35.7111 17.5986 34.9783 17.5986 34.0814V32.233C17.5986 31.3361 18.3314 30.6033 19.2283 30.6033C20.1252 30.6033 20.858 31.3361 20.858 32.233V34.0814C20.858 34.9783 20.1252 35.7111 19.2283 35.7111ZM19.2283 31.5876C18.8783 31.5876 18.583 31.872 18.583 32.233V34.0814C18.583 34.4314 18.8674 34.7267 19.2283 34.7267C19.5893 34.7267 19.8736 34.4423 19.8736 34.0814V32.233C19.8736 31.872 19.5893 31.5876 19.2283 31.5876Z" fill="url(#paint19_linear_1353_9479)"/>
</g>
<g id="Group_11">
<path id="Vector_21" d="M24.1395 35.7111C23.2426 35.7111 22.5098 34.9783 22.5098 34.0814V32.233C22.5098 31.3361 23.2426 30.6033 24.1395 30.6033C25.0363 30.6033 25.7691 31.3361 25.7691 32.233V34.0814C25.7691 34.9783 25.0363 35.7111 24.1395 35.7111ZM24.1395 31.5876C23.7895 31.5876 23.4941 31.872 23.4941 32.233V34.0814C23.4941 34.4314 23.7785 34.7267 24.1395 34.7267C24.4895 34.7267 24.7848 34.4423 24.7848 34.0814V32.233C24.7848 31.872 24.4895 31.5876 24.1395 31.5876Z" fill="url(#paint20_linear_1353_9479)"/>
</g>
<g id="Group_12">
<path id="Vector_22" d="M31.8611 35.7111C30.9643 35.7111 30.2314 34.9783 30.2314 34.0814V32.233C30.2314 31.3361 30.9643 30.6033 31.8611 30.6033C32.758 30.6033 33.4908 31.3361 33.4908 32.233V34.0814C33.4908 34.9783 32.758 35.7111 31.8611 35.7111ZM31.8611 31.5876C31.5111 31.5876 31.2158 31.872 31.2158 32.233V34.0814C31.2158 34.4314 31.5002 34.7267 31.8611 34.7267C32.2111 34.7267 32.5064 34.4423 32.5064 34.0814V32.233C32.5064 31.872 32.2111 31.5876 31.8611 31.5876Z" fill="url(#paint21_linear_1353_9479)"/>
</g>
<g id="Group_13">
<path id="Vector_23" d="M36.7723 35.7111C35.8754 35.7111 35.1426 34.9783 35.1426 34.0814V32.233C35.1426 31.3361 35.8754 30.6033 36.7723 30.6033C37.6691 30.6033 38.402 31.3361 38.402 32.233V34.0814C38.391 34.9783 37.6691 35.7111 36.7723 35.7111ZM36.7723 31.5876C36.4223 31.5876 36.127 31.872 36.127 32.233V34.0814C36.127 34.4314 36.4113 34.7267 36.7723 34.7267C37.1332 34.7267 37.4176 34.4423 37.4176 34.0814V32.233C37.4066 31.872 37.1223 31.5876 36.7723 31.5876Z" fill="url(#paint22_linear_1353_9479)"/>
</g>
<g id="Group_14">
<path id="Vector_24" d="M44.4939 35.7111C43.5971 35.7111 42.8643 34.9783 42.8643 34.0814V32.233C42.8643 31.3361 43.5971 30.6033 44.4939 30.6033C45.3908 30.6033 46.1236 31.3361 46.1236 32.233V34.0814C46.1127 34.9783 45.3908 35.7111 44.4939 35.7111ZM44.4939 31.5876C44.1439 31.5876 43.8486 31.872 43.8486 32.233V34.0814C43.8486 34.4314 44.133 34.7267 44.4939 34.7267C44.8549 34.7267 45.1393 34.4423 45.1393 34.0814V32.233C45.1283 31.872 44.8439 31.5876 44.4939 31.5876Z" fill="url(#paint23_linear_1353_9479)"/>
</g>
<g id="Group_15">
<path id="Vector_25" d="M49.4051 35.7111C48.5082 35.7111 47.7754 34.9783 47.7754 34.0814V32.233C47.7754 31.3361 48.5082 30.6033 49.4051 30.6033C50.302 30.6033 51.0348 31.3361 51.0348 32.233V34.0814C51.0238 34.9783 50.291 35.7111 49.4051 35.7111ZM49.4051 31.5876C49.0551 31.5876 48.7598 31.872 48.7598 32.233V34.0814C48.7598 34.4314 49.0441 34.7267 49.4051 34.7267C49.766 34.7267 50.0504 34.4423 50.0504 34.0814V32.233C50.0395 31.872 49.7551 31.5876 49.4051 31.5876Z" fill="url(#paint24_linear_1353_9479)"/>
</g>
</g>
</g>
<g id="Group_16">
<path id="Vector_26" d="M56 18.0797V42.3609C56 44.3734 54.3703 45.9922 52.3687 45.9922H27.5188C27.3656 45.8391 27.2781 45.7406 27.2672 45.7297C26.9281 45.4781 26.6984 45.0844 26.6984 44.625V41.5078C26.6984 40.7531 27.3109 40.1406 28.0656 40.1406H29.9359C29.8375 40.0641 29.7609 39.9766 29.6844 39.8781C29.3453 39.6266 29.1156 39.2219 29.1156 38.7734V35.6562C29.1156 35.4922 29.1484 35.3281 29.2031 35.1859C29.1156 35.1094 28.1422 34.1359 28.0547 34.0266C27.7156 33.775 27.4969 33.3813 27.4969 32.9219V29.8047C27.4969 29.6406 27.5297 29.4766 27.5844 29.3344C27.4859 29.2578 26.5234 28.2844 26.4359 28.175C26.0969 27.9234 25.8672 27.5187 25.8672 27.0703V23.9531C25.8672 23.1984 26.4797 22.5859 27.2344 22.5859H29.2031C29.1047 22.5094 29.0281 22.4219 28.9516 22.3234C28.6125 22.0719 28.3828 21.6672 28.3828 21.2188V18.1016C28.3828 17.3469 28.9953 16.7344 29.75 16.7344H34.0266C33.9609 16.6687 31.8281 14.5359 31.7297 14.4375C30.1328 12.9172 29.1375 10.7734 29.1375 8.38906C29.1375 8.24687 29.1375 8.11563 29.1484 7.98438H45.85C47.4797 9.57031 52.4234 14.5031 56 18.0797Z" fill="url(#paint25_linear_1353_9479)"/>
<g id="Group_17">
<g id="Group_18">
<g id="Group_19">
<g id="Group_20">
<path id="Vector_27" d="M37.5262 16.7125C42.1412 16.7125 45.8824 12.9713 45.8824 8.35625C45.8824 3.74122 42.1412 0 37.5262 0C32.9111 0 29.1699 3.74122 29.1699 8.35625C29.1699 12.9713 32.9111 16.7125 37.5262 16.7125Z" fill="url(#paint26_linear_1353_9479)"/>
<g id="Group_21">
<path id="Vector_28" d="M31.1385 10.708L29.9463 11.9002C30.1322 12.283 30.34 12.6549 30.5697 13.0158L31.6963 11.8893C31.4775 11.5064 31.2916 11.1127 31.1385 10.708Z" fill="#FFF5A9"/>
<path id="Vector_29" d="M41.0584 0.787598L39.8662 1.97979C40.2818 2.13291 40.6756 2.31885 41.0365 2.54853L42.1631 1.42197C41.824 1.17041 41.4521 0.962598 41.0584 0.787598Z" fill="#FFF5A9"/>
<path id="Vector_30" d="M32.4729 12.9172L31.3682 14.0219C31.565 14.2407 31.7729 14.4375 31.9916 14.6344L33.0963 13.5297C32.8775 13.3329 32.6697 13.125 32.4729 12.9172Z" fill="#FFF5A9"/>
<path id="Vector_31" d="M43.1809 2.20947L42.0762 3.31416C42.2949 3.51103 42.4918 3.71885 42.6887 3.9376L43.7934 2.83291C43.5965 2.60322 43.3996 2.40635 43.1809 2.20947Z" fill="#FFF5A9"/>
<path id="Vector_32" d="M33.5342 15.7063C33.6873 15.7828 33.8404 15.8703 33.9936 15.9359L35.1857 14.7438C35.0217 14.6781 34.8576 14.6125 34.6936 14.5469L33.5342 15.7063Z" fill="#FFF5A9"/>
<path id="Vector_33" d="M44.8762 4.36426L43.7168 5.52363C43.7934 5.6877 43.859 5.84082 43.9137 6.01582L45.1059 4.82363C45.0293 4.67051 44.9527 4.51738 44.8762 4.36426Z" fill="#FFF5A9"/>
</g>
</g>
<g id="Group_22">
<path id="Vector_34" d="M37.5258 15.1595C41.283 15.1595 44.3289 12.1136 44.3289 8.35635C44.3289 4.59909 41.283 1.55322 37.5258 1.55322C33.7685 1.55322 30.7227 4.59909 30.7227 8.35635C30.7227 12.1136 33.7685 15.1595 37.5258 15.1595Z" fill="url(#paint27_linear_1353_9479)"/>
<path id="Vector_35" d="M37.5258 1.56421C33.7742 1.56421 30.7227 4.60483 30.7227 8.36733C30.7227 10.3798 31.5977 12.1845 32.9867 13.4314C31.9039 12.2283 31.2477 10.6314 31.2477 8.89233C31.2477 5.14077 34.2883 2.08921 38.0508 2.08921C39.8008 2.08921 41.3867 2.74546 42.5898 3.82827C41.343 2.43921 39.5383 1.56421 37.5258 1.56421Z" fill="#F27E00"/>
</g>
</g>
<path id="Vector_36" d="M39.3744 8.60771L38.4229 8.41084V5.2499H39.8119C40.0416 5.2499 40.2166 5.06396 40.2166 4.84521C40.2166 4.61553 40.0307 4.44053 39.8119 4.44053H38.4229V3.82803C38.4229 3.59834 38.2369 3.42334 38.0182 3.42334C37.7994 3.42334 37.6135 3.60928 37.6135 3.82803V4.44053H37.1213C35.8854 4.44053 34.8682 5.44678 34.8682 6.69365C34.8682 7.75459 35.6229 8.68428 36.6619 8.90303L37.6135 9.0999V12.2827H36.2244C35.9947 12.2827 35.8197 12.4687 35.8197 12.6874C35.8197 12.9171 36.0057 13.0921 36.2244 13.0921H37.6135V13.7046C37.6135 13.9343 37.7994 14.1093 38.0182 14.1093C38.2369 14.1093 38.4229 13.9233 38.4229 13.7046V13.0921H38.915C40.151 13.0921 41.1682 12.0858 41.1682 10.839V10.828C41.1682 9.74521 40.4135 8.82646 39.3744 8.60771ZM36.826 8.08272C36.1588 7.95147 35.6775 7.36084 35.6775 6.68271C35.6775 5.89521 36.3229 5.2499 37.1104 5.2499H37.6025V8.24678L36.826 8.08272ZM40.3479 10.828C40.3479 11.6155 39.7025 12.2608 38.915 12.2608H38.4229V9.25303L39.2104 9.41709C39.8666 9.54834 40.3479 10.139 40.3479 10.828Z" fill="#F27E00"/>
<path id="Vector_37" d="M38.8822 8.21411L37.9307 8.01724V4.84536H39.3197C39.5494 4.84536 39.7244 4.65942 39.7244 4.44067C39.7244 4.21099 39.5385 4.03599 39.3197 4.03599H37.9307V3.42349C37.9307 3.1938 37.7447 3.0188 37.526 3.0188C37.3072 3.0188 37.1213 3.20474 37.1213 3.42349V4.03599H36.6291C35.3932 4.03599 34.376 5.04224 34.376 6.28911C34.376 7.35005 35.1307 8.27974 36.1697 8.49849L37.1213 8.69536V11.8782H35.7322C35.5025 11.8782 35.3275 12.0641 35.3275 12.2829C35.3275 12.5125 35.5135 12.6875 35.7322 12.6875H37.1213V13.3C37.1213 13.5297 37.3072 13.7047 37.526 13.7047C37.7447 13.7047 37.9307 13.5188 37.9307 13.3V12.6875H38.4229C39.6588 12.6875 40.676 11.6813 40.676 10.4344V10.4235C40.676 9.36255 39.9213 8.43286 38.8822 8.21411ZM36.3338 7.70005C35.6666 7.5688 35.1854 6.97817 35.1854 6.30005C35.1854 5.51255 35.8307 4.86724 36.6182 4.86724H37.1104V7.86411L36.3338 7.70005ZM39.8666 10.4344C39.8666 11.2219 39.2213 11.8672 38.4338 11.8672H37.9416V8.85942L38.7291 9.02349C39.3744 9.15474 39.8666 9.74536 39.8666 10.4344Z" fill="#FFF5A9"/>
</g>
<g id="Group_23">
<g id="Group_24">
<path id="Vector_38" d="M43.5857 46.0032H28.0654C27.3107 46.0032 26.6982 45.3907 26.6982 44.636V41.5188C26.6982 40.7641 27.3107 40.1516 28.0654 40.1516H43.5857C44.3404 40.1516 44.9529 40.7641 44.9529 41.5188V44.636C44.9529 45.3907 44.3404 46.0032 43.5857 46.0032Z" fill="url(#paint28_linear_1353_9479)"/>
<g id="Group_25">
<path id="Vector_39" d="M44.9529 44.3953V44.6359C44.9529 45.3906 44.3404 46.0031 43.5857 46.0031H28.0654C27.3107 46.0031 26.6982 45.3906 26.6982 44.6359V44.3953H44.9529Z" fill="url(#paint29_linear_1353_9479)"/>
<path id="Vector_40" d="M43.2578 40.1406H43.5859C44.3406 40.1406 44.9531 40.7531 44.9531 41.5078V44.625C44.9531 45.3797 44.3406 45.9922 43.5859 45.9922H43.2578V40.1406Z" fill="url(#paint30_linear_1353_9479)"/>
<path id="Vector_41" d="M44.9529 41.7484V41.5078C44.9529 40.7531 44.3404 40.1406 43.5857 40.1406H28.0654C27.3107 40.1406 26.6982 40.7531 26.6982 41.5078V41.7484H44.9529Z" fill="url(#paint31_linear_1353_9479)"/>
<path id="Vector_42" d="M28.3936 40.1406H28.0654C27.3107 40.1406 26.6982 40.7531 26.6982 41.5078V44.625C26.6982 45.3797 27.3107 45.9922 28.0654 45.9922H28.3936V40.1406Z" fill="url(#paint32_linear_1353_9479)"/>
</g>
</g>
<g id="Group_26">
<path id="Vector_43" d="M46.0135 40.1406H30.4932C29.7385 40.1406 29.126 39.5281 29.126 38.7734V35.6562C29.126 34.9016 29.7385 34.2891 30.4932 34.2891H46.0135C46.7682 34.2891 47.3807 34.9016 47.3807 35.6562V38.7734C47.3807 39.5281 46.7682 40.1406 46.0135 40.1406Z" fill="url(#paint33_linear_1353_9479)"/>
<g id="Group_27">
<path id="Vector_44" d="M47.3807 38.5327V38.7733C47.3807 39.528 46.7682 40.1405 46.0135 40.1405H30.4932C29.7385 40.1405 29.126 39.528 29.126 38.7733V38.5327H47.3807Z" fill="url(#paint34_linear_1353_9479)"/>
<path id="Vector_45" d="M45.6855 34.2891H46.0137C46.7684 34.2891 47.3809 34.9016 47.3809 35.6562V38.7734C47.3809 39.5281 46.7684 40.1406 46.0137 40.1406H45.6855V34.2891Z" fill="url(#paint35_linear_1353_9479)"/>
<path id="Vector_46" d="M47.3807 35.8969V35.6562C47.3807 34.9016 46.7682 34.2891 46.0135 34.2891H30.4932C29.7385 34.2891 29.126 34.9016 29.126 35.6562V35.8969H47.3807Z" fill="url(#paint36_linear_1353_9479)"/>
<path id="Vector_47" d="M30.8213 34.2891H30.4932C29.7385 34.2891 29.126 34.9016 29.126 35.6562V38.7734C29.126 39.5281 29.7385 40.1406 30.4932 40.1406H30.8213V34.2891Z" fill="url(#paint37_linear_1353_9479)"/>
</g>
</g>
<g id="Group_28">
<path id="Vector_48" d="M44.3846 34.2893H28.8643C28.1096 34.2893 27.4971 33.6768 27.4971 32.9221V29.8049C27.4971 29.0502 28.1096 28.4377 28.8643 28.4377H44.3846C45.1393 28.4377 45.7518 29.0502 45.7518 29.8049V32.9221C45.7518 33.6768 45.1393 34.2893 44.3846 34.2893Z" fill="url(#paint38_linear_1353_9479)"/>
<g id="Group_29">
<path id="Vector_49" d="M45.7518 32.6814V32.922C45.7518 33.6767 45.1393 34.2892 44.3846 34.2892H28.8643C28.1096 34.2892 27.4971 33.6767 27.4971 32.922V32.6814H45.7518Z" fill="url(#paint39_linear_1353_9479)"/>
<path id="Vector_50" d="M44.0566 28.4268H44.3848C45.1395 28.4268 45.752 29.0393 45.752 29.7939V32.9111C45.752 33.6658 45.1395 34.2783 44.3848 34.2783H44.0566V28.4268Z" fill="url(#paint40_linear_1353_9479)"/>
<path id="Vector_51" d="M45.7518 30.0346V29.7939C45.7518 29.0393 45.1393 28.4268 44.3846 28.4268H28.8643C28.1096 28.4268 27.4971 29.0393 27.4971 29.7939V30.0346H45.7518Z" fill="url(#paint41_linear_1353_9479)"/>
<path id="Vector_52" d="M29.1924 28.4268H28.8643C28.1096 28.4268 27.4971 29.0393 27.4971 29.7939V32.9111C27.4971 33.6658 28.1096 34.2783 28.8643 34.2783H29.1924V28.4268Z" fill="url(#paint42_linear_1353_9479)"/>
</g>
</g>
<g id="Group_30">
<path id="Vector_53" d="M42.7545 28.4268H27.2451C26.4904 28.4268 25.8779 27.8143 25.8779 27.0596V23.9424C25.8779 23.1877 26.4904 22.5752 27.2451 22.5752H42.7654C43.5201 22.5752 44.1326 23.1877 44.1326 23.9424V27.0596C44.1326 27.8143 43.5201 28.4268 42.7545 28.4268Z" fill="url(#paint43_linear_1353_9479)"/>
<g id="Group_31">
<path id="Vector_54" d="M44.1326 26.8188V27.0595C44.1326 27.8142 43.5201 28.4267 42.7654 28.4267H27.2451C26.4904 28.4267 25.8779 27.8142 25.8779 27.0595V26.8188H44.1326Z" fill="url(#paint44_linear_1353_9479)"/>
<path id="Vector_55" d="M42.4375 22.5642H42.7656C43.5203 22.5642 44.1328 23.1767 44.1328 23.9314V27.0486C44.1328 27.8033 43.5203 28.4158 42.7656 28.4158H42.4375V22.5642Z" fill="url(#paint45_linear_1353_9479)"/>
<path id="Vector_56" d="M44.1326 24.172V23.9314C44.1326 23.1767 43.5201 22.5642 42.7654 22.5642H27.2451C26.4904 22.5642 25.8779 23.1767 25.8779 23.9314V24.172H44.1326Z" fill="url(#paint46_linear_1353_9479)"/>
<path id="Vector_57" d="M27.5732 22.5642H27.2451C26.4904 22.5642 25.8779 23.1767 25.8779 23.9314V27.0486C25.8779 27.8033 26.4904 28.4158 27.2451 28.4158H27.5732V22.5642Z" fill="url(#paint47_linear_1353_9479)"/>
</g>
</g>
<g id="Group_32">
<path id="Vector_58" d="M45.2809 22.5642H29.7715C29.0168 22.5642 28.4043 21.9517 28.4043 21.197V18.0798C28.4043 17.3251 29.0168 16.7126 29.7715 16.7126H45.2809C46.0355 16.7126 46.648 17.3251 46.648 18.0798V21.197C46.648 21.9517 46.0355 22.5642 45.2809 22.5642Z" fill="url(#paint48_linear_1353_9479)"/>
<g id="Group_33">
<path id="Vector_59" d="M46.648 20.9563V21.1969C46.648 21.9516 46.0355 22.5641 45.2809 22.5641H29.7715C29.0168 22.5641 28.4043 21.9516 28.4043 21.1969V20.9563H46.648Z" fill="url(#paint49_linear_1353_9479)"/>
<path id="Vector_60" d="M44.9531 16.7017H45.2812C46.0359 16.7017 46.6484 17.3142 46.6484 18.0688V21.186C46.6484 21.9407 46.0359 22.5532 45.2812 22.5532H44.9531V16.7017Z" fill="url(#paint50_linear_1353_9479)"/>
<path id="Vector_61" d="M46.648 18.3095V18.0688C46.648 17.3142 46.0355 16.7017 45.2809 16.7017H29.7715C29.0168 16.7017 28.4043 17.3142 28.4043 18.0688V18.3095H46.648Z" fill="url(#paint51_linear_1353_9479)"/>
<path id="Vector_62" d="M30.0889 16.7017H29.7607C29.0061 16.7017 28.3936 17.3142 28.3936 18.0688V21.186C28.3936 21.9407 29.0061 22.5532 29.7607 22.5532H30.0889V16.7017Z" fill="url(#paint52_linear_1353_9479)"/>
</g>
</g>
</g>
</g>
</g>
</g>
</g>
<defs>
<linearGradient id="paint0_linear_1353_9479" x1="5.77237" y1="4.75304" x2="48.8212" y2="47.8018" gradientUnits="userSpaceOnUse">
<stop stop-color="#FFB18C"/>
<stop offset="0.3254" stop-color="#FF8462"/>
<stop offset="1" stop-color="#FF1E00"/>
</linearGradient>
<linearGradient id="paint1_linear_1353_9479" x1="8.19897" y1="8.55361" x2="49.1393" y2="49.494" gradientUnits="userSpaceOnUse">
<stop stop-color="#FFCDB5"/>
<stop offset="0.3406" stop-color="#FFA188"/>
<stop offset="1" stop-color="#FF4229"/>
</linearGradient>
<linearGradient id="paint2_linear_1353_9479" x1="27.9999" y1="46.2641" x2="27.9999" y2="42.652" gradientUnits="userSpaceOnUse">
<stop offset="2.26926e-06" stop-color="#EB281E"/>
<stop offset="1" stop-color="#EB281E" stop-opacity="0"/>
</linearGradient>
<linearGradient id="paint3_linear_1353_9479" x1="56.0514" y1="26.9806" x2="52.5692" y2="26.9806" gradientUnits="userSpaceOnUse">
<stop offset="2.26926e-06" stop-color="#EB281E"/>
<stop offset="1" stop-color="#EB281E" stop-opacity="0"/>
</linearGradient>
<linearGradient id="paint4_linear_1353_9479" x1="27.9999" y1="7.69704" x2="27.9999" y2="11.3093" gradientUnits="userSpaceOnUse">
<stop offset="1.7215e-06" stop-color="#FFCFC2"/>
<stop offset="1" stop-color="#FFCFC2" stop-opacity="0"/>
</linearGradient>
<linearGradient id="paint5_linear_1353_9479" x1="-0.051625" y1="26.9805" x2="2.99852" y2="26.9805" gradientUnits="userSpaceOnUse">
<stop offset="1.7215e-06" stop-color="#FFCFC2"/>
<stop offset="1" stop-color="#FFCFC2" stop-opacity="0"/>
</linearGradient>
<linearGradient id="paint6_linear_1353_9479" x1="2.33352" y1="16.5063" x2="14.1364" y2="28.309" gradientUnits="userSpaceOnUse">
<stop stop-color="#B791FF"/>
<stop offset="1" stop-color="#7024EA"/>
</linearGradient>
<linearGradient id="paint7_linear_1353_9479" x1="5.40505" y1="20.4412" x2="12.6842" y2="25.9891" gradientUnits="userSpaceOnUse">
<stop stop-color="#FFED81"/>
<stop offset="0.2348" stop-color="#FFD968"/>
<stop offset="0.7302" stop-color="#FFA629"/>
<stop offset="1" stop-color="#FF8804"/>
</linearGradient>
<linearGradient id="paint8_linear_1353_9479" x1="6.65903" y1="26.4663" x2="11.4585" y2="19.8946" gradientUnits="userSpaceOnUse">
<stop stop-color="#EFA33D"/>
<stop offset="1" stop-color="#A05223"/>
</linearGradient>
<linearGradient id="paint9_linear_1353_9479" x1="13.1193" y1="23.2098" x2="12.1879" y2="23.2098" gradientUnits="userSpaceOnUse">
<stop stop-color="#FF8804"/>
<stop offset="1" stop-color="#FF8804" stop-opacity="0"/>
</linearGradient>
<linearGradient id="paint10_linear_1353_9479" x1="9.03761" y1="26.3762" x2="9.03761" y2="25.3692" gradientUnits="userSpaceOnUse">
<stop stop-color="#FF8804"/>
<stop offset="1" stop-color="#FF8804" stop-opacity="0"/>
</linearGradient>
<linearGradient id="paint11_linear_1353_9479" x1="4.95628" y1="23.2098" x2="5.75133" y2="23.2098" gradientUnits="userSpaceOnUse">
<stop stop-color="#FFF0A9"/>
<stop offset="1" stop-color="#FFF0A9" stop-opacity="0"/>
</linearGradient>
<linearGradient id="paint12_linear_1353_9479" x1="9.03761" y1="20.0434" x2="9.03761" y2="21.0503" gradientUnits="userSpaceOnUse">
<stop stop-color="#FFF0A9"/>
<stop offset="1" stop-color="#FFF0A9" stop-opacity="0"/>
</linearGradient>
<linearGradient id="paint13_linear_1353_9479" x1="69.327" y1="23.2097" x2="69.3817" y2="23.2097" gradientUnits="userSpaceOnUse">
<stop stop-color="white"/>
<stop offset="1" stop-color="#C4CBFF"/>
</linearGradient>
<linearGradient id="paint14_linear_1353_9479" x1="69.3278" y1="40.1616" x2="69.3825" y2="40.1616" gradientUnits="userSpaceOnUse">
<stop stop-color="#C4CBFF"/>
<stop offset="0.00613697" stop-color="#C5CCFF"/>
<stop offset="0.5251" stop-color="white"/>
<stop offset="1" stop-color="#C4CBFF"/>
</linearGradient>
<linearGradient id="paint15_linear_1353_9479" x1="69.3277" y1="40.1616" x2="69.3823" y2="40.1616" gradientUnits="userSpaceOnUse">
<stop stop-color="#C4CBFF"/>
<stop offset="0.5251" stop-color="#E9EDFF"/>
<stop offset="1" stop-color="#C4CBFF"/>
</linearGradient>
<linearGradient id="paint16_linear_1353_9479" x1="69.3279" y1="14.4421" x2="69.3825" y2="14.4421" gradientUnits="userSpaceOnUse">
<stop stop-color="white"/>
<stop offset="1" stop-color="#C4CBFF"/>
</linearGradient>
<linearGradient id="paint17_linear_1353_9479" x1="4.97588" y1="33.156" x2="8.22585" y2="33.156" gradientUnits="userSpaceOnUse">
<stop stop-color="#C4CBFF"/>
<stop offset="0.00613697" stop-color="#C5CCFF"/>
<stop offset="0.5251" stop-color="white"/>
<stop offset="1" stop-color="#C4CBFF"/>
</linearGradient>
<linearGradient id="paint18_linear_1353_9479" x1="9.88395" y1="33.156" x2="13.1339" y2="33.156" gradientUnits="userSpaceOnUse">
<stop stop-color="#C4CBFF"/>
<stop offset="0.00613697" stop-color="#C5CCFF"/>
<stop offset="0.5251" stop-color="white"/>
<stop offset="1" stop-color="#C4CBFF"/>
</linearGradient>
<linearGradient id="paint19_linear_1353_9479" x1="17.6062" y1="33.156" x2="20.856" y2="33.156" gradientUnits="userSpaceOnUse">
<stop stop-color="#C4CBFF"/>
<stop offset="0.00613697" stop-color="#C5CCFF"/>
<stop offset="0.5251" stop-color="white"/>
<stop offset="1" stop-color="#C4CBFF"/>
</linearGradient>
<linearGradient id="paint20_linear_1353_9479" x1="22.5143" y1="33.156" x2="25.7642" y2="33.156" gradientUnits="userSpaceOnUse">
<stop stop-color="#C4CBFF"/>
<stop offset="0.00613697" stop-color="#C5CCFF"/>
<stop offset="0.5251" stop-color="white"/>
<stop offset="1" stop-color="#C4CBFF"/>
</linearGradient>
<linearGradient id="paint21_linear_1353_9479" x1="30.2364" y1="33.156" x2="33.4863" y2="33.156" gradientUnits="userSpaceOnUse">
<stop stop-color="#C4CBFF"/>
<stop offset="0.00613697" stop-color="#C5CCFF"/>
<stop offset="0.5251" stop-color="white"/>
<stop offset="1" stop-color="#C4CBFF"/>
</linearGradient>
<linearGradient id="paint22_linear_1353_9479" x1="35.1445" y1="33.156" x2="38.3945" y2="33.156" gradientUnits="userSpaceOnUse">
<stop stop-color="#C4CBFF"/>
<stop offset="0.00613697" stop-color="#C5CCFF"/>
<stop offset="0.5251" stop-color="white"/>
<stop offset="1" stop-color="#C4CBFF"/>
</linearGradient>
<linearGradient id="paint23_linear_1353_9479" x1="42.8667" y1="33.156" x2="46.1166" y2="33.156" gradientUnits="userSpaceOnUse">
<stop stop-color="#C4CBFF"/>
<stop offset="0.00613697" stop-color="#C5CCFF"/>
<stop offset="0.5251" stop-color="white"/>
<stop offset="1" stop-color="#C4CBFF"/>
</linearGradient>
<linearGradient id="paint24_linear_1353_9479" x1="47.7747" y1="33.156" x2="51.0247" y2="33.156" gradientUnits="userSpaceOnUse">
<stop stop-color="#C4CBFF"/>
<stop offset="0.00613697" stop-color="#C5CCFF"/>
<stop offset="0.5251" stop-color="white"/>
<stop offset="1" stop-color="#C4CBFF"/>
</linearGradient>
<linearGradient id="paint25_linear_1353_9479" x1="25.2102" y1="15.5025" x2="41.7403" y2="32.0327" gradientUnits="userSpaceOnUse">
<stop offset="2.26926e-06" stop-color="#EB281E"/>
<stop offset="1" stop-color="#EB281E" stop-opacity="0"/>
</linearGradient>
<linearGradient id="paint26_linear_1353_9479" x1="31.5777" y1="2.41511" x2="43.6362" y2="14.4736" gradientUnits="userSpaceOnUse">
<stop stop-color="#FFF5A9"/>
<stop offset="0.0059793" stop-color="#FFF5A8"/>
<stop offset="0.4891" stop-color="#FFDA58"/>
<stop offset="0.8318" stop-color="#FFC925"/>
<stop offset="1" stop-color="#FFC312"/>
</linearGradient>
<linearGradient id="paint27_linear_1353_9479" x1="31.6503" y1="2.48827" x2="42.6549" y2="13.4928" gradientUnits="userSpaceOnUse">
<stop stop-color="#FF8804"/>
<stop offset="1" stop-color="#FFED81"/>
</linearGradient>
<linearGradient id="paint28_linear_1353_9479" x1="26.8989" y1="41.4932" x2="45.2354" y2="44.7427" gradientUnits="userSpaceOnUse">
<stop stop-color="#FFED81"/>
<stop offset="0.2348" stop-color="#FFD968"/>
<stop offset="0.7302" stop-color="#FFA629"/>
<stop offset="1" stop-color="#FF8804"/>
</linearGradient>
<linearGradient id="paint29_linear_1353_9479" x1="35.8279" y1="46.3756" x2="35.8279" y2="44.7749" gradientUnits="userSpaceOnUse">
<stop offset="1.87801e-06" stop-color="#FF6B06"/>
<stop offset="1" stop-color="#FF6B06" stop-opacity="0"/>
</linearGradient>
<linearGradient id="paint30_linear_1353_9479" x1="45.1835" y1="43.0755" x2="43.5877" y2="43.0755" gradientUnits="userSpaceOnUse">
<stop offset="1.87801e-06" stop-color="#FF6B06"/>
<stop offset="1" stop-color="#FF6B06" stop-opacity="0"/>
</linearGradient>
<linearGradient id="paint31_linear_1353_9479" x1="35.8279" y1="40.1256" x2="35.8279" y2="41.7265" gradientUnits="userSpaceOnUse">
<stop offset="2.50401e-06" stop-color="#FFF2BD"/>
<stop offset="1" stop-color="#FFF2BD" stop-opacity="0"/>
</linearGradient>
<linearGradient id="paint32_linear_1353_9479" x1="26.7145" y1="43.0755" x2="28.3103" y2="43.0755" gradientUnits="userSpaceOnUse">
<stop offset="2.50401e-06" stop-color="#FFF2BD"/>
<stop offset="1" stop-color="#FFF2BD" stop-opacity="0"/>
</linearGradient>
<linearGradient id="paint33_linear_1353_9479" x1="29.3222" y1="35.6332" x2="47.6588" y2="38.8827" gradientUnits="userSpaceOnUse">
<stop stop-color="#FFED81"/>
<stop offset="0.2348" stop-color="#FFD968"/>
<stop offset="0.7302" stop-color="#FFA629"/>
<stop offset="1" stop-color="#FF8804"/>
</linearGradient>
<linearGradient id="paint34_linear_1353_9479" x1="38.2511" y1="40.5156" x2="38.2511" y2="38.9149" gradientUnits="userSpaceOnUse">
<stop offset="1.87801e-06" stop-color="#FF6B06"/>
<stop offset="1" stop-color="#FF6B06" stop-opacity="0"/>
</linearGradient>
<linearGradient id="paint35_linear_1353_9479" x1="47.6067" y1="37.2155" x2="46.0109" y2="37.2155" gradientUnits="userSpaceOnUse">
<stop offset="1.87801e-06" stop-color="#FF6B06"/>
<stop offset="1" stop-color="#FF6B06" stop-opacity="0"/>
</linearGradient>
<linearGradient id="paint36_linear_1353_9479" x1="38.2511" y1="34.2657" x2="38.2511" y2="35.8665" gradientUnits="userSpaceOnUse">
<stop offset="2.50401e-06" stop-color="#FFF2BD"/>
<stop offset="1" stop-color="#FFF2BD" stop-opacity="0"/>
</linearGradient>
<linearGradient id="paint37_linear_1353_9479" x1="29.1379" y1="37.2155" x2="30.7337" y2="37.2155" gradientUnits="userSpaceOnUse">
<stop offset="2.50401e-06" stop-color="#FFF2BD"/>
<stop offset="1" stop-color="#FFF2BD" stop-opacity="0"/>
</linearGradient>
<linearGradient id="paint38_linear_1353_9479" x1="27.6981" y1="29.7734" x2="46.0346" y2="33.023" gradientUnits="userSpaceOnUse">
<stop stop-color="#FFED81"/>
<stop offset="0.2348" stop-color="#FFD968"/>
<stop offset="0.7302" stop-color="#FFA629"/>
<stop offset="1" stop-color="#FF8804"/>
</linearGradient>
<linearGradient id="paint39_linear_1353_9479" x1="36.6269" y1="34.6558" x2="36.6269" y2="33.0551" gradientUnits="userSpaceOnUse">
<stop offset="1.87801e-06" stop-color="#FF6B06"/>
<stop offset="1" stop-color="#FF6B06" stop-opacity="0"/>
</linearGradient>
<linearGradient id="paint40_linear_1353_9479" x1="45.9826" y1="31.3557" x2="44.3868" y2="31.3557" gradientUnits="userSpaceOnUse">
<stop offset="1.87801e-06" stop-color="#FF6B06"/>
<stop offset="1" stop-color="#FF6B06" stop-opacity="0"/>
</linearGradient>
<linearGradient id="paint41_linear_1353_9479" x1="36.6269" y1="28.4059" x2="36.6269" y2="30.0067" gradientUnits="userSpaceOnUse">
<stop offset="2.50401e-06" stop-color="#FFF2BD"/>
<stop offset="1" stop-color="#FFF2BD" stop-opacity="0"/>
</linearGradient>
<linearGradient id="paint42_linear_1353_9479" x1="27.5137" y1="31.3557" x2="29.1095" y2="31.3557" gradientUnits="userSpaceOnUse">
<stop offset="2.50401e-06" stop-color="#FFF2BD"/>
<stop offset="1" stop-color="#FFF2BD" stop-opacity="0"/>
</linearGradient>
<linearGradient id="paint43_linear_1353_9479" x1="26.0727" y1="23.9134" x2="44.4092" y2="27.1629" gradientUnits="userSpaceOnUse">
<stop stop-color="#FFED81"/>
<stop offset="0.2348" stop-color="#FFD968"/>
<stop offset="0.7302" stop-color="#FFA629"/>
<stop offset="1" stop-color="#FF8804"/>
</linearGradient>
<linearGradient id="paint44_linear_1353_9479" x1="35.0016" y1="28.7958" x2="35.0016" y2="27.195" gradientUnits="userSpaceOnUse">
<stop offset="1.87801e-06" stop-color="#FF6B06"/>
<stop offset="1" stop-color="#FF6B06" stop-opacity="0"/>
</linearGradient>
<linearGradient id="paint45_linear_1353_9479" x1="44.3571" y1="25.4957" x2="42.7614" y2="25.4957" gradientUnits="userSpaceOnUse">
<stop offset="1.87801e-06" stop-color="#FF6B06"/>
<stop offset="1" stop-color="#FF6B06" stop-opacity="0"/>
</linearGradient>
<linearGradient id="paint46_linear_1353_9479" x1="35.0016" y1="22.5458" x2="35.0016" y2="24.1465" gradientUnits="userSpaceOnUse">
<stop offset="2.50401e-06" stop-color="#FFF2BD"/>
<stop offset="1" stop-color="#FFF2BD" stop-opacity="0"/>
</linearGradient>
<linearGradient id="paint47_linear_1353_9479" x1="25.8883" y1="25.4957" x2="27.4841" y2="25.4957" gradientUnits="userSpaceOnUse">
<stop offset="2.50401e-06" stop-color="#FFF2BD"/>
<stop offset="1" stop-color="#FFF2BD" stop-opacity="0"/>
</linearGradient>
<linearGradient id="paint48_linear_1353_9479" x1="28.595" y1="18.0534" x2="46.9317" y2="21.3029" gradientUnits="userSpaceOnUse">
<stop stop-color="#FFED81"/>
<stop offset="0.2348" stop-color="#FFD968"/>
<stop offset="0.7302" stop-color="#FFA629"/>
<stop offset="1" stop-color="#FF8804"/>
</linearGradient>
<linearGradient id="paint49_linear_1353_9479" x1="37.524" y1="22.9358" x2="37.524" y2="21.335" gradientUnits="userSpaceOnUse">
<stop offset="1.87801e-06" stop-color="#FF6B06"/>
<stop offset="1" stop-color="#FF6B06" stop-opacity="0"/>
</linearGradient>
<linearGradient id="paint50_linear_1353_9479" x1="46.8798" y1="19.6356" x2="45.284" y2="19.6356" gradientUnits="userSpaceOnUse">
<stop offset="1.87801e-06" stop-color="#FF6B06"/>
<stop offset="1" stop-color="#FF6B06" stop-opacity="0"/>
</linearGradient>
<linearGradient id="paint51_linear_1353_9479" x1="37.524" y1="16.6858" x2="37.524" y2="18.2865" gradientUnits="userSpaceOnUse">
<stop offset="2.50401e-06" stop-color="#FFF2BD"/>
<stop offset="1" stop-color="#FFF2BD" stop-opacity="0"/>
</linearGradient>
<linearGradient id="paint52_linear_1353_9479" x1="28.4109" y1="19.6356" x2="30.0067" y2="19.6356" gradientUnits="userSpaceOnUse">
<stop offset="2.50401e-06" stop-color="#FFF2BD"/>
<stop offset="1" stop-color="#FFF2BD" stop-opacity="0"/>
</linearGradient>
<clipPath id="clip0_1353_9479">
<rect width="56" height="46.0031" fill="white"/>
</clipPath>
</defs>
</svg>
