<svg width="56" height="63" viewBox="0 0 56 63" fill="none" xmlns="http://www.w3.org/2000/svg">
<g id="synthetic_3099297 1" filter="url(#filter0_d_1353_9577)">
<g id="Group">
<g id="Group_2">
<path id="Vector" d="M13.125 42.875H42.875V44.625H13.125V42.875Z" fill="#5FAA46"/>
</g>
<g id="Group_3">
<path id="Vector_2" d="M27.5302 44.4882L8.28023 32.2382C8.0278 32.0776 7.875 31.7991 7.875 31.5V17.5H9.625V31.0196L28.4698 43.0118L27.5302 44.4882Z" fill="#5FAA46"/>
</g>
<g id="Group_4">
<path id="Vector_3" d="M8.75 21C10.1997 21 11.375 19.8247 11.375 18.375C11.375 16.9253 10.1997 15.75 8.75 15.75C7.30025 15.75 6.125 16.9253 6.125 18.375C6.125 19.8247 7.30025 21 8.75 21Z" fill="#555A6E"/>
<path id="Vector_4" d="M8.75 21.875C6.82008 21.875 5.25 20.3049 5.25 18.375C5.25 16.4451 6.82008 14.875 8.75 14.875C10.6799 14.875 12.25 16.4451 12.25 18.375C12.25 20.3049 10.6799 21.875 8.75 21.875ZM8.75 16.625C7.78509 16.625 7 17.4101 7 18.375C7 19.3399 7.78509 20.125 8.75 20.125C9.71491 20.125 10.5 19.3399 10.5 18.375C10.5 17.4101 9.71491 16.625 8.75 16.625Z" fill="#91C83C"/>
</g>
<g id="Group_5">
<path id="Vector_5" d="M28.4698 44.4882L27.5303 43.0118L46.375 31.0196V17.5H48.125V31.5C48.125 31.7991 47.9722 32.0776 47.7198 32.2382L28.4698 44.4882Z" fill="#5FAA46"/>
</g>
<g id="Group_6">
<path id="Vector_6" d="M26.251 16.6238H29.751V43.75H26.251V16.6238Z" fill="#5FAA46"/>
</g>
<g id="Group_7">
<g id="Group_8">
<path id="Vector_7" d="M28 30.625C35.732 30.625 42 24.357 42 16.625C42 8.89301 35.732 2.625 28 2.625C20.268 2.625 14 8.89301 14 16.625C14 24.357 20.268 30.625 28 30.625Z" fill="#91C83C"/>
</g>
<g id="Group_9">
<path id="Vector_8" d="M28 27.125C33.799 27.125 38.5 22.424 38.5 16.625C38.5 10.826 33.799 6.125 28 6.125C22.201 6.125 17.5 10.826 17.5 16.625C17.5 22.424 22.201 27.125 28 27.125Z" fill="#D7E6F0"/>
</g>
<g id="Group_10">
<g id="Group_11">
<path id="Vector_9" d="M26.2949 23.6049L22.9959 23.6237C22.4658 23.6268 21.9567 23.4175 21.582 23.0427C21.21 22.6707 21.001 22.1662 21.001 21.6401V18.3784C21.001 13.5459 24.9185 9.62842 29.751 9.62842H33.0102C33.5379 9.62842 34.0439 9.83798 34.417 10.2112C34.7909 10.585 35.0005 11.0922 34.9998 11.6208L34.9952 14.8675C34.9883 19.6757 31.1031 23.5776 26.2949 23.6049Z" fill="#5FAA46"/>
</g>
<g id="Group_12">
<path id="Vector_10" d="M34.417 10.2113L34.4153 10.2095C34.0418 9.836 33.5352 9.62622 33.007 9.62622H29.751C24.9185 9.62622 21.001 13.5437 21.001 18.3762V21.6322C21.001 22.1604 21.2108 22.667 21.5843 23.0405L34.417 10.2113Z" fill="#91C83C"/>
</g>
<path id="Vector_11" d="M34.7242 9.90019C34.5535 9.72923 34.2762 9.72923 34.1056 9.90019L28.4382 15.5677V12.2489C28.4382 12.0073 28.2423 11.8114 28.0007 11.8114C27.7591 11.8114 27.5632 12.0073 27.5632 12.2489V16.4427L24.9382 19.0677V15.7489C24.9382 15.5073 24.7423 15.3114 24.5007 15.3114C24.2591 15.3114 24.0632 15.5073 24.0632 15.7489V19.9428L21.2747 22.7313C21.1037 22.9021 21.1037 23.1792 21.2747 23.3499C21.36 23.4353 21.4721 23.4781 21.584 23.4781C21.6959 23.4781 21.808 23.4353 21.8933 23.3499L24.6818 20.5614H28.8757C29.1173 20.5614 29.3132 20.3655 29.3132 20.1239C29.3132 19.8823 29.1173 19.6864 28.8757 19.6864H25.5568L28.1818 17.0614H32.3757C32.6173 17.0614 32.8132 16.8655 32.8132 16.6239C32.8132 16.3823 32.6173 16.1864 32.3757 16.1864H29.0568L34.7243 10.5189C34.8951 10.348 34.8951 10.0709 34.7242 9.90019Z" fill="#AFE65A"/>
</g>
</g>
<g id="Group_13">
<path id="Vector_12" d="M28 54.25C33.799 54.25 38.5 49.549 38.5 43.75C38.5 37.951 33.799 33.25 28 33.25C22.201 33.25 17.5 37.951 17.5 43.75C17.5 49.549 22.201 54.25 28 54.25Z" fill="#5FAA46"/>
</g>
<g id="Group_14">
<path id="Vector_13" d="M21.8128 51.6871C21.3649 51.6871 20.9171 51.5161 20.5754 51.1744C16.4814 47.0805 16.4814 40.4191 20.5754 36.3252C24.6693 32.2311 31.3307 32.2311 35.4246 36.3252C36.1081 37.0086 36.1081 38.1167 35.4246 38.8001C34.7412 39.4834 33.6331 39.4834 32.9498 38.8001C30.2205 36.0708 25.7795 36.0708 23.0502 38.8001C20.321 41.5294 20.321 45.9702 23.0502 48.6996C23.7337 49.383 23.7337 50.491 23.0502 51.1744C22.7084 51.5162 22.2605 51.6871 21.8128 51.6871Z" fill="#91C83C"/>
</g>
<g id="Group_15">
<path id="Vector_14" d="M28 50.75C31.866 50.75 35 47.616 35 43.75C35 39.884 31.866 36.75 28 36.75C24.134 36.75 21 39.884 21 43.75C21 47.616 24.134 50.75 28 50.75Z" fill="#D7E6F0"/>
</g>
<g id="Group_16">
<g id="Group_17">
<path id="Vector_15" d="M29.75 39.8113H26.25C26.0084 39.8113 25.8125 39.6154 25.8125 39.3738C25.8125 39.1322 26.0084 38.9363 26.25 38.9363H29.75C29.9916 38.9363 30.1875 39.1322 30.1875 39.3738C30.1875 39.6154 29.9916 39.8113 29.75 39.8113Z" fill="#5AD7FF"/>
</g>
<g id="Group_18">
<path id="Vector_16" d="M29.75 44.1875H26.25C26.0084 44.1875 25.8125 43.9916 25.8125 43.75C25.8125 43.5084 26.0084 43.3125 26.25 43.3125H29.75C29.9916 43.3125 30.1875 43.5084 30.1875 43.75C30.1875 43.9916 29.9916 44.1875 29.75 44.1875Z" fill="#5AD7FF"/>
</g>
<g id="Group_19">
<path id="Vector_17" d="M29.75 48.5686H26.25C26.0084 48.5686 25.8125 48.3727 25.8125 48.1311C25.8125 47.8895 26.0084 47.6936 26.25 47.6936H29.75C29.9916 47.6936 30.1875 47.8895 30.1875 48.1311C30.1875 48.3727 29.9916 48.5686 29.75 48.5686Z" fill="#5AD7FF"/>
</g>
<path id="Vector_18" d="M30.1875 39.4501V39.375C30.1875 39.1334 29.9916 38.9375 29.75 38.9375C29.5084 38.9375 29.3125 39.1334 29.3125 39.375V39.4501C29.3125 40.0215 28.8369 40.6036 28 41.0678C27.1631 40.6037 26.6875 40.0215 26.6875 39.4501V39.375C26.6875 39.1334 26.4916 38.9375 26.25 38.9375C26.0084 38.9375 25.8125 39.1334 25.8125 39.375V39.4501C25.8125 40.238 26.2771 40.971 27.1365 41.5625C26.2771 42.154 25.8125 42.887 25.8125 43.6749V43.825C25.8125 44.6129 26.2771 45.3459 27.1365 45.9374C26.2771 46.529 25.8125 47.262 25.8125 48.0499V48.125C25.8125 48.3666 26.0084 48.5625 26.25 48.5625C26.4916 48.5625 26.6875 48.3666 26.6875 48.125V48.0499C26.6875 47.4785 27.1631 46.8964 28 46.4322C28.8369 46.8963 29.3125 47.4785 29.3125 48.0499V48.125C29.3125 48.3666 29.5084 48.5625 29.75 48.5625C29.9916 48.5625 30.1875 48.3666 30.1875 48.125V48.0499C30.1875 47.262 29.7229 46.529 28.8635 45.9375C29.7229 45.346 30.1875 44.613 30.1875 43.8251V43.675C30.1875 42.8871 29.7229 42.1541 28.8635 41.5626C29.7229 40.971 30.1875 40.238 30.1875 39.4501ZM29.3125 43.8251C29.3125 44.3965 28.8369 44.9786 28 45.4428C27.1631 44.9787 26.6875 44.3965 26.6875 43.8251V43.675C26.6875 43.1036 27.1631 42.5215 28 42.0573C28.8369 42.5214 29.3125 43.1036 29.3125 43.675V43.8251Z" fill="#23AAE6"/>
</g>
<g id="Group_20">
<path id="Vector_19" d="M47.25 21C48.6997 21 49.875 19.8247 49.875 18.375C49.875 16.9253 48.6997 15.75 47.25 15.75C45.8003 15.75 44.625 16.9253 44.625 18.375C44.625 19.8247 45.8003 21 47.25 21Z" fill="#555A6E"/>
<path id="Vector_20" d="M47.25 21.875C45.3201 21.875 43.75 20.3049 43.75 18.375C43.75 16.4451 45.3201 14.875 47.25 14.875C49.1799 14.875 50.75 16.4451 50.75 18.375C50.75 20.3049 49.1799 21.875 47.25 21.875ZM47.25 16.625C46.2851 16.625 45.5 17.4101 45.5 18.375C45.5 19.3399 46.2851 20.125 47.25 20.125C48.2149 20.125 49 19.3399 49 18.375C49 17.4101 48.2149 16.625 47.25 16.625Z" fill="#91C83C"/>
</g>
<g id="Group_21">
<path id="Vector_21" d="M45.5 46.375C46.9497 46.375 48.125 45.1997 48.125 43.75C48.125 42.3003 46.9497 41.125 45.5 41.125C44.0503 41.125 42.875 42.3003 42.875 43.75C42.875 45.1997 44.0503 46.375 45.5 46.375Z" fill="#555A6E"/>
<path id="Vector_22" d="M45.5 47.25C43.5701 47.25 42 45.6799 42 43.75C42 41.8201 43.5701 40.25 45.5 40.25C47.4299 40.25 49 41.8201 49 43.75C49 45.6799 47.4299 47.25 45.5 47.25ZM45.5 42C44.5351 42 43.75 42.7851 43.75 43.75C43.75 44.7149 44.5351 45.5 45.5 45.5C46.4649 45.5 47.25 44.7149 47.25 43.75C47.25 42.7851 46.4649 42 45.5 42Z" fill="#91C83C"/>
</g>
<g id="Group_22">
<path id="Vector_23" d="M10.5 46.375C11.9497 46.375 13.125 45.1997 13.125 43.75C13.125 42.3003 11.9497 41.125 10.5 41.125C9.05025 41.125 7.875 42.3003 7.875 43.75C7.875 45.1997 9.05025 46.375 10.5 46.375Z" fill="#555A6E"/>
<path id="Vector_24" d="M10.5 47.25C8.57008 47.25 7 45.6799 7 43.75C7 41.8201 8.57008 40.25 10.5 40.25C12.4299 40.25 14 41.8201 14 43.75C14 45.6799 12.4299 47.25 10.5 47.25ZM10.5 42C9.53509 42 8.75 42.7851 8.75 43.75C8.75 44.7149 9.53509 45.5 10.5 45.5C11.4649 45.5 12.25 44.7149 12.25 43.75C12.25 42.7851 11.4649 42 10.5 42Z" fill="#91C83C"/>
</g>
</g>
</g>
<defs>
<filter id="filter0_d_1353_9577" x="-4" y="0" width="64" height="64" filterUnits="userSpaceOnUse" color-interpolation-filters="sRGB">
<feFlood flood-opacity="0" result="BackgroundImageFix"/>
<feColorMatrix in="SourceAlpha" type="matrix" values="0 0 0 0 0 0 0 0 0 0 0 0 0 0 0 0 0 0 127 0" result="hardAlpha"/>
<feOffset dy="4"/>
<feGaussianBlur stdDeviation="2"/>
<feComposite in2="hardAlpha" operator="out"/>
<feColorMatrix type="matrix" values="0 0 0 0 0 0 0 0 0 0 0 0 0 0 0 0 0 0 0.25 0"/>
<feBlend mode="normal" in2="BackgroundImageFix" result="effect1_dropShadow_1353_9577"/>
<feBlend mode="normal" in="SourceGraphic" in2="effect1_dropShadow_1353_9577" result="shape"/>
</filter>
</defs>
</svg>
