<svg width="56" height="56" viewBox="0 0 56 56" fill="none" xmlns="http://www.w3.org/2000/svg">
<g id="payment-method_7108561 (1) 1">
<g id="_x33_3">
<g id="Group">
<g id="Group_2">
<g id="Group_3">
<path id="Vector" d="M44.7111 19.5859C44.7111 28.795 37.2336 36.2989 27.9981 36.2989C18.7627 36.2989 11.2852 28.795 11.2852 19.5859C11.2852 10.3504 18.7627 2.84668 27.9981 2.84668C37.2336 2.84668 44.7111 10.3504 44.7111 19.5859Z" fill="#F9B938"/>
</g>
</g>
<g id="Group_4" opacity="0.2">
<g id="Group_5">
<g id="Group_6">
<path id="Vector_2" d="M14.3742 16.5391C14.264 16.5391 14.152 16.5233 14.041 16.4891C13.4402 16.3049 13.1024 15.669 13.2866 15.0683C14.6111 10.7476 17.7499 7.23767 21.8975 5.43738C22.4741 5.18561 23.1433 5.45126 23.3932 6.02791C23.6432 6.60363 23.3794 7.27377 22.8027 7.52368C19.2669 9.05926 16.591 12.0517 15.4618 15.7347C15.3118 16.2243 14.861 16.5391 14.3742 16.5391Z" fill="white"/>
</g>
</g>
</g>
<g id="Group_7">
<g id="Group_8">
<path id="Vector_3" d="M27.999 31.577C21.3872 31.577 16.0078 26.1977 16.0078 19.5859C16.0078 12.96 21.3872 7.56909 27.999 7.56909C34.6095 7.56909 39.9888 12.96 39.9888 19.5859C39.9888 26.1977 34.6095 31.577 27.999 31.577Z" fill="#F7F363"/>
</g>
</g>
<g id="Group_9">
<g id="Group_10">
<path id="Vector_4" d="M37.6271 12.4231C35.6331 10.9276 33.1404 10.0094 30.4382 10.0094C23.8264 10.0094 18.448 15.4142 18.448 22.026C18.448 24.702 19.3396 27.1946 20.8353 29.1886C17.8968 27.0109 16.0078 23.5215 16.0078 19.586C16.0078 12.9479 21.3862 7.56934 27.998 7.56934C31.9336 7.56934 35.4496 9.48459 37.6271 12.4231Z" fill="#F7E839"/>
</g>
</g>
<g id="Group_11">
<g id="Group_12">
<path id="Vector_5" d="M44.7112 19.586C44.7112 28.7951 37.2337 36.299 27.9982 36.299C22.8821 36.299 18.2907 33.9902 15.2471 30.3694C18.1856 32.862 21.9373 34.3575 26.0567 34.3575C35.2922 34.3575 42.7697 26.8536 42.7697 17.6444C42.7697 13.5253 41.3006 9.77325 38.8079 6.83472C42.4024 9.8783 44.7112 14.4698 44.7112 19.586Z" fill="#ECB021"/>
</g>
</g>
<g id="Group_13">
<g id="Group_14">
<path id="Vector_6" d="M28.5827 27.2338L28.5858 28.6014C28.5862 28.7683 28.5316 28.9064 28.4229 29.0156C28.3142 29.1248 28.1694 29.18 27.9899 29.1804C27.823 29.1807 27.6849 29.1301 27.5757 29.0277C27.4658 28.9245 27.4114 28.7835 27.411 28.6041L27.4079 27.2365C26.0205 27.1495 24.7227 26.8515 23.5154 26.3401C23.2152 26.2159 22.9744 25.8976 22.9736 25.5513C22.9723 24.9454 23.5631 24.5671 24.128 24.8175C25.169 25.2767 26.2606 25.5313 27.4041 25.5805L27.3941 21.1501C25.1159 20.5528 23.0953 19.7635 23.0899 17.3846C23.0856 15.4448 24.5341 13.6918 27.3767 13.446L27.3736 12.0972C27.3732 11.9311 27.427 11.7891 27.5364 11.6737C27.6451 11.5574 27.7829 11.4999 27.9499 11.4995C28.1168 11.4991 28.258 11.556 28.3742 11.6718C28.4897 11.7867 28.548 11.9284 28.5484 12.0946L28.5514 13.4238C29.8094 13.4727 30.9275 13.6817 31.9041 14.0518C32.2641 14.1795 32.4441 14.4362 32.445 14.821C32.4461 15.3121 32.0067 15.8107 31.3683 15.5554C30.4945 15.2494 29.5568 15.0783 28.5551 15.0422L28.5655 19.6262C31.0286 20.2006 33.0177 20.9436 33.0234 23.4869C33.0277 25.3767 31.5095 27.0588 28.5827 27.2338ZM27.39 19.3396L27.3804 15.102C26.0572 15.2828 24.8398 15.9209 24.8428 17.2458C24.8458 18.5576 26.1132 19.0094 27.39 19.3396ZM31.2896 23.3756C31.2869 22.178 29.8069 21.7691 28.5696 21.4366L28.5789 25.5778C30.389 25.4452 31.2926 24.7111 31.2896 23.3756Z" fill="#EDD318"/>
</g>
<g id="Group_15">
<path id="Vector_7" d="M27.9901 29.3392C27.7822 29.3392 27.6063 29.2732 27.4675 29.1432C27.3256 29.01 27.2534 28.8284 27.2529 28.6035L27.2498 27.3849C25.9032 27.2848 24.6268 26.9825 23.4536 26.4851C23.0873 26.3344 22.8165 25.9521 22.8154 25.5513C22.814 24.8266 23.5268 24.3757 24.1924 24.6732C25.1613 25.1004 26.188 25.3491 27.2456 25.4131L27.2358 21.2712C24.9145 20.6501 22.9378 19.8092 22.9315 17.3843C22.927 15.386 24.3974 13.5999 27.2178 13.3023L27.2152 12.0972C27.2152 11.8877 27.2843 11.7092 27.4216 11.5637C27.5609 11.4161 27.7383 11.3408 27.9499 11.3408H27.9555C28.1629 11.3408 28.342 11.4151 28.4869 11.5606C28.6324 11.7051 28.7067 11.8846 28.7067 12.0941L28.7098 13.2724C29.9181 13.3323 31.0108 13.5438 31.9606 13.9029C32.379 14.0525 32.6024 14.3693 32.6035 14.8212C32.6047 15.4161 32.0636 16.004 31.3095 15.7024C30.5083 15.4217 29.6338 15.2556 28.7139 15.2071L28.7237 19.5006C31.2252 20.0984 33.1772 20.9085 33.1818 23.4866C33.186 25.4288 31.6543 27.156 28.7418 27.3808L28.7444 28.6014C28.7449 28.8099 28.6747 28.9873 28.5354 29.1266C28.3961 29.267 28.2125 29.3392 27.9901 29.3392ZM23.1322 25.5513C23.1332 25.8212 23.3219 26.088 23.5764 26.1931C24.7604 26.6956 26.0528 26.9928 27.418 27.0784L27.5665 27.0877L27.5696 28.6035C27.5701 28.7387 27.6078 28.8398 27.6842 28.912C27.8482 29.0668 28.1583 29.0575 28.3105 28.9038C28.3894 28.8243 28.4281 28.7253 28.4276 28.6014L28.424 27.0836L28.5736 27.0753C31.4254 26.9044 32.8693 25.2868 32.865 23.4866C32.8602 21.0167 30.8763 20.3276 28.5292 19.7813L28.407 19.7524L28.3961 14.878L28.5607 14.8842C29.5729 14.9203 30.5351 15.0957 31.4205 15.4052C31.9541 15.6179 32.2879 15.2071 32.2867 14.8212C32.2857 14.5034 32.1474 14.3063 31.8513 14.2011C30.8911 13.8379 29.7798 13.6305 28.5452 13.582L28.393 13.5768L28.3899 12.0941C28.3899 11.9702 28.3482 11.8691 28.263 11.7845C28.1769 11.6978 28.0788 11.6586 27.9545 11.6586C27.8131 11.67 27.7311 11.6978 27.6522 11.7814C27.5712 11.8671 27.532 11.9702 27.532 12.0972L27.5356 13.5913L27.3906 13.6036C24.6294 13.8452 23.2438 15.5248 23.2483 17.3843C23.2549 19.6798 25.2478 20.4233 27.4345 20.9957L27.5526 21.0267L27.5634 25.7453L27.3978 25.7381C26.2417 25.6896 25.12 25.4285 24.064 24.9632C23.6047 24.758 23.1308 25.0585 23.1322 25.5513ZM28.4214 25.7484L28.4106 21.23L28.6108 21.2836C29.8915 21.6273 31.4447 22.06 31.4483 23.3752C31.4514 24.8022 30.4897 25.5967 28.5912 25.736L28.4214 25.7484ZM28.7284 21.6448L28.7372 25.4058C30.3499 25.248 31.1336 24.5824 31.1315 23.3752C31.1279 22.3248 29.8143 21.9503 28.7284 21.6448ZM27.549 19.5439L27.3504 19.4934C25.9959 19.1433 24.687 18.6467 24.6846 17.246C24.6812 15.8278 25.9621 15.135 27.3591 14.945L27.5387 14.9203L27.549 19.5439ZM27.2229 15.2866C26.0615 15.4837 24.998 16.0666 25.0014 17.246C25.0037 18.4075 26.1061 18.8185 27.2312 19.1333L27.2229 15.2866Z" fill="#EDD318"/>
</g>
</g>
</g>
<g id="Group_16">
<g id="Group_17">
<path id="Vector_8" d="M50.958 31.5989L47.091 49.0751C46.5627 51.463 44.4389 53.1536 42.0086 53.1536H13.9981C11.5574 53.1536 9.44417 51.463 8.91587 49.0751L5.03809 31.5989H50.958Z" fill="#FC6559"/>
</g>
</g>
<g id="Group_18">
<g id="Group_19">
<path id="Vector_9" d="M50.958 31.5989H5.03809L8.91587 49.0751C9.30681 50.8291 10.543 52.2027 12.1384 52.8155C12.0435 52.5724 11.9589 52.3294 11.906 52.0653L10.7463 46.8386C9.35132 40.5515 14.1358 34.5891 20.5758 34.5891H50.2925L50.958 31.5989Z" fill="#F05543"/>
</g>
</g>
<g id="Group_20">
<g id="Group_21">
<path id="Vector_10" d="M53.3586 29.0892C53.3586 30.6264 52.1125 31.8725 50.5753 31.8725H5.42491C3.88773 31.8725 2.6416 30.6264 2.6416 29.0892C2.6416 27.552 3.88773 26.3059 5.42491 26.3059H50.5753C52.1125 26.3059 53.3586 27.552 53.3586 29.0892Z" fill="#E4E3FF"/>
</g>
</g>
<g id="Group_22" opacity="0.5">
<g id="Group_23">
<g id="Group_24">
<g id="Group_25">
<path id="Vector_11" d="M18.6522 30.2264L7.64252 30.2418C7.1044 30.2418 6.67383 29.796 6.67383 29.2731C6.67383 28.735 7.11979 28.3045 7.64252 28.3045L18.6522 28.2891C19.1904 28.2891 19.6209 28.7196 19.6209 29.2578C19.6209 29.6269 19.421 29.9343 19.129 30.1035C18.9906 30.1804 18.8214 30.2264 18.6522 30.2264Z" fill="white"/>
</g>
</g>
<g id="Group_26">
<g id="Group_27">
<path id="Vector_12" d="M21.5585 28.2891H22.2067C22.7295 28.2891 23.1754 28.7196 23.1754 29.2578C23.1754 29.6269 22.9755 29.9343 22.668 30.1035C22.5296 30.1804 22.3759 30.2264 22.2067 30.2264H21.5585C21.0204 30.2264 20.5898 29.796 20.5898 29.2578C20.5898 28.7196 21.0204 28.2891 21.5585 28.2891Z" fill="white"/>
</g>
</g>
</g>
</g>
<g id="Group_28" opacity="0.3">
<g id="Group_29">
<g id="Group_30">
<g id="Group_31">
<path id="Vector_13" d="M45.5056 45.1629L47.4597 37.1436C47.5862 36.6205 47.2539 36.0973 46.7458 35.9744C46.2227 35.848 45.6994 36.1803 45.5766 36.6884L43.6225 44.7077C43.496 45.2309 43.8134 45.7505 44.3365 45.8769C44.6952 45.9636 45.041 45.8415 45.2741 45.5974C45.3814 45.4809 45.4659 45.3274 45.5056 45.1629Z" fill="white"/>
</g>
</g>
<g id="Group_32">
<g id="Group_33">
<path id="Vector_14" d="M42.9396 47.5325L42.7873 48.1626C42.6645 48.6707 42.9783 49.2053 43.5013 49.3317C43.8601 49.4185 44.2059 49.2964 44.4426 49.0372C44.5498 48.9207 44.6307 48.7821 44.6705 48.6177L44.8228 47.9877C44.9492 47.4646 44.6319 46.945 44.1088 46.8185C43.5857 46.6921 43.066 47.0095 42.9396 47.5325Z" fill="white"/>
</g>
</g>
</g>
</g>
<g id="Group_34">
<g id="Group_35">
<g id="Group_36">
<g id="Group_37">
<path id="Vector_15" d="M23.6691 39.0478V46.7187C23.6691 47.8282 22.7605 48.7263 21.651 48.7263C20.5415 48.7263 19.6436 47.8282 19.6436 46.7187V39.0478C19.6436 37.9384 20.5415 37.0403 21.651 37.0403C22.2005 37.0403 22.7076 37.2621 23.0775 37.632C23.4472 37.9912 23.6691 38.4878 23.6691 39.0478Z" fill="#E4E3FF"/>
</g>
</g>
<g id="Group_38">
<g id="Group_39">
<path id="Vector_16" d="M23.4472 38.1391C23.1726 37.9912 22.8555 37.9066 22.5175 37.9066C21.408 37.9066 20.5205 38.8048 20.5205 39.9142V47.5852C20.5205 47.9127 20.5944 48.2297 20.7529 48.5044C20.0978 48.1874 19.6436 47.5006 19.6436 46.7187V39.0478C19.6436 37.9384 20.5415 37.0403 21.651 37.0403C22.2005 37.0403 22.7076 37.2621 23.0775 37.632C23.2253 37.7799 23.3522 37.9489 23.4472 38.1391Z" fill="#D0D0F7"/>
</g>
</g>
</g>
<g id="Group_40">
<g id="Group_41">
<g id="Group_42">
<path id="Vector_17" d="M30.01 39.0478V46.7187C30.01 47.8282 29.1013 48.7263 27.9918 48.7263C26.8823 48.7263 25.9844 47.8282 25.9844 46.7187V39.0478C25.9844 37.9384 26.8823 37.0403 27.9918 37.0403C28.5413 37.0403 29.0484 37.2621 29.4183 37.632C29.788 37.9912 30.01 38.4878 30.01 39.0478Z" fill="#E4E3FF"/>
</g>
</g>
<g id="Group_43">
<g id="Group_44">
<path id="Vector_18" d="M29.788 38.1391C29.5134 37.9912 29.1964 37.9066 28.8583 37.9066C27.7488 37.9066 26.8613 38.8048 26.8613 39.9142V47.5852C26.8613 47.9127 26.9352 48.2297 27.0937 48.5044C26.4386 48.1874 25.9844 47.5006 25.9844 46.7187V39.0478C25.9844 37.9384 26.8823 37.0403 27.9918 37.0403C28.5413 37.0403 29.0484 37.2621 29.4183 37.632C29.5661 37.7799 29.6931 37.9489 29.788 38.1391Z" fill="#D0D0F7"/>
</g>
</g>
</g>
<g id="Group_45">
<g id="Group_46">
<g id="Group_47">
<path id="Vector_19" d="M36.3508 39.0478V46.7187C36.3508 47.8282 35.4421 48.7263 34.3326 48.7263C33.2232 48.7263 32.3252 47.8282 32.3252 46.7187V39.0478C32.3252 37.9384 33.2232 37.0403 34.3326 37.0403C34.8821 37.0403 35.3892 37.2621 35.7592 37.632C36.1288 37.9912 36.3508 38.4878 36.3508 39.0478Z" fill="#E4E3FF"/>
</g>
</g>
<g id="Group_48">
<g id="Group_49">
<path id="Vector_20" d="M36.1288 38.1391C35.8542 37.9912 35.5372 37.9066 35.1991 37.9066C34.0896 37.9066 33.2021 38.8048 33.2021 39.9142V47.5852C33.2021 47.9127 33.276 48.2297 33.4346 48.5044C32.7795 48.1874 32.3252 47.5006 32.3252 46.7187V39.0478C32.3252 37.9384 33.2232 37.0403 34.3326 37.0403C34.8821 37.0403 35.3892 37.2621 35.7592 37.632C35.907 37.7799 36.0339 37.9489 36.1288 38.1391Z" fill="#D0D0F7"/>
</g>
</g>
</g>
</g>
</g>
</g>
</svg>
