<svg width="56" height="56" viewBox="0 0 56 56" fill="none" xmlns="http://www.w3.org/2000/svg">
<g id="shopping-basket_8285951 (1) 1">
<g id="Layer 4">
<path id="Vector" d="M29.75 10.8828H7L5.25 26.6328H31.5558L29.75 10.8828Z" fill="#F49807"/>
<path id="Vector_2" d="M29.75 10.8828H8.75V16.1328C8.75 18.4535 9.67187 20.6791 11.3128 22.32C12.9538 23.9609 15.1794 24.8828 17.5 24.8828H31.3552L29.75 10.8828Z" fill="#F9B708"/>
<path id="Vector_3" d="M41.2686 21.2388L45.4995 17.0078L38.4995 10.0078L30.5596 17.9478L31.3225 24.6016L41.2686 21.2388Z" fill="#D61316"/>
<path id="Vector_4" d="M25.375 17.0078C25.1429 17.0078 24.9204 16.9156 24.7563 16.7515C24.5922 16.5874 24.5 16.3649 24.5 16.1328V9.13281C24.5 7.50836 23.8547 5.95044 22.706 4.80178C21.5574 3.65312 19.9995 3.00781 18.375 3.00781C16.7505 3.00781 15.1926 3.65312 14.044 4.80178C12.8953 5.95044 12.25 7.50836 12.25 9.13281V16.1328C12.25 16.3649 12.1578 16.5874 11.9937 16.7515C11.8296 16.9156 11.6071 17.0078 11.375 17.0078C11.1429 17.0078 10.9204 16.9156 10.7563 16.7515C10.5922 16.5874 10.5 16.3649 10.5 16.1328V9.13281C10.5 7.04423 11.3297 5.0412 12.8065 3.56435C14.2834 2.0875 16.2864 1.25781 18.375 1.25781C20.4636 1.25781 22.4666 2.0875 23.9435 3.56435C25.4203 5.0412 26.25 7.04423 26.25 9.13281V16.1328C26.25 16.3649 26.1578 16.5874 25.9937 16.7515C25.8296 16.9156 25.6071 17.0078 25.375 17.0078Z" fill="#F49807"/>
<path id="Vector_5" d="M32.8125 15.6953L39.092 21.9749L41.269 21.2388L42 20.5078L35 13.5078L32.8125 15.6953Z" fill="#E84F2F"/>
<path id="Vector_6" d="M32.33 2.08765L32.1261 2.90337C31.9204 3.726 31.5106 4.48345 30.9344 5.10561C30.3583 5.72776 29.6345 6.19451 28.8301 6.46265C29.6345 6.73079 30.3583 7.19756 30.9345 7.81973C31.5107 8.44191 31.9205 9.19938 32.1262 10.022L32.3301 10.8376L32.5341 10.022C32.7397 9.19939 33.1496 8.44192 33.7257 7.81974C34.3018 7.19757 35.0256 6.7308 35.8301 6.46265C35.0256 6.19453 34.3018 5.72779 33.7257 5.10563C33.1496 4.48347 32.7397 3.72601 32.5341 2.90337L32.33 2.08765Z" fill="#F9B708"/>
<path id="Vector_7" d="M33.2416 4.48071C32.6229 5.43213 31.7008 6.14647 30.625 6.50776C31.6838 6.86293 32.5944 7.56024 33.2134 8.48985C33.832 7.53841 34.7541 6.82402 35.8299 6.4627C34.7711 6.10757 33.8605 5.4103 33.2416 4.48071Z" fill="#FDC901"/>
<path id="Vector_8" d="M51.625 26.6328H4.375C2.92525 26.6328 1.75 27.8081 1.75 29.2578C1.75 30.7076 2.92525 31.8828 4.375 31.8828H51.625C53.0747 31.8828 54.25 30.7076 54.25 29.2578C54.25 27.8081 53.0747 26.6328 51.625 26.6328Z" fill="#97C01F"/>
<path id="Vector_9" d="M51.6254 31.8828H4.37535C4.36955 31.8828 4.36441 31.8812 4.3584 31.8811L7.30463 50.9233C7.46358 51.9561 7.98698 52.898 8.78012 53.5784C9.57327 54.2588 10.5838 54.6328 11.6288 54.6328H44.3719C45.417 54.6328 46.4275 54.2588 47.2206 53.5783C48.0138 52.8978 48.5372 51.9559 48.6961 50.923L51.6401 31.8809C51.6351 31.8814 51.6304 31.8828 51.6254 31.8828Z" fill="#078237"/>
<path id="Vector_10" d="M51.6252 31.8829H7.23926L9.91457 49.175C10.0735 50.208 10.5969 51.1499 11.39 51.8303C12.1832 52.5108 13.1938 52.8849 14.2388 52.8848H46.982C47.3032 52.8813 47.623 52.8422 47.9356 52.7681C48.3289 52.2206 48.5892 51.5889 48.6959 50.9233L51.6399 31.8811C51.6349 31.8814 51.6302 31.8829 51.6252 31.8829Z" fill="#0DA039"/>
<path id="Vector_11" d="M51.625 26.6328H4.375C4.11957 26.6365 3.86607 26.6778 3.62272 26.7555C3.545 26.9989 3.50364 27.2524 3.5 27.5078C3.5 28.204 3.77656 28.8717 4.26884 29.364C4.76113 29.8562 5.42881 30.1328 6.125 30.1328H53.375C53.6304 30.1292 53.8839 30.0878 54.1273 30.0101C54.205 29.7667 54.2464 29.5132 54.25 29.2578C54.25 28.5616 53.9734 27.8939 53.4812 27.4017C52.9889 26.9094 52.3212 26.6328 51.625 26.6328Z" fill="#C9D205"/>
<path id="Vector_12" d="M13.125 48.5078C13.125 49.4743 13.9085 50.2578 14.875 50.2578C15.8415 50.2578 16.625 49.4743 16.625 48.5078V38.0078C16.625 37.0413 15.8415 36.2578 14.875 36.2578C13.9085 36.2578 13.125 37.0413 13.125 38.0078V48.5078Z" fill="#97C01F"/>
<path id="Vector_13" d="M16.625 38.0078C16.6243 37.7018 16.5431 37.4015 16.3895 37.1369C16.2359 36.8723 16.0153 36.6528 15.75 36.5005C15.4847 36.6528 15.2641 36.8723 15.1105 37.1369C14.9569 37.4015 14.8757 37.7018 14.875 38.0078V48.5078C14.8757 48.8137 14.9569 49.1141 15.1105 49.3787C15.2641 49.6433 15.4847 49.8628 15.75 50.0151C16.0153 49.8628 16.2359 49.6433 16.3895 49.3787C16.5431 49.1141 16.6243 48.8137 16.625 48.5078V38.0078Z" fill="#C9D205"/>
<path id="Vector_14" d="M30.625 48.5078C30.625 49.4743 31.4085 50.2578 32.375 50.2578C33.3415 50.2578 34.125 49.4743 34.125 48.5078V38.0078C34.125 37.0413 33.3415 36.2578 32.375 36.2578C31.4085 36.2578 30.625 37.0413 30.625 38.0078V48.5078Z" fill="#97C01F"/>
<path id="Vector_15" d="M34.125 38.0078C34.1243 37.7018 34.0431 37.4015 33.8895 37.1369C33.7359 36.8723 33.5153 36.6528 33.25 36.5005C32.9847 36.6528 32.7641 36.8723 32.6105 37.1369C32.4569 37.4015 32.3757 37.7018 32.375 38.0078V48.5078C32.3757 48.8137 32.4569 49.1141 32.6105 49.3787C32.7641 49.6433 32.9847 49.8628 33.25 50.0151C33.5153 49.8628 33.7359 49.6433 33.8895 49.3787C34.0431 49.1141 34.1243 48.8137 34.125 48.5078V38.0078Z" fill="#C9D205"/>
<path id="Vector_16" d="M39.375 48.5078C39.375 49.4743 40.1585 50.2578 41.125 50.2578C42.0915 50.2578 42.875 49.4743 42.875 48.5078V38.0078C42.875 37.0413 42.0915 36.2578 41.125 36.2578C40.1585 36.2578 39.375 37.0413 39.375 38.0078V48.5078Z" fill="#97C01F"/>
<path id="Vector_17" d="M42.875 38.0078C42.8743 37.7018 42.7931 37.4015 42.6395 37.1369C42.4859 36.8723 42.2653 36.6528 42 36.5005C41.7347 36.6528 41.5141 36.8723 41.3605 37.1369C41.2069 37.4015 41.1257 37.7018 41.125 38.0078V48.5078C41.1257 48.8137 41.2069 49.1141 41.3605 49.3787C41.5141 49.6433 41.7347 49.8628 42 50.0151C42.2653 49.8628 42.4859 49.6433 42.6395 49.3787C42.7931 49.1141 42.8743 48.8137 42.875 48.5078V38.0078Z" fill="#C9D205"/>
<path id="Vector_18" d="M20.9902 33.637L52.478 22.997C53.8509 22.5331 54.5878 21.044 54.1239 19.6711C53.6599 18.2982 52.1709 17.5613 50.798 18.0252L19.3102 28.6652C17.9373 29.1291 17.2005 30.6182 17.6644 31.9911C18.1283 33.364 19.6173 34.1009 20.9902 33.637Z" fill="#078237"/>
<path id="Vector_19" d="M50.784 18.0218L19.2857 28.6717C18.8657 28.8141 18.4888 29.061 18.1905 29.3891C17.8921 29.7173 17.6821 30.1158 17.5801 30.5474C17.9234 30.8345 18.3345 31.0287 18.7743 31.1114C19.2141 31.1942 19.6677 31.1627 20.0919 31.0201L51.5902 20.3702C52.0102 20.2277 52.3871 19.9808 52.6854 19.6527C52.9838 19.3245 53.1938 18.9259 53.2958 18.4943C52.9526 18.2072 52.5414 18.0131 52.1016 17.9303C51.6618 17.8476 51.2082 17.8791 50.784 18.0218Z" fill="#0DA039"/>
<path id="Vector_20" d="M21.875 48.5078C21.875 49.4743 22.6585 50.2578 23.625 50.2578C24.5915 50.2578 25.375 49.4743 25.375 48.5078V38.0078C25.375 37.0413 24.5915 36.2578 23.625 36.2578C22.6585 36.2578 21.875 37.0413 21.875 38.0078V48.5078Z" fill="#97C01F"/>
<path id="Vector_21" d="M25.375 38.0078C25.3743 37.7018 25.2931 37.4015 25.1395 37.1369C24.9859 36.8723 24.7653 36.6528 24.5 36.5005C24.2347 36.6528 24.0141 36.8723 23.8605 37.1369C23.7069 37.4015 23.6257 37.7018 23.625 38.0078V48.5078C23.6257 48.8137 23.7069 49.1141 23.8605 49.3787C24.0141 49.6433 24.2347 49.8628 24.5 50.0151C24.7653 49.8628 24.9859 49.6433 25.1395 49.3787C25.2931 49.1141 25.3743 48.8137 25.375 48.5078V38.0078Z" fill="#C9D205"/>
</g>
</g>
</svg>
