<svg width="56" height="56" viewBox="0 0 56 56" fill="none" xmlns="http://www.w3.org/2000/svg">
<g id="cargo-truck_15777444 1">
<g id="Group">
<g id="Group_2">
<path id="Vector" d="M52.2714 48.244H37.4561L39.2101 49.965H36.2783V23.4722H49.1255C50.8632 23.4722 52.2714 24.8804 52.2714 26.6179V48.244Z" fill="#4269C4"/>
<path id="Vector_2" d="M14.1091 32.2593V49.9652H2.92555C2.12695 49.9652 1.48438 49.3145 1.48438 48.5155V40.9723C1.48438 40.7005 1.55857 40.4367 1.6987 40.2147L6.20318 32.9429C6.46677 32.5146 6.93624 32.2593 7.43848 32.2593H14.1091Z" fill="#D1DAFE"/>
<g id="Group_3">
<path id="Vector_3" d="M12.4618 34.7378V40.0087C12.4618 40.4696 12.0912 40.8403 11.63 40.8403H4.7454C4.08654 40.8403 3.69126 40.1237 4.03708 39.572L7.29822 34.3015C7.45465 34.0542 7.71823 33.9062 8.00655 33.9062H11.63C12.0912 33.9063 12.4618 34.277 12.4618 34.7378Z" fill="#8A9BEA"/>
<path id="Vector_4" d="M36.2787 23.4722V49.965H14.1094V26.6179C14.1094 24.8804 15.5176 23.4722 17.2553 23.4722H36.2787Z" fill="#8A9BEA"/>
<path id="Vector_5" d="M14.1091 47.3625V49.965H2.92555C2.12695 49.965 1.48438 49.3144 1.48438 48.5154V47.3625H14.1091Z" fill="#8A9BEA"/>
</g>
<path id="Vector_6" d="M14.1113 47.3594H36.2783V49.9634H14.1113V47.3594Z" fill="#4269C4"/>
<path id="Vector_7" d="M50.9123 26.1237V47.0907H37.6289V24.625H49.4137C50.2454 24.625 50.9123 25.3001 50.9123 26.1237Z" fill="#51504F"/>
<path id="Vector_8" d="M53.4078 51.7355H40.1408C39.7868 51.7355 39.449 51.5626 39.2431 51.2743L36.2783 47.1321H52.2714L54.3055 49.9815C54.8327 50.7145 54.3055 51.7355 53.4078 51.7355Z" fill="#8A9BEA"/>
<path id="Vector_9" d="M8.18813 43.1546C8.85672 43.1546 9.39872 42.9702 9.39872 42.7428C9.39872 42.5154 8.85672 42.3311 8.18813 42.3311C7.51954 42.3311 6.97754 42.5154 6.97754 42.7428C6.97754 42.9702 7.51954 43.1546 8.18813 43.1546Z" fill="#8A9BEA"/>
<path id="Vector_10" d="M2.84332 44.0191V46.3827C2.84332 46.8604 2.45628 47.2477 1.97857 47.2477H1.48438V43.1545H1.97857C2.45628 43.1545 2.84332 43.5418 2.84332 44.0191Z" fill="#B53016"/>
<path id="Vector_11" d="M11.2089 49.4338C11.2089 51.3182 9.68123 52.8458 7.79681 52.8458C5.91239 52.8458 4.38477 51.3182 4.38477 49.4338C4.38477 47.5494 5.91239 46.0217 7.79681 46.0217C9.68123 46.0217 11.2089 47.5494 11.2089 49.4338ZM30.1007 46.0217C28.2163 46.0217 26.6887 47.5494 26.6887 49.4338C26.6887 51.3182 28.2163 52.8458 30.1007 52.8458C31.9851 52.8458 33.5128 51.3182 33.5128 49.4338C33.5128 47.5494 31.9851 46.0217 30.1007 46.0217Z" fill="#51504F"/>
<path id="Vector_12" d="M30.1012 51.1987C29.128 51.1987 28.3363 50.4069 28.3363 49.4336C28.3363 48.4605 29.128 47.6687 30.1012 47.6687C31.0743 47.6687 31.866 48.4605 31.866 49.4336C31.866 50.4069 31.0743 51.1987 30.1012 51.1987ZM7.79711 51.1987C6.82399 51.1987 6.03223 50.4069 6.03223 49.4336C6.03223 48.4605 6.82399 47.6687 7.79711 47.6687C8.77022 47.6687 9.56198 48.4605 9.56198 49.4336C9.56198 50.4069 8.77022 51.1987 7.79711 51.1987Z" fill="white"/>
<g id="Group_4">
<g id="Group_5">
<g id="Group_6">
<g id="Group_7">
<path id="Vector_13" d="M43.0403 42.364V47.0828H38.8649C38.5601 47.0828 38.3213 46.8359 38.3213 46.5392V42.9073C38.3213 42.6029 38.5601 42.364 38.8649 42.364H43.0403Z" fill="#FBAD3E"/>
<g id="Group_8">
<path id="Vector_14" d="M44.2753 42.8743V46.5721C44.2753 46.852 44.0447 47.0828 43.7646 47.0828H43.04V42.364H43.7646C44.0447 42.364 44.2753 42.5944 44.2753 42.8743Z" fill="#FA990E"/>
<path id="Vector_15" d="M41.5019 42.3645V43.5149C41.5019 43.6476 41.3568 43.7243 41.247 43.6518L40.8655 43.3947C40.8096 43.3574 40.737 43.3574 40.6811 43.3968L40.3225 43.6455C40.2147 43.7202 40.0654 43.6435 40.0654 43.5108V42.3645H41.5019Z" fill="#FA990E"/>
<path id="Vector_16" d="M40.9837 45.8842C40.8324 45.9485 40.6811 45.9837 40.5298 46.0065C40.3784 46.0314 40.2271 46.0397 40.0778 46.0397C39.9265 46.0397 39.7752 46.0293 39.6239 46.0065C39.4726 45.9837 39.3212 45.9485 39.1699 45.8842C39.3212 45.82 39.4726 45.7868 39.6239 45.764C39.7752 45.7391 39.9265 45.7308 40.0778 45.7288C40.2271 45.7288 40.3784 45.7391 40.5298 45.764C40.6811 45.7868 40.8324 45.82 40.9837 45.8842Z" fill="#FA990E"/>
<path id="Vector_17" d="M39.97 46.3589C40.0592 46.3817 40.1483 46.4169 40.2374 46.4812C40.1483 46.5454 40.0592 46.5786 39.97 46.6014C39.8809 46.6263 39.7918 46.6366 39.7027 46.6366C39.6136 46.6346 39.5265 46.6263 39.4373 46.6014C39.3482 46.5786 39.259 46.5454 39.1699 46.4812C39.259 46.4169 39.3482 46.3817 39.4373 46.3589C39.5265 46.3361 39.6136 46.3257 39.7027 46.3257C39.7918 46.3257 39.8809 46.334 39.97 46.3589Z" fill="#FA990E"/>
</g>
</g>
</g>
<g id="Group_9">
<g id="Group_10">
<path id="Vector_18" d="M48.9942 42.364V47.0828H44.8106C44.514 47.0828 44.2754 46.8359 44.2754 46.5392V42.9073C44.2754 42.6029 44.514 42.364 44.8106 42.364H48.9942Z" fill="#FBAD3E"/>
<g id="Group_11">
<path id="Vector_19" d="M50.2212 42.8743V46.5721C50.2212 46.852 49.9988 47.0828 49.7105 47.0828H48.9941V42.364H49.7105C49.9988 42.364 50.2212 42.5944 50.2212 42.8743Z" fill="#FA990E"/>
<path id="Vector_20" d="M47.4531 42.3645V43.5149C47.4531 43.6476 47.308 43.7243 47.1982 43.6518L46.8167 43.3947C46.7608 43.3574 46.6882 43.3574 46.6323 43.3968L46.2736 43.6455C46.1658 43.7202 46.0166 43.6435 46.0166 43.5108V42.3645H47.4531Z" fill="#FA990E"/>
<path id="Vector_21" d="M46.9349 45.8842C46.7836 45.9485 46.6323 45.9837 46.4809 46.0065C46.3296 46.0314 46.1783 46.0397 46.029 46.0397C45.8777 46.0397 45.7264 46.0293 45.575 46.0065C45.4237 45.9837 45.2724 45.9485 45.1211 45.8842C45.2724 45.82 45.4237 45.7868 45.575 45.764C45.7264 45.7391 45.8777 45.7308 46.029 45.7288C46.1783 45.7288 46.3296 45.7391 46.4809 45.764C46.6323 45.7868 46.7836 45.82 46.9349 45.8842Z" fill="#FA990E"/>
<path id="Vector_22" d="M45.9212 46.3589C46.0104 46.3817 46.0995 46.4169 46.1886 46.4812C46.0995 46.5454 46.0104 46.5786 45.9212 46.6014C45.8321 46.6263 45.743 46.6366 45.6538 46.6366C45.5647 46.6346 45.4776 46.6263 45.3885 46.6014C45.2993 46.5786 45.2102 46.5454 45.1211 46.4812C45.2102 46.4169 45.2993 46.3817 45.3885 46.3589C45.4776 46.3361 45.5647 46.3257 45.6538 46.3257C45.743 46.3257 45.8321 46.334 45.9212 46.3589Z" fill="#FA990E"/>
</g>
</g>
</g>
<g id="Group_12">
<g id="Group_13">
<path id="Vector_23" d="M46.0128 37.6531V42.3638H41.8374C41.541 42.3638 41.2939 42.125 41.2939 41.8286V38.1887C41.2939 37.8919 41.541 37.6531 41.8374 37.6531H46.0128Z" fill="#FBAD3E"/>
<g id="Group_14">
<path id="Vector_24" d="M47.248 38.1557V41.8532C47.248 42.133 47.0174 42.3638 46.7375 42.3638H46.0127V37.6531H46.7375C47.0174 37.6531 47.248 37.8754 47.248 38.1557Z" fill="#FA990E"/>
<path id="Vector_25" d="M44.4775 37.6492V38.7996C44.4775 38.9323 44.3324 39.009 44.2226 38.9364L43.8411 38.6793C43.7852 38.6421 43.7126 38.6421 43.6567 38.6815L43.2981 38.9302C43.1903 39.0049 43.041 38.9281 43.041 38.7954V37.6492H44.4775Z" fill="#FA990E"/>
<path id="Vector_26" d="M43.9593 41.1689C43.808 41.2332 43.6567 41.2684 43.5053 41.2912C43.354 41.3161 43.2027 41.3244 43.0534 41.3244C42.9021 41.3244 42.7508 41.3139 42.5995 41.2912C42.4481 41.2684 42.2968 41.2332 42.1455 41.1689C42.2968 41.1046 42.4481 41.0714 42.5995 41.0487C42.7508 41.0238 42.9021 41.0155 43.0534 41.0134C43.2027 41.0134 43.354 41.0238 43.5053 41.0487C43.6567 41.0714 43.808 41.1046 43.9593 41.1689Z" fill="#FA990E"/>
<path id="Vector_27" d="M42.9456 41.6436C43.0348 41.6663 43.1239 41.7015 43.213 41.7658C43.1239 41.8301 43.0348 41.8633 42.9456 41.8861C42.8565 41.911 42.7674 41.9213 42.6783 41.9213C42.5891 41.9193 42.502 41.911 42.4129 41.8861C42.3238 41.8633 42.2346 41.8301 42.1455 41.7658C42.2346 41.7015 42.3238 41.6663 42.4129 41.6436C42.502 41.6208 42.5891 41.6104 42.6783 41.6104C42.7674 41.6104 42.8565 41.6187 42.9456 41.6436Z" fill="#FA990E"/>
</g>
</g>
</g>
</g>
</g>
<g id="Group_15">
<g id="Group_16">
<g id="Group_17">
<g id="Group_18">
<path id="Vector_28" d="M22.9123 46.1602V52.9462H16.8924C16.4642 52.9462 16.1182 52.6004 16.1182 52.1718V46.9342C16.1182 46.506 16.4642 46.1602 16.8924 46.1602H22.9123Z" fill="#FBAD3E"/>
<g id="Group_19">
<path id="Vector_29" d="M24.6828 46.8932V52.2132C24.6828 52.6249 24.3533 52.9462 23.95 52.9462H22.9121V46.1602H23.95C24.3533 46.1602 24.6828 46.4895 24.6828 46.8932Z" fill="#FA990E"/>
<path id="Vector_30" d="M20.6935 46.1589V47.8155C20.6935 48.0066 20.4846 48.117 20.3264 48.0125L19.7771 47.6423C19.6966 47.5887 19.5921 47.5887 19.5115 47.6454L18.9951 48.0035C18.8399 48.1111 18.625 48.0006 18.625 47.8095V46.1589H20.6935Z" fill="#FA990E"/>
<path id="Vector_31" d="M19.9477 51.2273C19.7298 51.3198 19.5119 51.3706 19.294 51.4033C19.0762 51.4392 18.8583 51.4512 18.6433 51.4512C18.4254 51.4512 18.2075 51.4361 17.9896 51.4033C17.7717 51.3706 17.5538 51.3198 17.3359 51.2273C17.5538 51.1347 17.7717 51.0869 17.9896 51.0541C18.2075 51.0183 18.4254 51.0063 18.6433 51.0034C18.8583 51.0034 19.0762 51.0183 19.294 51.0541C19.5119 51.0869 19.7298 51.1347 19.9477 51.2273Z" fill="#FA990E"/>
<path id="Vector_32" d="M18.4881 51.9108C18.6165 51.9436 18.7448 51.9944 18.8731 52.0869C18.7448 52.1795 18.6165 52.2273 18.4881 52.2601C18.3597 52.2959 18.2314 52.3108 18.1031 52.3108C17.9747 52.3079 17.8493 52.2959 17.721 52.2601C17.5926 52.2273 17.4643 52.1795 17.3359 52.0869C17.4643 51.9944 17.5926 51.9436 17.721 51.9108C17.8493 51.8781 17.9747 51.863 18.1031 51.863C18.2314 51.863 18.3597 51.875 18.4881 51.9108Z" fill="#FA990E"/>
</g>
</g>
</g>
</g>
</g>
</g>
<g id="Group_20">
<g id="Group_21">
<g id="Group_22">
<path id="Vector_33" d="M49.2469 10.9368C48.9196 10.9368 48.6469 10.6801 48.6304 10.3499C48.6075 9.88611 48.478 9.44278 48.2561 9.0678C48.0824 8.77426 48.1797 8.39547 48.4732 8.22176C48.7668 8.04844 49.1455 8.14515 49.3193 8.4389C49.6426 8.98577 49.8311 9.62533 49.8641 10.2884C49.881 10.6292 49.6188 10.9191 49.2778 10.936C49.2674 10.9366 49.2569 10.9368 49.2469 10.9368Z" fill="#51504F"/>
</g>
<g id="Group_23">
<path id="Vector_34" d="M13.7613 21.722C13.5124 21.722 13.2776 21.57 13.1839 21.3233C13.0629 21.0043 13.2233 20.6476 13.5422 20.5268C14.1353 20.3018 14.7453 19.9807 15.4076 19.545C15.564 19.4416 15.7196 19.3349 15.8753 19.2281C16.0273 19.1238 16.1789 19.0196 16.3325 18.9181C16.6164 18.7301 17 18.8069 17.1886 19.092C17.3767 19.3763 17.2987 19.7595 17.0144 19.9479C16.8669 20.0458 16.7205 20.1462 16.5741 20.2465C16.4125 20.3577 16.2504 20.4688 16.0868 20.5766C15.3481 21.0628 14.6593 21.4243 13.9805 21.6816C13.9081 21.709 13.8341 21.722 13.7613 21.722ZM22.8998 20.3914C22.8994 20.3914 22.899 20.3914 22.8986 20.3914C22.057 20.3896 21.2805 20.1725 20.6532 19.7635C20.547 19.6942 20.4453 19.6194 20.3435 19.5442C20.2269 19.4583 20.1119 19.3713 19.9857 19.3009C19.8859 19.2454 19.7766 19.2016 19.6612 19.1706C19.3318 19.082 19.1364 18.7432 19.2253 18.4138C19.3137 18.0845 19.6531 17.8889 19.982 17.9776C20.1944 18.0347 20.3978 18.1167 20.586 18.2214C20.7589 18.3175 20.9186 18.4333 21.0774 18.5506C21.1598 18.6117 21.2423 18.673 21.3283 18.7291C21.7546 19.0072 22.2986 19.1549 22.901 19.1561C23.242 19.157 23.5182 19.434 23.5174 19.775C23.5166 20.1158 23.2404 20.3914 22.8998 20.3914ZM26.0729 19.3914C25.8589 19.3914 25.651 19.28 25.5368 19.0812C25.3672 18.7854 25.4689 18.4078 25.7648 18.2379C26.1802 17.9995 26.584 17.7381 26.9853 17.4787L28.5764 16.4477C28.8627 16.2625 29.2451 16.3442 29.4305 16.6307C29.6159 16.917 29.5343 17.2994 29.248 17.4848L27.6564 18.5156C27.237 18.7872 26.814 19.0598 26.3801 19.3092C26.2832 19.3648 26.1774 19.3914 26.0729 19.3914ZM31.7386 15.7539C31.5364 15.7539 31.3381 15.6547 31.2199 15.4722C31.0345 15.1861 31.1162 14.8035 31.4021 14.6179L31.9731 14.2485C32.575 13.8585 33.1979 13.455 33.9274 13.2071C34.1485 13.1319 34.3745 13.0732 34.6029 13.0275C34.9379 12.9606 35.2628 13.1773 35.3295 13.5121C35.3963 13.8466 35.1795 14.1719 34.845 14.2387C34.6689 14.2739 34.4951 14.3189 34.3246 14.3768C33.7408 14.5753 33.1834 14.9364 32.6442 15.2854L32.0744 15.6545C31.9703 15.7217 31.8541 15.7539 31.7386 15.7539ZM44.7627 14.8907C44.4278 14.8907 44.1527 14.6225 44.1455 14.2857C44.1386 13.9448 44.4093 13.6627 44.7503 13.6556C45.8637 13.6325 46.8541 13.3249 47.5393 12.7895C47.8079 12.5796 48.196 12.6268 48.4063 12.8956C48.6166 13.1644 48.5687 13.5527 48.3001 13.7626C47.4058 14.4617 46.1544 14.8622 44.776 14.8905C44.7716 14.8907 44.7671 14.8907 44.7627 14.8907ZM41.4244 14.5123C41.3894 14.5123 41.3544 14.5095 41.319 14.5035C41.0874 14.4637 40.8554 14.4247 40.6242 14.3891C39.7749 14.2586 38.9091 14.1713 38.0514 14.1301C37.7108 14.1138 37.4479 13.8243 37.4643 13.4837C37.4808 13.1429 37.7704 12.8761 38.1109 12.8964C39.0113 12.9397 39.9201 13.0311 40.8119 13.1683C41.0508 13.2051 41.2893 13.2449 41.5281 13.2859C41.8643 13.3438 42.0899 13.6631 42.0324 13.9992C41.9805 14.3 41.7195 14.5123 41.4244 14.5123Z" fill="#51504F"/>
</g>
<g id="Group_24">
<path id="Vector_35" d="M10.4363 22.0073C10.3877 22.0073 10.3378 22.0015 10.2883 21.9892C9.64375 21.8306 9.06793 21.5582 8.57735 21.1796C8.30713 20.9713 8.25727 20.5834 8.46556 20.3134C8.67345 20.043 9.0623 19.9929 9.33171 20.2016C9.68557 20.4745 10.107 20.6725 10.5835 20.7897C10.9148 20.8712 11.1171 21.2059 11.0359 21.5371C10.9663 21.8187 10.7142 22.0073 10.4363 22.0073Z" fill="#51504F"/>
</g>
</g>
<g id="Group_25">
<g id="Group_26">
<path id="Vector_36" d="M52.1756 6.84465C52.1756 8.44074 49.9725 11.7893 48.9253 13.2908C48.6624 13.6677 48.107 13.6677 47.8441 13.2908C46.7969 11.7893 44.5938 8.44074 44.5938 6.84465C44.5938 4.75097 46.291 3.05371 48.3847 3.05371C50.4784 3.05371 52.1756 4.75097 52.1756 6.84465Z" fill="#B53016"/>
<path id="Vector_37" d="M48.3854 9.67894C49.9509 9.67894 51.22 8.40985 51.22 6.84435C51.22 5.27885 49.9509 4.00977 48.3854 4.00977C46.8199 4.00977 45.5508 5.27885 45.5508 6.84435C45.5508 8.40985 46.8199 9.67894 48.3854 9.67894Z" fill="#912010"/>
<path id="Vector_38" d="M48.385 8.88762C49.5134 8.88762 50.4282 7.97286 50.4282 6.84445C50.4282 5.71603 49.5134 4.80127 48.385 4.80127C47.2566 4.80127 46.3418 5.71603 46.3418 6.84445C46.3418 7.97286 47.2566 8.88762 48.385 8.88762Z" fill="white"/>
</g>
</g>
<g id="Group_27">
<g id="Group_28">
<path id="Vector_39" d="M14.0939 11.7137C14.0939 13.8758 11.1095 18.4119 9.6909 20.4459C9.33475 20.9565 8.58243 20.9565 8.22629 20.4459C6.80771 18.4119 3.82324 13.8758 3.82324 11.7137C3.82324 8.87754 6.12242 6.57837 8.95859 6.57837C11.7948 6.57837 14.0939 8.87754 14.0939 11.7137Z" fill="#B53016"/>
<path id="Vector_40" d="M8.95828 15.554C11.0791 15.554 12.7984 13.8347 12.7984 11.7139C12.7984 9.59306 11.0791 7.87378 8.95828 7.87378C6.83744 7.87378 5.11816 9.59306 5.11816 11.7139C5.11816 13.8347 6.83744 15.554 8.95828 15.554Z" fill="#912010"/>
<path id="Vector_41" d="M8.95846 14.4809C10.4867 14.4809 11.7255 13.242 11.7255 11.7138C11.7255 10.1856 10.4867 8.94678 8.95846 8.94678C7.43026 8.94678 6.19141 10.1856 6.19141 11.7138C6.19141 13.242 7.43026 14.4809 8.95846 14.4809Z" fill="white"/>
</g>
</g>
</g>
</g>
</g>
</svg>
