<svg width="56" height="56" viewBox="0 0 56 56" fill="none" xmlns="http://www.w3.org/2000/svg">
<g id="renewable-energy_4515708 1">
<g id="Group">
<path id="Vector" d="M10.4334 12.7901C10.2979 12.4632 9.97881 12.25 9.62498 12.25H7.33904L8.70514 8.15176C8.83343 7.76676 8.6802 7.34414 8.33501 7.13075C7.98972 6.91736 7.54314 6.96931 7.25625 7.25631L2.00625 12.5063C1.756 12.7566 1.68119 13.1329 1.8167 13.4598C1.95222 13.7868 2.27115 14 2.62498 14H4.91092L3.54483 18.0983C3.41653 18.4833 3.56976 18.906 3.91495 19.1193C4.05714 19.2072 4.21639 19.25 4.37465 19.25C4.60084 19.25 4.82484 19.1625 4.99372 18.9938L10.2437 13.7438C10.494 13.4935 10.5688 13.1172 10.4334 12.7901Z" fill="#FAA019"/>
<g id="Group_2">
<g id="Group_3">
<path id="Vector_2" d="M14 22.75H21V49H14V22.75Z" fill="#463C4B"/>
</g>
</g>
<g id="Group_4">
<g id="Group_5">
<path id="Vector_3" d="M15.75 26.25H14V49H17.5V28C17.5 27.0335 16.7165 26.25 15.75 26.25Z" fill="#555A6E"/>
</g>
</g>
<g id="Group_6">
<g id="Group_7">
<path id="Vector_4" d="M14 24.5H19.25C21.183 24.5 22.75 22.933 22.75 21C22.75 19.067 21.183 17.5 19.25 17.5H14C12.067 17.5 10.5 19.067 10.5 21C10.5 22.933 12.067 24.5 14 24.5Z" fill="#555A6E"/>
</g>
</g>
<g id="Group_8">
<g id="Group_9">
<path id="Vector_5" d="M19.25 24.5C21.183 24.5 22.75 22.933 22.75 21C22.75 19.067 21.183 17.5 19.25 17.5C17.317 17.5 15.75 19.067 15.75 21C15.75 22.933 17.317 24.5 19.25 24.5Z" fill="#463C4B"/>
</g>
</g>
<g id="Group_10">
<g id="Group_11">
<g id="Group_12">
<path id="Vector_6" d="M18.375 1.75H17.5C17.0168 1.75 16.625 2.14178 16.625 2.625V15.75C16.625 16.7165 17.4085 17.5 18.375 17.5H20.125C21.0915 17.5 21.875 16.7165 21.875 15.75V5.25C21.875 3.31702 20.308 1.75 18.375 1.75Z" fill="#A5C3DC"/>
</g>
</g>
<g id="Group_13">
<g id="Group_14">
<path id="Vector_7" d="M18.375 17.5C17.4085 17.5 16.625 16.7165 16.625 15.75V2.625C16.625 2.14178 17.0168 1.75 17.5 1.75H18.375V17.5Z" fill="#D7E6F0"/>
</g>
</g>
</g>
<g id="Group_15">
<g id="Group_16">
<g id="Group_17">
<path id="Vector_8" d="M3.0164 31.3827L3.4539 32.1405C3.69551 32.559 4.23068 32.7024 4.64915 32.4607L16.0157 25.8982C16.8528 25.415 17.1396 24.3447 16.6562 23.5077L15.7812 21.9922C15.298 21.1552 14.2277 20.8684 13.3907 21.3517L4.29751 26.6017C2.62342 27.5682 2.04986 29.7088 3.0164 31.3827Z" fill="#A5C3DC"/>
</g>
</g>
<g id="Group_18">
<g id="Group_19">
<path id="Vector_9" d="M16.6564 23.5078C17.1396 24.3449 16.8529 25.4151 16.0159 25.8983L4.64935 32.4608C4.23088 32.7024 3.69571 32.559 3.4541 32.1406L3.0166 31.3828L16.6564 23.5078Z" fill="#D7E6F0"/>
</g>
</g>
</g>
<g id="Group_20">
<g id="Group_21">
<g id="Group_22">
<path id="Vector_10" d="M36.358 29.8672L36.7955 29.1094C37.0371 28.691 36.8937 28.1558 36.4752 27.9142L25.1086 21.3517C24.2716 20.8685 23.2013 21.1552 22.7181 21.9922L21.8431 23.5077C21.3599 24.3447 21.6467 25.415 22.4836 25.8982L31.5768 31.1482C33.2509 32.1147 35.3915 31.5412 36.358 29.8672Z" fill="#A5C3DC"/>
</g>
</g>
<g id="Group_23">
<g id="Group_24">
<path id="Vector_11" d="M22.7178 21.9922C23.201 21.1552 24.2713 20.8684 25.1083 21.3517L36.4749 27.9142C36.8933 28.1559 37.0367 28.691 36.7951 29.1095L36.3576 29.8672L22.7178 21.9922Z" fill="#D7E6F0"/>
</g>
</g>
</g>
<g id="Group_25">
<g id="Group_26">
<g id="Group_27">
<g id="Group_28">
<path id="Vector_12" d="M21.875 24.5H19.25C17.317 24.5 15.75 22.933 15.75 21C15.75 19.067 17.317 17.5 19.25 17.5H21.875C23.808 17.5 25.375 19.067 25.375 21C25.375 22.933 23.808 24.5 21.875 24.5Z" fill="#5AD7FF"/>
</g>
</g>
</g>
<g id="Group_29">
<g id="Group_30">
<path id="Vector_13" d="M21.875 24.5H19.25C17.317 24.5 15.75 22.933 15.75 21H20.7083C21.3526 21 21.875 20.4776 21.875 19.8333V17.5C23.808 17.5 25.375 19.067 25.375 21C25.375 22.933 23.808 24.5 21.875 24.5Z" fill="#23AAE6"/>
</g>
</g>
</g>
<g id="Group_31">
<g id="Group_32">
<g id="Group_33">
<path id="Vector_14" d="M40.25 26.25C47.0155 26.25 52.5 20.7655 52.5 14C52.5 7.23451 47.0155 1.75 40.25 1.75C33.4845 1.75 28 7.23451 28 14C28 20.7655 33.4845 26.25 40.25 26.25Z" fill="#91C83C"/>
</g>
</g>
<g id="Group_34">
<path id="Vector_15" d="M49.6193 13.3813L47.8693 11.6313C47.5275 11.2896 46.9736 11.2896 46.6318 11.6313L44.8818 13.3813C44.6315 13.6315 44.5567 14.0079 44.6923 14.3348C44.8278 14.6617 45.1467 14.875 45.5005 14.875H46.312C45.886 17.8392 43.3308 20.125 40.2505 20.125C38.6145 20.125 37.0764 19.4879 35.9194 18.331C35.5778 17.9893 35.0238 17.9893 34.682 18.331C34.3403 18.6727 34.3403 19.2267 34.6821 19.5685C36.1695 21.0559 38.1471 21.875 40.2505 21.875C44.297 21.875 47.6389 18.8068 48.0758 14.875H49.0005C49.3544 14.875 49.6734 14.6618 49.8089 14.3349C49.9444 14.008 49.8695 13.6315 49.6193 13.3813Z" fill="#4B9641"/>
<path id="Vector_16" d="M35.8085 13.6651C35.673 13.3382 35.3539 13.125 35.0001 13.125H34.1886C34.6147 10.1608 37.1699 7.875 40.2501 7.875C41.8861 7.875 43.4243 8.51211 44.5812 9.66897C44.9228 10.0107 45.4768 10.0107 45.8186 9.66897C46.1603 9.32728 46.1603 8.7733 45.8185 8.4315C44.3312 6.94411 42.3535 6.125 40.2501 6.125C36.2037 6.125 32.8617 9.19319 32.4249 13.125H31.5001C31.1463 13.125 30.8272 13.3382 30.6917 13.6651C30.5562 13.992 30.631 14.3684 30.8812 14.6186L32.6312 16.3686C32.8022 16.5395 33.026 16.6249 33.25 16.6249C33.474 16.6249 33.6979 16.5395 33.8687 16.3686L35.6187 14.6186C35.8691 14.3685 35.9439 13.9921 35.8085 13.6651Z" fill="#4B9641"/>
</g>
</g>
<g id="Group_35">
<g id="Group_36">
<g id="Group_37">
<g id="Group_38">
<path id="Vector_17" d="M37.625 43.75H42V46.375H37.625V43.75Z" fill="#463C4B"/>
</g>
</g>
<g id="Group_39">
<g id="Group_40">
<path id="Vector_18" d="M45.7188 49H33.9062C33.5438 49 33.25 48.7062 33.25 48.3438C33.25 47.2565 34.1315 46.375 35.2188 46.375H44.4062C45.4935 46.375 46.375 47.2565 46.375 48.3438C46.375 48.7062 46.0812 49 45.7188 49Z" fill="#555A6E"/>
</g>
</g>
</g>
<g id="Group_41">
<g id="Group_42">
<g id="Group_43">
<path id="Vector_19" d="M27.125 42V29.75C27.125 28.7835 27.9085 28 28.875 28H50.75C51.7165 28 52.5 28.7835 52.5 29.75V42C52.5 42.9665 51.7165 43.75 50.75 43.75H28.875C27.9085 43.75 27.125 42.9665 27.125 42Z" fill="#A5C3DC"/>
</g>
</g>
<g id="Group_44">
<g id="Group_45">
<path id="Vector_20" d="M27.125 38.5V29.75C27.125 28.7835 27.9085 28 28.875 28H50.75C51.7165 28 52.5 28.7835 52.5 29.75V38.5C52.5 39.4665 51.7165 40.25 50.75 40.25H28.875C27.9085 40.25 27.125 39.4665 27.125 38.5Z" fill="#D7E6F0"/>
</g>
</g>
</g>
<g id="Group_46">
<g id="Group_47">
<g id="Group_48">
<g id="Group_49">
<path id="Vector_21" d="M34.125 33.25H29.75C29.2668 33.25 28.875 32.8582 28.875 32.375V30.625C28.875 30.1418 29.2668 29.75 29.75 29.75H34.125C34.6082 29.75 35 30.1418 35 30.625V32.375C35 32.8582 34.6082 33.25 34.125 33.25Z" fill="#23AAE6"/>
</g>
</g>
<g id="Group_50">
<g id="Group_51">
<path id="Vector_22" d="M42 33.25H37.625C37.1418 33.25 36.75 32.8582 36.75 32.375V30.625C36.75 30.1418 37.1418 29.75 37.625 29.75H42C42.4832 29.75 42.875 30.1418 42.875 30.625V32.375C42.875 32.8582 42.4832 33.25 42 33.25Z" fill="#23AAE6"/>
</g>
</g>
<g id="Group_52">
<g id="Group_53">
<path id="Vector_23" d="M49.875 33.25H45.5C45.0168 33.25 44.625 32.8582 44.625 32.375V30.625C44.625 30.1418 45.0168 29.75 45.5 29.75H49.875C50.3582 29.75 50.75 30.1418 50.75 30.625V32.375C50.75 32.8582 50.3582 33.25 49.875 33.25Z" fill="#23AAE6"/>
</g>
</g>
</g>
<g id="Group_54">
<g id="Group_55">
<g id="Group_56">
<path id="Vector_24" d="M34.125 38.5H29.75C29.2668 38.5 28.875 38.1082 28.875 37.625V35.875C28.875 35.3918 29.2668 35 29.75 35H34.125C34.6082 35 35 35.3918 35 35.875V37.625C35 38.1082 34.6082 38.5 34.125 38.5Z" fill="#23AAE6"/>
</g>
</g>
<g id="Group_57">
<g id="Group_58">
<path id="Vector_25" d="M42 38.5H37.625C37.1418 38.5 36.75 38.1082 36.75 37.625V35.875C36.75 35.3918 37.1418 35 37.625 35H42C42.4832 35 42.875 35.3918 42.875 35.875V37.625C42.875 38.1082 42.4832 38.5 42 38.5Z" fill="#23AAE6"/>
</g>
</g>
<g id="Group_59">
<g id="Group_60">
<path id="Vector_26" d="M49.875 38.5H45.5C45.0168 38.5 44.625 38.1082 44.625 37.625V35.875C44.625 35.3918 45.0168 35 45.5 35H49.875C50.3582 35 50.75 35.3918 50.75 35.875V37.625C50.75 38.1082 50.3582 38.5 49.875 38.5Z" fill="#23AAE6"/>
</g>
</g>
</g>
</g>
</g>
<g id="Group_61">
<g id="Group_62">
<path id="Vector_27" d="M53.375 54.25H2.625C2.14178 54.25 1.75 53.8582 1.75 53.375V49.875C1.75 49.3918 2.14178 49 2.625 49H53.375C53.8582 49 54.25 49.3918 54.25 49.875V53.375C54.25 53.8582 53.8582 54.25 53.375 54.25Z" fill="#4B9641"/>
</g>
</g>
<g id="Group_63">
<g id="Group_64">
<path id="Vector_28" d="M53.375 50.75H2.625C2.14178 50.75 1.75 50.3582 1.75 49.875C1.75 49.3918 2.14178 49 2.625 49H53.375C53.8582 49 54.25 49.3918 54.25 49.875C54.25 50.3582 53.8582 50.75 53.375 50.75Z" fill="#91C83C"/>
</g>
</g>
</g>
</g>
</svg>
