<svg width="56" height="56" viewBox="0 0 56 56" fill="none" xmlns="http://www.w3.org/2000/svg">
<g id="bait_3134930 1">
<g id="Group">
<path id="Vector" d="M41.8831 16.2455L38.732 17.1609C37.5059 12.9412 34.3144 9.50688 30.1964 7.97453L28.0002 7.15641L25.8039 7.97453C21.6859 9.50688 18.4944 12.9412 17.2683 17.1609L14.1172 16.2455C15.632 11.0337 19.5728 6.79219 24.6598 4.89891L26.3595 4.26562V0H29.6408V4.26562L31.3405 4.89891C36.4275 6.79219 40.3683 11.0337 41.8831 16.2455Z" fill="#455DA0"/>
<path id="Vector_2" d="M41.883 16.2455L38.7319 17.1609C37.5058 12.9412 34.3142 9.50688 30.1962 7.97453L28 7.15641V0H29.6406V4.26562L31.3403 4.89891C36.4273 6.79219 40.3681 11.0337 41.883 16.2455Z" fill="#214070"/>
<path id="Vector_3" d="M25.0776 28.9429C25.0776 39.3161 15.6921 47.7248 15.6921 47.7248C15.6921 47.7248 6.30664 39.3161 6.30664 28.9429C6.30664 27.8043 6.37445 26.7434 6.50023 25.7568H24.884C25.0098 26.7434 25.0776 27.8043 25.0776 28.9429Z" fill="#F87600"/>
<path id="Vector_4" d="M25.0779 28.9429C25.0779 39.3161 15.6924 47.7248 15.6924 47.7248V25.7568H24.8843C25.01 26.7434 25.0779 27.8043 25.0779 28.9429Z" fill="#CE0102"/>
<path id="Vector_5" d="M20.6054 55.9999H10.7803C11.43 51.3482 15.6923 47.7246 15.6923 47.7246C15.6923 47.7246 19.9557 51.3482 20.6054 55.9999Z" fill="#FEBF01"/>
<path id="Vector_6" d="M20.6055 55.9999H15.6924V47.7246C15.6924 47.7246 19.9558 51.3482 20.6055 55.9999Z" fill="#FE9100"/>
<path id="Vector_7" d="M24.8837 25.7567C23.1698 28.9756 19.5845 31.1686 15.6919 31.1686C11.7992 31.1686 8.215 28.9756 6.5 25.7567C7.52156 17.7504 12.3559 14.6245 15.6919 14.6245C19.0202 14.6245 23.8611 17.7504 24.8837 25.7567Z" fill="#FEBF01"/>
<path id="Vector_8" d="M24.8843 25.7567C23.1704 28.9756 19.585 31.1686 15.6924 31.1686V14.6245C19.0207 14.6245 23.8616 17.7504 24.8843 25.7567Z" fill="#FE9100"/>
<path id="Vector_9" d="M14.043 22.3606H17.333V25.6418H14.043V22.3606Z" fill="#455DA0"/>
<path id="Vector_10" d="M15.6924 22.3606H17.333V25.6418H15.6924V22.3606Z" fill="#214070"/>
<path id="Vector_11" d="M49.6938 28.9429C49.6938 39.3161 40.3083 47.7248 40.3083 47.7248C40.3083 47.7248 30.9229 39.3161 30.9229 28.9429C30.9229 27.8043 30.9907 26.7434 31.1164 25.7568H49.5002C49.626 26.7434 49.6938 27.8043 49.6938 28.9429Z" fill="#00B3FF"/>
<path id="Vector_12" d="M49.6931 28.9429C49.6931 39.3161 40.3076 47.7248 40.3076 47.7248V25.7568H49.4995C49.6253 26.7434 49.6931 27.8043 49.6931 28.9429Z" fill="#276EFF"/>
<path id="Vector_13" d="M45.2216 55.9999H35.3965C36.0462 51.3482 40.3085 47.7246 40.3085 47.7246C40.3085 47.7246 44.572 51.3482 45.2216 55.9999Z" fill="#C2F4FF"/>
<path id="Vector_14" d="M45.2207 55.9999H40.3076V47.7246C40.3076 47.7246 44.5711 51.3482 45.2207 55.9999Z" fill="#99BEF3"/>
<path id="Vector_15" d="M49.5 25.7567C47.7861 28.9756 44.2007 31.1686 40.3081 31.1686C36.4154 31.1686 32.8312 28.9756 31.1162 25.7567C32.1378 17.7504 36.9721 14.6245 40.3081 14.6245C43.6364 14.6245 48.4773 17.7504 49.5 25.7567Z" fill="#C2F4FF"/>
<path id="Vector_16" d="M49.4995 25.7567C47.7856 28.9756 44.2003 31.1686 40.3076 31.1686V14.6245C43.6359 14.6245 48.4768 17.7504 49.4995 25.7567Z" fill="#99BEF3"/>
<path id="Vector_17" d="M38.6582 22.3606H41.9482V25.6418H38.6582V22.3606Z" fill="#455DA0"/>
<path id="Vector_18" d="M40.3076 22.3606H41.9482V25.6418H40.3076V22.3606Z" fill="#214070"/>
</g>
</g>
</svg>
