<svg width="56" height="56" viewBox="0 0 56 56" fill="none" xmlns="http://www.w3.org/2000/svg">
<g id="apartment_16381842 1" clip-path="url(#clip0_1362_10147)">
<g id="Group">
<path id="Vector" d="M47.2725 0.430664H8.72728C4.14389 0.430664 0.430664 4.14389 0.430664 8.72728V47.2811C0.430664 51.8645 4.14389 55.5777 8.72728 55.5777H47.2811C51.8645 55.5777 55.5777 51.8645 55.5777 47.2811V8.72728C55.5691 4.14389 51.8559 0.430664 47.2725 0.430664Z" fill="#F4F4F6"/>
<path id="Vector_2" d="M36.9336 27.0693H42.1028V45.5666H36.9336V27.0693Z" fill="url(#paint0_linear_1362_10147)"/>
<path id="Vector_3" d="M25.415 27.0693H30.5843V45.5666H25.415V27.0693Z" fill="url(#paint1_linear_1362_10147)"/>
<path id="Vector_4" d="M13.8965 27.0693H19.0657V45.5666H13.8965V27.0693Z" fill="url(#paint2_linear_1362_10147)"/>
<g id="Group_2">
<path id="Vector_5" d="M35.6416 24.3556V26.475C35.6416 27.0953 36.1413 27.595 36.7616 27.595H42.2841C42.9044 27.595 43.4041 27.0953 43.4041 26.475V24.3556C43.4041 23.7353 42.9044 23.2356 42.2841 23.2356H36.7616C36.1413 23.2356 35.6416 23.7353 35.6416 24.3556Z" fill="url(#paint3_linear_1362_10147)"/>
<path id="Vector_6" d="M24.123 24.3556V26.475C24.123 27.0953 24.6227 27.595 25.243 27.595H30.7655C31.3858 27.595 31.8855 27.0953 31.8855 26.475V24.3556C31.8855 23.7353 31.3858 23.2356 30.7655 23.2356H25.243C24.6227 23.2356 24.123 23.7353 24.123 24.3556Z" fill="url(#paint4_linear_1362_10147)"/>
<path id="Vector_7" d="M12.6045 24.3556V26.475C12.6045 27.0953 13.1042 27.595 13.7245 27.595H19.247C19.8673 27.595 20.367 27.0953 20.367 26.475V24.3556C20.367 23.7353 19.8673 23.2356 19.247 23.2356H13.7245C13.1042 23.2356 12.6045 23.7353 12.6045 24.3556Z" fill="url(#paint5_linear_1362_10147)"/>
</g>
<g id="Group_3">
<path id="Vector_8" d="M35.6416 43.025V45.1444C35.6416 45.7647 36.1413 46.2644 36.7616 46.2644H42.2841C42.9044 46.2644 43.4041 45.7647 43.4041 45.1444V43.025C43.4041 42.4047 42.9044 41.905 42.2841 41.905H36.7616C36.1413 41.905 35.6416 42.4047 35.6416 43.025Z" fill="url(#paint6_linear_1362_10147)"/>
<path id="Vector_9" d="M24.123 43.025V45.1444C24.123 45.7647 24.6227 46.2644 25.243 46.2644H30.7655C31.3858 46.2644 31.8855 45.7647 31.8855 45.1444V43.025C31.8855 42.4047 31.3858 41.905 30.7655 41.905H25.243C24.6227 41.905 24.123 42.4047 24.123 43.025Z" fill="url(#paint7_linear_1362_10147)"/>
<path id="Vector_10" d="M12.6045 43.025V45.1444C12.6045 45.7647 13.1042 46.2644 13.7245 46.2644H19.247C19.8673 46.2644 20.367 45.7647 20.367 45.1444V43.025C20.367 42.4047 19.8673 41.905 19.247 41.905H13.7245C13.1042 41.905 12.6045 42.4047 12.6045 43.025Z" fill="url(#paint8_linear_1362_10147)"/>
</g>
<path id="Vector_11" d="M48.7973 21.211L29.0594 6.80608C28.4305 6.34947 27.569 6.34947 26.94 6.80608L7.2022 21.211C6.57328 21.6676 6.31482 22.4775 6.55605 23.2184C6.79728 23.9593 7.48651 24.459 8.26189 24.459H47.7462C48.5216 24.459 49.2108 23.9593 49.452 23.2184C49.6933 22.4775 49.4262 21.6676 48.7973 21.211Z" fill="url(#paint9_linear_1362_10147)"/>
<path id="Vector_12" d="M47.1093 45.0239H8.89145C7.54745 45.0239 6.46191 46.1095 6.46191 47.4535V48.8233C6.46191 49.2196 6.78068 49.5384 7.17699 49.5384H48.8151C49.2115 49.5384 49.5302 49.2196 49.5302 48.8233V47.4535C49.5388 46.1095 48.4533 45.0239 47.1093 45.0239Z" fill="url(#paint10_linear_1362_10147)"/>
<path id="Vector_13" d="M28.0003 20.0307C30.0511 20.0307 31.7136 18.3682 31.7136 16.3175C31.7136 14.2667 30.0511 12.6042 28.0003 12.6042C25.9496 12.6042 24.2871 14.2667 24.2871 16.3175C24.2871 18.3682 25.9496 20.0307 28.0003 20.0307Z" fill="white"/>
</g>
</g>
<defs>
<linearGradient id="paint0_linear_1362_10147" x1="36.937" y1="36.318" x2="42.1063" y2="36.318" gradientUnits="userSpaceOnUse">
<stop stop-color="#F3AA0F"/>
<stop offset="1" stop-color="#FED46E"/>
</linearGradient>
<linearGradient id="paint1_linear_1362_10147" x1="25.415" y1="36.318" x2="30.5843" y2="36.318" gradientUnits="userSpaceOnUse">
<stop stop-color="#F3AA0F"/>
<stop offset="1" stop-color="#FED46E"/>
</linearGradient>
<linearGradient id="paint2_linear_1362_10147" x1="13.893" y1="36.318" x2="19.0623" y2="36.318" gradientUnits="userSpaceOnUse">
<stop stop-color="#F3AA0F"/>
<stop offset="1" stop-color="#FED46E"/>
</linearGradient>
<linearGradient id="paint3_linear_1362_10147" x1="35.645" y1="25.4136" x2="43.3989" y2="25.4136" gradientUnits="userSpaceOnUse">
<stop stop-color="#BB33DD"/>
<stop offset="1" stop-color="#FF5160"/>
</linearGradient>
<linearGradient id="paint4_linear_1362_10147" x1="24.123" y1="25.4136" x2="31.8769" y2="25.4136" gradientUnits="userSpaceOnUse">
<stop stop-color="#BB33DD"/>
<stop offset="1" stop-color="#FF5160"/>
</linearGradient>
<linearGradient id="paint5_linear_1362_10147" x1="12.601" y1="25.4136" x2="20.3549" y2="25.4136" gradientUnits="userSpaceOnUse">
<stop stop-color="#BB33DD"/>
<stop offset="1" stop-color="#FF5160"/>
</linearGradient>
<linearGradient id="paint6_linear_1362_10147" x1="35.645" y1="44.0796" x2="43.3989" y2="44.0796" gradientUnits="userSpaceOnUse">
<stop stop-color="#BB33DD"/>
<stop offset="1" stop-color="#FF5160"/>
</linearGradient>
<linearGradient id="paint7_linear_1362_10147" x1="24.123" y1="44.0796" x2="31.8769" y2="44.0796" gradientUnits="userSpaceOnUse">
<stop stop-color="#BB33DD"/>
<stop offset="1" stop-color="#FF5160"/>
</linearGradient>
<linearGradient id="paint8_linear_1362_10147" x1="12.601" y1="44.0796" x2="20.3549" y2="44.0796" gradientUnits="userSpaceOnUse">
<stop stop-color="#BB33DD"/>
<stop offset="1" stop-color="#FF5160"/>
</linearGradient>
<linearGradient id="paint9_linear_1362_10147" x1="15.2559" y1="35.4074" x2="34.4587" y2="16.2046" gradientUnits="userSpaceOnUse">
<stop stop-color="#4656A1"/>
<stop offset="1" stop-color="#84C8D3"/>
</linearGradient>
<linearGradient id="paint10_linear_1362_10147" x1="14.8266" y1="60.9564" x2="32.8388" y2="42.9442" gradientUnits="userSpaceOnUse">
<stop stop-color="#4656A1"/>
<stop offset="1" stop-color="#84C8D3"/>
</linearGradient>
<clipPath id="clip0_1362_10147">
<rect width="56" height="56" fill="white"/>
</clipPath>
</defs>
</svg>
