<svg width="56" height="56" viewBox="0 0 56 56" fill="none" xmlns="http://www.w3.org/2000/svg">
<g id="first-aid_14378879 1" clip-path="url(#clip0_1353_8624)">
<g id="Group">
<g id="Group_2">
<path id="Vector" d="M23.9094 0H32.1016C45.3031 0 56 10.6969 56 23.9094V32.1016C56 45.3031 45.3031 56 32.0906 56H23.8984C10.6969 56 0 45.3031 0 32.0906V23.8984C0 10.6969 10.6969 0 23.9094 0Z" fill="url(#paint0_linear_1353_8624)"/>
<g id="Group_3" opacity="0.55">
<path id="Vector_2" d="M24.6969 5.41406H31.3031C41.9563 5.41406 50.5859 14.0437 50.5859 24.6969V31.3031C50.5859 41.9563 41.9563 50.5859 31.3031 50.5859H24.6969C14.0437 50.5859 5.41406 41.9563 5.41406 31.3031V24.6969C5.41406 14.0437 14.0437 5.41406 24.6969 5.41406Z" fill="url(#paint1_linear_1353_8624)"/>
<path id="Vector_3" d="M24.6969 5.41406H31.3031C41.9563 5.41406 50.5859 14.0437 50.5859 24.6969V31.3031C50.5859 41.9563 41.9563 50.5859 31.3031 50.5859H24.6969C14.0437 50.5859 5.41406 41.9563 5.41406 31.3031V24.6969C5.41406 14.0437 14.0437 5.41406 24.6969 5.41406Z" fill="url(#paint2_linear_1353_8624)"/>
<path id="Vector_4" d="M24.6969 5.41406H31.3031C41.9563 5.41406 50.5859 14.0437 50.5859 24.6969V31.3031C50.5859 41.9563 41.9563 50.5859 31.3031 50.5859H24.6969C14.0437 50.5859 5.41406 41.9563 5.41406 31.3031V24.6969C5.41406 14.0437 14.0437 5.41406 24.6969 5.41406Z" fill="url(#paint3_linear_1353_8624)"/>
</g>
<path id="Vector_5" d="M0 23.9093V32.1015C0 45.3031 10.6969 56 23.9094 56H32.1016C45.3031 56 56 45.3031 56 32.0906V23.8984C56 23.6359 55.9891 23.3843 55.9891 23.1218H0.0109375C0.0109375 23.3843 0 23.6468 0 23.9093Z" fill="url(#paint4_linear_1353_8624)"/>
<path id="Vector_6" d="M32.0904 0H23.8982C22.9576 0 22.0279 0.0546875 21.1201 0.164062V55.8359C22.0279 55.9453 22.9576 56 23.8982 56H32.0904C45.3029 56 55.9998 45.3031 55.9998 32.0906V23.8984C55.9998 10.6969 45.3029 0 32.0904 0Z" fill="url(#paint5_linear_1353_8624)"/>
<path id="Vector_7" d="M41.7266 2.02344L2.02344 41.7266C5.72031 50.1266 14.1313 56 23.9094 56H32.1016C45.3031 56 56 45.3031 56 32.0906V23.8984C56 14.1312 50.1266 5.72031 41.7266 2.02344Z" fill="url(#paint6_linear_1353_8624)"/>
</g>
<path id="Vector_8" d="M24.5328 29.0063H15.2906L12.7422 31.5548L24.5328 43.3345V29.0063Z" fill="url(#paint7_linear_1353_8624)"/>
<g id="Group_4">
<path id="Vector_9" d="M26.6875 17.6094V24.5219H43.3234L31.5547 12.7422L26.6875 17.6094Z" fill="url(#paint8_linear_1353_8624)"/>
<path id="Vector_10" d="M55.5512 36.7392L43.323 24.522H32.134L24.5215 43.3454L36.7387 55.5626C46.2215 53.6813 53.6809 46.211 55.5512 36.7392Z" fill="url(#paint9_linear_1353_8624)"/>
<g id="Group_5">
<path id="Vector_11" d="M41.7922 23.8657H32.1344V14.2079C32.1344 13.0375 31.1938 12.0969 30.0234 12.0969H25.9656C24.7953 12.0969 23.8547 13.0375 23.8547 14.2079V23.8657H14.1969C13.0266 23.8657 12.0859 24.8063 12.0859 25.9766V30.0344C12.0859 31.2047 13.0266 32.1454 14.1969 32.1454H23.8547V41.8032C23.8547 42.9735 24.7953 43.9141 25.9656 43.9141H30.0234C31.1938 43.9141 32.1344 42.9735 32.1344 41.8032V32.1454H41.7922C42.9625 32.1454 43.9031 31.2047 43.9031 30.0344V25.9766C43.9031 24.8063 42.9625 23.8657 41.7922 23.8657Z" fill="url(#paint10_linear_1353_8624)"/>
<path id="Vector_12" d="M43.9035 30.0235V25.9657C43.9035 24.7954 42.9629 23.8547 41.7926 23.8547H32.1348V32.1344H41.7926C42.9629 32.1344 43.9035 31.1938 43.9035 30.0235Z" fill="url(#paint11_linear_1353_8624)"/>
<path id="Vector_13" d="M23.8652 41.7923C23.8652 42.9626 24.8059 43.9033 25.9762 43.9033H30.034C31.2043 43.9033 32.1449 42.9626 32.1449 41.7923V32.1345H23.8652V41.7923Z" fill="url(#paint12_linear_1353_8624)"/>
</g>
</g>
</g>
</g>
<defs>
<linearGradient id="paint0_linear_1353_8624" x1="8.13334" y1="8.13334" x2="47.1" y2="47.1" gradientUnits="userSpaceOnUse">
<stop stop-color="#F5FBFF"/>
<stop offset="0.2414" stop-color="#F0F8FE"/>
<stop offset="0.4916" stop-color="#E4F2FE"/>
<stop offset="0.7457" stop-color="#CFE8FE"/>
<stop offset="1" stop-color="#B3DAFE"/>
</linearGradient>
<linearGradient id="paint1_linear_1353_8624" x1="-15.5269" y1="-15.5269" x2="67.7115" y2="67.7115" gradientUnits="userSpaceOnUse">
<stop stop-color="#8AC9FE" stop-opacity="0"/>
<stop offset="0.1291" stop-color="#89C8FD" stop-opacity="0.019"/>
<stop offset="0.2629" stop-color="#88C6FB" stop-opacity="0.075"/>
<stop offset="0.3989" stop-color="#87C4F8" stop-opacity="0.168"/>
<stop offset="0.5365" stop-color="#85C0F4" stop-opacity="0.298"/>
<stop offset="0.6753" stop-color="#83BBEF" stop-opacity="0.466"/>
<stop offset="0.8151" stop-color="#7FB5E9" stop-opacity="0.672"/>
<stop offset="0.9532" stop-color="#7CAEE1" stop-opacity="0.911"/>
<stop offset="1" stop-color="#7BACDF"/>
</linearGradient>
<linearGradient id="paint2_linear_1353_8624" x1="28" y1="21.4191" x2="28" y2="-1.64489" gradientUnits="userSpaceOnUse">
<stop stop-color="#8AC9FE" stop-opacity="0"/>
<stop offset="0.1291" stop-color="#89C8FD" stop-opacity="0.019"/>
<stop offset="0.2629" stop-color="#88C6FB" stop-opacity="0.075"/>
<stop offset="0.3989" stop-color="#87C4F8" stop-opacity="0.168"/>
<stop offset="0.5365" stop-color="#85C0F4" stop-opacity="0.298"/>
<stop offset="0.6753" stop-color="#83BBEF" stop-opacity="0.466"/>
<stop offset="0.8151" stop-color="#7FB5E9" stop-opacity="0.672"/>
<stop offset="0.9532" stop-color="#7CAEE1" stop-opacity="0.911"/>
<stop offset="1" stop-color="#7BACDF"/>
</linearGradient>
<linearGradient id="paint3_linear_1353_8624" x1="20.9751" y1="28" x2="-2.64994" y2="28" gradientUnits="userSpaceOnUse">
<stop stop-color="#8AC9FE" stop-opacity="0"/>
<stop offset="0.1291" stop-color="#89C8FD" stop-opacity="0.019"/>
<stop offset="0.2629" stop-color="#88C6FB" stop-opacity="0.075"/>
<stop offset="0.3989" stop-color="#87C4F8" stop-opacity="0.168"/>
<stop offset="0.5365" stop-color="#85C0F4" stop-opacity="0.298"/>
<stop offset="0.6753" stop-color="#83BBEF" stop-opacity="0.466"/>
<stop offset="0.8151" stop-color="#7FB5E9" stop-opacity="0.672"/>
<stop offset="0.9532" stop-color="#7CAEE1" stop-opacity="0.911"/>
<stop offset="1" stop-color="#7BACDF"/>
</linearGradient>
<linearGradient id="paint4_linear_1353_8624" x1="27.2801" y1="35.3514" x2="25.0484" y2="57.2221" gradientUnits="userSpaceOnUse">
<stop stop-color="#8AC9FE" stop-opacity="0"/>
<stop offset="0.1291" stop-color="#89C8FD" stop-opacity="0.019"/>
<stop offset="0.2629" stop-color="#88C6FB" stop-opacity="0.075"/>
<stop offset="0.3989" stop-color="#87C4F8" stop-opacity="0.168"/>
<stop offset="0.5365" stop-color="#85C0F4" stop-opacity="0.298"/>
<stop offset="0.6753" stop-color="#83BBEF" stop-opacity="0.466"/>
<stop offset="0.8151" stop-color="#7FB5E9" stop-opacity="0.672"/>
<stop offset="0.9532" stop-color="#7CAEE1" stop-opacity="0.911"/>
<stop offset="1" stop-color="#7BACDF"/>
</linearGradient>
<linearGradient id="paint5_linear_1353_8624" x1="30.5116" y1="27.6395" x2="56.9945" y2="23.7711" gradientUnits="userSpaceOnUse">
<stop stop-color="#8AC9FE" stop-opacity="0"/>
<stop offset="0.1291" stop-color="#89C8FD" stop-opacity="0.019"/>
<stop offset="0.2629" stop-color="#88C6FB" stop-opacity="0.075"/>
<stop offset="0.3989" stop-color="#87C4F8" stop-opacity="0.168"/>
<stop offset="0.5365" stop-color="#85C0F4" stop-opacity="0.298"/>
<stop offset="0.6753" stop-color="#83BBEF" stop-opacity="0.466"/>
<stop offset="0.8151" stop-color="#7FB5E9" stop-opacity="0.672"/>
<stop offset="0.9532" stop-color="#7CAEE1" stop-opacity="0.911"/>
<stop offset="1" stop-color="#7BACDF"/>
</linearGradient>
<linearGradient id="paint6_linear_1353_8624" x1="41.9762" y1="41.9762" x2="52.3754" y2="52.3754" gradientUnits="userSpaceOnUse">
<stop stop-color="white" stop-opacity="0"/>
<stop offset="0.1205" stop-color="white" stop-opacity="0.016"/>
<stop offset="0.2454" stop-color="white" stop-opacity="0.065"/>
<stop offset="0.3724" stop-color="white" stop-opacity="0.147"/>
<stop offset="0.5008" stop-color="white" stop-opacity="0.261"/>
<stop offset="0.6304" stop-color="white" stop-opacity="0.408"/>
<stop offset="0.761" stop-color="white" stop-opacity="0.588"/>
<stop offset="0.8898" stop-color="white" stop-opacity="0.797"/>
<stop offset="1" stop-color="white"/>
</linearGradient>
<linearGradient id="paint7_linear_1353_8624" x1="18.6385" y1="38.8455" x2="18.6385" y2="30.9566" gradientUnits="userSpaceOnUse">
<stop stop-color="#8AC9FE" stop-opacity="0"/>
<stop offset="0.1291" stop-color="#89C8FD" stop-opacity="0.019"/>
<stop offset="0.2629" stop-color="#88C6FB" stop-opacity="0.075"/>
<stop offset="0.3989" stop-color="#87C4F8" stop-opacity="0.168"/>
<stop offset="0.5365" stop-color="#85C0F4" stop-opacity="0.298"/>
<stop offset="0.6753" stop-color="#83BBEF" stop-opacity="0.466"/>
<stop offset="0.8151" stop-color="#7FB5E9" stop-opacity="0.672"/>
<stop offset="0.9532" stop-color="#7CAEE1" stop-opacity="0.911"/>
<stop offset="1" stop-color="#7BACDF"/>
</linearGradient>
<linearGradient id="paint8_linear_1353_8624" x1="38.2238" y1="18.6313" x2="30.2572" y2="18.6313" gradientUnits="userSpaceOnUse">
<stop stop-color="#8AC9FE" stop-opacity="0"/>
<stop offset="0.1291" stop-color="#89C8FD" stop-opacity="0.019"/>
<stop offset="0.2629" stop-color="#88C6FB" stop-opacity="0.075"/>
<stop offset="0.3989" stop-color="#87C4F8" stop-opacity="0.168"/>
<stop offset="0.5365" stop-color="#85C0F4" stop-opacity="0.298"/>
<stop offset="0.6753" stop-color="#83BBEF" stop-opacity="0.466"/>
<stop offset="0.8151" stop-color="#7FB5E9" stop-opacity="0.672"/>
<stop offset="0.9532" stop-color="#7CAEE1" stop-opacity="0.911"/>
<stop offset="1" stop-color="#7BACDF"/>
</linearGradient>
<linearGradient id="paint9_linear_1353_8624" x1="44.0987" y1="44.0983" x2="31.4127" y2="31.4124" gradientUnits="userSpaceOnUse">
<stop stop-color="#8AC9FE" stop-opacity="0"/>
<stop offset="0.1291" stop-color="#89C8FD" stop-opacity="0.019"/>
<stop offset="0.2629" stop-color="#88C6FB" stop-opacity="0.075"/>
<stop offset="0.3989" stop-color="#87C4F8" stop-opacity="0.168"/>
<stop offset="0.5365" stop-color="#85C0F4" stop-opacity="0.298"/>
<stop offset="0.6753" stop-color="#83BBEF" stop-opacity="0.466"/>
<stop offset="0.8151" stop-color="#7FB5E9" stop-opacity="0.672"/>
<stop offset="0.9532" stop-color="#7CAEE1" stop-opacity="0.911"/>
<stop offset="1" stop-color="#7BACDF"/>
</linearGradient>
<linearGradient id="paint10_linear_1353_8624" x1="17.6127" y1="17.6127" x2="35.5928" y2="35.5929" gradientUnits="userSpaceOnUse">
<stop stop-color="#FF4565"/>
<stop offset="0.2702" stop-color="#FA4362"/>
<stop offset="0.5502" stop-color="#EE3D5A"/>
<stop offset="0.8337" stop-color="#D9344D"/>
<stop offset="1" stop-color="#CA2E43"/>
</linearGradient>
<linearGradient id="paint11_linear_1353_8624" x1="40.9532" y1="28" x2="44.2543" y2="28" gradientUnits="userSpaceOnUse">
<stop stop-color="#6D3326" stop-opacity="0"/>
<stop offset="0.2414" stop-color="#6A3124" stop-opacity="0.063"/>
<stop offset="0.4916" stop-color="#622E1F" stop-opacity="0.252"/>
<stop offset="0.7457" stop-color="#542816" stop-opacity="0.565"/>
<stop offset="1" stop-color="#42210B"/>
</linearGradient>
<linearGradient id="paint12_linear_1353_8624" x1="27.9996" y1="41.7305" x2="27.9996" y2="44.1221" gradientUnits="userSpaceOnUse">
<stop stop-color="#6D3326" stop-opacity="0"/>
<stop offset="0.2414" stop-color="#6A3124" stop-opacity="0.063"/>
<stop offset="0.4916" stop-color="#622E1F" stop-opacity="0.252"/>
<stop offset="0.7457" stop-color="#542816" stop-opacity="0.565"/>
<stop offset="1" stop-color="#42210B"/>
</linearGradient>
<clipPath id="clip0_1353_8624">
<rect width="56" height="56" fill="white"/>
</clipPath>
</defs>
</svg>
