<svg width="56" height="56" viewBox="0 0 56 56" fill="none" xmlns="http://www.w3.org/2000/svg">
<g id="hotel_1388121 1" clip-path="url(#clip0_1353_8697)">
<path id="Vector" d="M42.999 12.1895H53.3747V54.2719H42.999V12.1895Z" fill="#FC2043"/>
<path id="Vector_2" d="M42.999 10.5488H55.9997V13.8301H42.999V10.5488Z" fill="#FD9E28"/>
<g id="Group">
<path id="Vector_3" d="M42.999 16.3452H47.3159V19.6265H42.999V16.3452Z" fill="#FABE2C"/>
<path id="Vector_4" d="M42.999 22.1426H47.3159V25.4238H42.999V22.1426Z" fill="#FABE2C"/>
<path id="Vector_5" d="M42.999 28.2671H47.3159V31.5483H42.999V28.2671Z" fill="#FABE2C"/>
<path id="Vector_6" d="M42.999 34.0645H47.3159V37.3457H42.999V34.0645Z" fill="#FABE2C"/>
</g>
<path id="Vector_7" d="M2.625 26.2979H15.7355V54.2718H2.625V26.2979Z" fill="#FC4B4E"/>
<path id="Vector_8" d="M0 24.6572H15.3022V27.9385H0V24.6572Z" fill="#FABE2C"/>
<path id="Vector_9" d="M8.68359 36.905H15.3021V40.1863H8.68359V36.905Z" fill="#FEE378"/>
<path id="Vector_10" d="M8.68359 42.7024H15.3021V45.9836H8.68359V42.7024Z" fill="#FEE378"/>
<path id="Vector_11" d="M8.68359 30.9468H15.3021V34.228H8.68359V30.9468Z" fill="#FEE378"/>
<path id="Vector_12" d="M14.0947 1.76587H44.6381V54.2719H14.0947V1.76587Z" fill="#FD6D6F"/>
<path id="Vector_13" d="M29.7725 1.76587H44.6385V54.2719H29.7725V1.76587Z" fill="#FC4B4E"/>
<path id="Vector_14" d="M11.1963 0H48.3492V3.28125H11.1963V0Z" fill="#FABE2C"/>
<path id="Vector_15" d="M29.7725 0H48.3491V3.28125H29.7725V0Z" fill="#FD9E28"/>
<path id="Vector_16" d="M21.0361 40.9187H38.5425V54.2719H21.0361V40.9187Z" fill="#D6E8FE"/>
<path id="Vector_17" d="M29.7725 40.9187H38.543V54.2719H29.7725V40.9187Z" fill="#B4D9FF"/>
<path id="Vector_18" d="M21.0449 28.2671H38.4843V31.5483H21.0449V28.2671Z" fill="#FEE378"/>
<path id="Vector_19" d="M21.0449 34.8301H38.4843V38.1113H21.0449V34.8301Z" fill="#FEE378"/>
<path id="Vector_20" d="M29.7725 28.2671H38.4814V31.5483H29.7725V28.2671Z" fill="#FABE2C"/>
<path id="Vector_21" d="M29.7725 34.8301H38.4814V38.1113H29.7725V34.8301Z" fill="#FABE2C"/>
<path id="Vector_22" d="M27.0938 17.0587H32.6385V23.0598H35.9198V7.77588H32.6385V13.7774H27.0938V7.77588H23.8125V23.0598H27.0938V17.0587Z" fill="#D7E9FF"/>
<path id="Vector_23" d="M32.6384 7.77588V13.7774H29.7725V17.0587H32.6384V23.0598H35.9197V7.77588H32.6384Z" fill="#B4D9FF"/>
<path id="Vector_24" d="M0 52.6311H56V55.9124H0V52.6311Z" fill="#FABE2C"/>
<path id="Vector_25" d="M29.7891 52.6311H55.9998V55.9124H29.7891V52.6311Z" fill="#FD9E28"/>
</g>
<defs>
<clipPath id="clip0_1353_8697">
<rect width="56" height="56" fill="white"/>
</clipPath>
</defs>
</svg>
