<svg width="56" height="56" viewBox="0 0 56 56" fill="none" xmlns="http://www.w3.org/2000/svg">
<g id="metaverse_10552208 1">
<g id="Icons">
<g id="Group">
<g id="Group_2">
<path id="Vector" d="M28 13.125C22.8813 13.125 3.5 13.2388 3.5 18.375V42.875C3.5 37.7318 22.8646 37.625 28 37.625C33.5379 37.625 41.8609 37.8569 47.25 39.2263C49.2713 39.7338 52.5 40.7925 52.5 42.875V18.375C52.5 13.2388 33.1275 13.125 28 13.125Z" fill="#FAB400"/>
</g>
<g id="Group_3">
<path id="Vector_2" d="M45.5 24.5V26.25C45.5 26.7312 45.1063 27.125 44.625 27.125H43.75V38.5437C38.6925 37.7737 32.48 37.625 28 37.625C25.1737 37.625 18.0775 37.66 12.25 38.535V27.125H11.375C10.8937 27.125 10.5 26.7312 10.5 26.25V24.5C10.5 24.0188 10.8937 23.625 11.375 23.625H17.5C17.5 23.625 17.5 21.9713 17.5 21.875H16.625C16.1438 21.875 15.75 21.4813 15.75 21V19.25C15.75 18.7687 16.1438 18.375 16.625 18.375H39.375C39.8563 18.375 40.25 18.7687 40.25 19.25V21C40.25 21.4813 39.8563 21.875 39.375 21.875H38.5V23.625H44.625C45.1063 23.625 45.5 24.0188 45.5 24.5Z" fill="#DC9600"/>
</g>
<g id="Group_4">
<path id="Vector_3" d="M8.75 23.3004V45.4965C8.75 46.1247 8.09987 46.5518 7.52413 46.3024C4.98487 45.206 3.5 43.8839 3.5 42.4637V18.375C3.5 19.9141 5.24212 21.3377 8.18038 22.484C8.519 22.6161 8.75 22.9372 8.75 23.3004Z" fill="#00A0C8"/>
</g>
<g id="Group_5">
<path id="Vector_4" d="M52.5 18.375V42.4637C52.5 43.8847 51.0151 45.206 48.4759 46.3032C47.9001 46.5518 47.25 46.1248 47.25 45.4974V23.3004C47.25 22.9372 47.481 22.6161 47.8196 22.484C50.7579 21.3377 52.5 19.9141 52.5 18.375Z" fill="#00A0C8"/>
</g>
</g>
<g id="Group_6">
<g id="Group_7">
<path id="Vector_5" d="M12.25 24.5H43.75V49H12.25V24.5Z" fill="#C80A50"/>
</g>
<g id="Group_8">
<path id="Vector_6" d="M43.75 24.5H39.375H16.625H12.25V27.125H16.625V49H39.375V27.125H43.75V24.5Z" fill="#A00028"/>
</g>
<g id="Group_9">
<path id="Vector_7" d="M45.5 23.625V25.375C45.5 25.8563 45.1063 26.25 44.625 26.25H11.375C10.8937 26.25 10.5 25.8563 10.5 25.375V23.625C10.5 23.1437 10.8937 22.75 11.375 22.75H44.625C45.1063 22.75 45.5 23.1437 45.5 23.625Z" fill="#0A5078"/>
</g>
<g id="Group_10">
<path id="Vector_8" d="M16.625 22.75H39.375V26.25H16.625V22.75Z" fill="#00325A"/>
</g>
<g id="Group_11">
<path id="Vector_9" d="M17.5 17.5H38.5V49H17.5V17.5Z" fill="#00A0C8"/>
</g>
<g id="Group_12">
<path id="Vector_10" d="M17.5 18.375H38.5V21.875H17.5V18.375Z" fill="#0082AA"/>
</g>
<g id="Group_13">
<path id="Vector_11" d="M39.375 21H16.625C16.142 21 15.75 20.608 15.75 20.125V18.375C15.75 17.892 16.142 17.5 16.625 17.5H39.375C39.858 17.5 40.25 17.892 40.25 18.375V20.125C40.25 20.608 39.858 21 39.375 21Z" fill="#0A5078"/>
</g>
<g id="Group_14">
<path id="Vector_12" d="M44.625 49H11.375C10.892 49 10.5 48.608 10.5 48.125V46.375C10.5 45.892 10.892 45.5 11.375 45.5H44.625C45.108 45.5 45.5 45.892 45.5 46.375V48.125C45.5 48.608 45.108 49 44.625 49Z" fill="#0A5078"/>
</g>
<g id="Group_15">
<path id="Vector_13" d="M23.625 26.25H21.875C21.392 26.25 21 25.858 21 25.375V23.625C21 23.142 21.392 22.75 21.875 22.75H23.625C24.108 22.75 24.5 23.142 24.5 23.625V25.375C24.5 25.858 24.108 26.25 23.625 26.25Z" fill="#F0F0F0"/>
</g>
<g id="Group_16">
<path id="Vector_14" d="M28.875 26.25H27.125C26.642 26.25 26.25 25.858 26.25 25.375V23.625C26.25 23.142 26.642 22.75 27.125 22.75H28.875C29.358 22.75 29.75 23.142 29.75 23.625V25.375C29.75 25.858 29.358 26.25 28.875 26.25Z" fill="#F0F0F0"/>
</g>
<g id="Group_17">
<path id="Vector_15" d="M34.125 26.25H32.375C31.892 26.25 31.5 25.858 31.5 25.375V23.625C31.5 23.142 31.892 22.75 32.375 22.75H34.125C34.608 22.75 35 23.142 35 23.625V25.375C35 25.858 34.608 26.25 34.125 26.25Z" fill="#F0F0F0"/>
</g>
<g id="Group_18">
<path id="Vector_16" d="M23.625 31.5H21.875C21.392 31.5 21 31.108 21 30.625V28.875C21 28.392 21.392 28 21.875 28H23.625C24.108 28 24.5 28.392 24.5 28.875V30.625C24.5 31.108 24.108 31.5 23.625 31.5Z" fill="#F0F0F0"/>
</g>
<g id="Group_19">
<path id="Vector_17" d="M28.875 31.5H27.125C26.642 31.5 26.25 31.108 26.25 30.625V28.875C26.25 28.392 26.642 28 27.125 28H28.875C29.358 28 29.75 28.392 29.75 28.875V30.625C29.75 31.108 29.358 31.5 28.875 31.5Z" fill="#F0F0F0"/>
</g>
<g id="Group_20">
<path id="Vector_18" d="M34.125 31.5H32.375C31.892 31.5 31.5 31.108 31.5 30.625V28.875C31.5 28.392 31.892 28 32.375 28H34.125C34.608 28 35 28.392 35 28.875V30.625C35 31.108 34.608 31.5 34.125 31.5Z" fill="#F0F0F0"/>
</g>
<g id="Group_21">
<path id="Vector_19" d="M23.625 36.75H21.875C21.392 36.75 21 36.358 21 35.875V34.125C21 33.642 21.392 33.25 21.875 33.25H23.625C24.108 33.25 24.5 33.642 24.5 34.125V35.875C24.5 36.358 24.108 36.75 23.625 36.75Z" fill="#F0F0F0"/>
</g>
<g id="Group_22">
<path id="Vector_20" d="M28.875 36.75H27.125C26.642 36.75 26.25 36.358 26.25 35.875V34.125C26.25 33.642 26.642 33.25 27.125 33.25H28.875C29.358 33.25 29.75 33.642 29.75 34.125V35.875C29.75 36.358 29.358 36.75 28.875 36.75Z" fill="#F0F0F0"/>
</g>
<g id="Group_23">
<path id="Vector_21" d="M34.125 36.75H32.375C31.892 36.75 31.5 36.358 31.5 35.875V34.125C31.5 33.642 31.892 33.25 32.375 33.25H34.125C34.608 33.25 35 33.642 35 34.125V35.875C35 36.358 34.608 36.75 34.125 36.75Z" fill="#F0F0F0"/>
</g>
<g id="Group_24">
<path id="Vector_22" d="M24.5 23.625V24.5C24.5 24.0187 24.1063 23.625 23.625 23.625H21.875C21.3937 23.625 21 24.0187 21 24.5V23.625C21 23.1437 21.3937 22.75 21.875 22.75H23.625C24.1063 22.75 24.5 23.1437 24.5 23.625Z" fill="#D2D2D2"/>
</g>
<g id="Group_25">
<path id="Vector_23" d="M29.75 23.625V24.5C29.75 24.0187 29.3563 23.625 28.875 23.625H27.125C26.6437 23.625 26.25 24.0187 26.25 24.5V23.625C26.25 23.1437 26.6437 22.75 27.125 22.75H28.875C29.3563 22.75 29.75 23.1437 29.75 23.625Z" fill="#D2D2D2"/>
</g>
<g id="Group_26">
<path id="Vector_24" d="M35 23.625V24.5C35 24.0187 34.6063 23.625 34.125 23.625H32.375C31.8937 23.625 31.5 24.0187 31.5 24.5V23.625C31.5 23.1437 31.8937 22.75 32.375 22.75H34.125C34.6063 22.75 35 23.1437 35 23.625Z" fill="#D2D2D2"/>
</g>
<g id="Group_27">
<path id="Vector_25" d="M24.5 28.875V29.75C24.5 29.2687 24.1063 28.875 23.625 28.875H21.875C21.3937 28.875 21 29.2687 21 29.75V28.875C21 28.3937 21.3937 28 21.875 28H23.625C24.1063 28 24.5 28.3937 24.5 28.875Z" fill="#D2D2D2"/>
</g>
<g id="Group_28">
<path id="Vector_26" d="M29.75 28.875V29.75C29.75 29.2687 29.3563 28.875 28.875 28.875H27.125C26.6437 28.875 26.25 29.2687 26.25 29.75V28.875C26.25 28.3937 26.6437 28 27.125 28H28.875C29.3563 28 29.75 28.3937 29.75 28.875Z" fill="#D2D2D2"/>
</g>
<g id="Group_29">
<path id="Vector_27" d="M35 28.875V29.75C35 29.2687 34.6063 28.875 34.125 28.875H32.375C31.8937 28.875 31.5 29.2687 31.5 29.75V28.875C31.5 28.3937 31.8937 28 32.375 28H34.125C34.6063 28 35 28.3937 35 28.875Z" fill="#D2D2D2"/>
</g>
<g id="Group_30">
<path id="Vector_28" d="M24.5 34.125V35C24.5 34.5187 24.1063 34.125 23.625 34.125H21.875C21.3937 34.125 21 34.5187 21 35V34.125C21 33.6437 21.3937 33.25 21.875 33.25H23.625C24.1063 33.25 24.5 33.6437 24.5 34.125Z" fill="#D2D2D2"/>
</g>
<g id="Group_31">
<path id="Vector_29" d="M29.75 34.125V35C29.75 34.5187 29.3563 34.125 28.875 34.125H27.125C26.6437 34.125 26.25 34.5187 26.25 35V34.125C26.25 33.6437 26.6437 33.25 27.125 33.25H28.875C29.3563 33.25 29.75 33.6437 29.75 34.125Z" fill="#D2D2D2"/>
</g>
<g id="Group_32">
<path id="Vector_30" d="M35 34.125V35C35 34.5187 34.6063 34.125 34.125 34.125H32.375C31.8937 34.125 31.5 34.5187 31.5 35V34.125C31.5 33.6437 31.8937 33.25 32.375 33.25H34.125C34.6063 33.25 35 33.6437 35 34.125Z" fill="#D2D2D2"/>
</g>
<g id="Group_33">
<path id="Vector_31" d="M31.5 45.5H24.5V39.375C24.5 38.892 24.892 38.5 25.375 38.5H30.625C31.108 38.5 31.5 38.892 31.5 39.375V45.5Z" fill="#FAB400"/>
</g>
<g id="Group_34">
<path id="Vector_32" d="M31.5 39.375V40.25C31.5 39.7687 31.1062 39.375 30.625 39.375H25.375C24.8937 39.375 24.5 39.7687 24.5 40.25V39.375C24.5 38.8937 24.8937 38.5 25.375 38.5H30.625C31.1062 38.5 31.5 38.8937 31.5 39.375Z" fill="#DC9600"/>
</g>
</g>
<g id="Group_35">
<g id="Group_36">
<path id="Vector_33" d="M28.875 7.875V9.625C28.875 10.1089 28.483 10.5 28 10.5C27.517 10.5 27.125 10.1089 27.125 9.625V7.875C27.125 7.39113 27.517 7 28 7C28.483 7 28.875 7.39113 28.875 7.875Z" fill="#00A0C8"/>
</g>
<g id="Group_37">
<path id="Vector_34" d="M33.8688 10.2436L32.6315 11.4808C32.2894 11.823 31.7364 11.823 31.3943 11.4808C31.0522 11.1387 31.0522 10.5857 31.3943 10.2436L32.6315 9.00635C32.9737 8.66422 33.5267 8.66422 33.8688 9.00635C34.2109 9.34847 34.2109 9.90147 33.8688 10.2436Z" fill="#C80A50"/>
</g>
<g id="Group_38">
<path id="Vector_35" d="M24.6061 11.4808C24.264 11.823 23.711 11.823 23.3688 11.4808L22.1316 10.2436C21.7895 9.90147 21.7895 9.34847 22.1316 9.00635C22.4737 8.66422 23.0267 8.66422 23.3688 9.00635L24.6061 10.2436C24.9482 10.5857 24.9482 11.1387 24.6061 11.4808Z" fill="#0A5078"/>
</g>
</g>
</g>
</g>
</svg>
