<svg width="56" height="56" viewBox="0 0 56 56" fill="none" xmlns="http://www.w3.org/2000/svg">
<g id="shield_13562147 1">
<g id="Time Insurance">
<path id="Vector" d="M49.1522 6.69082V27.3525C49.1522 45.1733 35.2981 51.5375 28.8639 54.95L28.0006 55.4167C22.8322 52.5 16.6489 49.77 12.0872 43.75C9.00663 39.7037 7.20854 34.8276 6.92473 29.75C6.7964 28.1633 6.83723 28.7525 6.83723 6.70832C8.2839 6.27082 27.9597 0.583325 28.0356 0.618325C28.1114 0.653325 46.3114 5.86249 49.1522 6.69082Z" fill="#7498F0"/>
<path id="Vector_2" d="M47.1569 25.2289C46.7609 25.2289 46.381 25.0716 46.101 24.7915C45.8209 24.5115 45.6636 24.1317 45.6636 23.7356V11.9756C45.6604 11.2084 45.4093 10.4628 44.9478 9.84998C44.4864 9.23712 43.8392 8.78982 43.1027 8.57476C28.0877 4.24643 28.7119 4.3631 28.0002 4.3631C27.2886 4.3631 27.9069 4.24643 12.8919 8.57476C12.1544 8.78877 11.5059 9.23562 11.0433 9.84857C10.5807 10.4615 10.3288 11.2077 10.3252 11.9756V23.7356C10.3253 24.1306 10.1687 24.5096 9.88992 24.7895C9.61113 25.0694 9.23279 25.2274 8.83775 25.2289H6.83691V27.3523C6.83691 35.2389 9.49108 41.9764 15.3186 47.2848C19.7286 51.3331 25.0836 53.7831 28.0002 55.4164L28.8694 54.9498C35.2861 51.5373 49.1577 45.1731 49.1577 27.3523V25.2289H47.1569Z" fill="#515CD2"/>
<path id="Vector_3" d="M42.6186 10.2548C42.9984 10.3617 43.332 10.5914 43.5673 10.9081C43.8027 11.2247 43.9265 11.6103 43.9195 12.0048C43.9195 28.5831 44.0536 29.1664 43.4936 32.0831C41.6853 41.5914 34.4928 46.0481 28.852 49.0581C28.5908 49.1975 28.2993 49.2704 28.0032 49.2704C27.7071 49.2704 27.4156 49.1975 27.1545 49.0581C23.2928 46.9581 19.647 44.7298 16.8236 41.3348C13.4695 37.3506 12.0636 32.5848 12.0636 27.3756V11.9756C12.0586 11.5816 12.1832 11.1969 12.4182 10.8807C12.6533 10.5645 12.9857 10.3343 13.3645 10.2256L27.4986 6.14228C27.8226 6.04893 28.1663 6.04893 28.4903 6.14228L42.6186 10.2548Z" fill="#FFBD38"/>
<path id="Vector_4" d="M43.9193 11.9758V14.8925C43.9228 14.4997 43.7983 14.1165 43.5647 13.8008C43.331 13.485 43.001 13.254 42.6243 13.1425C41.1718 12.74 35.0002 10.9491 28.4902 9.05914C27.8427 8.86664 27.6443 9.01831 24.7918 9.83498L13.3643 13.1775C12.9871 13.2888 12.6563 13.5196 12.4217 13.8352C12.187 14.1509 12.0613 14.5342 12.0635 14.9275V12.0108C12.0613 11.6175 12.187 11.2342 12.4217 10.9186C12.6563 10.6029 12.9871 10.3721 13.3643 10.2608C22.371 7.67081 22.3418 7.68831 27.4985 6.17748C28.4727 5.91498 28.1518 6.17748 42.6243 10.2608C42.9952 10.3706 43.3211 10.5964 43.5542 10.9051C43.7873 11.2138 43.9153 11.589 43.9193 11.9758Z" fill="#FF9F38"/>
<path id="Vector_5" d="M43.9199 18.439C43.9199 27.3231 44.0541 29.1606 43.4941 32.0715C41.6916 41.5623 34.5166 46.019 28.9108 49.029C28.6413 49.172 28.3409 49.2467 28.0358 49.2467C27.7307 49.2467 27.4303 49.172 27.1608 49.029C26.3733 48.5973 25.5391 48.1423 24.8916 47.7515C32.3991 43.5398 41.0383 37.2515 43.3541 25.0656C43.7531 22.8798 43.9425 20.6608 43.9199 18.439Z" fill="#FF9F38"/>
<path id="Vector_6" d="M41.3176 15.1082C40.2244 20.813 37.9741 26.2333 34.7055 31.035C31.4368 35.8366 27.2192 39.9177 22.3126 43.0265C21.6247 43.4594 20.8089 43.6429 20.0019 43.5463C19.1948 43.4497 18.4455 43.0788 17.8792 42.4957C13.8251 38.3074 12.0459 33.2265 12.0459 27.329V15.079C12.0462 14.6282 12.1932 14.1897 12.4647 13.8298C12.7362 13.4699 13.1175 13.2081 13.5509 13.084L27.1951 9.15819C27.717 9.00652 28.2714 9.00652 28.7934 9.15819C38.0684 11.8299 37.4326 11.6665 39.5559 12.2499C40.1531 12.4208 40.6648 12.8088 40.9907 13.3376C41.3166 13.8664 41.4332 14.4979 41.3176 15.1082Z" fill="#FFDB56"/>
<path id="Vector_7" d="M28.6302 11.8648C28.1807 11.7335 27.703 11.7335 27.2535 11.8648L16.4502 14.9681C15.9465 15.1173 15.5042 15.4249 15.189 15.8452C14.8738 16.2654 14.7024 16.7761 14.7002 17.3015V19.1681C14.6994 19.4893 14.7621 19.8075 14.8847 20.1044C15.0072 20.4013 15.1873 20.671 15.4144 20.8981C15.6415 21.1252 15.9112 21.3053 16.2081 21.4278C16.505 21.5504 16.8232 21.6131 17.1444 21.6123H24.261C24.6449 21.6194 25.025 21.5359 25.3706 21.3687C25.7162 21.2015 26.0175 20.9552 26.2502 20.6498L29.966 15.6915C30.2042 15.3704 30.3601 14.996 30.4203 14.6008C30.4805 14.2057 30.4431 13.8018 30.3114 13.4244C30.1796 13.047 29.9576 12.7076 29.6645 12.4358C29.3715 12.1639 29.0164 11.9679 28.6302 11.8648Z" fill="#FFFF79"/>
<path id="Vector_8" d="M24.0977 36.4173L17.681 31.4123C17.4304 31.2464 17.2169 31.0305 17.0539 30.778C16.8909 30.5255 16.782 30.242 16.734 29.9454C16.686 29.6488 16.7 29.3454 16.775 29.0544C16.8501 28.7634 16.9846 28.4912 17.1701 28.2547C17.3556 28.0183 17.588 27.8229 17.8528 27.6808C18.1176 27.5386 18.4089 27.4529 18.7085 27.4289C19.008 27.405 19.3093 27.4433 19.5932 27.5416C19.8772 27.6398 20.1378 27.7958 20.3585 27.9998L25.1418 31.7273L35.3152 19.8973C35.6948 19.464 36.2302 19.1985 36.8049 19.1586C37.3795 19.1186 37.9465 19.3076 38.3824 19.6841C38.8182 20.0607 39.0875 20.5943 39.1314 21.1686C39.1753 21.7429 38.9904 22.3113 38.6168 22.7498L27.0902 36.1198C26.7248 36.5438 26.2104 36.8111 25.6534 36.8665C25.0964 36.9219 24.5394 36.761 24.0977 36.4173Z" fill="#FFBD38"/>
<path id="Vector_9" d="M24.0977 33.1449L17.681 28.1399C17.4554 27.9641 17.2666 27.7455 17.1255 27.4968C16.9843 27.248 16.8936 26.9739 16.8584 26.6901C16.7873 26.1168 16.9468 25.5388 17.3018 25.0832C17.4777 24.8576 17.6962 24.6688 17.9449 24.5277C18.1937 24.3865 18.4678 24.2958 18.7516 24.2606C19.3249 24.1895 19.9029 24.349 20.3585 24.704L25.1418 28.4315L35.3152 16.6249C35.7003 16.2147 36.2289 15.9692 36.7908 15.9396C37.3526 15.9099 37.9042 16.0985 38.3303 16.4659C38.7564 16.8333 39.0241 17.3511 39.0775 17.9111C39.1309 18.4712 38.9658 19.0302 38.6168 19.4715L27.0902 32.8474C26.7256 33.2726 26.211 33.5409 25.6536 33.5963C25.0962 33.6517 24.5389 33.49 24.0977 33.1449Z" fill="#12C58B"/>
<path id="Vector_10" d="M21.2748 17.1033H17.7807C17.5874 17.1033 17.4307 17.26 17.4307 17.4533V19.4249C17.4307 19.6182 17.5874 19.7749 17.7807 19.7749H21.2748C21.4681 19.7749 21.6248 19.6182 21.6248 19.4249V17.4533C21.6248 17.26 21.4681 17.1033 21.2748 17.1033Z" fill="#FFDB56"/>
<g id="Group">
<path id="Vector_11" d="M49.7295 6.59155C49.7194 6.49672 49.6836 6.40642 49.6261 6.33037C49.5685 6.25432 49.4913 6.19538 49.4028 6.15989C49.2687 6.10155 51.0362 6.61489 28.1637 0.0290533C27.9128 -0.0409467 29.2545 -0.373447 6.67949 6.12489L6.53366 6.19489C6.4722 6.22911 6.41862 6.27589 6.37642 6.33216C6.33421 6.38844 6.30431 6.45297 6.28866 6.52155C6.24782 6.66739 6.28866 5.59405 6.28866 27.3466C6.28866 44.5141 18.5387 51.0241 25.8712 54.9149C27.8487 55.9999 27.7903 55.9999 28.0003 55.9999C28.2103 55.9999 28.152 55.9999 30.1003 54.9616C36.9662 51.3624 49.7412 44.6832 49.7412 27.3466C49.7412 4.92905 49.747 6.73739 49.7295 6.59155ZM43.657 10.0916L28.5837 5.75739V1.36489L47.8745 6.91822L43.657 10.0916ZM28.0003 48.6499C21.8578 45.3657 12.8337 40.3549 12.8337 27.3466V11.1766L28.0003 6.80155L43.167 11.1766V27.3466C43.167 40.4715 33.8337 45.5991 28.0003 48.6499ZM12.3495 10.0974L8.12616 6.91822L27.417 1.36489V5.75739L12.3495 10.0974ZM7.42616 27.3466V7.85155L11.667 11.0307V27.3641C11.667 41.0199 21.0003 46.2349 27.417 49.6474V54.4307L26.3903 53.8824C19.297 50.1141 7.42616 43.8141 7.42616 27.3466ZM29.5578 53.9232C29.2195 54.0982 28.8928 54.2674 28.5837 54.4366V49.6707C34.6212 46.4916 44.3337 41.1541 44.3337 27.3466V11.0132L48.5512 7.83405V27.3466C48.5745 43.9774 36.2078 50.4466 29.5578 53.9232Z" fill="#302D3D"/>
<path id="Vector_12" d="M38.7802 15.9481C38.2246 15.4706 37.5022 15.2331 36.7716 15.2877C36.041 15.3424 35.3619 15.6849 34.8836 16.2398L25.0836 27.6265L20.7377 24.2373C20.1614 23.7856 19.4293 23.5812 18.7024 23.6693C17.9754 23.7574 17.3132 24.1306 16.8615 24.7069C16.4097 25.2832 16.2054 26.0153 16.2935 26.7423C16.3816 27.4692 16.7548 28.1314 17.3311 28.5831L23.7477 33.5881C24.3071 34.024 25.0125 34.2283 25.7181 34.1588C26.4238 34.0893 27.0758 33.7514 27.5394 33.2148L39.0836 19.8331C39.5561 19.2767 39.7894 18.5559 39.7326 17.8281C39.6758 17.1003 39.3334 16.4245 38.7802 15.9481ZM38.1969 19.0865L26.6527 32.4623C26.3811 32.7652 26.0058 32.9554 25.6009 32.9953C25.196 33.0353 24.7909 32.9221 24.4652 32.6781L18.0486 27.679C17.8709 27.5548 17.7203 27.3958 17.606 27.2116C17.4917 27.0274 17.4161 26.8219 17.3837 26.6076C17.3513 26.3932 17.3629 26.1745 17.4177 25.9648C17.4725 25.7551 17.5694 25.5587 17.7025 25.3876C17.8356 25.2164 18.0021 25.0742 18.1918 24.9695C18.3816 24.8647 18.5907 24.7997 18.8065 24.7783C19.0222 24.7569 19.24 24.7796 19.4466 24.8451C19.6533 24.9105 19.8445 25.0173 20.0086 25.159L24.7919 28.8865C24.9102 28.9779 25.0591 29.0203 25.2078 29.0051C25.3565 28.9899 25.4937 28.9182 25.5911 28.8048L35.7644 17.004C35.8977 16.8339 36.064 16.6926 36.2534 16.5886C36.4428 16.4847 36.6513 16.4202 36.8663 16.399C37.0814 16.3779 37.2984 16.4006 37.5045 16.4658C37.7105 16.5309 37.9011 16.6371 38.0649 16.778C38.2287 16.9189 38.3622 17.0916 38.4574 17.2856C38.5526 17.4795 38.6075 17.6908 38.6187 17.9065C38.63 18.1223 38.5974 18.3381 38.5229 18.5409C38.4484 18.7437 38.3335 18.9293 38.1852 19.0865H38.1969Z" fill="#302D3D"/>
</g>
</g>
</g>
</svg>
