<svg width="56" height="56" viewBox="0 0 56 56" fill="none" xmlns="http://www.w3.org/2000/svg">
<g id="physics_5815813 1" clip-path="url(#clip0_1353_8925)">
<g id="Group">
<path id="Vector" d="M52.2398 38.5734C48.2467 28.4853 39.0724 18.2971 30.2713 11.8774C32.7538 10.2963 35.22 9.00828 37.5943 8.06855C43.1632 5.86436 47.6267 5.86916 49.84 8.08272C50.341 8.5836 51.1533 8.5836 51.6543 8.08272C52.1552 7.58173 52.1552 6.76951 51.6543 6.26852C48.64 3.25422 43.3113 3.04651 36.65 5.68297C33.8431 6.79394 30.9225 8.35826 27.9997 10.2965C25.0769 8.35826 22.1563 6.79405 19.3494 5.68297C12.6881 3.0464 7.35948 3.25411 4.34519 6.26852C3.8442 6.76951 3.8442 7.58173 4.34519 8.08272C4.84628 8.58382 5.6584 8.5836 6.15938 8.08272C8.37272 5.86927 12.8361 5.86436 18.4051 8.06855C20.7794 9.00839 23.2455 10.2963 25.7281 11.8774C16.9194 18.3027 7.74791 28.4975 3.75964 38.5734C1.12295 45.2347 1.33089 50.5634 4.34519 53.5777C4.84595 54.0786 5.65828 54.0787 6.15938 53.5777C6.66037 53.0767 6.66037 52.2645 6.15938 51.7635C3.94605 49.5502 3.94091 45.0867 6.14522 39.5177C10.0505 29.6515 19.299 19.5494 27.9997 13.4034C36.7074 19.5542 45.9532 29.662 49.8542 39.5177C52.0585 45.0867 52.0534 49.5502 49.84 51.7635C49.3391 52.2645 49.3391 53.0767 49.84 53.5777C50.3412 54.0787 51.1533 54.0786 51.6543 53.5777C54.6685 50.5634 54.8765 45.2347 52.2398 38.5734Z" fill="#00C5DA"/>
<path id="Vector_2" d="M27.9991 43.0297C38.1328 43.0297 46.3478 34.8147 46.3478 24.681C46.3478 14.5473 38.1328 6.33228 27.9991 6.33228C17.8654 6.33228 9.65039 14.5473 9.65039 24.681C9.65039 34.8147 17.8654 43.0297 27.9991 43.0297Z" fill="url(#paint0_linear_1353_8925)"/>
<g id="Group_2">
<path id="Vector_3" d="M18.1955 25.9534C19.1157 25.9534 19.8616 25.3539 19.8616 24.6144C19.8616 23.8749 19.1157 23.2754 18.1955 23.2754C17.2753 23.2754 16.5293 23.8749 16.5293 24.6144C16.5293 25.3539 17.2753 25.9534 18.1955 25.9534Z" fill="#FDC5DC"/>
<path id="Vector_4" d="M37.8029 25.9534C38.7231 25.9534 39.4691 25.3539 39.4691 24.6144C39.4691 23.8749 38.7231 23.2754 37.8029 23.2754C36.8827 23.2754 36.1367 23.8749 36.1367 24.6144C36.1367 25.3539 36.8827 25.9534 37.8029 25.9534Z" fill="#FDC5DC"/>
<path id="Vector_5" d="M24.2822 22.0771C24.7073 20.3017 23.6127 18.5178 21.8373 18.0926C20.0619 17.6675 18.278 18.7621 17.8528 20.5375C17.4277 22.3129 18.5223 24.0969 20.2977 24.522C22.0731 24.9472 23.857 23.8525 24.2822 22.0771Z" fill="white"/>
<path id="Vector_6" d="M37.2761 23.6476C38.5662 22.3576 38.5662 20.266 37.2761 18.9759C35.986 17.6859 33.8945 17.6859 32.6044 18.9759C31.3144 20.266 31.3144 22.3576 32.6044 23.6476C33.8945 24.9377 35.986 24.9377 37.2761 23.6476Z" fill="white"/>
<g id="Group_3">
<g id="Group_4">
<path id="Vector_7" d="M23.012 21.5099C23.1197 20.4278 22.3297 19.4634 21.2476 19.3557C20.1655 19.248 19.201 20.038 19.0934 21.12C18.9857 22.2021 19.7756 23.1666 20.8577 23.2743C21.9398 23.382 22.9043 22.592 23.012 21.5099Z" fill="#383842"/>
<path id="Vector_8" d="M36.7652 22.0811C37.1861 21.0784 36.7144 19.9244 35.7117 19.5035C34.709 19.0826 33.555 19.5543 33.1341 20.557C32.7133 21.5597 33.1849 22.7137 34.1876 23.1346C35.1903 23.5555 36.3444 23.0838 36.7652 22.0811Z" fill="#383842"/>
</g>
<path id="Vector_9" d="M27.9997 24.7197C27.4143 24.7197 26.8289 24.4983 26.3514 24.0554C26.1255 23.846 26.1122 23.493 26.3216 23.2671C26.5311 23.0414 26.8839 23.0279 27.1098 23.2374C27.6337 23.7231 28.3655 23.7231 28.8893 23.2374C29.1152 23.028 29.4681 23.0413 29.6776 23.2671C29.887 23.493 29.8737 23.846 29.6478 24.0554C29.1704 24.4981 28.5851 24.7197 27.9997 24.7197Z" fill="#383842"/>
</g>
</g>
<path id="Vector_10" d="M52.2398 21.2726C54.8765 14.6113 54.6685 9.28261 51.6543 6.26832C51.1533 5.76722 50.341 5.76744 49.84 6.26832C49.3391 6.76931 49.3391 7.58153 49.84 8.08252C52.0534 10.2957 52.0585 14.7593 49.8542 20.3283C45.9489 30.1945 36.7005 40.2966 27.9997 46.4426C19.2921 40.2917 10.0463 30.1839 6.14522 20.3283C3.94091 14.7593 3.94605 10.2959 6.15938 8.08252C6.66037 7.58153 6.66037 6.76931 6.15938 6.26832C5.65828 5.76744 4.84606 5.76744 4.34519 6.26832C1.33089 9.28261 1.12295 14.6113 3.75964 21.2726C7.75271 31.3607 16.927 41.5488 25.7281 47.9686C23.2456 49.5497 20.7795 50.8377 18.4051 51.7775C12.8361 53.9817 8.37261 53.9766 6.15938 51.7633C5.6584 51.2624 4.84617 51.2624 4.34519 51.7633C3.8442 52.2643 3.8442 53.0765 4.34519 53.5775C8.07409 57.3064 14.4655 56.0962 19.3494 54.163C22.1563 53.052 25.0769 51.4878 27.9997 49.5495C30.9225 51.4878 33.8431 53.052 36.65 54.163C41.5326 56.0955 47.9247 57.307 51.6543 53.5775C52.1552 53.0765 52.1552 52.2643 51.6543 51.7633C51.1532 51.2622 50.341 51.2624 49.84 51.7633C47.6266 53.9766 43.1632 53.9817 37.5943 51.7775C35.22 50.8376 32.7539 49.5497 30.2713 47.9686C39.08 41.5432 48.2515 31.3484 52.2398 21.2726Z" fill="#00C5DA"/>
<path id="Vector_11" d="M33.4765 34.6994C32.787 33.9011 31.5416 33.9253 30.8837 34.7498C29.7281 36.198 29.0361 38.0313 29.0361 40.0238C29.0361 41.0567 29.2224 42.0469 29.5622 42.9629C30.7234 42.865 31.8533 42.6577 32.9427 42.3537C32.5854 41.6544 32.3826 40.8631 32.3826 40.0238C32.3826 38.8165 32.8001 37.7071 33.4982 36.8311C34.0006 36.2009 34.0034 35.3093 33.4765 34.6994Z" fill="#FF5D70"/>
<path id="Vector_12" d="M37.5115 45.1534C40.3446 45.1534 42.6412 42.8568 42.6412 40.0237C42.6412 37.1907 40.3446 34.894 37.5115 34.894C34.6785 34.894 32.3818 37.1907 32.3818 40.0237C32.3818 42.8568 34.6785 45.1534 37.5115 45.1534Z" fill="url(#paint1_linear_1353_8925)"/>
<path id="Vector_13" d="M9.26641 10.2594C12.0995 10.2594 14.3961 7.96274 14.3961 5.12969C14.3961 2.29664 12.0995 0 9.26641 0C6.43336 0 4.13672 2.29664 4.13672 5.12969C4.13672 7.96274 6.43336 10.2594 9.26641 10.2594Z" fill="url(#paint2_linear_1353_8925)"/>
<g id="Group_5">
<path id="Vector_14" d="M36.6632 13.4995C36.4408 13.4995 36.2164 13.4332 36.021 13.2953C34.7072 12.3681 33.2586 11.6819 31.7154 11.2559C31.1215 11.0918 30.773 10.4774 30.937 9.88364C31.101 9.28961 31.7155 8.94145 32.3092 9.1051C34.1012 9.59996 35.7829 10.3964 37.3074 11.4725C37.8107 11.8278 37.9308 12.5238 37.5756 13.0272C37.3583 13.335 37.0133 13.4995 36.6632 13.4995Z" fill="#FFCCD3"/>
<path id="Vector_15" d="M25.9736 10.8898C25.4235 10.8898 24.9448 10.4831 24.8695 9.92285C24.7874 9.3122 25.2157 8.75064 25.8264 8.66854C26.3629 8.59648 26.9107 8.55063 27.4545 8.53267C28.0732 8.51125 28.586 8.99483 28.6064 9.61061C28.6268 10.2264 28.1442 10.7421 27.5285 10.7624C27.059 10.778 26.5865 10.8174 26.1238 10.8798C26.0732 10.8866 26.0231 10.8898 25.9736 10.8898Z" fill="#FFCCD3"/>
</g>
</g>
</g>
<defs>
<linearGradient id="paint0_linear_1353_8925" x1="27.9992" y1="48.4039" x2="27.9992" y2="2.79044" gradientUnits="userSpaceOnUse">
<stop stop-color="#FF7081"/>
<stop offset="1" stop-color="#FFA0AB"/>
</linearGradient>
<linearGradient id="paint1_linear_1353_8925" x1="37.5115" y1="45.9658" x2="37.5115" y2="37.4022" gradientUnits="userSpaceOnUse">
<stop stop-color="#FFC200"/>
<stop offset="1" stop-color="#FFE194"/>
</linearGradient>
<linearGradient id="paint2_linear_1353_8925" x1="9.26641" y1="11.0717" x2="9.26641" y2="2.50806" gradientUnits="userSpaceOnUse">
<stop stop-color="#FFC200"/>
<stop offset="1" stop-color="#FFE194"/>
</linearGradient>
<clipPath id="clip0_1353_8925">
<rect width="56" height="56" fill="white"/>
</clipPath>
</defs>
</svg>
