<svg width="56" height="56" viewBox="0 0 56 56" fill="none" xmlns="http://www.w3.org/2000/svg">
<g id="stereolithography_4647637 1">
<g id="Group">
<g id="Group_2">
<g id="Group_3">
<path id="Vector" d="M11.9111 12.543H44.0888V13.915H11.9111V12.543Z" fill="#E6E7E8"/>
</g>
<g id="Group_4">
<path id="Vector_2" d="M43.6513 12.543V13.4775H11.9111V13.915H44.0888V12.543H43.6513Z" fill="#D1D3D4"/>
</g>
<g id="Group_5">
<g id="Group_6">
<path id="Vector_3" d="M31.5959 15.8399H24.4023C24.1606 15.8399 23.9648 15.6441 23.9648 15.4024V11.0554C23.9648 10.8137 24.1606 10.6179 24.4023 10.6179H31.5959C31.8377 10.6179 32.0334 10.8137 32.0334 11.0554V15.4022C32.0334 15.6439 31.8374 15.8399 31.5959 15.8399Z" fill="#FFA91A"/>
</g>
<g id="Group_7">
<path id="Vector_4" d="M31.5959 10.6179H30.9397V14.3085C30.9397 14.5502 30.7439 14.746 30.5022 14.746H23.9648V15.4022C23.9648 15.6439 24.1606 15.8397 24.4023 15.8397H31.5959C31.8377 15.8397 32.0334 15.6439 32.0334 15.4022V11.0554C32.0334 10.8139 31.8374 10.6179 31.5959 10.6179Z" fill="#F79219"/>
</g>
<g id="Group_8">
<path id="Vector_5" d="M27.706 17.2283L26.1641 15.8398H29.8336L28.2916 17.2283C28.1252 17.3781 27.8723 17.3781 27.706 17.2283Z" fill="#EF7816"/>
</g>
</g>
<g id="Group_9">
<path id="Vector_6" d="M50.5859 51.0986H5.41314C4.50773 51.0986 3.87423 50.2033 4.17545 49.3495L5.63561 45.2114C5.94427 44.3366 6.77092 43.7517 7.69842 43.7517H48.3006C49.2281 43.7517 50.0548 44.3366 50.3634 45.2114L51.8236 49.3495C52.1248 50.2035 51.4913 51.0986 50.5859 51.0986Z" fill="#FFA91A"/>
</g>
<g id="Group_10">
<g id="Group_11">
<g id="Group_12">
<path id="Vector_7" d="M22.4447 47.6321H19.5747C19.1656 47.6321 18.834 47.3005 18.834 46.8914V45.5527C18.834 45.1436 19.1656 44.812 19.5747 44.812H22.4447C22.8537 44.812 23.1854 45.1436 23.1854 45.5527V46.8914C23.1851 47.3005 22.8535 47.6321 22.4447 47.6321Z" fill="white"/>
</g>
</g>
<g id="Group_13">
<path id="Vector_8" d="M22.4447 44.812H22.0916V45.7977C22.0916 46.2068 21.76 46.5384 21.3509 46.5384H18.834V46.8914C18.834 47.3005 19.1656 47.6321 19.5747 47.6321H22.4447C22.8537 47.6321 23.1854 47.3005 23.1854 46.8914V45.5527C23.1851 45.1436 22.8535 44.812 22.4447 44.812Z" fill="#E6E7E8"/>
</g>
<g id="Group_14">
<g id="Group_15">
<path id="Vector_9" d="M29.4339 47.6321H26.5639C26.1549 47.6321 25.8232 47.3005 25.8232 46.8914V45.5527C25.8232 45.1436 26.1549 44.812 26.5639 44.812H29.4339C29.843 44.812 30.1746 45.1436 30.1746 45.5527V46.8914C30.1746 47.3005 29.843 47.6321 29.4339 47.6321Z" fill="white"/>
</g>
</g>
<g id="Group_16">
<path id="Vector_10" d="M29.4339 44.812H29.0809V45.7977C29.0809 46.2068 28.7492 46.5384 28.3402 46.5384H25.8232V46.8914C25.8232 47.3005 26.1549 47.6321 26.5639 47.6321H29.4339C29.843 47.6321 30.1746 47.3005 30.1746 46.8914V45.5527C30.1746 45.1436 29.843 44.812 29.4339 44.812Z" fill="#E6E7E8"/>
</g>
<g id="Group_17">
<g id="Group_18">
<path id="Vector_11" d="M36.4242 47.6321H33.5542C33.1451 47.6321 32.8135 47.3005 32.8135 46.8914V45.5527C32.8135 45.1436 33.1451 44.812 33.5542 44.812H36.4242C36.8332 44.812 37.1649 45.1436 37.1649 45.5527V46.8914C37.1649 47.3005 36.8332 47.6321 36.4242 47.6321Z" fill="white"/>
</g>
</g>
<g id="Group_19">
<path id="Vector_12" d="M36.4242 44.812H36.0711V45.7977C36.0711 46.2068 35.7395 46.5384 35.3304 46.5384H32.8135V46.8914C32.8135 47.3005 33.1451 47.6321 33.5542 47.6321H36.4242C36.8332 47.6321 37.1649 47.3005 37.1649 46.8914V45.5527C37.1649 45.1436 36.8332 44.812 36.4242 44.812Z" fill="#E6E7E8"/>
</g>
</g>
<g id="Group_20">
<path id="Vector_13" d="M6.06967 48.3634C6.01936 48.3634 5.97123 48.3547 5.92311 48.3394C5.81373 48.3 5.72623 48.2191 5.67592 48.1141C5.62342 48.0091 5.61904 47.8909 5.65623 47.7794L6.46123 45.5022C6.64498 44.9794 7.14373 44.6272 7.69936 44.6272H15.1434C15.384 44.6272 15.5809 44.8241 15.5809 45.0647C15.5809 45.3053 15.384 45.5022 15.1434 45.5022H7.69936C7.51561 45.5022 7.34498 45.6225 7.28592 45.7931L6.48311 48.0703C6.41967 48.2453 6.25561 48.3634 6.06967 48.3634ZM16.8934 45.5022C16.6528 45.5022 16.4559 45.3053 16.4559 45.0647C16.4559 44.8241 16.6528 44.6272 16.8934 44.6272C17.134 44.6272 17.3309 44.8241 17.3309 45.0647C17.3309 45.3053 17.134 45.5022 16.8934 45.5022Z" fill="#FFC91D"/>
</g>
<g id="Group_21">
<path id="Vector_14" d="M51.8236 49.3496L50.3634 45.2115C50.0699 44.3792 49.3069 43.8105 48.4345 43.7571L49.6359 47.1621C49.9371 48.0161 49.3036 48.9113 48.3982 48.9113H4.33011L4.17545 49.3496C3.87423 50.2036 4.50773 51.0988 5.41314 51.0988H50.5857C51.4913 51.0988 52.1248 50.2036 51.8236 49.3496Z" fill="#F79219"/>
</g>
<g id="Group_22">
<path id="Vector_15" d="M51.8235 49.3495L50.3634 45.2114C50.1606 44.6365 49.7331 44.1881 49.2009 43.9473C49.2259 44.0028 49.2491 44.0595 49.2696 44.1177L50.7298 48.2558C51.031 49.1098 50.3975 50.0049 49.4921 50.0049H4.31933C4.24933 50.0049 4.18173 49.9979 4.11523 49.9876C4.21061 50.5975 4.73561 51.0986 5.41308 51.0986H50.5856C51.4912 51.0986 52.1247 50.2035 51.8235 49.3495Z" fill="#EF7816"/>
</g>
<g id="Group_23">
<g id="Group_24">
<path id="Vector_16" d="M48.9689 8.8204H7.0302C6.08432 8.8204 5.31738 8.05368 5.31738 7.10759C5.31738 6.16171 6.08432 5.39478 7.0302 5.39478H48.9689C49.9148 5.39478 50.6818 6.16171 50.6818 7.10759C50.6818 8.05368 49.9148 8.8204 48.9689 8.8204Z" fill="#FFA91A"/>
</g>
</g>
<g id="Group_25">
<path id="Vector_17" d="M49.5024 5.48071C49.5576 5.64871 49.5882 5.82765 49.5882 6.01403C49.5882 6.9599 48.8213 7.72684 47.8754 7.72684H5.93663C5.75026 7.72684 5.57132 7.69621 5.40332 7.64109C5.62754 8.32578 6.27066 8.82059 7.03038 8.82059H48.9691C49.915 8.82059 50.6819 8.05387 50.6819 7.10778C50.6819 6.34806 50.1869 5.70493 49.5024 5.48071Z" fill="#F79219"/>
</g>
<g id="Group_26">
<g id="Group_27">
<g id="Group_28">
<path id="Vector_18" d="M7.90918 8.82031H11.9101V43.7516H7.90918V8.82031Z" fill="#58595B"/>
</g>
</g>
<g id="Group_29">
<path id="Vector_19" d="M9.72284 8.82031V41.5641H7.90918V43.7516H11.9103V8.82031H9.72284Z" fill="#414042"/>
</g>
<g id="Group_30">
<g id="Group_31">
<path id="Vector_20" d="M48.0889 43.7517H44.0879V8.8204H48.0889V43.7517Z" fill="#58595B"/>
</g>
</g>
<g id="Group_32">
<path id="Vector_21" d="M45.9015 8.82031V41.5641H44.0879V43.7516H48.089V8.82031H45.9015Z" fill="#414042"/>
</g>
</g>
</g>
<g id="Group_33">
<g id="Group_34">
<g id="Group_35">
<g id="Group_36">
<path id="Vector_22" d="M37.4355 36.6119L27.9995 31.1639L18.5635 36.6119L17.9072 35.4751L27.9995 29.6484L38.0917 35.4751L37.4355 36.6119Z" fill="#808285"/>
</g>
<g id="Group_37">
<path id="Vector_23" d="M27.3428 19.385H28.6553V30.4063H27.3428V19.385Z" fill="#808285"/>
</g>
<g id="Group_38">
<path id="Vector_24" d="M27.9993 42.3364C27.6906 42.3364 27.382 42.257 27.1068 42.098L18.3202 37.0249C17.7696 36.7073 17.4277 36.1149 17.4277 35.4792V25.3332C17.4277 24.6975 17.7696 24.1051 18.3205 23.7873L27.107 18.7145C27.6578 18.3966 28.3416 18.3966 28.892 18.7145L37.6785 23.7875C38.2291 24.1051 38.571 24.6975 38.571 25.3332V35.4792C38.571 36.1149 38.2291 36.7073 37.6783 37.0251L28.892 42.098C28.6164 42.257 28.3079 42.3364 27.9993 42.3364ZM27.9993 19.7879C27.9175 19.7879 27.8359 19.8089 27.763 19.8511L18.9765 24.9241C18.8306 25.0081 18.7402 25.165 18.7402 25.3332V35.4792C18.7402 35.6475 18.8308 35.8043 18.9765 35.8883L27.7632 40.9613C27.9089 41.0456 28.09 41.0456 28.2357 40.9613L37.0223 35.8883C37.168 35.8043 37.2585 35.6475 37.2585 35.4792V25.3332C37.2585 25.165 37.168 25.0081 37.0225 24.9241L28.2355 19.8511C28.1627 19.8091 28.0811 19.7879 27.9993 19.7879Z" fill="#58595B"/>
</g>
<g id="Group_39">
<path id="Vector_25" d="M27.9996 37.983C27.7664 37.983 27.5332 37.9231 27.3252 37.803L21.9312 34.6886C21.5152 34.4482 21.2568 34.0007 21.2568 33.5203V27.292C21.2568 26.8117 21.5154 26.3639 21.9312 26.1237L27.3252 23.0096C27.7412 22.7696 28.2581 22.7696 28.6742 23.0096L34.0681 26.1239C34.4842 26.3641 34.7428 26.8119 34.7428 27.2923V33.5205C34.7428 34.0011 34.4842 34.4487 34.0681 34.6888L28.6744 37.803C28.4662 37.9228 28.2326 37.983 27.9996 37.983ZM27.9996 24.1414C27.9932 24.1414 27.9867 24.1429 27.9812 24.1462L22.5875 27.2603C22.5763 27.2669 22.5693 27.2789 22.5693 27.292V33.5203C22.5693 33.5334 22.5763 33.5454 22.5877 33.552L27.9814 36.6661C27.9926 36.6725 28.0068 36.6727 28.0184 36.6661L33.4119 33.552C33.4233 33.5454 33.4303 33.5334 33.4303 33.5203V27.292C33.4303 27.2789 33.4233 27.2669 33.4119 27.2603L28.0182 24.1462C28.0125 24.1429 28.0059 24.1414 27.9996 24.1414Z" fill="#58595B"/>
</g>
</g>
</g>
<g id="Group_40">
<path id="Vector_26" d="M27.9938 31.1632L17.9414 25.2777L18.6044 24.145L28.0057 29.6494L37.4412 24.3242L38.0863 25.4671L27.9938 31.1632Z" fill="#58595B"/>
</g>
<g id="Group_41">
<path id="Vector_27" d="M27.3428 30.4062H28.6553V41.6811H27.3428V30.4062Z" fill="#58595B"/>
</g>
</g>
</g>
</g>
</svg>
