<svg width="56" height="56" viewBox="0 0 56 56" fill="none" xmlns="http://www.w3.org/2000/svg">
<g id="play_13295887 1" clip-path="url(#clip0_1353_9096)">
<g id="Group">
<path id="Vector" d="M49.875 28C49.875 37.7125 49.4375 47.5125 48.5625 48.475C47.6 49.4375 37.8 49.875 28 49.875V38.4125C31.15 38.4125 34.3 37.5375 35.9625 35.875C39.375 32.4625 39.375 23.625 35.9625 20.2125C34.3 18.55 31.15 17.675 28 17.675V6.125C37.8 6.125 47.6 6.5625 48.5625 7.525C49.4375 8.4875 49.875 18.2875 49.875 28Z" fill="#DCDDE1"/>
<path id="Vector_2" d="M28 6.125V49.875C22.225 49.875 16.45 49.7 12.5125 49.35C9.8 49.0875 7.875 48.825 7.525 48.475C6.5625 47.5125 6.125 37.7125 6.125 28C6.125 18.2875 6.5625 8.4875 7.4375 7.525C7.7875 7.175 9.7125 6.825 12.425 6.5625C16.45 6.3 22.225 6.125 28 6.125Z" fill="#F5F6FA"/>
<path id="Vector_3" d="M35.9625 35.8749C34.3 37.5374 31.15 38.4124 28 38.4124V31.0624L33.25 27.9999L28 24.9374V17.5874C31.15 17.5874 34.3 18.4624 35.9625 20.1249C39.375 23.5374 39.375 32.4624 35.9625 35.8749Z" fill="#EA3934"/>
<path id="Vector_4" d="M28.0004 17.5874V38.3249C24.8504 38.3249 21.7879 37.4499 20.0379 35.7874C16.6254 32.3749 16.6254 23.5374 20.0379 20.1249C21.7004 18.4624 24.8504 17.5874 28.0004 17.5874Z" fill="#FF5E57"/>
<path id="Vector_5" d="M56 28H49.875C49.875 18.2875 49.4375 8.4875 48.5625 7.525C47.6 6.5625 37.8 6.125 28 6.125V0C40.6 0 53.1125 0.6125 54.25 1.8375C55.3875 3.0625 56 15.4875 56 28Z" fill="#DB5374"/>
<path id="Vector_6" d="M56 28C56 40.5125 55.3875 52.9375 54.25 54.1625C53.1125 55.3875 40.6 56 28 56V49.875C37.8 49.875 47.6 49.35 48.5625 48.475C49.4375 47.5125 49.875 37.8 49.875 28H56Z" fill="#07AA59"/>
<path id="Vector_7" d="M28 49.875V56C15.4875 56 2.8875 55.3875 1.75 54.1625C0.6125 52.9375 0 40.5125 0 28H6.125C6.125 37.7125 6.5625 47.5125 7.4375 48.475C8.4 49.4375 18.2 49.875 28 49.875Z" fill="#FFC048"/>
<path id="Vector_8" d="M28 0V6.125C18.2 6.125 8.4 6.5625 7.4375 7.525C6.5625 8.4875 6.125 18.2875 6.125 28H0C0 15.4875 0.6125 3.0625 1.75 1.8375C2.8875 0.6125 15.4 0 28 0Z" fill="#4BCFFA"/>
<path id="Vector_9" d="M33.25 28L28 31.0625V24.9375L33.25 28Z" fill="#F2C32F"/>
<path id="Vector_10" d="M28 24.9375V31.0625L24.5 33.075V22.925L28 24.9375Z" fill="#FFDD59"/>
</g>
</g>
<defs>
<clipPath id="clip0_1353_9096">
<rect width="56" height="56" fill="white"/>
</clipPath>
</defs>
</svg>
