<svg width="56" height="56" viewBox="0 0 56 56" fill="none" xmlns="http://www.w3.org/2000/svg">
<g id="mining_3936984 1" clip-path="url(#clip0_1353_9129)">
<g id="XMLID_1027_">
<path id="XMLID_1762_" d="M20.8282 0.109375C20.1361 2.04728 18.66 6.18056 18.2568 7.30931L18.6037 11.3847L21.1761 13.2344L24.588 14.9297L28.0001 13.2344L29.6407 6.67188L28.0001 0.109375C26.0564 0.109375 21.9729 0.109375 20.8282 0.109375Z" fill="#FFD321"/>
<path id="XMLID_1557_" d="M18.257 7.3094C17.3648 6.9909 11.7772 4.99525 10.8792 4.67456C10.2549 5.71504 6.36901 12.1914 5.74316 13.2345L13.4597 14.9298L21.1762 13.2345C20.1556 11.163 19.2776 9.38108 18.257 7.3094Z" fill="#FFEC29"/>
<path id="XMLID_1555_" d="M39.3357 7.17456C38.6496 5.2535 37.2129 1.23091 36.8123 0.109375C35.7473 0.109375 29.0721 0.109375 28 0.109375V13.2344L32.2656 14.9297L36.4401 13.2344L38.9375 10.7734L39.3357 7.17456Z" fill="#FFB454"/>
<path id="XMLID_1747_" d="M0 47.6875V50.9688H6.15694L7.36466 49.3281L5.86097 47.6875C3.99667 47.6875 1.8643 47.6875 0 47.6875Z" fill="#2EBEEF"/>
<path id="XMLID_1777_" d="M50.1771 50.9688H56C56 49.8212 56 48.8351 56 47.6875C53.8322 47.6875 53.2171 47.6875 50.4602 47.6875L49.2461 49.3281L50.1771 50.9688Z" fill="#4793FF"/>
<path id="XMLID_1767_" d="M3.49316 21.4375C3.77043 24.5119 5.85949 47.6737 6.15666 50.9688H27.9997L29.6404 36.2031L27.9997 21.4375L15.7464 18.5938L3.49316 21.4375Z" fill="#FF4A4A"/>
<path id="XMLID_1765_" d="M50.1771 50.9688C50.4614 47.6738 52.4604 24.5019 52.7249 21.4375L40.3624 19.4141L28 21.4375V50.9688H50.1771Z" fill="#E20059"/>
<path id="XMLID_1559_" d="M19.9062 55.8906C22.6245 55.8906 24.8281 53.687 24.8281 50.9688C24.8281 48.2505 22.6245 46.0469 19.9062 46.0469C17.188 46.0469 14.9844 48.2505 14.9844 50.9688C14.9844 53.687 17.188 55.8906 19.9062 55.8906Z" fill="#694D33"/>
<path id="XMLID_1764_" d="M36.3125 55.8906C39.0308 55.8906 41.2344 53.687 41.2344 50.9688C41.2344 48.2505 39.0308 46.0469 36.3125 46.0469C33.5942 46.0469 31.3906 48.2505 31.3906 50.9688C31.3906 53.687 33.5942 55.8906 36.3125 55.8906Z" fill="#4F4540"/>
<path id="XMLID_1763_" d="M39.3359 7.17468C38.323 9.29458 37.4534 11.1146 36.4404 13.2345L43.3489 14.3829L50.2573 13.2345C49.6288 12.187 45.693 5.62713 45.0603 4.57275C43.2391 5.4005 41.1569 6.34682 39.3359 7.17468Z" fill="#FFD321"/>
<g id="Group">
<path id="XMLID_1567_" d="M16.5156 37.8438C15.3681 37.8438 14.3819 37.8438 13.2344 37.8438C13.2344 36.6528 13.2344 29.1989 13.2344 28H16.5156V37.8438Z" fill="#F4F1F1"/>
<path id="XMLID_1561_" d="M23.0781 37.8438C21.9306 37.8438 20.9444 37.8438 19.7969 37.8438C19.7969 36.6528 19.7969 29.1989 19.7969 28H23.0781V37.8438Z" fill="#F4F1F1"/>
<path id="XMLID_1525_" d="M26.3594 28V37.8438H28L29.2761 32.9219L28 28C27.4262 28 26.9332 28 26.3594 28Z" fill="#F4F1F1"/>
</g>
<path id="XMLID_1121_" d="M29.6406 28C29.0668 28 28.5738 28 28 28V37.8438H29.6406C29.6406 36.6528 29.6406 29.1989 29.6406 28Z" fill="#ECEAE7"/>
<path id="XMLID_1117_" d="M32.9219 37.8438H36.2031C36.2031 36.6528 36.2031 29.1989 36.2031 28C35.0556 28 34.0694 28 32.9219 28V37.8438Z" fill="#ECEAE7"/>
<path id="XMLID_1115_" d="M39.4844 37.8438H42.7656C42.7656 36.6528 42.7656 29.1989 42.7656 28C41.6181 28 40.6319 28 39.4844 28V37.8438Z" fill="#ECEAE7"/>
<path id="XMLID_1104_" d="M0 13.2344V21.4375H28L30.4609 17.3359L28 13.2344C27.2103 13.2344 0.789687 13.2344 0 13.2344Z" fill="#FF7038"/>
<path id="XMLID_1026_" d="M56 21.4375C56 19.2288 56 14.5211 56 13.2344C55.2103 13.2344 28.7897 13.2344 28 13.2344V21.4375H56Z" fill="#FF4A4A"/>
</g>
</g>
<defs>
<clipPath id="clip0_1353_9129">
<rect width="56" height="56" fill="white"/>
</clipPath>
</defs>
</svg>
