<svg width="56" height="56" viewBox="0 0 56 56" fill="none" xmlns="http://www.w3.org/2000/svg">
<g id="eco-oil_3977846 1" clip-path="url(#clip0_1353_9190)">
<g id="Group">
<g id="Group_2">
<path id="Vector" fill-rule="evenodd" clip-rule="evenodd" d="M53.874 6.48656C54.3847 6.48656 54.802 6.06927 54.802 5.55847V2.35704C54.802 1.84941 54.3847 1.43213 53.874 1.43213C50.2865 1.43213 46.699 1.43213 43.1114 1.43213C42.2706 1.43213 42.0307 1.6813 41.4204 2.27304L35.9736 7.55169L36.7864 10.2704L39.502 11.1736L43.7934 7.01606C44.2201 6.53643 44.5502 6.49596 45.2322 6.48666C48.1127 6.48656 50.9933 6.48656 53.874 6.48656Z" fill="#F9F7F8"/>
</g>
<g id="Group_3">
<path id="Vector_2" fill-rule="evenodd" clip-rule="evenodd" d="M53.874 6.4866C54.3847 6.4866 54.802 6.06932 54.802 5.55852V3.198C54.802 3.70563 54.3847 4.12291 53.874 4.12291C50.9934 4.12291 48.1128 4.12291 45.2322 4.12291C44.5502 4.13221 44.2201 4.17279 43.7934 4.65231L40.6014 7.74479C40.072 8.25866 39.8322 8.62617 39.3027 8.0842L37.5308 6.04438L35.9736 7.55174C37.1477 8.76005 38.3249 9.96531 39.502 11.1736L43.7934 7.01611C44.2201 6.53648 44.5502 6.49601 45.2322 6.48671C48.1127 6.4866 50.9933 6.4866 53.874 6.4866Z" fill="#E5E4EC"/>
</g>
<g id="Group_4">
<path id="Vector_3" fill-rule="evenodd" clip-rule="evenodd" d="M44.5563 42.55C42.0774 44.2442 40.2026 46.8944 39.7666 49.772L39.041 54.568H43.8898C48.8507 54.568 53.7742 50.3356 54.5155 45.4306L54.8955 42.9081C55.3065 40.1956 55.6833 40.6347 52.9398 40.6347H50.3891C48.34 40.6347 46.3002 41.3572 44.5563 42.55Z" fill="#95D6A4"/>
</g>
<g id="Group_5">
<path id="Vector_4" fill-rule="evenodd" clip-rule="evenodd" d="M34.6062 48.9654L19.7235 46.6577L0.820312 48.9654V52.8209C0.820312 53.7801 1.60511 54.568 2.56732 54.568H39.0408C39.044 52.2415 38.3089 49.4668 34.6062 48.9654Z" fill="#FFD772"/>
</g>
<g id="Group_6">
<path id="Vector_5" fill-rule="evenodd" clip-rule="evenodd" d="M28.5586 6.0631L32.4638 13.4969L40.788 18.6572L42.423 17.0533C43.214 16.2778 43.2327 14.9948 42.4572 14.2038L39.5019 11.1736L39.4988 11.1767L37.73 9.35794L33.015 4.52457C32.2397 3.73047 30.9535 3.71483 30.1624 4.49033L28.5586 6.0631Z" fill="#375E7D"/>
</g>
<g id="Group_7">
<path id="Vector_6" fill-rule="evenodd" clip-rule="evenodd" d="M0.820312 15.571V48.9655H34.6062C35.3069 47.8381 42.0335 36.6766 42.2609 36.9475L42.2547 21.8588C42.2297 20.1771 41.9838 19.8907 40.7879 18.6574L28.5149 6.02266C26.1916 3.38792 26.1481 3.63403 24.0055 3.63403L12.9345 3.63096C10.4214 3.63096 10.4557 3.55626 8.70548 5.30961L2.38991 11.6222C1.20642 12.8087 0.820312 13.5623 0.820312 15.571ZM23.3857 8.0033C25.1172 8.0033 24.9272 8.95939 23.9183 9.76912L5.18948 24.7956V15.571C5.18948 15.0479 5.11783 15.0759 5.47911 14.7115L11.7947 8.39893C12.3303 7.8633 12.1684 8.00035 12.9345 8.00035L23.3857 8.0033Z" fill="#F37C7C"/>
</g>
<g id="Group_8">
<path id="Vector_7" fill-rule="evenodd" clip-rule="evenodd" d="M20.4834 42.5718C25.8274 42.5718 30.1593 38.2398 30.1593 32.8958C30.1593 27.5517 25.8274 23.2197 20.4834 23.2197C15.1395 23.2197 10.8076 27.5517 10.8076 32.8958C10.8076 38.2398 15.1395 42.5718 20.4834 42.5718Z" fill="#95D6A4"/>
</g>
<g id="Group_9">
<path id="Vector_8" fill-rule="evenodd" clip-rule="evenodd" d="M20.4838 38.2555C22.4925 38.2555 24.4981 36.9444 24.4981 34.3191C24.4981 32.298 21.9009 28.7663 20.8109 27.1313C20.5524 26.742 20.4154 26.742 20.1569 27.1313C19.07 28.7663 16.4697 32.2979 16.4697 34.3191C16.4696 36.9444 18.4752 38.2555 20.4838 38.2555Z" fill="#FFD772"/>
</g>
<g id="Group_10">
<path id="Vector_9" fill-rule="evenodd" clip-rule="evenodd" d="M35.8765 36.8789C33.1454 40.0555 32.7217 45.1847 34.6059 48.9655C34.9515 49.6599 35.3751 50.3077 35.8765 50.8901L39.0405 54.5681C42.4412 51.7465 43.0173 48.4672 44.5557 42.5501C44.3253 40.4791 43.5623 38.4891 42.2606 36.9475L40.5384 34.945C38.7508 32.8647 39.3301 32.8647 37.5425 34.945L35.8765 36.8789Z" fill="#95D6A4"/>
</g>
<g id="Group_11">
<path id="Vector_10" fill-rule="evenodd" clip-rule="evenodd" d="M21.6693 33.6215C21.6693 36.0662 19.9285 37.3711 18.0693 37.5392C18.77 38.0188 19.6265 38.2555 20.4828 38.2555C22.4914 38.2555 24.497 36.9444 24.497 34.3191C24.497 32.298 21.8998 28.7663 20.8098 27.1313C20.5514 26.742 20.4143 26.742 20.1559 27.1313C19.9254 27.477 19.6265 27.9068 19.3026 28.3895C20.4268 30.1055 21.6693 32.2231 21.6693 33.6215Z" fill="#FBBA58"/>
</g>
<g id="Group_12">
<path id="Vector_11" fill-rule="evenodd" clip-rule="evenodd" d="M27.5678 32.1669C27.5678 37.511 23.2359 41.843 17.8919 41.843C17.4497 41.843 17.0137 41.8118 16.584 41.7558C17.7768 42.279 19.0971 42.5718 20.4829 42.5718C25.8269 42.5718 30.1587 38.2398 30.1587 32.8957C30.1587 27.9939 26.5151 23.9453 21.7909 23.3069C25.1948 24.8048 27.5678 28.2087 27.5678 32.1669Z" fill="#78C2A4"/>
</g>
<g id="Group_13">
<path id="Vector_12" fill-rule="evenodd" clip-rule="evenodd" d="M43.4134 38.679C38.1348 42.4317 37.3905 45.4557 36.5372 51.024C36.5092 51.2015 36.4811 51.379 36.4531 51.5596L39.041 54.568L39.7667 49.772C40.2027 46.8944 42.0774 44.2442 44.5563 42.55C44.4068 41.1922 44.0237 39.8655 43.4134 38.679Z" fill="#78C2A4"/>
</g>
<g id="Group_14">
<path id="Vector_13" fill-rule="evenodd" clip-rule="evenodd" d="M51.828 45.4337C50.4921 50.1207 46.3128 54.4215 41.4609 54.5679H43.89C48.8509 54.5679 53.7744 50.3355 54.5157 45.4305L54.8957 42.908C55.2974 40.2547 55.6648 40.6159 53.1113 40.6346C53.0736 40.8433 51.828 45.4337 51.828 45.4337Z" fill="#78C2A4"/>
</g>
<g id="Group_15">
<path id="Vector_14" fill-rule="evenodd" clip-rule="evenodd" d="M39.4084 13.9486L37.7734 15.5524L40.7879 18.6574L42.4229 17.0535C43.214 16.278 43.2327 14.995 42.4572 14.204L39.5734 11.2485C40.2118 12.0457 40.1496 13.2198 39.4084 13.9486Z" fill="#2B4D66"/>
</g>
<g id="Group_16">
<path id="Vector_15" fill-rule="evenodd" clip-rule="evenodd" d="M40.7875 18.6573L37.773 15.5524L35.1104 12.8118C37.1626 19.1057 36.4868 30.2828 35.6678 37.1312C35.7362 37.044 35.8048 36.9599 35.8764 36.879L37.5425 34.945C39.3301 32.8647 38.7508 32.8647 40.5384 34.945L42.2606 36.9476L42.2544 21.8589C42.2293 20.1771 41.9833 19.8906 40.7875 18.6573Z" fill="#E6646E"/>
</g>
<g id="Group_17">
<path id="Vector_16" d="M4.83451 25.5351C4.94739 25.5892 5.06869 25.6158 5.18923 25.6158C5.37244 25.6158 5.55423 25.5544 5.70266 25.4353L24.4316 10.4088C25.3095 9.70425 25.6736 8.9036 25.4305 8.21221C25.2653 7.74264 24.7765 7.18284 23.3858 7.18284C23.3858 7.18284 12.6956 7.17474 12.606 7.17037C11.9506 7.13821 11.7415 7.2908 11.2629 7.7701L4.89631 14.1338C4.45486 14.5791 4.35073 14.823 4.3656 15.3768C4.36703 15.4307 4.36878 24.7953 4.36878 24.7953C4.36899 25.1109 4.55002 25.3986 4.83451 25.5351ZM12.5439 8.81008C12.6397 8.81467 23.3857 8.82364 23.3857 8.82364C23.52 8.82364 23.6271 8.83053 23.7116 8.84048C23.6403 8.92208 23.5407 9.0203 23.405 9.12925L6.00969 23.0855C6.00969 23.0855 6.00783 15.4088 6.00619 15.3453C6.02106 15.3301 12.5076 8.84573 12.5439 8.81008Z" fill="black"/>
<path id="Vector_17" d="M20.4834 43.3922C26.271 43.3922 30.9795 38.6835 30.9795 32.8958C30.9795 27.1081 26.271 22.3994 20.4834 22.3994C14.6958 22.3994 9.9873 27.1081 9.9873 32.8958C9.9873 38.6835 14.6958 43.3922 20.4834 43.3922ZM20.4834 24.04C25.3663 24.04 29.3388 28.0127 29.3388 32.8957C29.3388 37.7787 25.3663 41.7514 20.4834 41.7514C15.6004 41.7514 11.628 37.7787 11.628 32.8957C11.628 28.0127 15.6004 24.04 20.4834 24.04Z" fill="black"/>
<path id="Vector_18" d="M20.4829 39.0758C22.8853 39.0758 25.3175 37.4418 25.3175 34.319C25.3175 32.4438 23.6477 29.8394 21.9374 27.3327C21.7724 27.0907 21.6218 26.87 21.4933 26.6774C21.3738 26.4973 21.056 26.0188 20.483 26.0188C19.9099 26.0188 19.5921 26.4972 19.4726 26.6774C19.34 26.8768 19.1847 27.1047 19.0143 27.3548C17.3111 29.8541 15.6484 32.4505 15.6484 34.3188C15.6483 37.4418 18.0804 39.0758 20.4829 39.0758ZM20.37 28.2788C20.4086 28.2222 20.4464 28.1669 20.4832 28.1125C20.5155 28.16 20.5485 28.2082 20.582 28.2574C21.6635 29.8426 23.6767 32.7932 23.6767 34.319C23.6767 36.4715 22.0725 37.4351 20.4828 37.4351C18.8931 37.4351 17.2889 36.4715 17.2889 34.319C17.289 32.8002 19.2933 29.859 20.37 28.2788Z" fill="black"/>
<path id="Vector_19" d="M55.7224 40.2193C55.327 39.7594 54.7629 39.775 53.9096 39.7981C53.6331 39.8057 53.3197 39.8142 52.9394 39.8142H50.3889C48.6166 39.8142 46.8246 40.2998 45.1673 41.2084C44.7992 39.4975 44.0822 37.924 43.087 36.6602L43.0751 29.8546C43.0743 29.402 42.7072 29.0356 42.2547 29.0356C42.2543 29.0356 42.2537 29.0356 42.2532 29.0356C41.8001 29.0364 41.4335 29.4044 41.4343 29.8574L41.4428 34.7374L41.1609 34.4101C40.9131 34.1216 40.7152 33.8783 40.5407 33.6635C40.0026 33.0014 39.647 32.5641 39.0408 32.5641C38.4346 32.5641 38.0792 33.0015 37.5409 33.6635C37.3663 33.8782 37.1686 34.1216 36.9214 34.4092L35.2548 36.3437C33.5634 38.3104 32.6319 40.9883 32.6319 43.8841C32.6319 45.3862 32.8846 46.8286 33.3619 48.1447H1.64069V34.2255C1.64069 33.7724 1.2734 33.4051 0.820346 33.4051C0.367296 33.4051 0 33.7724 0 34.2255V52.8208C0 54.2365 1.15177 55.3882 2.56746 55.3882H39.0408H43.8896C46.4853 55.3882 49.124 54.3486 51.3197 52.4606C53.5157 50.5724 54.9386 48.1193 55.3264 45.5527C55.3264 45.5527 55.8184 42.3473 55.8672 42.0753C56.0182 41.2346 56.1178 40.6791 55.7224 40.2193ZM36.4983 37.4142L38.1651 35.4795C38.4275 35.1741 38.6419 34.9104 38.8141 34.6987C38.889 34.6064 38.9679 34.5095 39.0408 34.4219C39.1138 34.5095 39.1926 34.6066 39.2676 34.6987C39.4397 34.9105 39.6541 35.1741 39.9172 35.4803L41.5831 37.4142C42.6587 38.6627 43.3926 40.3375 43.6768 42.1702C43.4336 42.3517 43.194 42.5409 42.9602 42.742C40.7653 44.63 39.3429 47.083 38.9552 49.6492L38.497 52.678L36.4986 50.3551C33.5345 46.908 33.5345 40.8607 36.4983 37.4142ZM1.64069 52.8208V49.7856H34.1108C34.4409 50.3727 34.8227 50.9224 35.2549 51.4249L37.2529 53.7474H2.56746C2.05644 53.7475 1.64069 53.3318 1.64069 52.8208ZM54.2523 41.7856C54.2042 42.0539 53.7041 45.308 53.7041 45.308C53.0248 49.8039 48.4386 53.7475 43.8896 53.7475H41.2526L47.9685 47.971C48.312 47.6755 48.351 47.1575 48.0554 46.8141C47.7599 46.4706 47.2419 46.4316 46.8985 46.7271L40.1827 52.5036L40.5775 49.8945C41.2568 45.3987 45.8416 41.455 50.3888 41.455H52.9393C53.3419 41.455 53.6814 41.4458 53.9542 41.4384C54.0739 41.4351 54.1998 41.4316 54.3146 41.43C54.2958 41.5433 54.2736 41.6676 54.2523 41.7856Z" fill="black"/>
<path id="Vector_20" d="M31.7183 23.9357C32.0432 23.6199 32.0506 23.1006 31.7348 22.7757L27.7455 18.6711C27.4297 18.3463 26.9104 18.339 26.5855 18.6546C26.2606 18.9704 26.2532 19.4897 26.569 19.8146L30.5583 23.9192C30.7192 24.0847 30.9327 24.1678 31.1467 24.1678C31.3526 24.1678 31.5589 24.0906 31.7183 23.9357Z" fill="black"/>
<path id="Vector_21" d="M33.7215 21.617C33.9275 21.617 34.1336 21.5399 34.293 21.3851C34.6181 21.0695 34.6256 20.5501 34.31 20.2252L30.3239 16.1206C30.0082 15.7956 29.4888 15.7881 29.1639 16.1036C28.8388 16.4193 28.8313 16.9386 29.1469 17.2636L33.133 21.3682C33.2938 21.5338 33.5076 21.617 33.7215 21.617Z" fill="black"/>
<path id="Vector_22" d="M0.820346 31.2403C1.2734 31.2403 1.64069 30.873 1.64069 30.4199V15.571C1.64069 13.7884 1.92409 13.2508 2.96987 12.2023L9.2861 5.88894C10.0553 5.11847 10.4405 4.74155 10.7895 4.59389C11.1321 4.44907 11.635 4.44972 12.6378 4.45093C12.6378 4.45093 24.3588 4.45257 24.5152 4.45093C25.9936 4.43496 26.0213 4.43496 27.8995 6.56523C27.9083 6.57508 27.9173 6.58481 27.9264 6.59433L38.911 17.9021L40.1993 19.2288C40.201 19.2305 40.2029 19.232 40.2046 19.2338L40.2151 19.2446C41.36 20.4224 41.4151 20.9929 41.4343 22.2788V26.0537C41.4343 26.5068 41.8016 26.8741 42.2546 26.8741C42.7077 26.8741 43.075 26.5068 43.075 26.0537V22.273C43.075 22.269 43.075 22.2649 43.0748 22.2609C43.0552 20.9265 42.9578 19.9617 41.9224 18.6934L42.9971 17.6392C44.1152 16.5432 44.1357 14.7444 43.0428 13.6296L40.6634 11.1905L44.3638 7.60532C44.3783 7.59121 44.3924 7.57656 44.4059 7.56135C44.5949 7.34883 44.6244 7.31558 45.2373 7.30704H50.5662H50.5787H53.8736C54.8376 7.30704 55.6219 6.52268 55.6219 5.55861V2.35708C55.6219 1.39475 54.8376 0.611816 53.8736 0.611816H50.5662H43.1108C41.9543 0.611816 41.5057 1.04704 40.8846 1.64928L35.9865 6.39635L33.6016 3.95161C33.0726 3.40985 32.3621 3.10698 31.6008 3.09867C30.8463 3.09145 30.1264 3.3766 29.5877 3.9048L28.5932 4.88002C26.8168 2.92727 26.301 2.79044 24.4976 2.81045C24.3466 2.81198 12.6397 2.81045 12.6397 2.81045C12.6081 2.81045 12.5772 2.81045 12.5464 2.81045C10.1832 2.81045 9.91306 2.93843 8.12525 4.72941L1.80914 11.0428C0.558054 12.297 0 13.2484 0 15.571V30.4199C0 30.873 0.367296 31.2403 0.820346 31.2403ZM49.7461 5.66635H47.164V2.25262H49.7461V5.66635ZM53.9814 2.35708V5.55861C53.9814 5.61593 53.9311 5.66635 53.8738 5.66635H51.3868V2.25262H53.8738C53.9311 2.25251 53.9814 2.3014 53.9814 2.35708ZM37.1343 7.5689L42.0271 2.82697C42.5746 2.29593 42.6194 2.25251 43.1109 2.25251H45.5232V5.66624H45.2317C45.228 5.66624 45.2243 5.66624 45.2204 5.66624C44.4438 5.67696 43.8426 5.73964 43.2016 6.44656L39.5177 10.0159L38.3383 8.80696L37.1343 7.5689ZM30.7365 5.07614C30.9617 4.8553 31.2605 4.7351 31.5831 4.73914C31.9056 4.74264 32.2055 4.86996 32.4276 5.09747L37.149 9.9374L38.9104 11.7486C38.929 11.7676 38.9484 11.7854 38.9683 11.8023L41.8698 14.7767C41.8702 14.7771 41.8707 14.7777 41.8712 14.7781C42.3308 15.2469 42.3206 16.0048 41.8484 16.4678L40.8022 17.4941L40.0285 16.6977L29.7157 6.07729L30.7365 5.07614Z" fill="black"/>
</g>
</g>
</g>
<defs>
<clipPath id="clip0_1353_9190">
<rect width="56" height="56" fill="white"/>
</clipPath>
</defs>
</svg>
