<svg width="56" height="56" viewBox="0 0 56 56" fill="none" xmlns="http://www.w3.org/2000/svg">
<g id="medicine_7693092 1" clip-path="url(#clip0_1362_10834)">
<g id="Group">
<path id="Vector" d="M8.8418 6.15796H40.402V14.8178H8.8418V6.15796Z" fill="url(#paint0_linear_1362_10834)"/>
<path id="Vector_2" d="M8.8418 6.15796H40.402V14.8178H8.8418V6.15796Z" fill="url(#paint1_linear_1362_10834)"/>
<path id="Vector_3" d="M24.0332 6.15796H40.4028V14.8178H24.0332V6.15796Z" fill="url(#paint2_linear_1362_10834)"/>
<path id="Vector_4" d="M41.1115 56.0001H8.13289C5.17674 56.0001 2.78027 53.6036 2.78027 50.6474V18.4385C2.78027 15.4824 5.17674 13.0859 8.13289 13.0859H41.1115C44.0676 13.0859 46.4641 15.4824 46.4641 18.4385V50.6474C46.4641 53.6036 44.0676 56.0001 41.1115 56.0001Z" fill="url(#paint3_linear_1362_10834)"/>
<path id="Vector_5" d="M41.1111 13.0859H28.5342V56.0001H41.1111C44.0673 56.0001 46.4637 53.6036 46.4637 50.6474V18.4385C46.4637 15.4824 44.0673 13.0859 41.1111 13.0859Z" fill="url(#paint4_linear_1362_10834)"/>
<path id="Vector_6" d="M2.78027 44.1411V50.6473C2.78027 53.6035 5.17674 55.9999 8.13289 55.9999H41.1115C44.0676 55.9999 46.4641 53.6035 46.4641 50.6473V44.1411H2.78027Z" fill="url(#paint5_linear_1362_10834)"/>
<path id="Vector_7" d="M2.78027 20.7422H46.4641V48.3438H2.78027V20.7422Z" fill="url(#paint6_linear_1362_10834)"/>
<g id="Group_2">
<path id="Vector_8" d="M22.2513 32.5183H21.0548C20.4717 32.5183 19.999 32.991 19.999 33.5741C19.999 34.1571 20.4717 34.6298 21.0548 34.6298H22.2513C22.8344 34.6298 23.3071 34.1571 23.3071 33.5741C23.3071 32.991 22.8345 32.5183 22.2513 32.5183Z" fill="white"/>
<path id="Vector_9" d="M37.5548 32.5183H25.9532C25.3701 32.5183 24.8975 32.991 24.8975 33.5741C24.8975 34.1571 25.3702 34.6298 25.9532 34.6298H37.5548C38.1378 34.6298 38.6105 34.1571 38.6105 33.5741C38.6105 32.9909 38.1378 32.5183 37.5548 32.5183Z" fill="white"/>
<path id="Vector_10" d="M33.3177 37.3922C33.3177 36.8091 32.845 36.3364 32.2619 36.3364H25.9532C25.3701 36.3364 24.8975 36.8091 24.8975 37.3922C24.8975 37.9754 25.3702 38.448 25.9532 38.448H32.2619C32.845 38.4481 33.3177 37.9754 33.3177 37.3922Z" fill="white"/>
<path id="Vector_11" d="M37.536 38.448C38.1192 38.448 38.5918 37.9753 38.5918 37.3922C38.5918 36.809 38.1191 36.3364 37.536 36.3364H35.4864C34.9034 36.3364 34.4307 36.8091 34.4307 37.3922C34.4307 37.9753 34.9034 38.448 35.4864 38.448H37.536Z" fill="white"/>
</g>
<g id="Group_3">
<path id="Vector_12" d="M13.9896 29.1514L6.79688 36.3441L18.7966 48.3437H33.182L13.9896 29.1514Z" fill="url(#paint7_linear_1362_10834)"/>
<g id="Group_4">
<path id="Vector_13" d="M17.0947 32.5182H14.1987V29.6222C14.1987 29.2191 13.872 28.8923 13.4689 28.8923H10.879C10.4759 28.8923 10.1492 29.2191 10.1492 29.6222V32.5182H7.2533C6.85021 32.5182 6.52344 32.8449 6.52344 33.248V35.8379C6.52344 36.241 6.85021 36.5677 7.2533 36.5677H10.1493V39.4637C10.1493 39.8668 10.476 40.1936 10.8791 40.1936H13.469C13.8721 40.1936 14.1988 39.8668 14.1988 39.4637V36.5677H17.0948C17.4979 36.5677 17.8247 36.241 17.8247 35.8379V33.248C17.8246 32.8449 17.4978 32.5182 17.0947 32.5182Z" fill="url(#paint8_linear_1362_10834)"/>
<g id="Group_5">
<path id="Vector_14" d="M6.52344 33.2479V35.8378C6.52344 36.2409 6.85021 36.5676 7.2533 36.5676H10.1493V32.5181H7.2533C6.85021 32.5181 6.52344 32.8448 6.52344 33.2479Z" fill="url(#paint9_linear_1362_10834)"/>
<path id="Vector_15" d="M17.0952 32.5181H14.1992V36.5676H17.0952C17.4983 36.5676 17.8251 36.2409 17.8251 35.8378V33.2479C17.8251 32.8448 17.4983 32.5181 17.0952 32.5181Z" fill="url(#paint10_linear_1362_10834)"/>
<path id="Vector_16" d="M17.0952 32.5181H14.1992V36.5676H17.0952C17.4983 36.5676 17.8251 36.2409 17.8251 35.8378V33.2479C17.8251 32.8448 17.4983 32.5181 17.0952 32.5181Z" fill="url(#paint11_linear_1362_10834)"/>
</g>
<path id="Vector_17" d="M10.8793 40.1935H13.4691C13.8722 40.1935 14.199 39.8667 14.199 39.4636V36.5676H10.1494V39.4636C10.1494 39.8667 10.4762 40.1935 10.8793 40.1935Z" fill="url(#paint12_linear_1362_10834)"/>
</g>
</g>
<path id="Vector_18" d="M42.1582 9.04466H7.08521C4.86684 9.04466 3.06836 7.24629 3.06836 5.02781V4.01674C3.06847 1.79837 4.86684 0 7.08521 0H42.1581C44.3765 0 46.175 1.79837 46.175 4.01685V5.02792C46.175 7.24629 44.3766 9.04466 42.1582 9.04466Z" fill="url(#paint13_linear_1362_10834)"/>
<path id="Vector_19" d="M36.0464 9.04466H13.1985C11.3636 9.04466 9.87598 7.55715 9.87598 5.7221V3.32256C9.87609 1.48751 11.3636 0 13.1985 0H36.0463C37.8812 0 39.3689 1.48751 39.3689 3.32256V5.72221C39.3689 7.55715 37.8814 9.04466 36.0464 9.04466Z" fill="url(#paint14_linear_1362_10834)"/>
<path id="Vector_20" d="M28.0525 9.04466H21.1927C20.0772 9.04466 19.1729 8.14032 19.1729 7.02482V2.01984C19.1729 0.904345 20.0772 0 21.1927 0H28.0525C29.168 0 30.0723 0.904345 30.0723 2.01984V7.02493C30.0723 8.14042 29.168 9.04466 28.0525 9.04466Z" fill="url(#paint15_linear_1362_10834)"/>
<path id="Vector_21" d="M28.2051 20.7422H46.4639V48.3438H28.2051V20.7422Z" fill="url(#paint16_linear_1362_10834)"/>
<g id="Group_6">
<path id="Vector_22" d="M46.7637 55.9999C43.1981 55.9999 40.3076 53.1094 40.3076 49.5439V41.6072C40.3076 38.0416 43.1981 35.1511 46.7637 35.1511C50.3292 35.1511 53.2197 38.0416 53.2197 41.6072V49.5439C53.2197 53.1094 50.3292 55.9999 46.7637 55.9999Z" fill="url(#paint17_linear_1362_10834)"/>
<path id="Vector_23" d="M46.7638 35.1511C46.6716 35.1511 46.5804 35.1542 46.4893 35.158V55.9929C46.5804 55.9967 46.6716 55.9998 46.7638 55.9998C50.3293 55.9998 53.2198 53.1093 53.2198 49.5438V41.607C53.2198 38.0415 50.3293 35.1511 46.7638 35.1511Z" fill="url(#paint18_linear_1362_10834)"/>
<path id="Vector_24" d="M40.3076 45.5757V49.5441C40.3076 53.1097 43.1981 56.0001 46.7636 56.0001C50.3292 56.0001 53.2197 53.1097 53.2197 49.5441V45.5757H40.3076Z" fill="url(#paint19_linear_1362_10834)"/>
<path id="Vector_25" d="M40.3076 45.5757V49.5441C40.3076 53.1097 43.1981 56.0001 46.7636 56.0001C50.3292 56.0001 53.2197 53.1097 53.2197 49.5441V45.5757H40.3076Z" fill="url(#paint20_linear_1362_10834)"/>
<path id="Vector_26" d="M46.7641 54.3528C44.1124 54.3528 41.9551 52.1955 41.9551 49.5438V41.6071C41.9551 38.9554 44.1123 36.7981 46.7641 36.7981C49.4158 36.7981 51.573 38.9554 51.573 41.6071V49.5438C51.573 52.1955 49.4158 54.3528 46.7641 54.3528Z" fill="url(#paint21_linear_1362_10834)"/>
<path id="Vector_27" d="M51.5729 45.5757H41.9551V49.544C41.9551 52.1957 44.1123 54.353 46.764 54.353C49.4158 54.353 51.573 52.1957 51.573 49.544V45.5757H51.5729Z" fill="url(#paint22_linear_1362_10834)"/>
<path id="Vector_28" d="M46.7641 36.7983C44.1124 36.7983 41.9551 38.9557 41.9551 41.6073V45.5756H51.573V41.6073C51.573 38.9557 49.4158 36.7983 46.7641 36.7983Z" fill="url(#paint23_linear_1362_10834)"/>
<path id="Vector_29" d="M46.7638 36.7983C46.6716 36.7983 46.5802 36.8015 46.4893 36.8067V54.3446C46.5802 54.3497 46.6716 54.3529 46.7638 54.3529C49.4154 54.3529 51.5727 52.1956 51.5727 49.5439V41.6072C51.5727 38.9557 49.4155 36.7983 46.7638 36.7983Z" fill="url(#paint24_linear_1362_10834)"/>
</g>
</g>
</g>
<defs>
<linearGradient id="paint0_linear_1362_10834" x1="23.4753" y1="6.26809" x2="26.2204" y2="16.3701" gradientUnits="userSpaceOnUse">
<stop stop-color="#EAF9FA"/>
<stop offset="1" stop-color="#B3DAFE"/>
</linearGradient>
<linearGradient id="paint1_linear_1362_10834" x1="24.6219" y1="13.0666" x2="24.6219" y2="8.12422" gradientUnits="userSpaceOnUse">
<stop stop-color="#7BACDF" stop-opacity="0"/>
<stop offset="1" stop-color="#7BACDF"/>
</linearGradient>
<linearGradient id="paint2_linear_1362_10834" x1="30.4018" y1="10.488" x2="40.5043" y2="10.488" gradientUnits="userSpaceOnUse">
<stop stop-color="#7BACDF" stop-opacity="0"/>
<stop offset="1" stop-color="#7BACDF"/>
</linearGradient>
<linearGradient id="paint3_linear_1362_10834" x1="7.67193" y1="34.5431" x2="44.5217" y2="34.5431" gradientUnits="userSpaceOnUse">
<stop stop-color="#EAF9FA"/>
<stop offset="1" stop-color="#B3DAFE"/>
</linearGradient>
<linearGradient id="paint4_linear_1362_10834" x1="36.2206" y1="34.5431" x2="46.8715" y2="34.5431" gradientUnits="userSpaceOnUse">
<stop stop-color="#7BACDF" stop-opacity="0"/>
<stop offset="1" stop-color="#7BACDF"/>
</linearGradient>
<linearGradient id="paint5_linear_1362_10834" x1="24.6221" y1="50.949" x2="24.6221" y2="56.019" gradientUnits="userSpaceOnUse">
<stop stop-color="#7BACDF" stop-opacity="0"/>
<stop offset="1" stop-color="#7BACDF"/>
</linearGradient>
<linearGradient id="paint6_linear_1362_10834" x1="15.5778" y1="34.543" x2="31.393" y2="34.543" gradientUnits="userSpaceOnUse">
<stop stop-color="#FE0364"/>
<stop offset="0.2568" stop-color="#F3035F"/>
<stop offset="0.7013" stop-color="#D70252"/>
<stop offset="1" stop-color="#C00148"/>
</linearGradient>
<linearGradient id="paint7_linear_1362_10834" x1="19.309" y1="41.6634" x2="8.85811" y2="31.2126" gradientUnits="userSpaceOnUse">
<stop stop-color="#972437" stop-opacity="0"/>
<stop offset="0.1984" stop-color="#922434" stop-opacity="0.198"/>
<stop offset="0.427" stop-color="#85242D" stop-opacity="0.427"/>
<stop offset="0.6703" stop-color="#6D2321" stop-opacity="0.67"/>
<stop offset="0.9226" stop-color="#4D2111" stop-opacity="0.923"/>
<stop offset="1" stop-color="#42210B"/>
</linearGradient>
<linearGradient id="paint8_linear_1362_10834" x1="8.72083" y1="31.0897" x2="14.904" y2="37.2729" gradientUnits="userSpaceOnUse">
<stop stop-color="#EAF9FA"/>
<stop offset="1" stop-color="#B3DAFE"/>
</linearGradient>
<linearGradient id="paint9_linear_1362_10834" x1="8.3363" y1="34.0876" x2="8.3363" y2="37.0391" gradientUnits="userSpaceOnUse">
<stop stop-color="#7BACDF" stop-opacity="0"/>
<stop offset="1" stop-color="#7BACDF"/>
</linearGradient>
<linearGradient id="paint10_linear_1362_10834" x1="16.1535" y1="34.5429" x2="18.1112" y2="34.5429" gradientUnits="userSpaceOnUse">
<stop stop-color="#7BACDF" stop-opacity="0"/>
<stop offset="1" stop-color="#7BACDF"/>
</linearGradient>
<linearGradient id="paint11_linear_1362_10834" x1="16.0122" y1="34.0876" x2="16.0122" y2="37.0391" gradientUnits="userSpaceOnUse">
<stop stop-color="#7BACDF" stop-opacity="0"/>
<stop offset="1" stop-color="#7BACDF"/>
</linearGradient>
<linearGradient id="paint12_linear_1362_10834" x1="12.1743" y1="38.9222" x2="12.1743" y2="40.17" gradientUnits="userSpaceOnUse">
<stop stop-color="#7BACDF" stop-opacity="0"/>
<stop offset="1" stop-color="#7BACDF"/>
</linearGradient>
<linearGradient id="paint13_linear_1362_10834" x1="24.6218" y1="0.878431" x2="24.6218" y2="9.56403" gradientUnits="userSpaceOnUse">
<stop stop-color="#AEFFD1"/>
<stop offset="0.1201" stop-color="#A3F9CB"/>
<stop offset="0.3288" stop-color="#87EAB9"/>
<stop offset="0.6012" stop-color="#59D19D"/>
<stop offset="0.9235" stop-color="#19AF77"/>
<stop offset="1" stop-color="#09A76D"/>
</linearGradient>
<linearGradient id="paint14_linear_1362_10834" x1="24.6225" y1="0.805192" x2="24.6225" y2="15.4816" gradientUnits="userSpaceOnUse">
<stop stop-color="#02905D" stop-opacity="0"/>
<stop offset="0.39" stop-color="#028454" stop-opacity="0.39"/>
<stop offset="1" stop-color="#026841"/>
</linearGradient>
<linearGradient id="paint15_linear_1362_10834" x1="24.6226" y1="0.805192" x2="24.6226" y2="15.4816" gradientUnits="userSpaceOnUse">
<stop stop-color="#02905D" stop-opacity="0"/>
<stop offset="0.39" stop-color="#028454" stop-opacity="0.39"/>
<stop offset="1" stop-color="#026841"/>
</linearGradient>
<linearGradient id="paint16_linear_1362_10834" x1="31.7188" y1="34.543" x2="47.0929" y2="34.543" gradientUnits="userSpaceOnUse">
<stop stop-color="#972437" stop-opacity="0"/>
<stop offset="0.1984" stop-color="#922434" stop-opacity="0.198"/>
<stop offset="0.427" stop-color="#85242D" stop-opacity="0.427"/>
<stop offset="0.6703" stop-color="#6D2321" stop-opacity="0.67"/>
<stop offset="0.9226" stop-color="#4D2111" stop-opacity="0.923"/>
<stop offset="1" stop-color="#42210B"/>
</linearGradient>
<linearGradient id="paint17_linear_1362_10834" x1="42.6769" y1="38.5866" x2="50.8506" y2="52.5646" gradientUnits="userSpaceOnUse">
<stop stop-color="#EAF9FA"/>
<stop offset="1" stop-color="#B3DAFE"/>
</linearGradient>
<linearGradient id="paint18_linear_1362_10834" x1="49.5089" y1="45.5755" x2="54.0657" y2="45.5755" gradientUnits="userSpaceOnUse">
<stop stop-color="#7BACDF" stop-opacity="0"/>
<stop offset="1" stop-color="#7BACDF"/>
</linearGradient>
<linearGradient id="paint19_linear_1362_10834" x1="44.7726" y1="51.6762" x2="50.1164" y2="43.1115" gradientUnits="userSpaceOnUse">
<stop stop-color="#7BACDF" stop-opacity="0"/>
<stop offset="1" stop-color="#7BACDF"/>
</linearGradient>
<linearGradient id="paint20_linear_1362_10834" x1="46.7635" y1="50.8828" x2="46.7635" y2="56.154" gradientUnits="userSpaceOnUse">
<stop stop-color="#7BACDF" stop-opacity="0"/>
<stop offset="1" stop-color="#7BACDF"/>
</linearGradient>
<linearGradient id="paint21_linear_1362_10834" x1="40.122" y1="41.8213" x2="50.224" y2="47.5311" gradientUnits="userSpaceOnUse">
<stop stop-color="#AEFFD1"/>
<stop offset="0.1201" stop-color="#A3F9CB"/>
<stop offset="0.3288" stop-color="#87EAB9"/>
<stop offset="0.6012" stop-color="#59D19D"/>
<stop offset="0.9235" stop-color="#19AF77"/>
<stop offset="1" stop-color="#09A76D"/>
</linearGradient>
<linearGradient id="paint22_linear_1362_10834" x1="46.7639" y1="50.0776" x2="46.7639" y2="55.6843" gradientUnits="userSpaceOnUse">
<stop stop-color="#02905D" stop-opacity="0"/>
<stop offset="0.39" stop-color="#028454" stop-opacity="0.39"/>
<stop offset="1" stop-color="#026841"/>
</linearGradient>
<linearGradient id="paint23_linear_1362_10834" x1="41.7167" y1="39.3361" x2="49.8954" y2="43.9589" gradientUnits="userSpaceOnUse">
<stop stop-color="#AEFFD1"/>
<stop offset="0.1201" stop-color="#A3F9CB"/>
<stop offset="0.3288" stop-color="#87EAB9"/>
<stop offset="0.6012" stop-color="#59D19D"/>
<stop offset="0.9235" stop-color="#19AF77"/>
<stop offset="1" stop-color="#09A76D"/>
</linearGradient>
<linearGradient id="paint24_linear_1362_10834" x1="48.1912" y1="45.5756" x2="52.1943" y2="45.5756" gradientUnits="userSpaceOnUse">
<stop stop-color="#02905D" stop-opacity="0"/>
<stop offset="0.39" stop-color="#028454" stop-opacity="0.39"/>
<stop offset="1" stop-color="#026841"/>
</linearGradient>
<clipPath id="clip0_1362_10834">
<rect width="56" height="56" fill="white"/>
</clipPath>
</defs>
</svg>
