<svg width="56" height="56" viewBox="0 0 56 56" fill="none" xmlns="http://www.w3.org/2000/svg">
<g id="train_9272248 1" clip-path="url(#clip0_1353_9253)">
<path id="Vector" d="M43.33 1.93375C43.05 1.295 42.42 0.875 41.72 0.875H14.28C13.58 0.875 12.95 1.295 12.67 1.93375L10.5 7V36.75H11.375L12.0925 43.9075L12.1712 44.7125C12.215 45.1587 12.5912 45.5 13.0375 45.5H17.1325C17.255 45.5 17.3775 45.4912 17.5 45.4825V45.5H38.5V45.4825C38.6225 45.4912 38.745 45.5 38.8675 45.5H42.9625C43.4087 45.5 43.785 45.1587 43.8288 44.7125L43.9075 43.9075L44.625 36.75H45.5V7L43.33 1.93375Z" fill="#FFC008"/>
<path id="Vector_2" d="M55.7438 54.5063L43.6531 42.4155C43.311 42.0734 42.758 42.0734 42.4158 42.4155C42.0737 42.7577 42.0737 43.3107 42.4158 43.6528L46.888 48.1249H9.11247L13.5846 43.6528C13.9267 43.3107 13.9267 42.7577 13.5846 42.4155C13.2425 42.0734 12.6895 42.0734 12.3473 42.4155L0.256594 54.5063C-0.0855313 54.8484 -0.0855313 55.4014 0.256594 55.7435C0.427219 55.9142 0.651219 55.9999 0.875219 55.9999C1.09922 55.9999 1.32322 55.9142 1.49384 55.7435L3.86247 53.3749H52.138L54.5066 55.7435C54.6772 55.9142 54.9012 55.9999 55.1252 55.9999C55.3492 55.9999 55.5732 55.9142 55.7438 55.7435C56.086 55.4014 56.086 54.8484 55.7438 54.5063ZM5.61247 51.6249L7.36247 49.8749H48.638L50.388 51.6249H5.61247Z" fill="#666666"/>
<path id="Vector_3" d="M10.5 34.125V31.5H45.5V34.125V36.75H44.625H11.375H10.5V34.125Z" fill="#808080"/>
<path id="Vector_4" d="M10.5 31.5H45.5V36.75H10.5V31.5Z" fill="#808080"/>
<path id="Vector_5" d="M45.5 22.75V31.5H10.5V22.75H45.5ZM42.875 27.125C42.875 26.1625 42.0875 25.375 41.125 25.375C40.1625 25.375 39.375 26.1625 39.375 27.125C39.375 28.0875 40.1625 28.875 41.125 28.875C42.0875 28.875 42.875 28.0875 42.875 27.125ZM16.625 27.125C16.625 26.1625 15.8375 25.375 14.875 25.375C13.9125 25.375 13.125 26.1625 13.125 27.125C13.125 28.0875 13.9125 28.875 14.875 28.875C15.8375 28.875 16.625 28.0875 16.625 27.125Z" fill="#F9AF0B"/>
<path id="Vector_6" d="M45.5 7V22.75H10.5V7H14.875V15.75L18.375 19.25H28H37.625L41.125 15.75V7H45.5Z" fill="#FFC008"/>
<path id="Vector_7" d="M43.33 1.93375L45.5 7H41.125V0.875H41.72C42.42 0.875 43.05 1.295 43.33 1.93375Z" fill="#808080"/>
<path id="Vector_8" d="M44.625 36.75L43.9075 43.9075L43.8288 44.7125C43.785 45.1587 43.4087 45.5 42.9625 45.5H38.8675C38.745 45.5 38.6225 45.4913 38.5 45.4825C37.8175 45.4212 37.1612 45.1937 36.5925 44.8087L33.95 43.05C32.9262 42.3675 31.7188 42 30.485 42H25.515C24.2812 42 23.0738 42.3675 22.05 43.05L19.4075 44.8087C18.8388 45.1937 18.1825 45.4212 17.5 45.4825C17.3775 45.4913 17.255 45.5 17.1325 45.5H13.0375C12.5912 45.5 12.215 45.1587 12.1712 44.7125L12.0925 43.9075L11.375 36.75H44.625ZM42 41.125C42 40.1625 41.2125 39.375 40.25 39.375C39.2875 39.375 38.5 40.1625 38.5 41.125C38.5 42.0875 39.2875 42.875 40.25 42.875C41.2125 42.875 42 42.0875 42 41.125ZM17.5 41.125C17.5 40.1625 16.7125 39.375 15.75 39.375C14.7875 39.375 14 40.1625 14 41.125C14 42.0875 14.7875 42.875 15.75 42.875C16.7125 42.875 17.5 42.0875 17.5 41.125Z" fill="#FFC008"/>
<path id="Vector_9" d="M41.125 28.875C42.0915 28.875 42.875 28.0915 42.875 27.125C42.875 26.1585 42.0915 25.375 41.125 25.375C40.1585 25.375 39.375 26.1585 39.375 27.125C39.375 28.0915 40.1585 28.875 41.125 28.875Z" fill="#F47765"/>
<path id="Vector_10" d="M40.25 42.875C41.2165 42.875 42 42.0915 42 41.125C42 40.1585 41.2165 39.375 40.25 39.375C39.2835 39.375 38.5 40.1585 38.5 41.125C38.5 42.0915 39.2835 42.875 40.25 42.875Z" fill="#F47765"/>
<path id="Vector_11" d="M41.125 7V15.75L37.625 19.25H28V7H32.375H41.125Z" fill="#666666"/>
<path id="Vector_12" d="M41.125 0.875V7H32.375V3.5H23.625V7H14.875V0.875H41.125Z" fill="#F9AF0B"/>
<path id="Vector_13" d="M38.5 45.4825V45.5H17.5V45.4825C18.1825 45.4212 18.8388 45.1937 19.4075 44.8087L22.05 43.05C23.0738 42.3675 24.2812 42 25.515 42H30.485C31.7188 42 32.9262 42.3675 33.95 43.05L36.5925 44.8087C37.1612 45.1937 37.8175 45.4212 38.5 45.4825Z" fill="#F47765"/>
<path id="Vector_14" d="M32.375 3.5V7H28H23.625V3.5H32.375Z" fill="#F47765"/>
<path id="Vector_15" d="M28 7V19.25H18.375L14.875 15.75V7H23.625H28Z" fill="#808080"/>
<path id="Vector_16" d="M15.75 42.875C16.7165 42.875 17.5 42.0915 17.5 41.125C17.5 40.1585 16.7165 39.375 15.75 39.375C14.7835 39.375 14 40.1585 14 41.125C14 42.0915 14.7835 42.875 15.75 42.875Z" fill="#F47765"/>
<path id="Vector_17" d="M14.875 28.875C15.8415 28.875 16.625 28.0915 16.625 27.125C16.625 26.1585 15.8415 25.375 14.875 25.375C13.9085 25.375 13.125 26.1585 13.125 27.125C13.125 28.0915 13.9085 28.875 14.875 28.875Z" fill="#F47765"/>
<path id="Vector_18" d="M14.875 0.875V7H10.5L12.67 1.93375C12.95 1.295 13.58 0.875 14.28 0.875H14.875Z" fill="#808080"/>
<g id="Group">
<path id="Vector_19" d="M19.25 34.125C19.25 34.6063 18.8562 35 18.375 35H10.5V33.25H18.375C18.8562 33.25 19.25 33.6437 19.25 34.125Z" fill="#666666"/>
</g>
<g id="Group_2">
<path id="Vector_20" d="M45.5 33.25V35H37.625C37.1437 35 36.75 34.6063 36.75 34.125C36.75 33.6437 37.1437 33.25 37.625 33.25H45.5Z" fill="#666666"/>
</g>
</g>
<defs>
<clipPath id="clip0_1353_9253">
<rect width="56" height="56" fill="white"/>
</clipPath>
</defs>
</svg>
