<svg width="56" height="56" viewBox="0 0 56 56" fill="none" xmlns="http://www.w3.org/2000/svg">
<g id="shop_4808660 1">
<g id="_x32_98-Buy_x2C__Ecommerce_x2C__Shop_x2C__Buy">
<g id="Group">
<path id="Vector" d="M47.2637 24.6641V47.6328C43.0762 47.6328 14.7207 47.6328 7.88867 47.6328C7.88867 47.6206 7.88867 25.0155 7.88867 24.6641C9.70091 24.6641 11.1699 23.1952 11.1699 21.3828C11.1699 23.1952 12.6388 24.6641 14.4512 24.6641C16.2634 24.6641 17.7324 23.1952 17.7324 21.3828C17.7324 23.1952 19.2013 24.6641 21.0137 24.6641C22.8259 24.6641 24.2949 23.1952 24.2949 21.3828C24.2949 23.1952 25.7638 24.6641 27.5762 24.6641C29.3885 24.6641 30.8574 23.1952 30.8574 21.3828C30.8574 23.1952 32.3263 24.6641 34.1387 24.6641C35.951 24.6641 37.4199 23.1952 37.4199 21.3828C37.4199 23.1952 38.8888 24.6641 40.7012 24.6641C42.5135 24.6641 43.9824 23.1952 43.9824 21.3828C43.9824 23.1952 45.4513 24.6641 47.2637 24.6641Z" fill="#C86D36"/>
<path id="Vector_2" d="M36.3262 34.5078H42.8887V41.0703H36.3262V34.5078Z" fill="#94D4FF"/>
<path id="Vector_3" d="M29.7637 34.5078H36.3262V41.0703H29.7637V34.5078Z" fill="#BCE4FF"/>
<path id="Vector_4" d="M25.3887 47.6328V52.0078H15.5449V47.6328V38.8828H25.3887V47.6328Z" fill="#BCE4FF"/>
<path id="Vector_5" d="M47.2637 47.6328V48.207C47.2637 50.3059 45.5618 52.0078 43.4629 52.0078H25.3887V47.6328H47.2637Z" fill="#A85120"/>
<path id="Vector_6" d="M15.5449 47.6328V52.0078H11.6895C9.59055 52.0078 7.88867 50.3059 7.88867 48.207V47.6328H15.5449Z" fill="#A85120"/>
<path id="Vector_7" d="M47.2637 9.13281V10.4453H7.88867V9.13281C7.88867 7.44187 9.26023 6.07031 10.9512 6.07031H44.2012C45.8921 6.07031 47.2637 7.44187 47.2637 9.13281Z" fill="#07CC66"/>
<path id="Vector_8" d="M50.5449 18.1016V21.3828H43.9824H37.4199H30.8574H24.2949H17.7324H11.1699H4.60742V18.1016H50.5449Z" fill="#C41A1D"/>
<path id="Vector_9" d="M47.2637 10.4453L50.5449 18.1016H4.60742L7.88867 10.4453H47.2637Z" fill="#FF3E3B"/>
<path id="Vector_10" d="M37.4199 21.3828H43.9824C43.9824 23.1952 42.5135 24.6641 40.7012 24.6641C38.8888 24.6641 37.4199 23.1952 37.4199 21.3828Z" fill="#CD2738"/>
<path id="Vector_11" d="M24.2949 21.3828H30.8574C30.8574 23.1952 29.3885 24.6641 27.5762 24.6641C25.7638 24.6641 24.2949 23.1952 24.2949 21.3828Z" fill="#CD2738"/>
<path id="Vector_12" d="M11.1699 21.3828H17.7324C17.7324 23.1952 16.2634 24.6641 14.4512 24.6641C12.6388 24.6641 11.1699 23.1952 11.1699 21.3828Z" fill="#CD2738"/>
<g id="Group_2">
<path id="Vector_13" d="M43.9824 21.3828H50.5449C50.5449 23.1952 49.076 24.6641 47.2637 24.6641C45.4513 24.6641 43.9824 23.1952 43.9824 21.3828Z" fill="#D94556"/>
<path id="Vector_14" d="M30.8574 21.3828H37.4199C37.4199 23.1952 35.951 24.6641 34.1387 24.6641C32.3263 24.6641 30.8574 23.1952 30.8574 21.3828Z" fill="#D94556"/>
<path id="Vector_15" d="M17.7324 21.3828H24.2949C24.2949 23.1952 22.8259 24.6641 21.0137 24.6641C19.2013 24.6641 17.7324 23.1952 17.7324 21.3828Z" fill="#D94556"/>
<path id="Vector_16" d="M4.60742 21.3828H11.1699C11.1699 23.1952 9.70091 24.6641 7.88867 24.6641C6.07633 24.6641 4.60742 23.1952 4.60742 21.3828Z" fill="#D94556"/>
</g>
<path id="Vector_17" d="M51.6387 10.4453C52.2424 10.4453 52.7324 10.9353 52.7324 11.5391C52.7324 12.1428 52.2424 12.6328 51.6387 12.6328C51.0349 12.6328 50.5449 12.1428 50.5449 11.5391C50.5449 10.9353 51.0349 10.4453 51.6387 10.4453Z" fill="#FFD400"/>
<path id="Vector_18" d="M50.5449 3.88281C51.1487 3.88281 51.6387 4.37281 51.6387 4.97656C51.6387 5.58031 51.1487 6.07031 50.5449 6.07031C49.9412 6.07031 49.4512 5.58031 49.4512 4.97656C49.4512 4.37281 49.9412 3.88281 50.5449 3.88281Z" fill="#FFD400"/>
<path id="Vector_19" d="M50.5449 34.5078C51.1487 34.5078 51.6387 34.9978 51.6387 35.6016C51.6387 36.2053 51.1487 36.6953 50.5449 36.6953C49.9412 36.6953 49.4512 36.2053 49.4512 35.6016C49.4512 34.9978 49.9412 34.5078 50.5449 34.5078Z" fill="#5CBEFF"/>
<path id="Vector_20" d="M43.9824 29.0391C44.5862 29.0391 45.0762 29.5291 45.0762 30.1328C45.0762 30.7366 44.5862 31.2266 43.9824 31.2266C43.3787 31.2266 42.8887 30.7366 42.8887 30.1328C42.8887 29.5291 43.3787 29.0391 43.9824 29.0391Z" fill="#A85120"/>
<path id="Vector_21" d="M4.60742 4.97656C5.21117 4.97656 5.70117 5.46656 5.70117 6.07031C5.70117 6.67406 5.21117 7.16406 4.60742 7.16406C4.00356 7.16406 3.51367 6.67406 3.51367 6.07031C3.51367 5.46656 4.00356 4.97656 4.60742 4.97656Z" fill="#FFD400"/>
<path id="Vector_22" d="M4.60742 45.4453C5.21117 45.4453 5.70117 45.9353 5.70117 46.5391C5.70117 47.1428 5.21117 47.6328 4.60742 47.6328C4.00356 47.6328 3.51367 47.1428 3.51367 46.5391C3.51367 45.9353 4.00356 45.4453 4.60742 45.4453Z" fill="#5CBEFF"/>
<path id="Vector_23" d="M3.51367 10.4453C4.11742 10.4453 4.60742 10.9353 4.60742 11.5391C4.60742 12.1428 4.11742 12.6328 3.51367 12.6328C2.90981 12.6328 2.41992 12.1428 2.41992 11.5391C2.41992 10.9353 2.90981 10.4453 3.51367 10.4453Z" fill="#FFD400"/>
<path id="Vector_24" d="M4.60742 44.3516C4.00334 44.3516 3.51367 43.8618 3.51367 43.2578V30.1328C3.51367 29.5288 4.00334 29.0391 4.60742 29.0391C5.21139 29.0391 5.70117 29.5288 5.70117 30.1328V43.2578C5.70117 43.8618 5.21139 44.3516 4.60742 44.3516Z" fill="#5CBEFF"/>
<path id="Vector_25" d="M50.5449 50.9141C49.941 50.9141 49.4512 50.4243 49.4512 49.8203V38.8828C49.4512 38.2788 49.941 37.7891 50.5449 37.7891C51.1489 37.7891 51.6387 38.2788 51.6387 38.8828V49.8203C51.6387 50.4243 51.1489 50.9141 50.5449 50.9141Z" fill="#5CBEFF"/>
<path id="Vector_26" d="M41.7949 30.1328C41.7949 29.5288 41.3051 29.0391 40.7012 29.0391H7.88867V31.2266H40.7012C41.3051 31.2266 41.7949 30.7368 41.7949 30.1328Z" fill="#A85120"/>
<path id="Vector_27" d="M21.0137 34.5078C21.0137 33.9038 20.5239 33.4141 19.9199 33.4141H7.88867V35.6016H19.9199C20.5239 35.6016 21.0137 35.1118 21.0137 34.5078Z" fill="#A85120"/>
</g>
</g>
</g>
</svg>
