<svg width="56" height="56" viewBox="0 0 56 56" fill="none" xmlns="http://www.w3.org/2000/svg">
<g id="machine-learning_4996492 1">
<g id="_x35_5">
<g id="Group">
<g id="Group_2">
<path id="Vector" d="M42.4941 12.7131H43.5507V19.0475H42.4941V12.7131Z" fill="#2D2C2C"/>
</g>
<g id="Group_3">
<g id="Group_4">
<path id="Vector_2" d="M44.1984 11.8568C44.1984 12.5097 43.6708 13.0374 43.023 13.0374C42.3753 13.0374 41.8477 12.5097 41.8477 11.8568C41.8477 11.209 42.3753 10.6814 43.023 10.6814C43.6708 10.6814 44.1984 11.209 44.1984 11.8568Z" fill="#FC6559"/>
</g>
</g>
<g id="Group_5">
<g id="Group_6">
<path id="Vector_3" d="M44.1976 11.8566C44.1976 12.5118 43.6722 13.0372 43.0235 13.0372C42.563 13.0372 42.1673 12.7713 41.9727 12.3821C42.1673 12.5313 42.4138 12.6222 42.6797 12.6222C43.3284 12.6222 43.8603 12.0967 43.8603 11.4415C43.8603 11.2599 43.8214 11.0912 43.7371 10.9355C44.016 11.1367 44.1976 11.474 44.1976 11.8566Z" fill="#F05543"/>
</g>
</g>
</g>
<g id="Group_7">
<path id="Vector_4" d="M40.3056 15.204V25.0014C40.3056 26.9379 38.7358 28.5077 36.7994 28.5077H18.8314C16.895 28.5077 15.3252 26.9379 15.3252 25.0014V15.204C15.3252 13.2675 16.895 11.6978 18.8314 11.6978H36.7994C38.7358 11.6978 40.3056 13.2675 40.3056 15.204Z" fill="#F9B938"/>
</g>
<g id="Group_8">
<path id="Vector_5" d="M33.7645 23.427C36.0065 23.427 37.824 21.6096 37.824 19.3676C37.824 17.1256 36.0065 15.3081 33.7645 15.3081C31.5226 15.3081 29.7051 17.1256 29.7051 19.3676C29.7051 21.6096 31.5226 23.427 33.7645 23.427Z" fill="white"/>
</g>
<g id="Group_9">
<path id="Vector_6" d="M40.305 15.2039V24.9988C40.305 26.9383 38.7353 28.508 36.7957 28.508H18.834C17.6015 28.508 16.5182 27.879 15.8955 26.919C16.3885 27.1849 16.9593 27.3406 17.5691 27.3406H35.5373C37.4703 27.3406 39.0402 25.7708 39.0402 23.8378V14.0363C39.0402 13.3291 38.8326 12.6675 38.4693 12.1162C39.5656 12.7129 40.305 13.8676 40.305 15.2039Z" fill="#E5A320"/>
</g>
<g id="Group_10">
<path id="Vector_7" d="M34.167 28.5068V30.7664C34.167 31.2648 33.7983 31.6742 33.3137 31.7289C33.2727 31.7426 33.2317 31.7426 33.1908 31.7426H22.4391C21.8998 31.7426 21.4629 31.3057 21.4629 30.7664V28.5068H34.167Z" fill="#D0D0F7"/>
</g>
<g id="Group_11">
<path id="Vector_8" d="M34.167 28.5068V30.7664C34.167 31.2648 33.7983 31.6742 33.3137 31.7289V31.1283C33.3137 30.1111 32.4876 29.285 31.4705 29.285H21.4629V28.5068H34.167Z" fill="#A2A2F9"/>
</g>
<g id="Group_12">
<path id="Vector_9" d="M20.8397 23.427C23.0817 23.427 24.8992 21.6096 24.8992 19.3676C24.8992 17.1256 23.0817 15.3081 20.8397 15.3081C18.5978 15.3081 16.7803 17.1256 16.7803 19.3676C16.7803 21.6096 18.5978 23.427 20.8397 23.427Z" fill="white"/>
</g>
<g id="Group_13">
<path id="Vector_10" d="M24.8989 19.3684C24.8989 21.6128 23.0826 23.4291 20.8382 23.4291C19.5409 23.4291 18.3797 22.8194 17.6338 21.8659C18.3214 22.3977 19.1841 22.7155 20.1182 22.7155C22.3626 22.7155 24.1789 20.8992 24.1789 18.6548C24.1789 17.7078 23.8545 16.832 23.3032 16.1445C24.2762 16.8839 24.8989 18.0516 24.8989 19.3684Z" fill="#E4E3FF"/>
</g>
<g id="Group_14">
<path id="Vector_11" d="M29.7061 19.366C29.7061 21.6104 31.5223 23.4267 33.7667 23.4267C35.0641 23.4267 36.2252 22.817 36.9712 21.8634C36.2836 22.3952 35.4209 22.7131 34.4868 22.7131C32.2423 22.7131 30.4261 20.8968 30.4261 18.6524C30.4261 17.7053 30.7504 16.8296 31.3018 16.1421C30.3288 16.8815 29.7061 18.0492 29.7061 19.366Z" fill="#E4E3FF"/>
</g>
<g id="Group_15">
<path id="Vector_12" d="M20.84 21.8316C22.2008 21.8316 23.304 20.7284 23.304 19.3676C23.304 18.0067 22.2008 16.9036 20.84 16.9036C19.4791 16.9036 18.376 18.0067 18.376 19.3676C18.376 20.7284 19.4791 21.8316 20.84 21.8316Z" fill="#474646"/>
</g>
<g id="Group_16">
<path id="Vector_13" d="M23.3022 19.3698C23.3022 20.7283 22.2026 21.8344 20.8377 21.8344C20.0161 21.8344 19.2916 21.4334 18.8389 20.8123C19.2075 21.0388 19.6475 21.1681 20.1197 21.1681C21.4781 21.1681 22.5842 20.0685 22.5842 18.71C22.5842 18.1732 22.4096 17.6686 22.112 17.261C22.83 17.688 23.3022 18.4707 23.3022 19.3698Z" fill="#2D2C2C"/>
</g>
<g id="Group_17">
<path id="Vector_14" d="M20.1187 19.5388C20.5779 19.5388 20.9502 19.1665 20.9502 18.7073C20.9502 18.248 20.5779 17.8757 20.1187 17.8757C19.6594 17.8757 19.2871 18.248 19.2871 18.7073C19.2871 19.1665 19.6594 19.5388 20.1187 19.5388Z" fill="white"/>
</g>
<g id="Group_18">
<path id="Vector_15" d="M33.7638 21.8316C35.1246 21.8316 36.2278 20.7284 36.2278 19.3676C36.2278 18.0067 35.1246 16.9036 33.7638 16.9036C32.403 16.9036 31.2998 18.0067 31.2998 19.3676C31.2998 20.7284 32.403 21.8316 33.7638 21.8316Z" fill="#474646"/>
</g>
<g id="Group_19">
<path id="Vector_16" d="M31.3027 19.3698C31.3027 20.7283 32.4024 21.8344 33.7673 21.8344C34.5888 21.8344 35.3133 21.4334 35.7661 20.8123C35.3974 21.0388 34.9575 21.1681 34.4853 21.1681C33.1269 21.1681 32.0207 20.0685 32.0207 18.71C32.0207 18.1732 32.1954 17.6686 32.493 17.261C31.7749 17.688 31.3027 18.4707 31.3027 19.3698Z" fill="#2D2C2C"/>
</g>
<g id="Group_20">
<path id="Vector_17" d="M34.4858 19.5388C34.9451 19.5388 35.3174 19.1665 35.3174 18.7073C35.3174 18.248 34.9451 17.8757 34.4858 17.8757C34.0266 17.8757 33.6543 18.248 33.6543 18.7073C33.6543 19.1665 34.0266 19.5388 34.4858 19.5388Z" fill="white"/>
</g>
<g id="Group_21">
<path id="Vector_18" d="M40.3057 15.3782V22.7161C42.3111 22.6872 43.9265 21.0568 43.9265 19.0499C43.9265 17.0375 42.3111 15.407 40.3057 15.3782Z" fill="#7979F7"/>
</g>
<g id="Group_22" opacity="0.3">
<g id="Group_23">
<path id="Vector_19" d="M41.9793 21.1584C41.9058 21.0463 41.9368 20.8955 42.0496 20.8221C42.4759 20.5427 42.7457 20.0942 42.7888 19.5912C42.8009 19.4576 42.9206 19.3524 43.0523 19.3695C43.186 19.3815 43.2855 19.4994 43.2741 19.633C43.2171 20.2861 42.868 20.8677 42.3156 21.2287C42.2044 21.3023 42.0523 21.2715 41.9793 21.1584Z" fill="white"/>
</g>
</g>
<g id="Group_24">
<path id="Vector_20" d="M43.6788 17.7338C43.6722 17.7264 43.6656 17.7191 43.659 17.7119C42.7277 16.6869 41.0062 17.4183 41.0062 18.8031V22.6378C40.7792 22.6897 40.5457 22.7155 40.3057 22.7155V15.3792C41.8495 15.3985 43.1598 16.3715 43.6788 17.7338Z" fill="#5E5EEF"/>
</g>
<g id="Group_25">
<g id="Group_26">
<path id="Vector_21" d="M30.8906 9.49683L34.9389 4.61857L35.7525 5.29374L31.7042 10.172L30.8906 9.49683Z" fill="#2D2C2C"/>
</g>
<g id="Group_27">
<g id="Group_28">
<path id="Vector_22" d="M36.7814 5.06776C36.3639 5.56985 35.6209 5.63823 35.1228 5.22407C34.6248 4.80992 34.5564 4.0669 34.9739 3.56481C35.388 3.06675 36.131 2.99839 36.6291 3.41253C37.1272 3.8267 37.1955 4.5697 36.7814 5.06776Z" fill="#F9B938"/>
</g>
</g>
<g id="Group_29">
<g id="Group_30">
<path id="Vector_23" d="M36.7807 5.06683C36.3618 5.5706 35.6218 5.6387 35.123 5.22397C34.7689 4.92953 34.6347 4.47209 34.7339 4.04834C34.7882 4.28749 34.9196 4.51496 35.1241 4.68501C35.6229 5.09974 36.3678 5.03579 36.7867 4.53203C36.9028 4.39235 36.9807 4.23779 37.0154 4.06417C37.1013 4.39715 37.0253 4.77263 36.7807 5.06683Z" fill="#E5A320"/>
</g>
</g>
</g>
<g id="Group_31">
<g id="Group_32">
<path id="Vector_24" d="M22.0967 4.82153L22.9093 4.14626L26.9576 9.01814L26.145 9.69342L22.0967 4.82153Z" fill="#2D2C2C"/>
</g>
<g id="Group_33">
<g id="Group_34">
<path id="Vector_25" d="M21.0502 4.56776C21.4677 5.06985 22.2107 5.13823 22.7088 4.72407C23.2069 4.30992 23.2752 3.5669 22.8577 3.06481C22.4436 2.56675 21.7006 2.49839 21.2025 2.91253C20.7044 3.3267 20.6361 4.0697 21.0502 4.56776Z" fill="#F9B938"/>
</g>
</g>
<g id="Group_35">
<g id="Group_36">
<path id="Vector_26" d="M21.051 4.56683C21.4699 5.0706 22.2099 5.1387 22.7087 4.72397C23.0628 4.42953 23.197 3.97209 23.0978 3.54834C23.0435 3.78749 22.9121 4.01496 22.7076 4.18501C22.2088 4.59974 21.4639 4.53579 21.045 4.03203C20.9289 3.89235 20.851 3.73779 20.8163 3.56417C20.7304 3.89715 20.8064 4.27263 21.051 4.56683Z" fill="#E5A320"/>
</g>
</g>
</g>
<g id="Group_37">
<g id="Group_38">
<path id="Vector_27" d="M12.0791 12.7131H13.1357V19.0475H12.0791V12.7131Z" fill="#2D2C2C"/>
</g>
<g id="Group_39">
<path id="Vector_28" d="M15.325 15.3784V22.7164C13.3196 22.6874 11.7041 21.057 11.7041 19.0501C11.7041 17.0378 13.3196 15.4073 15.325 15.3784Z" fill="#7979F7"/>
</g>
<g id="Group_40" opacity="0.3">
<g id="Group_41">
<path id="Vector_29" d="M13.4478 21.2689C13.527 21.2689 13.6049 21.2302 13.6512 21.1587C13.7247 21.0465 13.6936 20.8958 13.5809 20.8223C13.1545 20.5429 12.8847 20.0944 12.8416 19.5915C12.8296 19.4578 12.7098 19.3526 12.5781 19.3697C12.4444 19.3818 12.345 19.4996 12.3564 19.6333C12.4134 20.2864 12.7624 20.8679 13.3148 21.229C13.356 21.2562 13.4022 21.2689 13.4478 21.2689Z" fill="white"/>
</g>
</g>
<g id="Group_42">
<path id="Vector_30" d="M11.9521 17.7338C11.9587 17.7264 11.9653 17.7191 11.9719 17.7119C12.9032 16.6869 14.6247 17.4183 14.6247 18.8031V22.6378C14.8517 22.6897 15.0852 22.7155 15.3253 22.7155V15.3792C13.7814 15.3985 12.4711 16.3715 11.9521 17.7338Z" fill="#5E5EEF"/>
</g>
<g id="Group_43">
<g id="Group_44">
<path id="Vector_31" d="M11.4316 11.8568C11.4316 12.5097 11.9592 13.0374 12.607 13.0374C13.2548 13.0374 13.7824 12.5097 13.7824 11.8568C13.7824 11.209 13.2548 10.6814 12.607 10.6814C11.9592 10.6814 11.4316 11.209 11.4316 11.8568Z" fill="#FC6559"/>
</g>
</g>
<g id="Group_45">
<g id="Group_46">
<path id="Vector_32" d="M11.4326 11.8566C11.4326 12.5118 11.958 13.0372 12.6067 13.0372C13.0672 13.0372 13.4629 12.7713 13.6576 12.3821C13.4629 12.5313 13.2165 12.6222 12.9505 12.6222C12.3018 12.6222 11.7699 12.0967 11.7699 11.4415C11.7699 11.2599 11.8088 11.0912 11.8932 10.9355C11.6142 11.1367 11.4326 11.474 11.4326 11.8566Z" fill="#F05543"/>
</g>
</g>
</g>
<g id="Group_47">
<path id="Vector_33" d="M33.9568 11.6976C33.9064 8.34859 31.1796 5.64795 27.8121 5.64795C24.451 5.64795 21.7242 8.34859 21.6738 11.6976H33.9568Z" fill="#7979F7"/>
</g>
<g id="Group_48" opacity="0.3">
<g id="Group_49">
<path id="Vector_34" d="M23.4373 9.30444C23.2865 9.20816 23.2415 9.00798 23.3378 8.85658C23.7844 8.15469 24.3983 7.55607 25.1135 7.12531C25.2649 7.03409 25.4657 7.0816 25.5581 7.23553C25.6506 7.38883 25.6019 7.58774 25.4479 7.68023C24.8183 8.06031 24.2779 8.58736 23.8852 9.20499C23.7878 9.35695 23.5877 9.39997 23.4373 9.30444Z" fill="white"/>
</g>
</g>
<g id="Group_50" opacity="0.3">
<g id="Group_51">
<path id="Vector_35" d="M26.062 7.0068C26.0082 6.83639 26.1025 6.65395 26.2736 6.60011C26.4415 6.5469 26.6131 6.50192 26.788 6.46454C26.9565 6.43034 27.1351 6.53866 27.1725 6.71477C27.2099 6.8896 27.0977 7.06191 26.9223 7.09928C26.769 7.13159 26.6176 7.1715 26.4687 7.21837C26.2967 7.27234 26.1158 7.17739 26.062 7.0068Z" fill="white"/>
</g>
</g>
<g id="Group_52">
<path id="Vector_36" d="M33.9552 11.6946H21.6758C21.6758 11.4352 21.6953 11.1821 21.7342 10.9357H28.9075C31.299 10.9357 32.5011 7.94097 30.6924 6.37645C30.6795 6.36525 30.6665 6.35411 30.6534 6.34302C32.593 7.35499 33.9227 9.36594 33.9552 11.6946Z" fill="#5E5EEF"/>
</g>
<g id="Group_53">
<path id="Vector_37" d="M31.6106 25.3985C31.6106 25.9552 31.1592 26.4066 30.6025 26.4066H24.3206C23.7638 26.4066 23.3125 25.9552 23.3125 25.3985C23.3125 24.8417 23.7638 24.3904 24.3206 24.3904H30.6025C31.1592 24.3904 31.6106 24.8417 31.6106 25.3985Z" fill="white"/>
</g>
<g id="Group_54">
<g id="Group_55" opacity="0.4">
<g id="Group_56">
<path id="Vector_38" d="M27.1493 13.3651C27.1493 13.5981 26.9603 13.7871 26.7273 13.7871H21.0548C20.8218 13.7871 20.6328 13.5981 20.6328 13.3651C20.6328 13.1321 20.8218 12.9431 21.0548 12.9431H26.7273C26.9603 12.9431 27.1493 13.1321 27.1493 13.3651Z" fill="white"/>
</g>
</g>
<g id="Group_57" opacity="0.4">
<g id="Group_58">
<path id="Vector_39" d="M19.9213 13.3651C19.9213 13.5981 19.7323 13.7871 19.4993 13.7871H18.9415C18.7086 13.7871 18.5195 13.5981 18.5195 13.3651C18.5195 13.1321 18.7086 12.9431 18.9415 12.9431H19.4993C19.7323 12.9431 19.9213 13.1321 19.9213 13.3651Z" fill="white"/>
</g>
</g>
</g>
<g id="Group_59">
<g id="Group_60" opacity="0.4">
<g id="Group_61">
<path id="Vector_40" d="M27.7572 30.8792C27.7572 31.0269 27.6375 31.1466 27.4898 31.1466H23.8953C23.7477 31.1466 23.6279 31.0269 23.6279 30.8792C23.6279 30.7316 23.7477 30.6118 23.8953 30.6118H27.4898C27.6375 30.6118 27.7572 30.7316 27.7572 30.8792Z" fill="white"/>
</g>
</g>
<g id="Group_62" opacity="0.4">
<g id="Group_63">
<path id="Vector_41" d="M23.1773 30.8792C23.1773 31.0269 23.0575 31.1466 22.9099 31.1466H22.5565C22.4088 31.1466 22.2891 31.0269 22.2891 30.8792C22.2891 30.7316 22.4088 30.6118 22.5565 30.6118H22.9099C23.0575 30.6118 23.1773 30.7316 23.1773 30.8792Z" fill="white"/>
</g>
</g>
</g>
<g id="Group_64">
<g id="Group_65">
<path id="Vector_42" d="M24.4521 24.3896H24.9805V26.4056H24.4521V24.3896Z" fill="#474646"/>
</g>
<g id="Group_66">
<path id="Vector_43" d="M25.8242 24.3896H26.3525V26.4056H25.8242V24.3896Z" fill="#474646"/>
</g>
<g id="Group_67">
<path id="Vector_44" d="M27.1973 24.3896H27.7256V26.4056H27.1973V24.3896Z" fill="#474646"/>
</g>
<g id="Group_68">
<path id="Vector_45" d="M28.5693 24.3896H29.0976V26.4056H28.5693V24.3896Z" fill="#474646"/>
</g>
<g id="Group_69">
<path id="Vector_46" d="M29.9424 24.3896H30.4707V26.4056H29.9424V24.3896Z" fill="#474646"/>
</g>
</g>
<g id="Group_70">
<path id="Vector_47" d="M28.0156 31.0313V53.3585L44.2009 51.2842C45.7556 51.1005 46.9269 49.7827 46.9269 48.2172V31.6742C46.9269 29.7932 45.2598 28.3491 43.3981 28.6174L28.0156 31.0313Z" fill="#F05543"/>
</g>
<g id="Group_71">
<g id="Group_72">
<path id="Vector_48" d="M48.3653 38.5651C48.3653 39.6613 47.7898 40.6067 46.9266 41.1409V39.0311C46.9677 38.8802 46.9951 38.7293 46.9951 38.5651C46.9951 38.4142 46.9677 38.2636 46.9266 38.1128C46.7347 37.4139 46.0771 36.8934 45.3097 36.8934H43.7066C43.3229 36.8934 43.0215 36.5917 43.0215 36.2083C43.0215 35.8246 43.3229 35.5232 43.7066 35.5232H45.3097C45.9126 35.5232 46.4607 35.6874 46.9266 35.9889C47.7898 36.5234 48.3653 37.4825 48.3653 38.5651Z" fill="#474646"/>
</g>
</g>
<g id="Group_73">
<path id="Vector_49" d="M28.0158 31.0313V53.3585L11.8305 51.2842C10.2758 51.1005 9.10449 49.7827 9.10449 48.2172V31.6742C9.10449 29.7932 10.7716 28.3491 12.6333 28.6174L28.0158 31.0313Z" fill="#FC6559"/>
</g>
<g id="Group_74">
<g id="Group_75">
<g id="Group_76">
<path id="Vector_50" d="M27.7761 35.343L26.377 34.63C26.1169 34.4979 26.0127 34.1791 26.1458 33.9201C26.2779 33.658 26.5988 33.5569 26.8557 33.689L28.0155 34.2792L29.1763 33.689C29.4353 33.5579 29.7552 33.659 29.8862 33.9201C30.0194 34.1801 29.9151 34.4979 29.6551 34.63L28.2549 35.343C28.105 35.419 27.9302 35.4211 27.7761 35.343Z" fill="#ECB021"/>
</g>
</g>
<g id="Group_77">
<g id="Group_78">
<path id="Vector_51" d="M27.7761 39.2557L26.377 38.5427C26.1169 38.4106 26.0127 38.0917 26.1458 37.8327C26.2779 37.5717 26.5988 37.4695 26.8557 37.6016L28.0155 38.1918L29.1763 37.6016C29.4353 37.4706 29.7552 37.5717 29.8862 37.8327C30.0194 38.0928 29.9151 38.4106 29.6551 38.5427L28.2549 39.2557C28.105 39.3316 27.9302 39.3338 27.7761 39.2557Z" fill="#ECB021"/>
</g>
</g>
<g id="Group_79">
<g id="Group_80">
<path id="Vector_52" d="M27.7753 43.1696L26.3761 42.4556C26.1161 42.3235 26.0129 42.0046 26.146 41.7446C26.2781 41.4846 26.5959 41.3835 26.857 41.5145L28.0157 42.1058L29.1755 41.5145C29.4355 41.3845 29.7554 41.4846 29.8865 41.7446C30.0196 42.0046 29.9164 42.3235 29.6564 42.4556L28.2562 43.1696C28.1042 43.2466 27.9273 43.2466 27.7753 43.1696Z" fill="#ECB021"/>
</g>
</g>
<g id="Group_81">
<g id="Group_82">
<path id="Vector_53" d="M27.7761 47.0823L26.377 46.3693C26.1169 46.2372 26.0127 45.9183 26.1458 45.6594C26.2779 45.3973 26.5988 45.2961 26.8557 45.4282L28.0155 46.0184L29.1763 45.4282C29.4353 45.2972 29.7552 45.3983 29.8862 45.6594C30.0194 45.9194 29.9151 46.2372 29.6551 46.3693L28.2549 47.0823C28.105 47.1582 27.9302 47.1604 27.7761 47.0823Z" fill="#ECB021"/>
</g>
</g>
<g id="Group_83">
<g id="Group_84">
<path id="Vector_54" d="M27.7761 50.9949L26.377 50.2819C26.1169 50.1498 26.0127 49.8309 26.1458 49.572C26.2779 49.3099 26.5988 49.2087 26.8557 49.3408L28.0155 49.931L29.1763 49.3408C29.4353 49.2098 29.7552 49.3099 29.8862 49.572C30.0194 49.832 29.9151 50.1498 29.6551 50.2819L28.2549 50.9949C28.105 51.0708 27.9302 51.073 27.7761 50.9949Z" fill="#ECB021"/>
</g>
</g>
</g>
<g id="Group_85">
<g id="Group_86">
<path id="Vector_55" d="M7.63574 38.5651C7.63574 39.6613 8.21121 40.6067 9.07446 41.1409V39.0311C9.03332 38.8802 9.00597 38.7293 9.00597 38.5651C9.00597 38.4142 9.03332 38.2636 9.07446 38.1128C9.26632 37.4139 9.924 36.8934 10.6913 36.8934H12.2945C12.6782 36.8934 12.9796 36.5917 12.9796 36.2083C12.9796 35.8246 12.6782 35.5232 12.2945 35.5232H10.6913C10.0884 35.5232 9.54038 35.6874 9.07446 35.9889C8.21121 36.5234 7.63574 37.4825 7.63574 38.5651Z" fill="#474646"/>
</g>
</g>
<g id="Group_87">
<path id="Vector_56" d="M23.0613 36.4341V39.6607C23.0613 39.9734 22.779 40.2101 22.4711 40.1557L14.4727 38.7405C14.2326 38.698 14.0576 38.4893 14.0576 38.2455V35.0189C14.0576 34.7062 14.34 34.4695 14.6478 34.5239L22.6463 35.9392C22.8863 35.9816 23.0613 36.1903 23.0613 36.4341Z" fill="#F9B938"/>
</g>
</g>
</g>
</svg>
