<svg width="56" height="56" viewBox="0 0 56 56" fill="none" xmlns="http://www.w3.org/2000/svg">
<g id="broadcasting_11944423 1" clip-path="url(#clip0_1362_11282)">
<g id="Group">
<g id="Group_2">
<path id="Vector" d="M55.9998 17.2484V18.0359C55.9998 22.4875 52.3904 26.0969 47.9388 26.0969H43.9795C41.6279 26.0969 39.517 25.0906 38.0404 23.4938H33.8185C33.031 23.4938 32.6373 22.5422 33.1951 21.9844L35.9951 19.1844C35.9404 18.8125 35.9076 18.4297 35.9076 18.0359V17.2484C35.9076 12.7969 39.517 9.1875 43.9685 9.1875H47.9279C52.3904 9.1875 55.9998 12.7969 55.9998 17.2484Z" fill="url(#paint0_radial_1362_11282)"/>
<g id="Group_3">
<path id="Vector_2" d="M53.101 13.0921V21.9078C53.101 21.9734 53.09 22.0281 53.0791 22.0828H39.4619L38.915 18.9875V13.0921C38.915 12.7093 39.2213 12.4031 39.6041 12.4031H52.4119C52.7947 12.4031 53.101 12.7093 53.101 13.0921Z" fill="url(#paint1_linear_1362_11282)"/>
<path id="Vector_3" d="M48.9451 16.975L45.2373 22.5968H52.4123C52.7295 22.5968 52.992 22.3781 53.0795 22.0937L49.7107 16.9859C49.5248 16.7015 49.1311 16.7015 48.9451 16.975Z" fill="url(#paint2_linear_1362_11282)"/>
<path id="Vector_4" d="M39.6041 22.5858H49.0104L43.1479 13.7046C42.9729 13.4312 42.5682 13.4312 42.3932 13.7046L38.915 18.9874V21.9077C38.915 22.2796 39.2213 22.5858 39.6041 22.5858Z" fill="url(#paint3_linear_1362_11282)"/>
</g>
<path id="Vector_5" d="M35.9076 17.6421V18.0358C35.9076 18.4296 35.9404 18.8124 35.9951 19.1843L33.1951 21.9843C32.6373 22.5421 33.031 23.4937 33.8185 23.4937H38.0404C39.517 25.1015 41.6279 26.0968 43.9795 26.0968H47.9388C52.3904 26.0968 55.9998 22.4874 55.9998 18.0358V17.6421H35.9076Z" fill="url(#paint4_linear_1362_11282)"/>
<path id="Vector_6" d="M47.9393 9.1875H46.583V26.1078H47.9393C52.3908 26.1078 56.0002 22.4984 56.0002 18.0469V17.2594C56.0002 12.7969 52.3908 9.1875 47.9393 9.1875Z" fill="url(#paint5_linear_1362_11282)"/>
</g>
<g id="Group_4">
<path id="Vector_7" d="M0 23.8766V24.6641C0 29.1157 3.60937 32.7251 8.06094 32.7251H12.0203C14.3719 32.7251 16.4828 31.7188 17.9594 30.1219H22.1812C22.9688 30.1219 23.3625 29.1704 22.8047 28.6126L20.0047 25.8126C20.0594 25.4407 20.0922 25.0579 20.0922 24.6641V23.8766C20.0922 19.4251 16.4828 15.8157 12.0312 15.8157H8.06094C3.60937 15.8048 0 19.4251 0 23.8766Z" fill="url(#paint6_radial_1362_11282)"/>
<g id="Group_5">
<path id="Vector_8" d="M4.49512 22.0171H11.2217C11.8889 22.0171 12.4248 22.553 12.4248 23.2202V28.153C12.4248 28.8202 11.8889 29.3562 11.2217 29.3562H4.49512C3.82793 29.3562 3.29199 28.8202 3.29199 28.153V23.2202C3.29199 22.553 3.83887 22.0171 4.49512 22.0171Z" fill="url(#paint7_linear_1362_11282)"/>
<path id="Vector_9" d="M13.2889 25.1124L16.942 22.7061C17.3904 22.4108 17.992 22.728 17.992 23.2749V28.0983C17.992 28.6343 17.3904 28.9624 16.942 28.6671L13.2889 26.2608C12.8842 25.9764 12.8842 25.3749 13.2889 25.1124Z" fill="url(#paint8_linear_1362_11282)"/>
<g id="Group_6">
<path id="Vector_10" d="M5.17305 21.4594C6.20599 21.4594 7.04336 20.622 7.04336 19.5891C7.04336 18.5561 6.20599 17.7188 5.17305 17.7188C4.1401 17.7188 3.30273 18.5561 3.30273 19.5891C3.30273 20.622 4.1401 21.4594 5.17305 21.4594Z" fill="url(#paint9_linear_1362_11282)"/>
<path id="Vector_11" d="M9.38399 21.4594C10.4169 21.4594 11.2543 20.622 11.2543 19.5891C11.2543 18.5561 10.4169 17.7188 9.38399 17.7188C8.35104 17.7188 7.51367 18.5561 7.51367 19.5891C7.51367 20.622 8.35104 21.4594 9.38399 21.4594Z" fill="url(#paint10_linear_1362_11282)"/>
</g>
</g>
<path id="Vector_12" d="M20.0922 24.2705V24.6643C20.0922 25.058 20.0594 25.4408 20.0047 25.8127L22.8047 28.6127C23.3625 29.1705 22.9688 30.1221 22.1812 30.1221H17.9594C16.4828 31.7299 14.3719 32.7252 12.0203 32.7252H8.06094C3.60937 32.7252 0 29.1158 0 24.6643V24.2705H20.0922Z" fill="url(#paint11_linear_1362_11282)"/>
</g>
<g id="Group_7">
<g id="Group_8">
<g id="Group_9">
<path id="Vector_13" d="M20.54 44.9969L21.8197 42.8203L38.0838 52.3469L36.8041 54.5344L20.54 44.9969Z" fill="url(#paint12_linear_1362_11282)"/>
<path id="Vector_14" d="M26.9277 48.7374L32.473 51.9858L34.3215 50.1483L29.4105 47.2717L26.9277 48.7374Z" fill="url(#paint13_linear_1362_11282)"/>
<path id="Vector_15" d="M25.6041 45.0406L21.8197 42.8203L20.54 44.9969L25.6041 47.9609V45.0406Z" fill="url(#paint14_linear_1362_11282)"/>
<path id="Vector_16" d="M19.1512 54.5343L17.9043 52.3468L17.9262 52.3249L27.3434 46.8124L34.1793 42.7983L35.448 44.9749L28.623 48.989L19.1512 54.5343Z" fill="url(#paint15_linear_1362_11282)"/>
<path id="Vector_17" d="M25.3418 47.9827L17.9262 52.3249L17.9043 52.3467L19.1512 54.5342L25.3418 50.903V47.9827Z" fill="url(#paint16_linear_1362_11282)"/>
</g>
<g id="Group_10">
<path id="Vector_18" d="M22.4541 36.9358L23.7338 34.7593L35.4479 41.628L34.1791 43.8155L22.4541 36.9358Z" fill="url(#paint17_linear_1362_11282)"/>
<path id="Vector_19" d="M22.4541 36.9358L23.7338 34.7593L35.4479 41.628L34.1791 43.8155L22.4541 36.9358Z" fill="url(#paint18_linear_1362_11282)"/>
<path id="Vector_20" d="M35.448 41.628L34.1793 43.8155L26.6543 39.4077L29.2246 37.9858L35.448 41.628Z" fill="url(#paint19_linear_1362_11282)"/>
<path id="Vector_21" d="M21.8086 43.8155L20.5508 41.628L20.5727 41.617L32.2867 34.7483L33.5555 36.9249L21.8086 43.8155Z" fill="url(#paint20_linear_1362_11282)"/>
<path id="Vector_22" d="M27.507 37.5483L20.5727 41.6171L20.5508 41.628L21.8086 43.8155L27.507 40.4796V37.5483Z" fill="url(#paint21_linear_1362_11282)"/>
</g>
<g id="Group_11">
<path id="Vector_23" d="M23.832 31.2046L25.1117 29.0281L33.5555 33.9828L32.2867 36.1593L23.832 31.2046Z" fill="url(#paint22_linear_1362_11282)"/>
<path id="Vector_24" d="M23.832 31.2046L25.1117 29.0281L33.5555 33.9828L32.2867 36.1593L23.832 31.2046Z" fill="url(#paint23_linear_1362_11282)"/>
<path id="Vector_25" d="M33.5559 33.9828L32.2762 36.1593L26.8184 32.9546L29.2137 31.4343L33.5559 33.9828Z" fill="url(#paint24_linear_1362_11282)"/>
<path id="Vector_26" d="M23.7227 36.1593L22.4648 33.9718L22.4758 33.9608L30.9195 29.0171L32.1883 31.1937L23.7227 36.1593Z" fill="url(#paint25_linear_1362_11282)"/>
<path id="Vector_27" d="M23.7227 36.1593L22.4648 33.9718L22.4758 33.9608L30.9195 29.0171L32.1883 31.1937L23.7227 36.1593Z" fill="url(#paint26_linear_1362_11282)"/>
</g>
</g>
<path id="Vector_28" d="M36.5415 54.9937L28.054 24.15C28.043 24.0953 27.9555 24.0953 27.9446 24.15L19.4571 54.9937C19.2602 55.7266 18.5055 56.1531 17.7727 55.9453C17.0399 55.7484 16.6133 54.9938 16.8212 54.2609L26.6102 18.7031C27.004 17.2812 29.0165 17.2812 29.3993 18.7031L39.1883 54.2609C39.3852 54.9938 38.9587 55.7375 38.2368 55.9453C37.493 56.1531 36.7383 55.7266 36.5415 54.9937Z" fill="url(#paint27_linear_1362_11282)"/>
<path id="Vector_29" d="M29.3992 18.7141C29.0055 17.2922 26.993 17.2922 26.6102 18.7141L23.9414 28.4047H26.7742L27.9445 24.15C27.9555 24.0954 28.043 24.0954 28.0539 24.15L29.2242 28.4047H32.057L29.3992 18.7141Z" fill="url(#paint28_linear_1362_11282)"/>
<path id="Vector_30" d="M29.4 18.714C29.2031 18.0031 28.6016 17.6531 28 17.6531V24.1062C28.0219 24.1062 28.0437 24.1171 28.0547 24.15L36.5422 54.9937C36.7391 55.7265 37.4937 56.1531 38.2266 55.9453C38.9594 55.7484 39.3859 54.9937 39.1781 54.2609L29.4 18.714Z" fill="url(#paint29_linear_1362_11282)"/>
<g id="Group_12">
<g id="Group_13">
<path id="Vector_31" d="M33.2055 13.3108C31.6524 12.3155 29.8587 11.7905 27.9993 11.7905C26.1399 11.7905 24.3462 12.3155 22.793 13.3108C22.2024 13.6937 22.0274 14.4812 22.4102 15.0718C22.793 15.6624 23.5805 15.8374 24.1712 15.4546C25.3087 14.7218 26.6321 14.339 27.9993 14.339C29.3665 14.339 30.6899 14.7218 31.8274 15.4546C32.0352 15.5968 32.2758 15.6515 32.5165 15.6515C32.9321 15.6515 33.3477 15.4437 33.5884 15.0608C33.9712 14.4812 33.7962 13.6937 33.2055 13.3108Z" fill="url(#paint30_linear_1362_11282)"/>
<path id="Vector_32" d="M36.312 8.61865C33.8401 7.01084 30.9635 6.15771 27.9995 6.15771C25.0354 6.15771 22.1698 7.01084 19.687 8.61865C18.9323 9.11084 18.7135 10.128 19.2057 10.8827C19.6979 11.6374 20.7151 11.8562 21.4698 11.364C23.4166 10.1062 25.6698 9.43897 27.9885 9.43897C30.3182 9.43897 32.5713 10.1062 34.5073 11.364C34.7807 11.539 35.087 11.6265 35.3932 11.6265C35.9291 11.6265 36.4541 11.364 36.7713 10.8827C37.2854 10.128 37.0666 9.11084 36.312 8.61865Z" fill="url(#paint31_linear_1362_11282)"/>
<path id="Vector_33" d="M39.7028 3.47812C36.2247 1.20312 32.1778 0 27.9997 0C23.8216 0 19.7747 1.20312 16.2966 3.47812C15.3669 4.07969 15.1153 5.32656 15.7169 6.24531C16.3184 7.175 17.5653 7.42656 18.4841 6.825C21.3169 4.97656 24.6091 4.00312 27.9997 4.00312C31.3903 4.00312 34.6825 4.97656 37.5153 6.825C37.8544 7.04375 38.2372 7.15313 38.6091 7.15313C39.2653 7.15313 39.8997 6.83594 40.2825 6.24531C40.8841 5.31562 40.6325 4.07969 39.7028 3.47812Z" fill="url(#paint32_linear_1362_11282)"/>
</g>
<g id="Group_14">
<path id="Vector_34" d="M28.0326 22.0062C28.0107 22.0062 27.9998 22.0062 27.9779 22.0062C26.2498 22.0062 24.8389 20.5952 24.8389 18.8671C24.8389 18.8452 24.8389 18.8343 24.8389 18.8124C24.8389 17.0843 26.2498 15.6733 27.9779 15.6733H28.0326C29.7607 15.6733 31.1717 17.0843 31.1717 18.8124V18.8671C31.1607 20.5952 29.7607 22.0062 28.0326 22.0062Z" fill="url(#paint33_radial_1362_11282)"/>
<g id="Group_15" opacity="0.25">
<path id="Vector_35" d="M28.0326 22.0062C28.0107 22.0062 27.9998 22.0062 27.9779 22.0062C26.2498 22.0062 24.8389 20.5952 24.8389 18.8671C24.8389 18.8452 24.8389 18.8343 24.8389 18.8124C24.8389 17.0843 26.2498 15.6733 27.9779 15.6733H28.0326C29.7607 15.6733 31.1717 17.0843 31.1717 18.8124V18.8671C31.1607 20.5952 29.7607 22.0062 28.0326 22.0062Z" fill="url(#paint34_radial_1362_11282)"/>
</g>
</g>
</g>
<g id="Group_16">
<path id="Vector_36" d="M17.773 55.9453C18.5058 56.1421 19.2496 55.7156 19.4574 54.9937L21.4699 47.6765H18.6371L16.8214 54.2609C16.6246 54.9937 17.0511 55.7484 17.773 55.9453Z" fill="url(#paint35_linear_1362_11282)"/>
<path id="Vector_37" d="M36.5418 54.9937C36.7387 55.7266 37.4934 56.1531 38.2262 55.9453C38.959 55.7484 39.3855 54.9938 39.1777 54.2609L37.3621 47.6875H34.5293L36.5418 54.9937Z" fill="url(#paint36_linear_1362_11282)"/>
</g>
</g>
<path id="Vector_38" d="M36.5311 44.625H33.2061L37.7889 49.1969L36.5311 44.625Z" fill="url(#paint37_linear_1362_11282)"/>
<g id="Group_17">
<path id="Vector_39" d="M55.9998 38.6203V39.4078C55.9998 43.8593 52.3904 47.4687 47.9388 47.4687H43.9795C41.6279 47.4687 39.517 46.4625 38.0404 44.8656H33.8185C33.031 44.8656 32.6373 43.914 33.1951 43.3562L35.9951 40.5562C35.9404 40.1843 35.9076 39.8015 35.9076 39.4078V38.6203C35.9076 34.1687 39.517 30.5593 43.9685 30.5593H47.9279C52.3904 30.5593 55.9998 34.1687 55.9998 38.6203Z" fill="url(#paint38_radial_1362_11282)"/>
<path id="Vector_40" d="M50.1705 32.6375C50.1705 32.3204 49.908 32.0579 49.5908 32.0579C46.9986 32.0579 45.883 34.2454 44.1001 34.2344C44.0455 34.2125 43.8595 34.1907 43.6626 34.2563C43.4658 34.3547 43.3345 34.5516 43.3345 34.7813V40.6219C42.7111 40.436 41.9126 40.5125 41.147 40.8625C39.8017 41.486 39.0798 42.7547 39.5173 43.7063C39.9548 44.6469 41.3986 44.9094 42.7439 44.286C43.8595 43.7719 44.5486 42.7985 44.4939 41.9454C44.4939 41.9235 44.4939 41.9125 44.4939 41.9016V36.575C45.9923 36.3235 47.5017 34.7047 49.0111 34.475V38.4891C48.3876 38.3032 47.5892 38.3797 46.8236 38.7297C45.4783 39.3532 44.7564 40.6219 45.1939 41.5735C45.6314 42.5141 47.0751 42.7766 48.4205 42.1532C49.5361 41.6391 50.2251 40.6657 50.1705 39.8125C50.1705 39.7907 50.1705 39.7797 50.1705 39.7688V32.6375Z" fill="url(#paint39_linear_1362_11282)"/>
<path id="Vector_41" d="M35.9076 39.0139V39.4077C35.9076 39.8014 35.9404 40.1842 35.9951 40.5561L33.1951 43.3561C32.6373 43.9139 33.031 44.8655 33.8185 44.8655H38.0404C39.517 46.4733 41.6279 47.4686 43.9795 47.4686H47.9388C52.3904 47.4686 55.9998 43.8592 55.9998 39.4077V39.0139H35.9076Z" fill="url(#paint40_linear_1362_11282)"/>
<path id="Vector_42" d="M47.9393 30.5593H46.583V47.4796H47.9393C52.3908 47.4796 56.0002 43.8703 56.0002 39.4187V38.6312C56.0002 34.1687 52.3908 30.5593 47.9393 30.5593Z" fill="url(#paint41_linear_1362_11282)"/>
</g>
</g>
</g>
<defs>
<radialGradient id="paint0_radial_1362_11282" cx="0" cy="0" r="1" gradientUnits="userSpaceOnUse" gradientTransform="translate(42.4841 13.2688) scale(12.1755)">
<stop stop-color="#FEF0AE"/>
<stop offset="1" stop-color="#FAC600"/>
</radialGradient>
<linearGradient id="paint1_linear_1362_11282" x1="46.0089" y1="20.7481" x2="46.0089" y2="11.0254" gradientUnits="userSpaceOnUse">
<stop stop-color="white" stop-opacity="0"/>
<stop offset="0.0924868" stop-color="white" stop-opacity="0.024"/>
<stop offset="0.2178" stop-color="white" stop-opacity="0.092"/>
<stop offset="0.3619" stop-color="white" stop-opacity="0.203"/>
<stop offset="0.52" stop-color="white" stop-opacity="0.359"/>
<stop offset="0.6897" stop-color="white" stop-opacity="0.559"/>
<stop offset="0.8661" stop-color="white" stop-opacity="0.798"/>
<stop offset="1" stop-color="white"/>
</linearGradient>
<linearGradient id="paint2_linear_1362_11282" x1="52.0017" y1="22.828" x2="47.1676" y2="19.5532" gradientUnits="userSpaceOnUse">
<stop stop-color="white" stop-opacity="0"/>
<stop offset="0.0924868" stop-color="white" stop-opacity="0.024"/>
<stop offset="0.2178" stop-color="white" stop-opacity="0.092"/>
<stop offset="0.3619" stop-color="white" stop-opacity="0.203"/>
<stop offset="0.52" stop-color="white" stop-opacity="0.359"/>
<stop offset="0.6897" stop-color="white" stop-opacity="0.559"/>
<stop offset="0.8661" stop-color="white" stop-opacity="0.798"/>
<stop offset="1" stop-color="white"/>
</linearGradient>
<linearGradient id="paint3_linear_1362_11282" x1="47.1745" y1="20.7793" x2="39.8842" y2="17.4656" gradientUnits="userSpaceOnUse">
<stop stop-color="white" stop-opacity="0"/>
<stop offset="0.0924868" stop-color="white" stop-opacity="0.024"/>
<stop offset="0.2178" stop-color="white" stop-opacity="0.092"/>
<stop offset="0.3619" stop-color="white" stop-opacity="0.203"/>
<stop offset="0.52" stop-color="white" stop-opacity="0.359"/>
<stop offset="0.6897" stop-color="white" stop-opacity="0.559"/>
<stop offset="0.8661" stop-color="white" stop-opacity="0.798"/>
<stop offset="1" stop-color="white"/>
</linearGradient>
<linearGradient id="paint4_linear_1362_11282" x1="44.4653" y1="20.5124" x2="43.9195" y2="26.5161" gradientUnits="userSpaceOnUse">
<stop stop-color="#FE9738" stop-opacity="0"/>
<stop offset="0.1025" stop-color="#FE9738" stop-opacity="0.02"/>
<stop offset="0.2265" stop-color="#FE9738" stop-opacity="0.078"/>
<stop offset="0.3615" stop-color="#FE9738" stop-opacity="0.175"/>
<stop offset="0.5046" stop-color="#FE9738" stop-opacity="0.31"/>
<stop offset="0.6539" stop-color="#FE9738" stop-opacity="0.483"/>
<stop offset="0.8085" stop-color="#FE9738" stop-opacity="0.695"/>
<stop offset="0.9645" stop-color="#FE9738" stop-opacity="0.94"/>
<stop offset="1" stop-color="#FE9738"/>
</linearGradient>
<linearGradient id="paint5_linear_1362_11282" x1="52.3497" y1="17.6473" x2="56.209" y2="17.6473" gradientUnits="userSpaceOnUse">
<stop stop-color="#FE9738" stop-opacity="0"/>
<stop offset="0.1025" stop-color="#FE9738" stop-opacity="0.02"/>
<stop offset="0.2265" stop-color="#FE9738" stop-opacity="0.078"/>
<stop offset="0.3615" stop-color="#FE9738" stop-opacity="0.175"/>
<stop offset="0.5046" stop-color="#FE9738" stop-opacity="0.31"/>
<stop offset="0.6539" stop-color="#FE9738" stop-opacity="0.483"/>
<stop offset="0.8085" stop-color="#FE9738" stop-opacity="0.695"/>
<stop offset="0.9645" stop-color="#FE9738" stop-opacity="0.94"/>
<stop offset="1" stop-color="#FE9738"/>
</linearGradient>
<radialGradient id="paint6_radial_1362_11282" cx="0" cy="0" r="1" gradientUnits="userSpaceOnUse" gradientTransform="translate(7.434 20.6705) rotate(180) scale(12.1755)">
<stop stop-color="#C8EFFE"/>
<stop offset="0.1027" stop-color="#C0EDFD"/>
<stop offset="0.258" stop-color="#ABEAFD"/>
<stop offset="0.4465" stop-color="#89E5FD"/>
<stop offset="0.6612" stop-color="#5ADDFC"/>
<stop offset="0.8947" stop-color="#1ED4FB"/>
<stop offset="1" stop-color="#01D0FB"/>
</radialGradient>
<linearGradient id="paint7_linear_1362_11282" x1="12.6082" y1="35.6392" x2="5.27912" y2="20.2531" gradientUnits="userSpaceOnUse">
<stop stop-color="white" stop-opacity="0"/>
<stop offset="0.0924868" stop-color="white" stop-opacity="0.024"/>
<stop offset="0.2178" stop-color="white" stop-opacity="0.092"/>
<stop offset="0.3619" stop-color="white" stop-opacity="0.203"/>
<stop offset="0.52" stop-color="white" stop-opacity="0.359"/>
<stop offset="0.6897" stop-color="white" stop-opacity="0.559"/>
<stop offset="0.8661" stop-color="white" stop-opacity="0.798"/>
<stop offset="1" stop-color="white"/>
</linearGradient>
<linearGradient id="paint8_linear_1362_11282" x1="19.4275" y1="31.8458" x2="14.5934" y2="22.8013" gradientUnits="userSpaceOnUse">
<stop stop-color="white" stop-opacity="0"/>
<stop offset="0.0924868" stop-color="white" stop-opacity="0.024"/>
<stop offset="0.2178" stop-color="white" stop-opacity="0.092"/>
<stop offset="0.3619" stop-color="white" stop-opacity="0.203"/>
<stop offset="0.52" stop-color="white" stop-opacity="0.359"/>
<stop offset="0.6897" stop-color="white" stop-opacity="0.559"/>
<stop offset="0.8661" stop-color="white" stop-opacity="0.798"/>
<stop offset="1" stop-color="white"/>
</linearGradient>
<linearGradient id="paint9_linear_1362_11282" x1="7.20458" y1="23.3966" x2="3.96752" y2="17.3403" gradientUnits="userSpaceOnUse">
<stop stop-color="white" stop-opacity="0"/>
<stop offset="0.0924868" stop-color="white" stop-opacity="0.024"/>
<stop offset="0.2178" stop-color="white" stop-opacity="0.092"/>
<stop offset="0.3619" stop-color="white" stop-opacity="0.203"/>
<stop offset="0.52" stop-color="white" stop-opacity="0.359"/>
<stop offset="0.6897" stop-color="white" stop-opacity="0.559"/>
<stop offset="0.8661" stop-color="white" stop-opacity="0.798"/>
<stop offset="1" stop-color="white"/>
</linearGradient>
<linearGradient id="paint10_linear_1362_11282" x1="11.4118" y1="23.3966" x2="8.17474" y2="17.3403" gradientUnits="userSpaceOnUse">
<stop stop-color="white" stop-opacity="0"/>
<stop offset="0.0924868" stop-color="white" stop-opacity="0.024"/>
<stop offset="0.2178" stop-color="white" stop-opacity="0.092"/>
<stop offset="0.3619" stop-color="white" stop-opacity="0.203"/>
<stop offset="0.52" stop-color="white" stop-opacity="0.359"/>
<stop offset="0.6897" stop-color="white" stop-opacity="0.559"/>
<stop offset="0.8661" stop-color="white" stop-opacity="0.798"/>
<stop offset="1" stop-color="white"/>
</linearGradient>
<linearGradient id="paint11_linear_1362_11282" x1="11.5345" y1="27.1346" x2="12.0803" y2="33.1383" gradientUnits="userSpaceOnUse">
<stop stop-color="#0290CF" stop-opacity="0"/>
<stop offset="0.2191" stop-color="#0290CF" stop-opacity="0.013"/>
<stop offset="0.3639" stop-color="#0290CF" stop-opacity="0.056"/>
<stop offset="0.4873" stop-color="#0290CF" stop-opacity="0.128"/>
<stop offset="0.5987" stop-color="#0290CF" stop-opacity="0.231"/>
<stop offset="0.7019" stop-color="#0290CF" stop-opacity="0.364"/>
<stop offset="0.7993" stop-color="#0290CF" stop-opacity="0.528"/>
<stop offset="0.892" stop-color="#0290CF" stop-opacity="0.722"/>
<stop offset="0.9788" stop-color="#0290CF" stop-opacity="0.941"/>
<stop offset="1" stop-color="#0290CF"/>
</linearGradient>
<linearGradient id="paint12_linear_1362_11282" x1="29.6373" y1="48.02" x2="28.8692" y2="49.5563" gradientUnits="userSpaceOnUse">
<stop stop-color="#5A5A5A"/>
<stop offset="1" stop-color="#444444"/>
</linearGradient>
<linearGradient id="paint13_linear_1362_11282" x1="31.0762" y1="49.9528" x2="29.3868" y2="48.0556" gradientUnits="userSpaceOnUse">
<stop stop-color="#433F43" stop-opacity="0"/>
<stop offset="0.4114" stop-color="#373537" stop-opacity="0.269"/>
<stop offset="1" stop-color="#1A1A1A"/>
</linearGradient>
<linearGradient id="paint14_linear_1362_11282" x1="23.6153" y1="45.3586" x2="21.926" y2="44.7868" gradientUnits="userSpaceOnUse">
<stop stop-color="#433F43" stop-opacity="0"/>
<stop offset="0.4114" stop-color="#373537" stop-opacity="0.269"/>
<stop offset="1" stop-color="#1A1A1A"/>
</linearGradient>
<linearGradient id="paint15_linear_1362_11282" x1="26.2472" y1="47.9659" x2="27.1593" y2="49.5022" gradientUnits="userSpaceOnUse">
<stop stop-color="#5A5A5A"/>
<stop offset="1" stop-color="#444444"/>
</linearGradient>
<linearGradient id="paint16_linear_1362_11282" x1="22.2856" y1="51.2661" x2="20.3364" y2="50.8503" gradientUnits="userSpaceOnUse">
<stop stop-color="#433F43" stop-opacity="0"/>
<stop offset="0.4114" stop-color="#373537" stop-opacity="0.269"/>
<stop offset="1" stop-color="#1A1A1A"/>
</linearGradient>
<linearGradient id="paint17_linear_1362_11282" x1="29.2641" y1="38.7721" x2="28.448" y2="40.1164" gradientUnits="userSpaceOnUse">
<stop stop-color="#5A5A5A"/>
<stop offset="1" stop-color="#444444"/>
</linearGradient>
<linearGradient id="paint18_linear_1362_11282" x1="26.3304" y1="38.8052" x2="24.1992" y2="38.4154" gradientUnits="userSpaceOnUse">
<stop stop-color="#433F43" stop-opacity="0"/>
<stop offset="0.4114" stop-color="#373537" stop-opacity="0.269"/>
<stop offset="1" stop-color="#1A1A1A"/>
</linearGradient>
<linearGradient id="paint19_linear_1362_11282" x1="31.0282" y1="40.4771" x2="29.8587" y2="38.7616" gradientUnits="userSpaceOnUse">
<stop stop-color="#433F43" stop-opacity="0"/>
<stop offset="0.4114" stop-color="#373537" stop-opacity="0.269"/>
<stop offset="1" stop-color="#1A1A1A"/>
</linearGradient>
<linearGradient id="paint20_linear_1362_11282" x1="26.6827" y1="38.6253" x2="27.6429" y2="40.3055" gradientUnits="userSpaceOnUse">
<stop stop-color="#5A5A5A"/>
<stop offset="1" stop-color="#444444"/>
</linearGradient>
<linearGradient id="paint21_linear_1362_11282" x1="25.4147" y1="40.7796" x2="22.9457" y2="40.4678" gradientUnits="userSpaceOnUse">
<stop stop-color="#433F43" stop-opacity="0"/>
<stop offset="0.4114" stop-color="#373537" stop-opacity="0.269"/>
<stop offset="1" stop-color="#1A1A1A"/>
</linearGradient>
<linearGradient id="paint22_linear_1362_11282" x1="29.0177" y1="31.9276" x2="28.1535" y2="33.7039" gradientUnits="userSpaceOnUse">
<stop stop-color="#5A5A5A"/>
<stop offset="1" stop-color="#444444"/>
</linearGradient>
<linearGradient id="paint23_linear_1362_11282" x1="27.8688" y1="32.2875" x2="25.6076" y2="31.4558" gradientUnits="userSpaceOnUse">
<stop stop-color="#433F43" stop-opacity="0"/>
<stop offset="0.4114" stop-color="#373537" stop-opacity="0.269"/>
<stop offset="1" stop-color="#1A1A1A"/>
</linearGradient>
<linearGradient id="paint24_linear_1362_11282" x1="30.9572" y1="34.7685" x2="29.6058" y2="32.4814" gradientUnits="userSpaceOnUse">
<stop stop-color="#433F43" stop-opacity="0"/>
<stop offset="0.4114" stop-color="#373537" stop-opacity="0.269"/>
<stop offset="1" stop-color="#1A1A1A"/>
</linearGradient>
<linearGradient id="paint25_linear_1362_11282" x1="26.922" y1="31.8547" x2="27.8821" y2="33.5831" gradientUnits="userSpaceOnUse">
<stop stop-color="#5A5A5A"/>
<stop offset="1" stop-color="#444444"/>
</linearGradient>
<linearGradient id="paint26_linear_1362_11282" x1="27.1054" y1="32.5419" x2="25.494" y2="32.178" gradientUnits="userSpaceOnUse">
<stop stop-color="#433F43" stop-opacity="0"/>
<stop offset="0.4114" stop-color="#373537" stop-opacity="0.269"/>
<stop offset="1" stop-color="#1A1A1A"/>
</linearGradient>
<linearGradient id="paint27_linear_1362_11282" x1="16.7699" y1="36.8237" x2="39.2287" y2="36.8237" gradientUnits="userSpaceOnUse">
<stop stop-color="#5A5A5A"/>
<stop offset="1" stop-color="#444444"/>
</linearGradient>
<linearGradient id="paint28_linear_1362_11282" x1="27.9992" y1="24.7588" x2="27.9992" y2="20.9109" gradientUnits="userSpaceOnUse">
<stop stop-color="#433F43" stop-opacity="0"/>
<stop offset="0.4114" stop-color="#373537" stop-opacity="0.269"/>
<stop offset="1" stop-color="#1A1A1A"/>
</linearGradient>
<linearGradient id="paint29_linear_1362_11282" x1="32.6973" y1="36.8907" x2="34.3607" y2="36.5268" gradientUnits="userSpaceOnUse">
<stop stop-color="#433F43" stop-opacity="0"/>
<stop offset="0.4114" stop-color="#373537" stop-opacity="0.269"/>
<stop offset="1" stop-color="#1A1A1A"/>
</linearGradient>
<linearGradient id="paint30_linear_1362_11282" x1="27.9993" y1="12.7225" x2="27.9993" y2="15.5497" gradientUnits="userSpaceOnUse">
<stop stop-color="#BBEC6C"/>
<stop offset="0.1975" stop-color="#B5E665"/>
<stop offset="0.48" stop-color="#A4D552"/>
<stop offset="0.8119" stop-color="#89BA33"/>
<stop offset="1" stop-color="#78A91F"/>
</linearGradient>
<linearGradient id="paint31_linear_1362_11282" x1="27.9995" y1="7.09134" x2="27.9995" y2="11.0309" gradientUnits="userSpaceOnUse">
<stop stop-color="#BBEC6C"/>
<stop offset="0.1975" stop-color="#B5E665"/>
<stop offset="0.48" stop-color="#A4D552"/>
<stop offset="0.8119" stop-color="#89BA33"/>
<stop offset="1" stop-color="#78A91F"/>
</linearGradient>
<linearGradient id="paint32_linear_1362_11282" x1="27.9997" y1="0.521719" x2="27.9997" y2="5.90778" gradientUnits="userSpaceOnUse">
<stop stop-color="#BBEC6C"/>
<stop offset="0.1975" stop-color="#B5E665"/>
<stop offset="0.48" stop-color="#A4D552"/>
<stop offset="0.8119" stop-color="#89BA33"/>
<stop offset="1" stop-color="#78A91F"/>
</linearGradient>
<radialGradient id="paint33_radial_1362_11282" cx="0" cy="0" r="1" gradientUnits="userSpaceOnUse" gradientTransform="translate(27.4825 18.0315) scale(3.38461)">
<stop stop-color="#BBEC6C"/>
<stop offset="1" stop-color="#78A91F"/>
</radialGradient>
<radialGradient id="paint34_radial_1362_11282" cx="0" cy="0" r="1" gradientUnits="userSpaceOnUse" gradientTransform="translate(26.9051 18.0438) scale(4.58642)">
<stop stop-color="#334C0F" stop-opacity="0"/>
<stop offset="0.2872" stop-color="#334C0F" stop-opacity="0.03"/>
<stop offset="0.4349" stop-color="#334C0F" stop-opacity="0.132"/>
<stop offset="0.5509" stop-color="#334C0F" stop-opacity="0.308"/>
<stop offset="0.6504" stop-color="#334C0F" stop-opacity="0.557"/>
<stop offset="0.7384" stop-color="#334C0F" stop-opacity="0.877"/>
<stop offset="0.766" stop-color="#334C0F"/>
<stop offset="0.8217" stop-color="#334C0F" stop-opacity="0.951"/>
<stop offset="0.8745" stop-color="#334C0F" stop-opacity="0.8"/>
<stop offset="0.9261" stop-color="#334C0F" stop-opacity="0.548"/>
<stop offset="0.9767" stop-color="#334C0F" stop-opacity="0.198"/>
<stop offset="1" stop-color="#334C0F" stop-opacity="0"/>
</radialGradient>
<linearGradient id="paint35_linear_1362_11282" x1="19.1191" y1="53.2959" x2="19.1191" y2="55.6717" gradientUnits="userSpaceOnUse">
<stop stop-color="#433F43" stop-opacity="0"/>
<stop offset="0.4114" stop-color="#373537" stop-opacity="0.269"/>
<stop offset="1" stop-color="#1A1A1A"/>
</linearGradient>
<linearGradient id="paint36_linear_1362_11282" x1="36.8801" y1="53.2959" x2="36.8801" y2="55.6718" gradientUnits="userSpaceOnUse">
<stop stop-color="#433F43" stop-opacity="0"/>
<stop offset="0.4114" stop-color="#373537" stop-opacity="0.269"/>
<stop offset="1" stop-color="#1A1A1A"/>
</linearGradient>
<linearGradient id="paint37_linear_1362_11282" x1="35.7019" y1="48.8329" x2="35.273" y2="44.7979" gradientUnits="userSpaceOnUse">
<stop stop-color="#433F43" stop-opacity="0"/>
<stop offset="0.4114" stop-color="#373537" stop-opacity="0.269"/>
<stop offset="1" stop-color="#1A1A1A"/>
</linearGradient>
<radialGradient id="paint38_radial_1362_11282" cx="0" cy="0" r="1" gradientUnits="userSpaceOnUse" gradientTransform="translate(42.4841 34.6364) scale(12.1755)">
<stop stop-color="#F3FAFF"/>
<stop offset="1" stop-color="#D5DAF3"/>
</radialGradient>
<linearGradient id="paint39_linear_1362_11282" x1="54.6712" y1="47.2123" x2="44.1453" y2="37.466" gradientUnits="userSpaceOnUse">
<stop stop-color="white" stop-opacity="0"/>
<stop offset="0.0924868" stop-color="white" stop-opacity="0.024"/>
<stop offset="0.2178" stop-color="white" stop-opacity="0.092"/>
<stop offset="0.3619" stop-color="white" stop-opacity="0.203"/>
<stop offset="0.52" stop-color="white" stop-opacity="0.359"/>
<stop offset="0.6897" stop-color="white" stop-opacity="0.559"/>
<stop offset="0.8661" stop-color="white" stop-opacity="0.798"/>
<stop offset="1" stop-color="white"/>
</linearGradient>
<linearGradient id="paint40_linear_1362_11282" x1="44.4653" y1="41.88" x2="43.9195" y2="47.8837" gradientUnits="userSpaceOnUse">
<stop stop-color="#DBD5EF" stop-opacity="0"/>
<stop offset="0.2667" stop-color="#D8D2EC" stop-opacity="0.023"/>
<stop offset="0.4431" stop-color="#D1C9E2" stop-opacity="0.098"/>
<stop offset="0.5933" stop-color="#C4B9D1" stop-opacity="0.225"/>
<stop offset="0.7288" stop-color="#B2A4BA" stop-opacity="0.405"/>
<stop offset="0.8545" stop-color="#9A889C" stop-opacity="0.638"/>
<stop offset="0.9713" stop-color="#7E6678" stop-opacity="0.92"/>
<stop offset="1" stop-color="#765D6E"/>
</linearGradient>
<linearGradient id="paint41_linear_1362_11282" x1="52.3497" y1="39.0149" x2="56.209" y2="39.0149" gradientUnits="userSpaceOnUse">
<stop stop-color="#DBD5EF" stop-opacity="0"/>
<stop offset="0.2667" stop-color="#D8D2EC" stop-opacity="0.023"/>
<stop offset="0.4431" stop-color="#D1C9E2" stop-opacity="0.098"/>
<stop offset="0.5933" stop-color="#C4B9D1" stop-opacity="0.225"/>
<stop offset="0.7288" stop-color="#B2A4BA" stop-opacity="0.405"/>
<stop offset="0.8545" stop-color="#9A889C" stop-opacity="0.638"/>
<stop offset="0.9713" stop-color="#7E6678" stop-opacity="0.92"/>
<stop offset="1" stop-color="#765D6E"/>
</linearGradient>
<clipPath id="clip0_1362_11282">
<rect width="56" height="56" fill="white"/>
</clipPath>
</defs>
</svg>
