<svg width="56" height="56" viewBox="0 0 56 56" fill="none" xmlns="http://www.w3.org/2000/svg">
<g id="location_808684 1" clip-path="url(#clip0_1362_11368)">
<path id="Vector" d="M28.0002 6.75903L13.5176 12.443V55.9999L28.0002 50.2069L42.4829 55.9999V12.443L28.0002 6.75903Z" fill="#4DAAF5"/>
<g id="Group">
<path id="Vector_2" d="M42.4824 12.443V56L55.9995 50.207V6.6499L42.4824 12.443Z" fill="#2195F2"/>
<path id="Vector_3" d="M0 6.6499V50.207L13.5171 56V12.443L0 6.6499Z" fill="#2195F2"/>
</g>
<path id="Vector_4" d="M30.897 22.1011C32.1135 23.0115 32.8289 24.4434 32.828 25.9631C32.828 28.6289 30.6662 30.7906 28.0004 30.7906C25.3346 30.7906 23.1729 28.6289 23.1729 25.9631C23.1719 24.4433 23.8873 23.0115 25.1039 22.1011" fill="#FEC007"/>
<g id="Group_2">
<path id="Vector_5" d="M37.2956 49.173L28.3578 45.6006C28.1281 45.5088 27.8703 45.5088 27.6405 45.6006L18.7027 49.173L17.9854 47.38L26.9231 43.8076C27.6134 43.5306 28.3839 43.5306 29.0742 43.8076L38.013 47.38L37.2956 49.173Z" fill="#B7E5FF"/>
<path id="Vector_6" d="M37.2956 43.3799L28.3578 39.8075C28.1281 39.7157 27.8703 39.7157 27.6405 39.8075L18.7027 43.3799L17.9854 41.5869L26.9231 38.0145C27.6134 37.7374 28.3839 37.7374 29.0742 38.0145L38.013 41.5869L37.2956 43.3799Z" fill="#B7E5FF"/>
</g>
<path id="Vector_7" d="M27.9995 25.9603L20.2282 15.1997C17.4736 11.385 17.8936 6.13556 21.2207 2.8084C24.9641 -0.935807 31.0342 -0.935807 34.7784 2.8084C38.1056 6.13556 38.5256 11.385 35.771 15.1997L27.9995 25.9603Z" fill="#E01717"/>
<path id="Vector_8" d="M28.0004 4.71899C30.6662 4.71899 32.828 6.88077 32.828 9.54655C32.828 12.2123 30.6662 14.3741 28.0004 14.3741C25.3346 14.3741 23.1729 12.2123 23.1729 9.54655C23.1729 6.88077 25.3346 4.71899 28.0004 4.71899Z" fill="#FEC007"/>
</g>
<defs>
<clipPath id="clip0_1362_11368">
<rect width="56" height="56" fill="white"/>
</clipPath>
</defs>
</svg>
