<svg width="73" height="72" viewBox="0 0 73 72" fill="none" xmlns="http://www.w3.org/2000/svg">
<path id="Vector" d="M50.6253 54.0801H31.5567M33.0566 18.1336C33.0566 19.9661 34.5564 21.4626 36.3929 21.4626C38.2294 21.4626 39.7291 19.9661 39.7291 18.1336C39.7291 16.3011 38.2294 14.8046 36.3929 14.8046V11.0786M40.2189 9.76584L56.7777 19.0503M41.7494 5.03172L60.2977 13.4916M59.0121 22.4706L57.3899 55.8825M64.7664 22.7753L66.4805 55.8819M30.9141 70.9386H2.17337C1.80608 70.9386 1.5 70.6332 1.5 70.2667V23.4472C1.5 23.0808 1.80608 22.7753 2.17337 22.7753H30.9447C31.312 22.7753 31.618 23.0808 31.618 23.4472V70.2667C31.618 70.6332 31.312 70.9386 30.9141 70.9386ZM24.9456 22.7762H8.14189C8.05006 22.7762 7.98885 22.6846 7.98885 22.6235V17.4926C7.98885 17.401 8.05006 17.3399 8.14189 17.3399H24.9456C25.0374 17.3399 25.0986 17.401 25.0986 17.4926V22.6235C25.0986 22.6846 25.0374 22.7762 24.9456 22.7762ZM69.8473 61.1352H53.6558C53.564 61.1352 53.5027 61.0741 53.5027 60.9824V56.6456C53.5027 56.554 53.564 56.4929 53.6558 56.4929H69.8473C69.9391 56.4929 70.0003 56.554 70.0003 56.6456V60.9824C70.0003 61.0435 69.9391 61.1352 69.8473 61.1352ZM71.347 70.9998H52.1253C52.0335 70.9998 51.9722 70.9387 51.9722 70.8471V61.2877C51.9722 61.1961 52.0335 61.135 52.1253 61.135H71.347C71.4388 61.135 71.5 61.1961 71.5 61.2877V70.8471C71.5 70.9082 71.4388 70.9998 71.347 70.9998ZM13.5289 32.5184H7.07065C6.97883 32.5184 6.91761 32.4573 6.91761 32.3657V26.3491C6.91761 26.2575 6.97883 26.1964 7.07065 26.1964H13.5289C13.6207 26.1964 13.6819 26.2575 13.6819 26.3491V32.3963C13.6819 32.4573 13.6207 32.5184 13.5289 32.5184ZM25.864 32.5184H19.4057C19.3139 32.5184 19.2527 32.4573 19.2527 32.3657V26.3491C19.2527 26.2575 19.3139 26.1964 19.4057 26.1964H25.864C25.9558 26.1964 26.017 26.2575 26.017 26.3491V32.3963C26.017 32.4573 25.9252 32.5184 25.864 32.5184ZM13.5289 43.9712H7.07065C6.97883 43.9712 6.91761 43.9101 6.91761 43.8185V37.7714C6.91761 37.6798 6.97883 37.6187 7.07065 37.6187H13.5289C13.6207 37.6187 13.6819 37.6798 13.6819 37.7714V43.8185C13.6819 43.8796 13.6207 43.9712 13.5289 43.9712ZM25.864 43.9712H19.4057C19.3139 43.9712 19.2527 43.9101 19.2527 43.8185V37.7714C19.2527 37.6798 19.3139 37.6187 19.4057 37.6187H25.864C25.9558 37.6187 26.017 37.6798 26.017 37.7714V43.8185C26.017 43.8796 25.9252 43.9712 25.864 43.9712ZM13.5289 55.4241H7.07065C6.97883 55.4241 6.91761 55.363 6.91761 55.2714V49.2242C6.91761 49.1326 6.97883 49.0715 7.07065 49.0715H13.5289C13.6207 49.0715 13.6819 49.1326 13.6819 49.2242V55.2714C13.6819 55.363 13.6207 55.4241 13.5289 55.4241ZM25.864 55.4241H19.4057C19.3139 55.4241 19.2527 55.363 19.2527 55.2714V49.2242C19.2527 49.1326 19.3139 49.0715 19.4057 49.0715H25.864C25.9558 49.0715 26.017 49.1326 26.017 49.2242V55.2714C26.017 55.363 25.9252 55.4241 25.864 55.4241ZM47.1361 50.5679H36.0254C35.9336 50.5679 35.8724 50.5068 35.8724 50.4152V40.0312C35.8724 39.9396 35.9336 39.8785 36.0254 39.8785H47.1361C47.2279 39.8785 47.2891 39.9396 47.2891 40.0312V50.4152C47.2891 50.5068 47.2279 50.5679 47.1361 50.5679ZM47.1361 35.8778H36.0254C35.9336 35.8778 35.8724 35.8167 35.8724 35.7251V25.3411C35.8724 25.2495 35.9336 25.1884 36.0254 25.1884H47.1361C47.2279 25.1884 47.2891 25.2495 47.2891 25.3411V35.7251C47.2891 35.7862 47.2279 35.8778 47.1361 35.8778ZM13.5289 66.9075H7.07065C6.97883 66.9075 6.91761 66.8464 6.91761 66.7548V60.7076C6.91761 60.616 6.97883 60.5549 7.07065 60.5549H13.5289C13.6207 60.5549 13.6819 60.616 13.6819 60.7076V66.7548C13.6819 66.8464 13.6207 66.9075 13.5289 66.9075ZM25.864 66.9075H19.4057C19.3139 66.9075 19.2527 66.8464 19.2527 66.7548V60.7076C19.2527 60.616 19.3139 60.5549 19.4057 60.5549H25.864C25.9558 60.5549 26.017 60.616 26.017 60.7076V66.7548C26.017 66.8464 25.9252 66.9075 25.864 66.9075ZM41.6572 6.03928C41.6572 8.82239 39.3962 11.0786 36.607 11.0786C33.8178 11.0786 31.5567 8.82239 31.5567 6.03928C31.5567 3.25616 33.8178 1 36.607 1C39.3962 1 41.6572 3.25616 41.6572 6.03928ZM67.1844 18.4392C67.1844 21.2223 64.9233 23.4785 62.1342 23.4785C59.345 23.4785 57.0839 21.2223 57.0839 18.4392C57.0839 15.6561 59.345 13.3999 62.1342 13.3999C64.9233 13.3999 67.1844 15.6561 67.1844 18.4392Z" stroke="#FFCC00" stroke-width="2" stroke-miterlimit="10" stroke-linecap="round"/>
</svg>
