<svg width="59" height="72" viewBox="0 0 59 72" fill="none" xmlns="http://www.w3.org/2000/svg">
<path id="Vector" d="M18.9811 18.8951C18.4288 18.8951 17.9811 19.3428 17.9811 19.8951C17.9811 20.4474 18.4288 20.8951 18.9811 20.8951V18.8951ZM40.0495 20.8951C40.6018 20.8951 41.0495 20.4474 41.0495 19.8951C41.0495 19.3428 40.6018 18.8951 40.0495 18.8951V20.8951ZM13.2046 64.9952C12.6524 64.9952 12.2046 65.4429 12.2046 65.9952C12.2046 66.5474 12.6524 66.9952 13.2046 66.9952V64.9952ZM45.8257 66.9952C46.378 66.9952 46.8257 66.5474 46.8257 65.9952C46.8257 65.4429 46.378 64.9952 45.8257 64.9952V66.9952ZM15.7279 20.623H16.7279V19.623H15.7279V20.623ZM43.3326 20.623V19.623H42.3326V20.623H43.3326ZM1.5 71H0.5V72H1.5V71ZM57.5 71V72H58.5V71H57.5ZM18.9904 44.7712C18.6592 44.3294 18.0324 44.2397 17.5905 44.571C17.1486 44.9022 17.0589 45.529 17.3902 45.9709L18.9904 44.7712ZM28.2132 60.4076C28.5445 60.8495 29.1713 60.9392 29.6132 60.6079C30.0551 60.2766 30.1447 59.6498 29.8135 59.2079L28.2132 60.4076ZM29.0645 59.2079C28.7332 59.6498 28.8228 60.2766 29.2647 60.6079C29.7066 60.9392 30.3334 60.8495 30.6647 60.4076L29.0645 59.2079ZM41.4877 45.9709C41.819 45.529 41.7293 44.9022 41.2874 44.571C40.8456 44.2397 40.2188 44.3294 39.8875 44.7712L41.4877 45.9709ZM28.4091 70.7568C28.4091 71.3091 28.8568 71.7568 29.4091 71.7568C29.9614 71.7568 30.4091 71.3091 30.4091 70.7568H28.4091ZM30.4091 59.0497C30.4091 58.4975 29.9614 58.0497 29.4091 58.0497C28.8568 58.0497 28.4091 58.4975 28.4091 59.0497H30.4091ZM18.9811 20.8951H40.0495V18.8951H18.9811V20.8951ZM13.2046 66.9952H45.8257V64.9952H13.2046V66.9952ZM28.1589 9.03724V2.48613H26.1589V9.03724H28.1589ZM28.1589 2.48613C28.1589 2.30984 28.2214 2.17147 28.2928 2.08855C28.3633 2.00667 28.4185 2 28.4357 2V0C27.0492 0 26.1589 1.2604 26.1589 2.48613H28.1589ZM28.4357 2H30.5334V0H28.4357V2ZM30.5334 2C30.5507 2 30.6058 2.00667 30.6764 2.08855C30.7478 2.17147 30.8103 2.30985 30.8103 2.48613H32.8103C32.8103 1.2604 31.92 0 30.5334 0V2ZM30.8103 2.48613V9.03724H32.8103V2.48613H30.8103ZM31.758 3.44534C39.2112 4.52789 44.9169 10.9088 44.9169 18.6212H46.9169C46.9169 9.89518 40.4619 2.68857 32.0454 1.4661L31.758 3.44534ZM44.9169 18.6212C44.9169 19.1612 44.8885 19.6702 44.8318 20.1786L46.8195 20.4C46.8845 19.8165 46.9169 19.2336 46.9169 18.6212H44.9169ZM14.2238 20.2922C14.1419 19.7477 14.1133 19.2233 14.1133 18.6515H12.1133C12.1133 19.2929 12.1455 19.921 12.246 20.5896L14.2238 20.2922ZM14.1133 18.6515C14.1133 10.9102 19.8479 4.52811 27.3026 3.44534L27.0151 1.4661C18.6002 2.68835 12.1133 9.89371 12.1133 18.6515H14.1133ZM9.73872 21.623H15.7279V19.623H9.73872V21.623ZM14.7279 20.623C14.7279 23.2399 16.8499 25.3535 19.4673 25.3535V23.3535C17.95 23.3535 16.7279 22.1308 16.7279 20.623H14.7279ZM19.4673 25.3535H39.5932V23.3535H19.4673V25.3535ZM39.5932 25.3535C42.2106 25.3535 44.3326 23.2399 44.3326 20.623H42.3326C42.3326 22.1308 41.1105 23.3535 39.5932 23.3535V25.3535ZM43.3326 21.623H49.3522V19.623H43.3326V21.623ZM41.3598 23.4742V29.904H43.3598V23.4742H41.3598ZM41.3598 29.904C41.3598 36.4177 36.0623 41.7332 29.4999 41.7332V43.7332C37.1655 43.7332 43.3598 37.5237 43.3598 29.904H41.3598ZM29.4999 41.7332C22.9648 41.7332 17.64 36.4449 17.64 29.904H15.64C15.64 37.5571 21.8678 43.7332 29.4999 43.7332V41.7332ZM17.64 29.904V23.2315H15.64V29.904H17.64ZM26.0918 41.8835V41.0646H24.0918V41.8835H26.0918ZM26.0918 41.0646C26.0918 40.6789 26.4019 40.3661 26.7943 40.3661V38.3661C25.3018 38.3661 24.0918 39.5698 24.0918 41.0646H26.0918ZM26.7943 40.3661H32.2666V38.3661H26.7943V40.3661ZM32.2666 40.3661C32.659 40.3661 32.9691 40.6789 32.9691 41.0646H34.9691C34.9691 39.5698 33.7591 38.3661 32.2666 38.3661V40.3661ZM32.9691 41.0646V42.0351H34.9691V41.0646H32.9691ZM21.3252 40.5495V43.4308H23.3252V40.5495H21.3252ZM21.3252 43.4308C21.3252 43.9681 20.8935 44.4022 20.3491 44.4022V46.4022C21.9936 46.4022 23.3252 45.0772 23.3252 43.4308H21.3252ZM20.3491 44.4022H18.1906V46.4022H20.3491V44.4022ZM18.1906 44.4022C8.4288 44.4022 0.5 52.3086 0.5 62.0529H2.5C2.5 53.4177 9.52886 46.4022 18.1906 46.4022V44.4022ZM0.5 62.0529V71H2.5V62.0529H0.5ZM1.5 72H57.5V70H1.5V72ZM58.5 71V62.0529H56.5V71H58.5ZM58.5 62.0529C58.5 52.3086 50.5712 44.4022 40.8094 44.4022V46.4022C49.4711 46.4022 56.5 53.4177 56.5 62.0529H58.5ZM40.8094 44.4022H38.6813V46.4022H40.8094V44.4022ZM38.6813 44.4022C38.1369 44.4022 37.7052 43.9681 37.7052 43.4308H35.7052C35.7052 45.0772 37.0368 46.4022 38.6813 46.4022V44.4022ZM37.7052 43.4308V41.0954H35.7052V43.4308H37.7052ZM45.0082 46.0695V70.6665H47.0082V46.0695H45.0082ZM12.2654 46.0695V70.6665H14.2654V46.0695H12.2654ZM17.3902 45.9709L28.2132 60.4076L29.8135 59.2079L18.9904 44.7712L17.3902 45.9709ZM30.6647 60.4076L41.4877 45.9709L39.8875 44.7712L29.0645 59.2079L30.6647 60.4076ZM30.4091 70.7568V59.0497H28.4091V70.7568H30.4091Z" fill="#FFCC00"/>
</svg>
