<svg width="65" height="73" viewBox="0 0 65 73" fill="none" xmlns="http://www.w3.org/2000/svg">
<path id="Vector" d="M28.1236 25.6287V25.8427C31.1932 23.1527 33.1687 19.2401 33.1687 14.8078C33.1687 9.30564 30.1295 4.5371 25.6619 2.03057V16.5501C25.6619 16.8558 25.4187 17.1004 25.1148 17.1004H11.9854C11.6815 17.1004 11.4383 16.8558 11.4383 16.5501V2C6.9707 4.50654 3.93149 9.27507 3.93149 14.7772C3.93149 19.2095 5.90698 23.1222 8.97658 25.8121L8.97667 32.4147M28.1236 29.8471V25.8121M9.28048 63.4716C9.6148 68.4847 13.4746 71.9999 18.5501 71.9999C23.8383 71.9999 28.1236 67.6899 28.1236 62.3712V48.952M46.4512 63.5264L28.2147 63.5627M31.9834 37.3362L28.0932 40.8209C26.5736 42.1964 24.2334 42.0436 22.8961 40.5152C21.5285 38.9868 21.6804 36.6331 23.2 35.2881L30.1902 29.0524C31.3147 28.0436 33.0471 28.0742 34.1412 29.1441L47.2098 41.799M13.8088 40.8817H4.9951C3.05 40.8817 1.5 39.2922 1.5 37.3664V36.8773C1.5 34.921 3.08039 33.3621 4.9951 33.3621H13.8088C15.7539 33.3621 17.3039 34.9516 17.3039 36.8773V37.3664C17.3039 39.2922 15.7539 40.8817 13.8088 40.8817ZM13.8088 48.4321H4.9951C3.05 48.4321 1.5 46.8426 1.5 44.9168V44.4278C1.5 42.4714 3.08039 40.9125 4.9951 40.9125H13.8088C15.7539 40.9125 17.3039 42.502 17.3039 44.4278V44.9168C17.3039 46.8732 15.7539 48.4321 13.8088 48.4321ZM13.8088 56.0125H4.9951C3.05 56.0125 1.5 54.423 1.5 52.4972V52.0081C1.5 50.0518 3.08039 48.4929 4.9951 48.4929H13.8088C15.7539 48.4929 17.3039 50.0824 17.3039 52.0081V52.4972C17.3039 54.423 15.7539 56.0125 13.8088 56.0125ZM13.8088 63.5629H4.9951C3.05 63.5629 1.5 61.9734 1.5 60.0476V59.5586C1.5 57.6022 3.08039 56.0433 4.9951 56.0433H13.8088C15.7539 56.0433 17.3039 57.6328 17.3039 59.5586V60.0476C17.3039 61.9734 15.7539 63.5629 13.8088 63.5629ZM62.9529 67.9039H47.7265C47.4226 67.9039 47.1794 67.6594 47.1794 67.3537V38.0395C47.1794 37.7338 47.4226 37.4893 47.7265 37.4893H62.9529C63.2569 37.4893 63.5 37.7338 63.5 38.0395V67.3537C63.5 67.6288 63.2569 67.9039 62.9529 67.9039Z" stroke="#FFCC00" stroke-width="2" stroke-miterlimit="10" stroke-linecap="round"/>
</svg>
