<svg width="71" height="70" viewBox="0 0 71 70" fill="none" xmlns="http://www.w3.org/2000/svg">
<g id="worldwide_1157499 1">
<path id="Vector" d="M60.4055 49.0936L50.6004 54.0561C49.1842 51.5462 46.5245 49.9949 43.6429 49.9975H34.5199C33.0631 49.9895 31.6256 49.6638 30.3081 49.043L29.3702 48.582C24.5962 46.2653 18.9935 46.4112 14.3468 48.9744V45.6492H1.7793V70.0001H14.3468V67.6128L16.7681 66.2313C17.7865 65.6491 18.9902 65.4839 20.1279 65.771L35.7648 69.693L35.8501 69.7103C36.8239 69.8809 37.8111 69.9661 38.8003 69.9661C41.3721 69.9695 43.9107 69.3806 46.2181 68.2436L46.286 68.2096L69.3746 52.3509L68.7951 51.3957C67.0579 48.5168 63.369 47.5049 60.4055 49.0936ZM4.16663 67.6301V48.0538H11.9594V66.2486L11.8742 66.2999L11.9594 66.4364V67.6301H4.16663ZM45.075 66.1633C42.3553 67.4829 39.2885 67.9125 36.3104 67.3909L20.7248 63.4689C18.9875 63.0293 17.1477 63.2797 15.5917 64.1683L14.3468 64.8844V51.788C18.4813 48.9511 23.8215 48.5534 28.3297 50.7482L29.2676 51.2085C30.9016 51.9925 32.6907 52.4002 34.5025 52.4022H43.6256C46.252 52.4062 48.5215 54.236 49.0823 56.8018H35.4064V59.1892H51.6062V57.9955C51.6022 57.434 51.5449 56.8744 51.4357 56.3242L61.4799 51.2425L61.5139 51.2252C62.9853 50.4272 64.8018 50.6536 66.0328 51.788L45.075 66.1633Z" fill="#FFCC00"/>
<path id="Vector_2" d="M33.224 45.0183C45.6556 45.0183 55.7331 34.9407 55.7331 22.5091C55.7331 10.0776 45.6556 0 33.224 0C20.7931 0 10.7148 10.0776 10.7148 22.5091C10.7275 34.9354 20.7977 45.0063 33.224 45.0183ZM34.4176 42.1367V31.0693C37.1121 31.2218 39.7472 31.9239 42.1598 33.1329C40.4886 37.021 37.8454 40.141 34.4176 42.1367ZM34.4176 28.6653V23.7028H44.1721C44.0922 26.1314 43.6972 28.5387 42.9951 30.8648C40.3107 29.5699 37.3945 28.8218 34.4176 28.6653ZM34.4176 21.3155V16.353C37.3898 16.1984 40.3 15.4504 42.9785 14.1535C43.6879 16.4775 44.0835 18.8862 44.1548 21.3155H34.4176ZM34.4176 13.9656V2.88158C37.8454 4.85993 40.4886 7.98064 42.1598 11.8854C39.7478 13.0997 37.1134 13.8078 34.4176 13.9656ZM32.0303 2.88158V13.949C29.3346 13.7978 26.6961 13.1077 24.2715 11.9193C25.9427 8.01462 28.5859 4.87725 32.0303 2.88158ZM32.0303 16.353V21.3155H22.2765C22.3571 18.8982 22.7528 16.5022 23.4535 14.1874C26.1426 15.4657 29.0568 16.2018 32.0303 16.353ZM32.0303 23.7028V28.6653C29.0568 28.8165 26.1426 29.5526 23.4535 30.8308C22.7528 28.5161 22.3571 26.1201 22.2765 23.7028H32.0303ZM32.0303 31.0526V42.1194C28.5859 40.141 25.9427 37.0037 24.2715 33.0816C26.7021 31.9093 29.3372 31.2198 32.0303 31.0526ZM27.5461 41.8123C24.3421 40.8644 21.4245 39.1359 19.0539 36.7818C20.0071 35.8386 21.0522 34.9927 22.1746 34.258C23.4115 37.1269 25.242 39.7014 27.5461 41.8123ZM44.2401 34.3092C45.3545 35.04 46.3889 35.8859 47.3268 36.8331C44.9648 39.1612 42.0659 40.8717 38.8859 41.8123C41.188 39.7247 43.0144 37.1655 44.2401 34.3092ZM45.11 32.0411C45.9906 29.3461 46.4789 26.5378 46.5595 23.7028H53.3118C53.0687 27.8493 51.5433 31.818 48.9468 35.0599C47.7811 33.9176 46.4942 32.9051 45.11 32.0411ZM46.5595 21.3155C46.4789 18.4805 45.9906 15.6722 45.11 12.9771C46.4889 12.1125 47.7698 11.1007 48.9295 9.95832C51.5333 13.1963 53.0594 17.1676 53.2952 21.3155H46.5595ZM44.2401 10.709C43.0098 7.85542 41.184 5.29689 38.8859 3.20598C42.0659 4.14652 44.9648 5.85709 47.3268 8.18514C46.3849 9.12768 45.3505 9.97297 44.2401 10.709ZM22.1912 10.743C21.0662 10.0129 20.0204 9.16698 19.0705 8.21911C21.4412 5.86508 24.3594 4.13653 27.5627 3.18866C25.2567 5.29689 23.4255 7.87207 22.1912 10.743ZM21.322 13.0277C20.456 15.7095 19.9738 18.4992 19.8892 21.3155H13.1368C13.3819 17.1909 14.8947 13.2422 17.4679 10.0096C18.6315 11.1613 19.9245 12.1745 21.322 13.0277ZM19.8892 23.7028C19.9724 26.5191 20.4547 29.3094 21.322 31.9905C19.9278 32.8485 18.6349 33.861 17.4679 35.0087C14.896 31.7747 13.3839 27.8273 13.1368 23.7028H19.8892Z" fill="#FFCC00"/>
</g>
</svg>
