<svg width="195" height="210" viewBox="0 0 195 210" fill="none" xmlns="http://www.w3.org/2000/svg">
<g id="home2-banner-vector1.svg">
<g id="Group" opacity="0.1">
<path id="Vector" d="M86.7585 208.89C83.1505 210.123 79.044 207.69 77.6089 203.464L55.3506 138.286L68.3609 133.837L90.6504 199.109C92.0744 203.297 90.3353 207.667 86.7585 208.89Z" fill="#0B0C0C"/>
<path id="Vector_2" d="M84.824 209.701C83.7644 209.701 82.6891 209.449 81.672 208.948C79.5975 207.929 77.9477 205.988 77.143 203.623L54.8847 138.445C54.7975 138.188 54.9339 137.911 55.1909 137.822L68.2012 133.373C68.3242 133.33 68.4605 133.339 68.5768 133.397C68.693 133.455 68.7824 133.556 68.8249 133.679L91.1145 198.951C92.6189 203.382 90.7367 208.048 86.9163 209.355C86.2412 209.587 85.5371 209.701 84.824 209.701ZM55.9733 138.593L78.0729 203.308C78.7927 205.429 80.2614 207.163 82.1034 208.068C83.5721 208.79 85.1682 208.917 86.5989 208.428C89.9096 207.295 91.5169 203.185 90.1868 199.266L68.0559 134.459L55.9733 138.593Z" fill="#0B0C0C"/>
<path id="Vector_3" d="M66.0582 77.5708L23.976 107.588L7.5835 124.589L1.15437 135.965L1.11189 136.054C-0.153369 138.023 0.56867 142.561 2.96059 147.178C5.32793 151.743 8.62744 154.905 10.968 155.086L10.8964 155.122L23.2696 156.451L46.4109 152.755L95.5347 135.194L156.586 145.652L157.018 145.663C141.634 142.854 120.936 122.365 105.902 93.3693C90.8873 64.4069 86.0989 35.7842 92.6846 21.6683L92.6711 21.6616L66.3935 76.8647L66.0582 77.5708Z" fill="white"/>
<path id="Vector_4" d="M167.131 144.452C182.217 136.62 179.296 101.109 160.607 65.1359C141.917 29.1624 114.537 6.34861 99.4519 14.18C84.3662 22.0113 87.2874 57.5222 105.976 93.4957C124.666 129.469 152.045 152.283 167.131 144.452Z" fill="white"/>
<path id="Vector_5" d="M160.483 146.49C153.915 146.49 146.002 142.819 137.491 135.706C125.889 126.013 114.515 111.057 105.462 93.5956C91.7499 67.1471 86.0987 40.0171 91.0637 24.4779C92.7246 19.2847 95.4855 15.6669 99.2723 13.7228C106.774 9.87489 117.354 13.1463 129.066 22.9338C140.668 32.6274 152.042 47.5834 161.095 65.0444C174.808 91.4929 180.459 118.623 175.494 134.162C173.835 139.355 171.072 142.973 167.288 144.917C165.235 145.97 162.955 146.49 160.483 146.49ZM106.095 13.1284C103.792 13.1284 101.653 13.6044 99.7215 14.5965C96.1761 16.4155 93.5785 19.8411 92.0003 24.7773C87.1092 40.0797 92.7358 66.9147 106.334 93.1442C124.839 128.835 151.984 151.67 166.838 144.046C170.384 142.227 172.981 138.801 174.559 133.865C179.451 118.563 173.824 91.7275 160.226 65.498C144.128 34.4485 121.492 13.1284 106.095 13.1284Z" fill="#0B0C0C"/>
<path id="Vector_6" d="M160.483 146.49C153.915 146.49 146.002 142.819 137.491 135.706C125.889 126.012 114.515 111.056 105.462 93.5952C91.7499 67.1468 86.0987 40.0167 91.0637 24.4775C92.7246 19.2843 95.4855 15.6665 99.2723 13.7224C104.311 11.137 110.878 11.7806 118.264 15.5861C125.346 19.2329 133.027 25.6864 140.476 34.2493C140.655 34.4549 140.632 34.7632 140.426 34.942C140.221 35.1185 139.912 35.0984 139.733 34.8928C124.586 17.481 109.253 9.70692 99.7193 14.5962C96.174 16.4151 93.5764 19.8407 91.9982 24.7769C87.107 40.0793 92.7336 66.9144 106.332 93.1439C122.429 124.193 145.065 145.511 160.463 145.513C162.765 145.513 164.905 145.037 166.836 144.045C170.381 142.226 172.979 138.801 174.557 133.865C179.448 118.562 173.822 91.7271 160.224 65.4976C156.168 57.6744 151.624 50.3226 146.719 43.6457C146.558 43.4267 146.605 43.1206 146.824 42.9597C147.043 42.7988 147.35 42.8457 147.511 43.0647C152.446 49.7841 157.016 57.1783 161.095 65.0463C174.808 91.4947 180.459 118.625 175.494 134.164C173.835 139.357 171.072 142.975 167.288 144.919C165.235 145.969 162.955 146.49 160.483 146.49Z" fill="#0B0C0C"/>
<path id="Vector_7" d="M132.898 98.6685C136.391 96.8552 135.714 88.6326 131.387 80.303C127.059 71.9734 120.72 66.6909 117.226 68.5042C113.733 70.3176 114.41 78.5401 118.737 86.8697C123.065 95.1994 129.404 100.482 132.898 98.6685Z" fill="white"/>
<path id="Vector_8" d="M131.357 99.5196C127.517 99.5196 122.156 94.5589 118.273 87.0708C115.054 80.8631 113.735 74.4678 114.915 70.7785C115.331 69.478 116.033 68.564 117.003 68.0679C120.804 66.1172 127.313 71.4109 131.824 80.1123C135.043 86.32 136.362 92.7154 135.184 96.4046C134.768 97.7052 134.066 98.6191 133.096 99.1152C132.566 99.3878 131.981 99.5196 131.357 99.5196ZM118.754 68.6422C118.28 68.6422 117.844 68.7383 117.453 68.9394C116.724 69.3126 116.185 70.0321 115.852 71.0757C114.748 74.5281 116.042 80.6285 119.147 86.6172C123.265 94.5589 129.45 99.8816 132.649 98.2415C133.378 97.8683 133.917 97.1488 134.25 96.1052C135.352 92.6528 134.06 86.5524 130.955 80.5637C127.342 73.5963 122.138 68.6422 118.754 68.6422Z" fill="#0B0C0C"/>
<path id="Vector_9" d="M157.08 138.144C151.32 138.144 144.383 134.928 136.926 128.696C126.77 120.209 116.813 107.119 108.891 91.8366C96.8868 68.6841 91.942 44.9306 96.29 31.322C97.7475 26.7634 100.173 23.5859 103.501 21.8786C111.14 17.9592 122.395 22.473 134.38 34.2627C134.572 34.4526 134.576 34.7632 134.386 34.9554C134.196 35.1476 133.886 35.1498 133.693 34.9621C122.029 23.4898 111.185 19.0385 103.951 22.7524C100.864 24.3367 98.6014 27.3198 97.2266 31.6214C92.9525 44.9954 97.8727 68.4518 109.763 91.3852C123.835 118.526 143.612 137.167 157.056 137.17C159.063 137.17 160.928 136.754 162.611 135.889C165.698 134.305 167.96 131.322 169.335 127.02C173.609 113.648 168.689 90.1897 156.799 67.2562C153.209 60.3335 149.185 53.8354 144.839 47.9428C144.678 47.7238 144.725 47.4177 144.942 47.2568C145.161 47.0959 145.467 47.1428 145.628 47.3596C150.005 53.2946 154.056 59.8352 157.668 66.8049C169.67 89.9573 174.618 113.711 170.267 127.32C168.81 131.878 166.384 135.056 163.056 136.763C161.256 137.688 159.251 138.144 157.08 138.144Z" fill="#0B0C0C"/>
<path id="Vector_10" d="M23.2667 156.943C23.2489 156.943 23.231 156.943 23.2153 156.941L10.8421 155.611C10.7684 155.604 10.6991 155.58 10.6387 155.542C8.08358 155.133 4.86454 151.919 2.52404 147.403C0.0538704 142.637 -0.686061 137.989 0.679794 135.817L0.71108 135.752L7.15587 124.347C7.17598 124.311 7.20058 124.278 7.22964 124.249L23.6222 107.248C23.6423 107.226 23.6669 107.208 23.6915 107.19L65.6708 77.2465L92.2279 21.4513C92.2838 21.3329 92.3866 21.2413 92.5118 21.1988C92.6369 21.1541 92.7733 21.1653 92.8918 21.2234C93.1288 21.3418 93.2405 21.6345 93.1287 21.8759C86.4023 36.2912 91.7115 64.9318 106.338 93.1433C120.987 121.4 141.39 142.311 157.107 145.18C157.36 145.227 157.534 145.459 157.507 145.714C157.481 145.969 157.262 146.143 157.007 146.154L156.575 146.143C156.551 146.143 156.528 146.139 156.506 146.136L95.581 135.701L46.5801 153.22C46.5511 153.229 46.522 153.238 46.493 153.242L23.3517 156.938C23.3182 156.941 23.2913 156.943 23.2667 156.943ZM11.2132 154.664L23.2533 155.957L46.2851 152.279L95.3642 134.733C95.4447 134.704 95.5296 134.698 95.6123 134.711L150.468 144.105C135.645 137.605 118.322 118.399 105.462 93.5947C92.6973 68.9741 86.9969 43.9625 90.1176 28.1573L66.5002 77.7806C66.4644 77.8566 66.4108 77.9214 66.3415 77.9683L24.2973 107.961L7.97851 124.886L1.55161 136.268C1.54267 136.286 1.53373 136.304 1.52255 136.32C0.355646 138.137 1.14253 142.608 3.39585 146.952C5.60447 151.211 8.80339 154.427 11.0053 154.596C11.0791 154.603 11.1506 154.626 11.2132 154.664Z" fill="#0B0C0C"/>
<path id="Vector_11" d="M66.1358 77.4032L92.6682 21.6616L92.6816 21.6683C86.096 35.7842 90.8843 64.4069 105.9 93.3693C120.933 122.365 141.631 142.854 157.016 145.663L156.584 145.652L95.6324 135.212L94.2196 134.975C87.1355 133.726 77.6684 124.508 70.8995 111.38C63.9517 97.9055 62.7267 84.4667 65.8004 78.0825L66.1358 77.4032Z" fill="white"/>
<path id="Vector_12" d="M157.016 146.152C157.011 146.152 157.007 146.152 157.002 146.152L156.571 146.141C156.546 146.141 156.524 146.136 156.501 146.134L95.5502 135.694L94.1396 135.46C86.6531 134.139 77.1413 124.553 70.464 111.605C62.8792 96.8952 62.5014 83.8073 65.3583 77.8722L65.6958 77.1907L92.2261 21.4513C92.2819 21.3329 92.3847 21.2413 92.5099 21.1988C92.6351 21.1541 92.7715 21.1653 92.89 21.2234C93.1269 21.3418 93.2387 21.6345 93.1269 21.8759C86.4005 36.2912 91.7097 64.9318 106.336 93.1433C120.985 121.4 141.388 142.311 157.105 145.18C157.358 145.227 157.532 145.459 157.505 145.714C157.476 145.962 157.266 146.152 157.016 146.152ZM90.1203 28.1573L66.5788 77.6152C66.5788 77.6175 66.5766 77.6197 66.5743 77.6219L66.239 78.3012C63.3978 84.2005 64.2338 97.3846 71.3336 111.156C77.8768 123.846 87.1069 133.223 94.3028 134.492L95.7111 134.727L150.468 144.105C135.645 137.605 118.322 118.399 105.462 93.5947C92.6977 68.9719 86.9973 43.9625 90.1203 28.1573Z" fill="#0B0C0C"/>
<path id="Vector_13" d="M22.5986 156.872C22.5807 156.872 22.5628 156.872 22.5449 156.87L10.8401 155.612C10.7664 155.605 10.6971 155.581 10.6367 155.543C8.08162 155.134 4.86259 151.92 2.52208 147.404C0.0519171 142.638 -0.688014 137.99 0.677841 135.818L0.70914 135.753L7.15391 124.348C7.28803 124.113 7.58758 124.03 7.8223 124.162C8.05926 124.296 8.14198 124.596 8.00785 124.83L1.54965 136.267C1.54071 136.285 1.53177 136.303 1.52059 136.318C0.353693 138.135 1.14057 142.607 3.39389 146.951C5.60251 151.21 8.80144 154.425 11.0033 154.595C11.0794 154.602 11.1509 154.624 11.2135 154.662L22.6522 155.891C22.9227 155.92 23.1172 156.161 23.0881 156.432C23.0591 156.684 22.8467 156.872 22.5986 156.872Z" fill="#0B0C0C"/>
<path id="Vector_14" d="M23.3737 156.384C19.5667 156.114 14.2531 150.726 10.3924 143.285C6.30383 135.399 5.34484 127.239 7.8463 124.336L1.15339 135.965L1.11091 136.054C-0.154347 138.023 0.567692 142.561 2.95961 147.178C5.32694 151.743 8.62646 154.905 10.967 155.086L10.8954 155.122L23.3737 156.384Z" fill="white"/>
<path id="Vector_15" d="M23.374 156.874C23.3629 156.874 23.3494 156.874 23.3383 156.872C23.2421 156.865 23.146 156.856 23.0477 156.843L10.8444 155.609C10.7684 155.602 10.6991 155.578 10.6387 155.54C8.08358 155.131 4.86454 151.918 2.52404 147.401C0.0538704 142.635 -0.686061 137.987 0.679794 135.815L0.71108 135.75L6.59477 125.523C6.82278 124.937 7.11562 124.428 7.47329 124.012C7.63872 123.82 7.92262 123.786 8.12828 123.932C8.33394 124.079 8.39653 124.359 8.26911 124.577L7.45318 125.996C6.13427 129.549 7.43976 136.524 10.8265 143.055C14.5239 150.186 19.5447 155.388 23.1505 155.866L23.4187 155.893C23.6848 155.92 23.8815 156.157 23.8591 156.422C23.8412 156.682 23.6266 156.874 23.374 156.874ZM11.211 154.662L19.7526 155.526C16.4598 153.435 12.8473 149.084 9.9591 143.511C7.1648 138.121 5.77212 132.542 6.00461 128.519L1.55161 136.269C1.54267 136.287 1.53373 136.305 1.52255 136.32C0.355646 138.137 1.14253 142.608 3.39585 146.952C5.60447 151.211 8.80339 154.427 11.0053 154.597C11.0769 154.604 11.1484 154.626 11.211 154.662Z" fill="#0B0C0C"/>
<path id="Vector_16" d="M45.563 152.89L46.5421 152.694C41.2151 153.802 32.8143 145.775 26.8859 134.337C20.839 122.672 19.6855 111.023 23.9754 107.586L23.4277 108.154L7.89131 124.283C5.3362 127.143 6.28403 135.351 10.395 143.282C14.363 150.935 19.9695 156.374 23.7876 156.354L45.563 152.89Z" fill="#0B0C0C"/>
<path id="Vector_17" d="M23.7656 156.847C19.706 156.847 14.0347 151.368 9.9595 143.509C5.79264 135.474 4.74647 127.069 7.52512 123.959L22.7641 108.138C23.0346 107.783 23.3364 107.47 23.6694 107.204C23.8706 107.043 24.1635 107.065 24.3378 107.255C24.5122 107.448 24.5077 107.74 24.3289 107.926L23.4459 108.842C20.3409 113.009 21.8878 123.628 27.3222 134.111C33.1857 145.422 41.3585 153.183 46.3771 152.226L46.4486 152.213C46.7146 152.157 46.9717 152.331 47.0253 152.595C47.079 152.861 46.9091 153.118 46.6453 153.174C46.6207 153.18 46.5939 153.185 46.5693 153.189L45.6617 153.37C45.655 153.373 45.6483 153.373 45.6416 153.375L23.8639 156.841C23.8304 156.845 23.7969 156.847 23.7656 156.847ZM21.4564 110.909L8.24269 124.627C5.77476 127.389 6.90589 135.492 10.8291 143.06C14.674 150.477 20.0995 155.851 23.7455 155.869L42.9658 152.81C37.7796 150.984 31.3817 144.079 26.4503 134.566C21.7649 125.528 19.9653 116.312 21.4564 110.909Z" fill="#0B0C0C"/>
<path id="Vector_18" d="M117.229 68.5034C113.729 70.3 114.243 78.5903 118.711 86.8448C126.207 100.686 132.162 99.0479 132.862 98.7954C132.875 98.7909 132.882 98.8088 132.871 98.8155L120.006 109.166C116.235 103.866 112.624 97.973 109.327 91.609C106.166 85.5108 103.522 79.4283 101.411 73.5379L117.229 68.5034Z" fill="#0B0C0C"/>
<path id="Vector_19" d="M120.006 109.658C119.983 109.658 119.961 109.656 119.939 109.653C119.805 109.635 119.684 109.562 119.606 109.452C115.734 104.011 112.128 98.0849 108.891 91.837C105.784 85.8439 103.113 79.7435 100.949 73.7056C100.904 73.5805 100.911 73.442 100.971 73.3235C101.031 73.2051 101.134 73.1135 101.262 73.0733L117.08 68.0387C117.323 67.9628 117.585 68.0834 117.683 68.3203C117.782 68.5549 117.681 68.8276 117.453 68.9438C116.697 69.3303 116.141 70.0879 115.799 71.194C114.71 74.7112 116.054 80.9077 119.143 86.6148C126.453 100.116 132.077 98.5609 132.696 98.3374C132.918 98.257 133.179 98.3508 133.298 98.5564C133.418 98.7642 133.367 99.048 133.181 99.2L120.314 109.551C120.225 109.62 120.118 109.658 120.006 109.658ZM102.044 73.8531C104.161 79.6943 106.756 85.5891 109.761 91.3856C112.895 97.4302 116.373 103.171 120.104 108.458L131.261 99.4815C128.704 99.3586 123.902 97.4615 118.278 87.0774C115.021 81.0619 113.68 74.7112 114.86 70.899C115.012 70.4096 115.202 69.9717 115.43 69.5895L102.044 73.8531Z" fill="#0B0C0C"/>
</g>
</g>
</svg>
