<svg width="138" height="256" viewBox="0 0 138 256" fill="none" xmlns="http://www.w3.org/2000/svg">
<g id="Group" opacity="0.1">
<path id="Vector" d="M117.259 254.192C121.916 255.784 127.217 252.643 129.07 247.189L157.802 163.054L141.007 157.311L112.235 241.567C110.397 246.972 112.642 252.614 117.259 254.192Z" fill="#0B0C0C"/>
<path id="Vector_2" d="M119.755 255.24C121.123 255.24 122.511 254.914 123.824 254.268C126.501 252.952 128.631 250.446 129.67 247.394L158.402 163.259C158.514 162.927 158.338 162.569 158.006 162.454L141.212 156.711C141.054 156.656 140.878 156.668 140.727 156.743C140.577 156.818 140.462 156.948 140.407 157.106L111.635 241.362C109.693 247.082 112.122 253.105 117.054 254.793C117.925 255.093 118.834 255.24 119.755 255.24ZM156.997 163.449L128.469 246.987C127.54 249.725 125.644 251.963 123.267 253.131C121.371 254.063 119.31 254.227 117.464 253.595C113.19 252.133 111.115 246.828 112.832 241.769L141.4 158.113L156.997 163.449Z" fill="#0B0C0C"/>
<path id="Vector_3" d="M143.98 84.6804L198.301 123.427L219.461 145.372L227.76 160.057L227.815 160.173C229.449 162.714 228.516 168.572 225.429 174.532C222.373 180.425 218.114 184.506 215.093 184.74L215.185 184.786L199.213 186.502L169.341 181.731L105.93 159.062L27.1214 172.561L26.5645 172.576C46.4232 168.95 73.1411 142.502 92.5471 105.073C111.929 67.6873 118.11 30.7398 109.609 12.5185L109.627 12.5098L143.547 83.7684L143.98 84.6804Z" fill="white"/>
<path id="Vector_4" d="M13.5096 171.012C-5.96371 160.903 -2.19291 115.064 21.9318 68.6283C46.0566 22.1921 81.4001 -7.25694 100.873 2.85215C120.346 12.9611 116.576 58.8002 92.4511 105.236C68.3261 151.672 32.9829 181.122 13.5096 171.012Z" fill="white"/>
<path id="Vector_5" d="M22.0917 173.643C30.5696 173.643 40.7847 168.904 51.7702 159.723C66.7465 147.21 81.4283 127.904 93.1153 105.365C110.815 71.2241 118.11 36.2035 111.701 16.1447C109.557 9.44106 105.993 4.77106 101.105 2.26156C91.4213 -2.70554 77.7638 1.51736 62.6461 14.1515C47.6698 26.6645 32.9878 45.9704 21.3011 68.5098C3.60074 102.65 -3.69407 137.671 2.71494 157.73C4.85604 164.433 8.42263 169.103 13.3079 171.613C15.9569 172.971 18.9002 173.643 22.0917 173.643ZM92.2983 1.49426C95.2703 1.49426 98.0323 2.10866 100.525 3.38946C105.102 5.73736 108.455 10.1594 110.492 16.5312C116.806 36.2842 109.543 70.9241 91.9903 104.782C68.1027 150.853 33.0628 180.33 13.888 170.488C9.31143 168.14 5.95833 163.718 3.92113 157.346C-2.39267 137.593 4.87044 102.953 22.4236 69.0954C43.2028 29.0153 72.4225 1.49426 92.2983 1.49426Z" fill="#0B0C0C"/>
<path id="Vector_6" d="M22.0917 173.643C30.5696 173.643 40.7847 168.904 51.7702 159.723C66.7465 147.21 81.4283 127.904 93.1153 105.364C110.815 71.2238 118.11 36.203 111.701 16.1442C109.557 9.44074 105.993 4.77074 101.105 2.26124C94.6013 -1.07616 86.1233 -0.245457 76.5893 4.66684C67.4477 9.37434 57.5328 17.7048 47.9179 28.7581C47.6871 29.0235 47.7159 29.4216 47.9814 29.6523C48.2469 29.8802 48.6451 29.8542 48.876 29.5889C68.4288 7.11294 88.2213 -2.92226 100.528 3.38904C105.105 5.73704 108.458 10.1589 110.495 16.5308C116.809 36.2838 109.546 70.9238 91.9923 104.782C71.2134 144.862 41.9938 172.38 22.1177 172.383C19.1455 172.383 16.384 171.768 13.8908 170.488C9.31423 168.14 5.96124 163.718 3.92393 157.346C-2.38977 137.593 4.87334 102.953 22.4265 69.0949C27.661 58.9963 33.5274 49.5063 39.8584 40.8874C40.0662 40.6048 40.0056 40.2096 39.7228 40.0019C39.44 39.7942 39.0447 39.8548 38.8369 40.1375C32.4655 48.8111 26.5673 58.3559 21.3011 68.5123C3.60074 102.653 -3.69407 137.674 2.71494 157.732C4.85604 164.436 8.42263 169.106 13.3079 171.615C15.9569 172.971 18.9002 173.643 22.0917 173.643Z" fill="#0B0C0C"/>
<path id="Vector_7" d="M57.6999 111.914C53.1908 109.573 54.0639 98.9594 59.65 88.2074C65.236 77.4547 73.4197 70.6358 77.9288 72.9766C82.4382 75.3173 81.5652 85.9314 75.9787 96.6834C70.3927 107.435 62.2089 114.254 57.6999 111.914Z" fill="white"/>
<path id="Vector_8" d="M59.6881 113.011C64.6456 113.011 71.5652 106.608 76.5775 96.9423C80.7331 88.9293 82.4351 80.6736 80.9121 75.9113C80.3751 74.2325 79.4691 73.0528 78.2166 72.4124C73.311 69.8943 64.9081 76.7276 59.085 87.9603C54.9297 95.9733 53.2272 104.228 54.7479 108.99C55.2846 110.669 56.1907 111.849 57.4431 112.489C58.127 112.841 58.883 113.011 59.6881 113.011ZM75.9571 73.1537C76.5689 73.1537 77.1316 73.2778 77.6365 73.5374C78.5771 74.0191 79.2731 74.9479 79.7031 76.295C81.1281 80.7515 79.4571 88.6263 75.4493 96.3563C70.134 106.608 62.1495 113.479 58.0202 111.361C57.0795 110.88 56.384 109.951 55.9541 108.604C54.5315 104.147 56.1994 96.2733 60.2075 88.5423C64.8706 79.5487 71.5883 73.1537 75.9571 73.1537Z" fill="#0B0C0C"/>
<path id="Vector_9" d="M26.4837 162.87C33.9199 162.87 42.874 158.719 52.5004 150.674C65.6097 139.719 78.4624 122.822 88.6884 103.095C104.184 73.2088 110.567 42.5466 104.955 24.98C103.073 19.0957 99.9424 14.9939 95.6464 12.7901C85.7854 7.73068 71.2568 13.5574 55.7871 28.776C55.5389 29.0212 55.5332 29.4221 55.7784 29.6702C56.0237 29.9183 56.4248 29.9212 56.673 29.6789C71.7301 14.8699 85.7284 9.12399 95.0664 13.918C99.0514 15.9631 101.971 19.8139 103.745 25.3665C109.263 42.6303 102.912 72.9088 87.5634 102.512C69.3985 137.547 43.8695 161.61 26.5155 161.612C23.9242 161.612 21.5176 161.076 19.3447 159.96C15.3597 157.914 12.4395 154.064 10.6649 148.511C5.14756 131.25 11.4988 100.969 26.8473 71.3656C31.4816 62.4294 36.6757 54.0413 42.2853 46.4349C42.4931 46.1522 42.4325 45.757 42.1526 45.5494C41.8698 45.3417 41.4745 45.4023 41.2667 45.6821C35.6167 53.3433 30.388 61.7862 25.7248 70.7829C10.232 100.669 3.84605 131.331 9.46145 148.898C11.343 154.782 14.4738 158.884 18.7705 161.087C21.0934 162.282 23.6818 162.87 26.4837 162.87Z" fill="#0B0C0C"/>
<path id="Vector_10" d="M199.216 187.137C199.239 187.137 199.262 187.137 199.282 187.134L215.254 185.418C215.349 185.409 215.439 185.377 215.517 185.328C218.815 184.8 222.97 180.653 225.991 174.823C229.18 168.67 230.135 162.671 228.372 159.867L228.332 159.783L220.012 145.061C219.987 145.015 219.955 144.971 219.917 144.934L198.757 122.989C198.731 122.96 198.699 122.937 198.668 122.914L144.479 84.2617L110.198 12.2387C110.126 12.0859 109.993 11.9676 109.831 11.9128C109.67 11.8551 109.494 11.8695 109.341 11.9445C109.035 12.0974 108.891 12.4753 109.035 12.7868C117.718 31.3947 110.864 68.3653 91.9839 104.782C73.0743 141.256 46.7374 168.249 26.4487 171.953C26.1226 172.014 25.8975 172.314 25.9322 172.642C25.9668 172.971 26.2496 173.196 26.5785 173.211L27.1354 173.196C27.1672 173.196 27.1961 173.19 27.2249 173.188L105.869 159.717L169.122 182.331C169.159 182.343 169.197 182.354 169.234 182.36L199.106 187.131C199.15 187.134 199.184 187.137 199.216 187.137ZM214.775 184.195L199.233 185.865L169.503 181.117L106.149 158.468C106.045 158.43 105.936 158.422 105.829 158.439L35.019 170.566C54.1534 162.175 76.514 137.382 93.1149 105.364C109.592 73.5834 116.95 41.2971 112.922 20.8951L143.408 84.9513C143.454 85.0493 143.524 85.1333 143.613 85.1933L197.886 123.909L218.951 145.756L227.247 160.45C227.258 160.473 227.27 160.496 227.284 160.516C228.791 162.861 227.775 168.633 224.866 174.24C222.015 179.738 217.886 183.889 215.043 184.108C214.948 184.117 214.856 184.146 214.775 184.195Z" fill="#0B0C0C"/>
<path id="Vector_11" d="M143.879 84.4636L109.629 12.5098L109.612 12.5185C118.113 30.7398 111.932 67.6873 92.5494 105.073C73.144 142.502 46.4262 168.95 26.5674 172.576L27.1244 172.561L105.803 159.085L107.627 158.779C116.771 157.167 128.992 145.268 137.729 128.322C146.698 110.928 148.279 93.5814 144.311 85.3404L143.879 84.4636Z" fill="white"/>
<path id="Vector_12" d="M26.567 173.208C26.5728 173.208 26.5786 173.208 26.5844 173.208L27.1413 173.193C27.173 173.193 27.2019 173.188 27.2307 173.185L105.91 159.708L107.731 159.405C117.394 157.701 129.673 145.326 138.292 128.613C148.083 109.625 148.571 92.7304 144.883 85.0694L144.447 84.1896L110.201 12.2387C110.128 12.0859 109.996 11.9676 109.834 11.9128C109.673 11.8551 109.497 11.8695 109.344 11.9445C109.038 12.0974 108.893 12.4753 109.038 12.7868C117.721 31.3947 110.867 68.3653 91.987 104.782C73.0772 141.256 46.7403 168.249 26.4516 171.953C26.1255 172.014 25.9005 172.314 25.9351 172.642C25.9726 172.963 26.2438 173.208 26.567 173.208ZM112.919 20.8951L143.307 84.7374C143.307 84.7403 143.31 84.7433 143.313 84.7463L143.746 85.6233C147.413 93.2383 146.334 110.256 137.169 128.034C128.723 144.415 116.809 156.518 107.52 158.156L105.702 158.459L35.019 170.566C54.1534 162.175 76.514 137.382 93.115 105.364C109.592 73.5805 116.95 41.2971 112.919 20.8951Z" fill="#0B0C0C"/>
<path id="Vector_13" d="M77.9254 72.9746C82.4442 75.2937 81.7802 85.9953 76.0122 96.6503C66.3368 114.517 58.6495 112.402 57.7463 112.076C57.729 112.071 57.7204 112.094 57.7348 112.102L74.3415 125.463C79.2092 118.621 83.8702 111.015 88.1262 102.8C92.2062 94.9283 95.6202 87.0773 98.3442 79.4733L77.9254 72.9746Z" fill="#0B0C0C"/>
<path id="Vector_14" d="M74.3417 126.098C74.3706 126.098 74.3994 126.095 74.4283 126.093C74.6014 126.069 74.7572 125.974 74.8582 125.833C79.8564 118.809 84.5104 111.16 88.6894 103.094C92.7004 95.3583 96.1484 87.4843 98.9414 79.69C98.9994 79.5284 98.9904 79.3496 98.9124 79.1967C98.8344 79.0438 98.7024 78.9256 98.5374 78.8736L78.119 72.3749C77.8044 72.2768 77.4668 72.4326 77.3398 72.7383C77.2129 73.0412 77.3427 73.3931 77.6371 73.5431C78.6124 74.0421 79.3314 75.02 79.7724 76.4478C81.1774 80.988 79.4434 88.9863 75.4556 96.3533C66.0196 113.782 58.7594 111.774 57.9601 111.485C57.6744 111.382 57.3368 111.503 57.1839 111.768C57.028 112.036 57.0944 112.403 57.3339 112.599L73.9435 125.96C74.0589 126.049 74.1974 126.098 74.3417 126.098ZM97.5274 79.8803C94.7944 87.4203 91.4444 95.0293 87.5664 102.512C83.5204 110.314 79.0304 117.725 74.2147 124.549L59.8126 112.962C63.1138 112.804 69.3121 110.355 76.5723 96.9503C80.7764 89.1853 82.5084 80.988 80.9844 76.067C80.7884 75.4353 80.5424 74.87 80.2484 74.3767L97.5274 79.8803Z" fill="#0B0C0C"/>
</g>
</svg>
