<svg width="276" height="298" viewBox="0 0 276 298" fill="none" xmlns="http://www.w3.org/2000/svg">
<g id="28592564_yk010e_7_e01 1" opacity="0.3" clip-path="url(#clip0_329_492)">
<rect width="180.01" height="240.005" transform="matrix(0.866042 -0.499971 0.500029 0.866009 0.09375 90.0767)" fill="white"/>
<g id="Group">
<g id="Group_2">
<g id="Group_3">
<path id="Vector" d="M99.7359 90.6512C83.1928 107.217 71.8308 134.396 88.382 155.304C95.4553 164.241 106.015 169.252 116.171 173.745C129.823 179.786 141.635 185.974 152.858 195.984C153.401 196.467 154.154 195.804 153.942 195.183C148.214 178.519 127.952 172.985 113.701 166.165C101.5 160.326 89.7883 152.609 87.088 138.329C83.9206 121.585 92.5288 106.462 104.088 95.1714C115.038 84.4773 128.646 76.8301 144.485 79.9155C160.917 83.1161 173.17 97.8848 174.391 114.417C175.208 125.472 171.404 136.323 172.914 147.408C174.338 157.867 179.495 166.324 186.823 173.692C190.002 176.891 194.302 171.367 191.133 168.187C174.288 151.284 182.781 134.015 181.279 113.705C180.457 102.59 175.303 91.8933 167.21 84.2274C146.358 64.4756 117.961 72.4036 99.7359 90.6512Z" fill="#FFCC00"/>
</g>
</g>
<g id="Group_4">
<g id="Group_5">
<path id="Vector_2" d="M119.638 145.314C119.124 145.35 118.994 146.139 119.489 146.322C141.153 154.396 151.891 170.311 167.702 186.037C168.546 186.877 170.145 185.695 169.599 184.638C161.165 168.318 139.876 143.955 119.638 145.314Z" fill="#FFCC00"/>
</g>
</g>
<g id="Group_6">
<g id="Group_7">
<path id="Vector_3" d="M152.569 122.08C151.022 145.96 166.5 164.139 179.596 182.462C180.797 184.145 183.464 182.102 182.125 180.596C167.079 163.695 155.168 145.101 153.378 122.101C153.344 121.645 152.6 121.61 152.569 122.08Z" fill="#FFCC00"/>
</g>
</g>
<g id="Group_8">
<g id="Group_9">
<path id="Vector_4" d="M157.617 118.598C153.84 120.89 150.414 120.419 146.082 120.701C145.204 120.757 143.846 119.854 142.987 120.253C141.804 120.803 141.047 121.991 140.031 122.586C138.114 123.709 138.449 125.932 135.056 125.072C134.01 124.807 132.96 123.107 131.76 122.78C130.294 122.383 128.498 122.552 127.136 123.193C124.934 124.23 123.626 126.486 122.9 128.691C122.566 129.706 122.792 130.906 122.546 131.927C121.362 136.841 120.029 140.681 117.233 144.93C113.34 150.848 114.119 152.811 117.004 160.148C117.214 160.679 118.103 160.781 118.301 160.179C119.158 157.568 118.304 155.73 118.797 153.226C119.678 148.753 124.519 147.902 126.41 143.977C127.596 141.513 127.061 139.391 127.616 136.855C128.203 134.186 129.433 129.534 133.453 129.044C134.291 128.942 135.24 130.806 136.197 130.587C137.43 130.306 138.846 130.931 140.074 130.241C142.792 128.714 141.807 126.83 144.967 125.77C147.187 125.026 149.201 126.385 151.382 125.93C154.941 125.188 157.211 123.27 159.552 120.605C160.657 119.347 158.883 117.829 157.617 118.598Z" fill="#FFCC00"/>
</g>
</g>
<g id="Group_10">
<g id="Group_11">
<path id="Vector_5" d="M200.131 166.234C189.005 173.077 177.879 179.919 166.753 186.762C157.031 192.742 146.367 197.998 138.315 206.19C137.616 206.9 138.599 207.891 139.387 207.648C150.405 204.236 160.112 196.989 169.914 191.062C181.097 184.298 192.282 177.534 203.466 170.77C206.535 168.914 203.183 164.358 200.131 166.234Z" fill="#FFCC00"/>
</g>
</g>
<g id="Group_12">
<g id="Group_13">
<path id="Vector_6" d="M197.775 169.132C197.136 178.367 199.851 186.158 205.323 193.609C208.836 198.393 215.562 202.829 218.233 208.033C226.413 223.973 215.585 237.395 200.743 241.985C168.492 251.962 172.015 195.798 144.017 202.403C143.418 202.544 143.18 203.363 143.832 203.658C154.843 208.637 160.879 215.616 166.89 226.109C170.21 231.905 172.78 238.74 178.073 243.076C186.086 249.638 197.86 248.504 206.668 244.258C215.871 239.824 226.554 229.057 225.343 217.789C224.735 212.123 221.127 207.63 217.692 203.365C209.434 193.105 200.89 184.233 202.949 169.938C203.436 166.563 198.007 165.789 197.775 169.132Z" fill="#FFCC00"/>
</g>
</g>
<g id="Group_14">
<g id="Group_15">
<path id="Vector_7" d="M214.254 237.915C215.274 239.347 217.79 242.013 218.065 243.793C218.658 244.237 218.602 244.533 217.896 244.679C217.323 244.995 216.76 245.324 216.205 245.67C215.128 246.386 214.098 247.25 213.109 248.078C210.951 249.884 209.985 251.427 207.137 249.578C205.145 248.283 203.995 245.857 202.061 244.452C201.589 244.11 201.068 244.566 201.205 245.084C201.955 247.954 204.63 252.683 207.528 253.923C210.25 255.088 212.876 253.245 215.105 251.898C217.665 250.352 223.43 248.858 223.705 245.181C223.963 241.74 220.325 237.42 218.535 234.757C216.616 231.897 212.246 235.096 214.254 237.915Z" fill="#FFCC00"/>
</g>
</g>
<g id="Group_16">
<g id="Group_17">
<path id="Vector_8" d="M194.335 186.61C198.875 193.449 203.843 200.145 208.051 207.191C215.564 219.77 207.745 230.153 195.229 233.824C192.853 234.521 193.815 238.649 196.269 238.111C205.828 236.023 215.078 229.583 215.137 218.786C215.166 213.448 212.845 210.071 209.772 205.921C204.874 199.308 199.649 192.912 194.578 186.431C194.459 186.277 194.228 186.447 194.335 186.61Z" fill="#FFCC00"/>
</g>
</g>
<g id="Group_18">
<g id="Group_19">
<path id="Vector_9" d="M114.926 189.211C108.778 195.287 103.708 202.51 97.5793 208.669C97.4195 208.83 97.6823 209.096 97.8573 208.958C104.481 203.687 111.911 197.684 116.433 190.403C117.087 189.348 115.8 188.347 114.926 189.211Z" fill="#FFCC00"/>
</g>
</g>
<g id="Group_20">
<g id="Group_21">
<path id="Vector_10" d="M87.239 167.291C79.5025 173.923 71.8775 180.709 64.1758 187.386C63.984 187.554 64.2002 187.86 64.4156 187.712C72.8222 181.979 80.9864 175.484 88.2832 168.372C88.8861 167.784 87.8814 166.74 87.239 167.291Z" fill="#FFCC00"/>
</g>
</g>
<g id="Group_22">
<g id="Group_23">
<path id="Vector_11" d="M62.8664 131.58C62.3064 132.32 62.8882 133.644 63.9053 133.457C64.1049 133.421 64.3065 133.383 64.5063 133.347C64.6353 133.323 64.7203 133.262 64.8257 133.218C64.3006 132.504 63.7754 131.789 63.2503 131.075C63.123 131.243 62.9947 131.412 62.8664 131.58Z" fill="#FFCC00"/>
<path id="Vector_12" d="M63.8508 130.633C55.9677 133.828 46.8474 135.161 38.5939 137.216C38.0426 137.354 38.2715 138.279 38.8306 138.191C47.4248 136.832 56.6444 136.23 64.8605 133.263C64.8494 133.248 64.8384 133.233 64.8273 133.218C64.7219 133.261 64.6369 133.323 64.5079 133.347C64.3081 133.383 64.1065 133.421 63.9069 133.457C62.8897 133.644 62.3079 132.32 62.8679 131.58C62.9962 131.411 63.1245 131.242 63.2518 131.074C63.777 131.789 64.3022 132.503 64.8273 133.218C66.4036 132.57 65.578 129.933 63.8508 130.633Z" fill="#FFCC00"/>
</g>
</g>
<g id="Group_24">
<g id="Group_25">
<path id="Vector_13" d="M70.6997 76.9014C66.3753 74.7943 61.8294 73.366 57.7162 70.7914C57.6736 70.7643 57.6023 70.8154 57.645 70.8609C60.2086 73.5743 63.0596 75.0539 66.4026 76.6706C71.1595 78.9725 75.3211 81.7567 79.419 85.0864C80.3257 85.8248 81.445 84.4018 80.534 83.662C77.4231 81.1333 74.3129 78.6628 70.6997 76.9014Z" fill="#FFCC00"/>
</g>
</g>
<g id="Group_26">
<g id="Group_27">
<path id="Vector_14" d="M104.712 39.5968C105.249 43.5694 106.441 47.4874 107.53 51.3426C108.755 55.6839 109.72 60.1566 111.775 64.1957C111.906 64.4509 112.269 64.3763 112.26 64.0799C112.127 59.5676 110.822 55.1864 109.813 50.7999C108.917 46.8935 108.086 42.8802 106.65 39.135C106.244 38.0777 104.555 38.4454 104.712 39.5968Z" fill="#FFCC00"/>
</g>
</g>
<g id="Group_28">
<g id="Group_29">
<path id="Vector_15" d="M159.177 42.1056C154.19 48.5306 149.84 55.452 146.269 62.7638C146.147 63.0149 146.538 63.2584 146.7 63.0205C151.211 56.3237 155.643 49.566 160.048 42.7968C160.429 42.2096 159.62 41.5334 159.177 42.1056Z" fill="#FFCC00"/>
</g>
</g>
<g id="Group_30">
<g id="Group_31">
<path id="Vector_16" d="M202.735 68.9122C193.247 71.5681 183.496 76.4903 175.586 82.3661C175.455 82.4644 175.573 82.7044 175.732 82.6289C184.875 78.3449 194.025 74.3578 203.28 70.3295C204.181 69.9374 203.66 68.6541 202.735 68.9122Z" fill="#FFCC00"/>
</g>
</g>
<g id="Group_32">
<g id="Group_33">
<path id="Vector_17" d="M190.637 109.917C190.488 109.986 190.53 110.23 190.709 110.21C195.874 109.61 200.971 108.13 206.109 107.267C211.295 106.395 216.551 106.083 221.73 105.222C222.256 105.135 222.351 104.242 221.748 104.221C211.896 103.876 199.608 105.717 190.637 109.917Z" fill="#FFCC00"/>
</g>
</g>
<g id="Group_34">
<g id="Group_35">
<path id="Vector_18" d="M196.209 136.114C196.083 136.109 196.049 136.291 196.181 136.312C201.683 137.257 207.178 138.371 212.74 138.895C213.325 138.95 213.44 138.132 212.874 137.998C207.405 136.702 201.8 136.327 196.209 136.114Z" fill="#FFCC00"/>
</g>
</g>
</g>
</g>
<defs>
<clipPath id="clip0_329_492">
<rect width="180.01" height="240.005" fill="white" transform="matrix(0.866042 -0.499971 0.500029 0.866009 0.09375 90.0767)"/>
</clipPath>
</defs>
</svg>
