<svg id="Layer_1" data-name="Layer 1" xmlns="http://www.w3.org/2000/svg" viewBox="0 0 883.47 372.08"><defs><style>.cls-1{fill:#ffd42e;}.cls-2{fill:#fff;}</style></defs><path d="M66,150a1.47,1.47,0,1,1,1.46,1.47A1.47,1.47,0,0,1,66,150Z" transform="translate(-23.27 -13.96)"/><path d="M67.5,152a2,2,0,1,1,2-2A2,2,0,0,1,67.5,152Zm0-2.92a.92.92,0,1,0,.92.91A.91.91,0,0,0,67.5,149.11Z" transform="translate(-23.27 -13.96)"/><path d="M58.1,141.56a.55.55,0,0,1-.37-.15.54.54,0,0,1,0-.77c6.77-7.22,15.4-3.52,18.52-.59a.55.55,0,1,1-.75.8c-2.86-2.68-10.77-6.08-17,.54A.54.54,0,0,1,58.1,141.56Z" transform="translate(-23.27 -13.96)"/><path d="M62.28,145.47a.59.59,0,0,1-.38-.14.55.55,0,0,1,0-.78,7.52,7.52,0,0,1,4.91-2.31,7.23,7.23,0,0,1,5.53,2,.55.55,0,0,1-.75.8,6.14,6.14,0,0,0-4.7-1.69,6.46,6.46,0,0,0-4.19,2A.54.54,0,0,1,62.28,145.47Z" transform="translate(-23.27 -13.96)"/><path d="M85.5,167.88h-37a4.24,4.24,0,0,1-4.24-4.24v-37a4.24,4.24,0,0,1,4.24-4.24h37a4.24,4.24,0,0,1,4.24,4.24v37A4.24,4.24,0,0,1,85.5,167.88Zm-37-44.42a3.15,3.15,0,0,0-3.14,3.14v37a3.15,3.15,0,0,0,3.14,3.14h37a3.15,3.15,0,0,0,3.14-3.14v-37a3.15,3.15,0,0,0-3.14-3.14Z" transform="translate(-23.27 -13.96)"/><path d="M81.26,163.26H52.71a3.87,3.87,0,0,1-3.87-3.87V130.84A3.87,3.87,0,0,1,52.71,127H81.26a3.88,3.88,0,0,1,3.87,3.87v28.55A3.87,3.87,0,0,1,81.26,163.26ZM52.71,127.34a3.51,3.51,0,0,0-3.51,3.5v28.55a3.51,3.51,0,0,0,3.51,3.51H81.26a3.51,3.51,0,0,0,3.5-3.51V130.84a3.5,3.5,0,0,0-3.5-3.5Z" transform="translate(-23.27 -13.96)"/><path class="cls-1" d="M78.68,113.19v-7.36H55.28v7.36a7.63,7.63,0,0,1-1.39,4.39l-3.75,5.33H83.82l-3.75-5.33A7.63,7.63,0,0,1,78.68,113.19Z" transform="translate(-23.27 -13.96)"/><path d="M83.82,123.46H50.14a.55.55,0,0,1-.49-.3.56.56,0,0,1,0-.57l3.75-5.33a7,7,0,0,0,1.3-4.07v-7.36a.55.55,0,0,1,.54-.55h23.4a.55.55,0,0,1,.54.55v7.36a7,7,0,0,0,1.3,4.07l3.75,5.33a.54.54,0,0,1,0,.57A.55.55,0,0,1,83.82,123.46Zm-32.63-1.1H82.77l-3.15-4.47a8.17,8.17,0,0,1-1.49-4.7v-6.81H55.83v6.81a8.1,8.1,0,0,1-1.49,4.7Z" transform="translate(-23.27 -13.96)"/><path class="cls-1" d="M55.28,177.13v7.37h23.4v-7.37a7.59,7.59,0,0,1,1.39-4.38l3.75-5.34H50.14l3.75,5.34A7.59,7.59,0,0,1,55.28,177.13Z" transform="translate(-23.27 -13.96)"/><path d="M78.68,185H55.28a.54.54,0,0,1-.54-.54v-7.37a7.06,7.06,0,0,0-1.3-4.07l-3.75-5.33a.56.56,0,0,1,0-.57.54.54,0,0,1,.49-.29H83.82a.54.54,0,0,1,.45.86l-3.75,5.33a7.06,7.06,0,0,0-1.3,4.07v7.37A.54.54,0,0,1,78.68,185ZM55.83,184h22.3v-6.82a8.19,8.19,0,0,1,1.49-4.7L82.77,168H51.19l3.15,4.47a8.12,8.12,0,0,1,1.49,4.7Z" transform="translate(-23.27 -13.96)"/><path class="cls-2" d="M65.92,119.93h4.38a0,0,0,0,1,0,0v6.58a2.19,2.19,0,0,1-2.19,2.19h0a2.19,2.19,0,0,1-2.19-2.19v-6.58A0,0,0,0,1,65.92,119.93Z"/><path d="M90.88,143.21H89.19a.55.55,0,0,1-.55-.55v-8.77a.55.55,0,0,1,.55-.55h1.69a3.25,3.25,0,0,1,3.24,3.25V140A3.25,3.25,0,0,1,90.88,143.21Zm-1.14-1.1h1.14A2.15,2.15,0,0,0,93,140v-3.37a2.15,2.15,0,0,0-2.15-2.15H89.74Z" transform="translate(-23.27 -13.96)"/><rect x="715.66" y="104.63" width="8.89" height="4.14"/><path d="M747.82,123.27h-8.89a.55.55,0,0,1-.55-.55v-4.14a.55.55,0,0,1,.55-.54h8.89a.55.55,0,0,1,.55.54v4.14A.55.55,0,0,1,747.82,123.27Zm-8.34-1.1h7.79v-3h-7.79Z" transform="translate(-23.27 -13.96)"/><path class="cls-2" d="M766,77.92a22.66,22.66,0,1,0-38.67,16c4.67,4.66,8.2,7.7,8.2,14.3h15.63c0-6.52,3.37-9.58,8-14.14A22.59,22.59,0,0,0,766,77.92Z" transform="translate(-23.27 -13.96)"/><path d="M751.19,108.8H735.56a.55.55,0,0,1-.55-.55c0-5.94-3-8.92-7.15-13l-.88-.89a23.2,23.2,0,1,1,32.62.17l-.47.46c-4.45,4.35-7.4,7.22-7.4,13.29A.55.55,0,0,1,751.19,108.8Zm-15.09-1.1h14.55c.17-6.16,3.36-9.27,7.72-13.53l.47-.45a22.12,22.12,0,1,0-31.09-.16l.89.88C732.69,98.46,735.92,101.66,736.1,107.7Z" transform="translate(-23.27 -13.96)"/><path class="cls-1" d="M719,90.15h10.31a0,0,0,0,1,0,0V106.7a0,0,0,0,1,0,0H719a8.19,8.19,0,0,1-8.19-8.19v-.16A8.19,8.19,0,0,1,719,90.15Z"/><path d="M744.92,121.2h-3.09a8.26,8.26,0,0,1-8.25-8.25v-8.84a.55.55,0,0,1,.54-.55h18.5a.55.55,0,0,1,.55.55V113A8.26,8.26,0,0,1,744.92,121.2Zm-10.25-16.54V113a7.16,7.16,0,0,0,7.16,7.15h3.09a7.16,7.16,0,0,0,7.15-7.15v-8.29Z" transform="translate(-23.27 -13.96)"/><path d="M750.5,107.63H736.24a.18.18,0,0,1,0-.36H750.5a.18.18,0,1,1,0,.36Z" transform="translate(-23.27 -13.96)"/><path d="M743.37,46.66a.54.54,0,0,1-.54-.54V37.35a.55.55,0,1,1,1.09,0v8.77A.54.54,0,0,1,743.37,46.66Z" transform="translate(-23.27 -13.96)"/><path d="M768,55.21a.59.59,0,0,1-.39-.16.56.56,0,0,1,0-.78l6.21-6.2a.55.55,0,0,1,.77,0,.53.53,0,0,1,0,.77l-6.2,6.21A.59.59,0,0,1,768,55.21Z" transform="translate(-23.27 -13.96)"/><path d="M785.93,76.87h-8.77a.55.55,0,1,1,0-1.09h8.77a.55.55,0,1,1,0,1.09Z" transform="translate(-23.27 -13.96)"/><circle cx="710.49" cy="64.09" r="1.46"/><path d="M733.75,80.06a2,2,0,1,1,2-2A2,2,0,0,1,733.75,80.06Zm0-2.92a.91.91,0,1,0,.92.91A.91.91,0,0,0,733.75,77.14Z" transform="translate(-23.27 -13.96)"/><path d="M751.1,85.38a1.46,1.46,0,1,1,1.46,1.47A1.47,1.47,0,0,1,751.1,85.38Z" transform="translate(-23.27 -13.96)"/><path d="M752.56,87.39a2,2,0,1,1,2-2A2,2,0,0,1,752.56,87.39Zm0-2.92a.92.92,0,1,0,.92.91A.91.91,0,0,0,752.56,84.47Z" transform="translate(-23.27 -13.96)"/><path d="M720.12,55.21a.59.59,0,0,1-.39-.16l-6.2-6.21a.53.53,0,0,1,0-.77.55.55,0,0,1,.77,0l6.2,6.2a.55.55,0,0,1-.38.94Z" transform="translate(-23.27 -13.96)"/><path d="M711,76.87h-8.77a.55.55,0,1,1,0-1.09H711a.55.55,0,0,1,0,1.09Z" transform="translate(-23.27 -13.96)"/><path d="M739,104.33a.55.55,0,0,1-.55-.52l-1-18-4.19-7.45a.55.55,0,1,1,1-.54l4.26,7.56a.51.51,0,0,1,.07.24l1,18.18a.55.55,0,0,1-.52.57Z" transform="translate(-23.27 -13.96)"/><path d="M748.45,104.33h0a.54.54,0,0,1-.55-.55l0-11.2a.59.59,0,0,1,.07-.26l3.78-6.81a.55.55,0,1,1,1,.53L749,92.72l0,11.07A.55.55,0,0,1,748.45,104.33Z" transform="translate(-23.27 -13.96)"/><path d="M743.5,104.26h0a.56.56,0,0,1-.54-.56l.16-16.59a.5.5,0,0,1,.06-.24l2.34-4.57.08-10.21a.55.55,0,0,1,.55-.54h0a.54.54,0,0,1,.54.55l-.08,10.33a.54.54,0,0,1-.06.25l-2.34,4.57-.15,16.46A.56.56,0,0,1,743.5,104.26Z" transform="translate(-23.27 -13.96)"/><path class="cls-2" d="M744.22,72.1a2.12,2.12,0,1,1,2.11,2.11A2.12,2.12,0,0,1,744.22,72.1Z" transform="translate(-23.27 -13.96)"/><path d="M746.33,74.76A2.67,2.67,0,1,1,749,72.1,2.67,2.67,0,0,1,746.33,74.76Zm0-4.23a1.57,1.57,0,1,0,1.57,1.57A1.56,1.56,0,0,0,746.33,70.53Z" transform="translate(-23.27 -13.96)"/><path d="M853.45,217.29a3.29,3.29,0,0,1-3.29-3.29c0-6-.76-15.83-1.69-19.08-1.24-4.3-4-6.27-16-5.89a3.29,3.29,0,0,1-.21-6.58c9.76-.3,19.54.26,22.53,10.64,1.26,4.36,2,15.13,2,20.91A3.29,3.29,0,0,1,853.45,217.29Z" transform="translate(-23.27 -13.96)"/><path class="cls-2" d="M837,184.47a7.87,7.87,0,0,0-7.25-5H810.69a7.9,7.9,0,0,0-7.26,5c-.43,1.06-.85,2.17-1.25,3.31h-9.69l6.22,12.07h0a173.5,173.5,0,0,0-4,31.74h51.11C845,212.82,841.8,196.19,837,184.47Z" transform="translate(-23.27 -13.96)"/><path d="M845.79,232.14H794.68a.56.56,0,0,1-.4-.17.59.59,0,0,1-.15-.4,176.29,176.29,0,0,1,4-31.65L792,188a.53.53,0,0,1,0-.53.52.52,0,0,1,.46-.27h9.3c.38-1,.76-2,1.14-3a8.41,8.41,0,0,1,7.76-5.34h19.09a8.42,8.42,0,0,1,7.76,5.34h0c4.94,12.15,8.06,29,8.79,47.31a.5.5,0,0,1-.15.4A.52.52,0,0,1,845.79,232.14ZM795.25,231h50c-.77-18-3.85-34.46-8.69-46.36a7.32,7.32,0,0,0-6.75-4.66H810.69a7.32,7.32,0,0,0-6.75,4.66c-.41,1-.83,2.12-1.25,3.29a.54.54,0,0,1-.51.36h-8.79l5.8,11.27a.52.52,0,0,1,0,.37A174.41,174.41,0,0,0,795.25,231Z" transform="translate(-23.27 -13.96)"/><path class="cls-1" d="M798,240h44.48a3.53,3.53,0,0,0,3.45-3.66c0-1.59-.07-3.16-.13-4.72H794.68c-.06,1.56-.11,3.13-.14,4.72A3.53,3.53,0,0,0,798,240Z" transform="translate(-23.27 -13.96)"/><path d="M842.47,240.52H798a3.91,3.91,0,0,1-2.8-1.19,4.17,4.17,0,0,1-1.19-3c0-1.54.07-3.13.13-4.73a.56.56,0,0,1,.55-.53h51.11a.55.55,0,0,1,.54.53c.07,1.62.12,3.21.14,4.73a4.14,4.14,0,0,1-1.2,3A3.87,3.87,0,0,1,842.47,240.52Zm-47.26-8.38c-.06,1.41-.09,2.81-.12,4.18a3.12,3.12,0,0,0,.89,2.25,2.81,2.81,0,0,0,2,.85h44.48a2.81,2.81,0,0,0,2-.85,3.12,3.12,0,0,0,.89-2.25c0-1.35-.07-2.75-.12-4.18Z" transform="translate(-23.27 -13.96)"/><path d="M837.12,186.3H803.45a.55.55,0,0,1,0-1.1h33.67a.55.55,0,0,1,0,1.1Z" transform="translate(-23.27 -13.96)"/><path d="M820.23,225.48a3.52,3.52,0,0,1-3.51-3.52v-22.2a3.52,3.52,0,0,1,7,0V222A3.53,3.53,0,0,1,820.23,225.48Zm0-28.87a3.15,3.15,0,0,0-3.14,3.15V222a3.15,3.15,0,1,0,6.29,0v-22.2A3.15,3.15,0,0,0,820.23,196.61Z" transform="translate(-23.27 -13.96)"/><path d="M123.72,286.9H113.06a.55.55,0,0,1,0-1.09h10.11V259.36H54.84v26.45H65a.55.55,0,1,1,0,1.09H54.3a.54.54,0,0,1-.55-.54V258.81a.55.55,0,0,1,.55-.55h69.42a.55.55,0,0,1,.55.55v27.55A.55.55,0,0,1,123.72,286.9Z" transform="translate(-23.27 -13.96)"/><rect class="cls-2" x="46.69" y="228.75" width="38.55" height="16.1"/><path d="M108.52,259.36H70a.55.55,0,0,1-.55-.55v-16.1a.55.55,0,0,1,.55-.55h38.56a.55.55,0,0,1,.54.55v16.1A.54.54,0,0,1,108.52,259.36Zm-38-1.1H108v-15H70.51Z" transform="translate(-23.27 -13.96)"/><path d="M63.12,264.64a1.24,1.24,0,1,1,1.22,1A1.14,1.14,0,0,1,63.12,264.64Z" transform="translate(-23.27 -13.96)"/><path d="M64.34,266.22a1.59,1.59,0,1,1,1.77-1.58A1.69,1.69,0,0,1,64.34,266.22Zm0-2.06c-.36,0-.67.22-.67.48s.31.48.67.48.67-.22.67-.48S64.71,264.16,64.34,264.16Z" transform="translate(-23.27 -13.96)"/><path d="M72.27,264.64a1.24,1.24,0,1,1,1.22,1A1.13,1.13,0,0,1,72.27,264.64Z" transform="translate(-23.27 -13.96)"/><path d="M73.49,266.22a1.59,1.59,0,1,1,1.77-1.58A1.68,1.68,0,0,1,73.49,266.22Zm0-2.06c-.37,0-.67.22-.67.48s.3.48.67.48.67-.22.67-.48S73.85,264.16,73.49,264.16Z" transform="translate(-23.27 -13.96)"/><path d="M111.73,275.74H66.28a.55.55,0,1,1,0-1.09h45.45a.55.55,0,1,1,0,1.09Z" transform="translate(-23.27 -13.96)"/><rect class="cls-2" x="46.46" y="261.24" width="38.55" height="22.32"/><path d="M108.28,298.07H69.73a.55.55,0,0,1-.55-.55V275.2a.55.55,0,0,1,.55-.55h38.55a.54.54,0,0,1,.55.55v22.32A.55.55,0,0,1,108.28,298.07Zm-38-1.1h37.46V275.74H70.28Z" transform="translate(-23.27 -13.96)"/><path d="M104,281.88H74a.18.18,0,0,1-.18-.18.19.19,0,0,1,.18-.19h30a.2.2,0,0,1,.19.19A.19.19,0,0,1,104,281.88Z" transform="translate(-23.27 -13.96)"/><path d="M104,288.38H74a.18.18,0,0,1-.18-.18A.19.19,0,0,1,74,288h30a.2.2,0,0,1,.19.19A.19.19,0,0,1,104,288.38Z" transform="translate(-23.27 -13.96)"/><rect class="cls-1" x="85.25" y="240.14" width="7.93" height="4.72"/><path d="M116.45,259.36h-7.93a.54.54,0,0,1-.55-.55v-4.72a.54.54,0,0,1,.55-.54h7.93a.55.55,0,0,1,.55.54v4.72A.55.55,0,0,1,116.45,259.36Zm-7.39-1.1h6.84v-3.62h-6.84Z" transform="translate(-23.27 -13.96)"/><rect class="cls-1" x="38.71" y="240.14" width="7.93" height="4.72"/><path d="M69.91,259.36H62a.54.54,0,0,1-.55-.55v-4.72a.54.54,0,0,1,.55-.54h7.93a.55.55,0,0,1,.55.54v4.72A.55.55,0,0,1,69.91,259.36Zm-7.38-1.1h6.83v-3.62H62.53Z" transform="translate(-23.27 -13.96)"/><path d="M880.56,132.13a.45.45,0,0,1-.16,0,.55.55,0,0,1-.36-.69c0-.12,3.9-12.56-2.4-21.18-4.08-5.58-11.48-8.4-22-8.4-9.9,0-17,2.71-21,8.07-6.42,8.56-2.85,21.13-2.81,21.25a.55.55,0,0,1-.37.68.54.54,0,0,1-.68-.37c-.16-.53-3.77-13.21,3-22.21,4.23-5.66,11.58-8.52,21.85-8.52,10.9,0,18.6,3,22.9,8.86,6.63,9.08,2.72,21.63,2.55,22.16A.55.55,0,0,1,880.56,132.13Z" transform="translate(-23.27 -13.96)"/><path class="cls-1" d="M832.56,129.9c-6.84,1-5.35,7.18-5.08,8.92.63,4,.93,5.25,1.56,9.25a12.78,12.78,0,0,0,1.94,5.85,6,6,0,0,0,6,2.32,5.58,5.58,0,0,0,3.88-4.11,12.69,12.69,0,0,0-.25-5.41c-.6-3.11-.74-5.61-1.21-8.74C838.44,131.42,836.43,129.34,832.56,129.9Z" transform="translate(-23.27 -13.96)"/><path d="M835.76,157a6.79,6.79,0,0,1-5.22-2.7,13.41,13.41,0,0,1-2-6.09c-.31-2-.55-3.33-.78-4.61s-.46-2.64-.78-4.64c0-.1,0-.21-.05-.33-.25-1.45-.77-4.47.87-6.73a6.75,6.75,0,0,1,4.72-2.49h0c4.31-.63,6.49,1.85,7.51,8.54.19,1.27.33,2.45.46,3.58.2,1.7.39,3.3.75,5.14a13.28,13.28,0,0,1,.25,5.64,6.12,6.12,0,0,1-4.29,4.51A5.66,5.66,0,0,1,835.76,157Zm-3.12-26.51h0a5.7,5.7,0,0,0-4,2.06c-1.37,1.89-.91,4.59-.68,5.89,0,.13,0,.25,0,.35.32,2,.55,3.33.78,4.62s.47,2.62.79,4.63a12.45,12.45,0,0,0,1.83,5.61,5.48,5.48,0,0,0,5.47,2.11,5,5,0,0,0,3.49-3.71,12.28,12.28,0,0,0-.26-5.18c-.36-1.87-.55-3.49-.76-5.21-.13-1.12-.27-2.29-.46-3.54C837.84,131.12,835.72,130,832.64,130.44Z" transform="translate(-23.27 -13.96)"/><path d="M838.08,153.58a.17.17,0,0,1-.18-.15c-1.22-6.93-2.38-14-3.44-20.91a.2.2,0,0,1,.16-.21.19.19,0,0,1,.21.15c1.06,6.95,2.21,14,3.43,20.91a.18.18,0,0,1-.15.21Z" transform="translate(-23.27 -13.96)"/><path class="cls-1" d="M879.33,129.9c6.84,1,5.36,7.18,5.08,8.92-.63,4-.93,5.25-1.56,9.25a12.78,12.78,0,0,1-1.94,5.85,6,6,0,0,1-6,2.32,5.61,5.61,0,0,1-3.89-4.11,12.69,12.69,0,0,1,.25-5.41c.61-3.11.74-5.61,1.22-8.74C873.45,131.42,875.46,129.34,879.33,129.9Z" transform="translate(-23.27 -13.96)"/><path d="M876.13,157a5.66,5.66,0,0,1-1.4-.18,6.09,6.09,0,0,1-4.28-4.51,13.13,13.13,0,0,1,.25-5.64c.35-1.84.54-3.44.74-5.14.13-1.13.27-2.31.47-3.58,1-6.69,3.19-9.17,7.5-8.54a6.75,6.75,0,0,1,4.72,2.49c1.65,2.26,1.13,5.28.88,6.73l-.06.33c-.31,2-.55,3.34-.78,4.63s-.46,2.62-.78,4.62a13.29,13.29,0,0,1-2,6.09A6.79,6.79,0,0,1,876.13,157Zm2-26.59c-2.5,0-4.25,1.6-5.18,7.71-.19,1.25-.33,2.41-.46,3.54-.2,1.72-.4,3.34-.76,5.21a12.28,12.28,0,0,0-.26,5.18,5,5,0,0,0,3.49,3.71,5.48,5.48,0,0,0,5.47-2.11,12.58,12.58,0,0,0,1.84-5.61c.31-2,.55-3.35.78-4.64s.47-2.62.78-4.61c0-.1,0-.22.06-.35.22-1.3.69-4-.68-5.89a5.72,5.72,0,0,0-4-2.06A8.36,8.36,0,0,0,878.17,130.36Z" transform="translate(-23.27 -13.96)"/><path d="M873.82,153.58h0a.17.17,0,0,1-.14-.21c1.21-6.93,2.37-14,3.43-20.91a.18.18,0,0,1,.21-.15.19.19,0,0,1,.15.21c-1.06,6.95-2.22,14-3.44,20.91A.17.17,0,0,1,873.82,153.58Z" transform="translate(-23.27 -13.96)"/><path d="M876.86,127.79h0a.2.2,0,0,1-.16-.21c1-6.61,0-11.85-3.07-15.57-3.17-3.91-8.49-6.12-15.81-6.55-5-.3-14.23.05-19.35,5.8-3.32,3.72-4.38,9.13-3.16,16.1a.18.18,0,0,1-.15.21.19.19,0,0,1-.21-.15c-1.24-7.08-.15-12.6,3.24-16.41,5.23-5.86,14.56-6.22,19.65-5.92,7.43.44,12.83,2.69,16.07,6.69,3.09,3.81,4.15,9.14,3.16,15.85A.2.2,0,0,1,876.86,127.79Z" transform="translate(-23.27 -13.96)"/><path d="M853,130.64a1.52,1.52,0,1,1-1.52,1.52A1.52,1.52,0,0,1,853,130.64Z" transform="translate(-23.27 -13.96)"/><path d="M853,134.22a2.07,2.07,0,1,1,2.06-2.06A2.07,2.07,0,0,1,853,134.22Zm0-3a1,1,0,0,0,0,1.94,1,1,0,1,0,0-1.94Z" transform="translate(-23.27 -13.96)"/><path d="M861,127.91a1.52,1.52,0,1,1-1.52,1.52A1.52,1.52,0,0,1,861,127.91Z" transform="translate(-23.27 -13.96)"/><path d="M861,131.5a2.07,2.07,0,1,1,2.06-2.07A2.07,2.07,0,0,1,861,131.5Zm0-3a1,1,0,1,0,1,1A1,1,0,0,0,861,128.46Z" transform="translate(-23.27 -13.96)"/><path d="M854.49,132.45a.56.56,0,0,1-.51-.35l-3.72-9.33a.56.56,0,0,1,.29-.71l7.78-3.4a.58.58,0,0,1,.43,0,.54.54,0,0,1,.3.31l3.93,9.79a.55.55,0,0,1-1,.41l-3.72-9.27-6.78,3,3.53,8.83a.56.56,0,0,1-.3.72A.78.78,0,0,1,854.49,132.45Z" transform="translate(-23.27 -13.96)"/><path class="cls-2" d="M838.14,49.23c-3.4-2.66-7.6-3.31-10.81-.36S823.69,58,826.9,61c3.49,3.2,11.79,3.16,16.32,3.08,8.73-.14,17.61.26,26.34.26,16.36,0,14.59-13.37,10.23-16.21a5.78,5.78,0,0,0-6.93.53C873.67,43,870,37,865,35.74s-10.68,2.3-12.19,7.75a7.79,7.79,0,0,0-9-2A10.92,10.92,0,0,0,838.14,49.23Z" transform="translate(-23.27 -13.96)"/><path d="M869.56,64.87c-3.7,0-7.49-.07-11.15-.15-5-.09-10.15-.19-15.18-.11-4.2.07-13,.22-16.7-3.23a8.06,8.06,0,0,1-2.39-6A9.45,9.45,0,0,1,827,48.46c3-2.72,7.07-2.76,10.85-.16A11.12,11.12,0,0,1,843.58,41a8.22,8.22,0,0,1,9,1.5c1.94-5.27,7.49-8.55,12.57-7.25s8.59,6.74,8.36,12.29a6.27,6.27,0,0,1,6.57.15c2.35,1.53,4.06,5.86,2.87,9.88C882.13,60.27,879.31,64.87,869.56,64.87Zm-22.35-1.38c3.75,0,7.53.07,11.22.14s7.44.14,11.13.14c9,0,11.61-4.11,12.34-6.56,1-3.49-.44-7.36-2.41-8.65a5.29,5.29,0,0,0-6.27.49.56.56,0,0,1-.63.07.55.55,0,0,1-.28-.56c.78-5.33-2.7-11.07-7.43-12.29s-10.1,2.23-11.53,7.37a.56.56,0,0,1-.4.39.57.57,0,0,1-.54-.18A7.27,7.27,0,0,0,844,42a10.28,10.28,0,0,0-5.36,7.4.55.55,0,0,1-.88.31c-3.56-2.78-7.33-2.93-10.1-.39a8.35,8.35,0,0,0-2.46,6.11,7,7,0,0,0,2,5.2c3.43,3.14,12.2,3,15.94,2.94C844.54,63.49,845.87,63.49,847.21,63.49Z" transform="translate(-23.27 -13.96)"/><path class="cls-2" d="M712.89,364.49l-2.58-23A10.48,10.48,0,0,0,700,332.2H659.65a10.5,10.5,0,0,0-10.43,9.32l-2.57,23a9.15,9.15,0,0,0,6.28,11.33h0a9.17,9.17,0,0,0,11.33-6.28l1.64-5.82a6,6,0,0,1,5.78-4.37h16.17a6,6,0,0,1,5.78,4.37l1.65,5.82a9.16,9.16,0,0,0,11.33,6.28h0A9.16,9.16,0,0,0,712.89,364.49Z" transform="translate(-23.27 -13.96)"/><path d="M655.45,376.72a9.88,9.88,0,0,1-2.67-.37,9.71,9.71,0,0,1-6.67-12l2.57-22.93a11,11,0,0,1,11-9.81h40.46a11.07,11.07,0,0,1,10.75,9.81l2.57,22.93a9.71,9.71,0,0,1-18.68,5.3l-1.64-5.82a5.48,5.48,0,0,0-5.26-4H671.68a5.47,5.47,0,0,0-5.25,4l-1.65,5.82A9.71,9.71,0,0,1,655.45,376.72Zm16.23-17.92h16.17a6.57,6.57,0,0,1,6.31,4.78l1.65,5.81a8.61,8.61,0,0,0,16.55-4.75s0-.06,0-.09l-2.57-23a10,10,0,0,0-9.74-8.83H659.65a9.93,9.93,0,0,0-9.88,8.84l-2.58,23s0,.06,0,.09a8.61,8.61,0,0,0,16.55,4.75l1.64-5.81A6.58,6.58,0,0,1,671.68,358.8Z" transform="translate(-23.27 -13.96)"/><path class="cls-1" d="M657.13,344.82a5.3,5.3,0,1,1,5.3,5.3A5.3,5.3,0,0,1,657.13,344.82Z" transform="translate(-23.27 -13.96)"/><path d="M662.43,350.67a5.85,5.85,0,1,1,5.85-5.85A5.86,5.86,0,0,1,662.43,350.67Zm0-10.6a4.75,4.75,0,1,0,4.75,4.75A4.75,4.75,0,0,0,662.43,340.07Z" transform="translate(-23.27 -13.96)"/><path d="M689.93,346.26a1.93,1.93,0,1,1,2.72-.16A1.92,1.92,0,0,1,689.93,346.26Z" transform="translate(-23.27 -13.96)"/><path d="M691.21,347.29a2.44,2.44,0,0,1-1.64-.62h0a2.47,2.47,0,1,1,4.11-2,2.44,2.44,0,0,1-.62,1.79A2.47,2.47,0,0,1,691.21,347.29Zm-.91-1.44a1.37,1.37,0,0,0,1.94-.12,1.37,1.37,0,0,0-2.06-1.82,1.38,1.38,0,0,0,.12,1.94Z" transform="translate(-23.27 -13.96)"/><path d="M696.1,340.38a1.92,1.92,0,1,1,2.72-.17A1.93,1.93,0,0,1,696.1,340.38Z" transform="translate(-23.27 -13.96)"/><path d="M697.37,341.41a2.46,2.46,0,0,1-1.63-.62h0a2.47,2.47,0,1,1,4.1-2,2.46,2.46,0,0,1-2.47,2.62Zm0-3.85h-.09a1.38,1.38,0,0,0-.83,2.41h0a1.39,1.39,0,0,0,1.95-.12,1.4,1.4,0,0,0,.34-1,1.38,1.38,0,0,0-1.37-1.29Z" transform="translate(-23.27 -13.96)"/><path class="cls-2" d="M696.1,352a1.92,1.92,0,1,1,2.72-.16A1.92,1.92,0,0,1,696.1,352Z" transform="translate(-23.27 -13.96)"/><path d="M697.37,353a2.41,2.41,0,0,1-1.63-.62h0a2.42,2.42,0,0,1-.83-1.7,2.47,2.47,0,0,1,4.93-.3,2.46,2.46,0,0,1-2.47,2.62Zm0-3.84h-.09a1.35,1.35,0,0,0-.95.46,1.4,1.4,0,0,0-.34,1,1.37,1.37,0,0,0,.46.94h0a1.38,1.38,0,0,0,1.95-.12,1.38,1.38,0,0,0-.12-1.94A1.41,1.41,0,0,0,697.38,349.15Z" transform="translate(-23.27 -13.96)"/><path class="cls-2" d="M702.63,346.26a1.92,1.92,0,1,1,2.72-.16A1.92,1.92,0,0,1,702.63,346.26Z" transform="translate(-23.27 -13.96)"/><path d="M703.9,347.29a2.43,2.43,0,0,1-1.63-.62h0a2.42,2.42,0,0,1-.83-1.7,2.47,2.47,0,0,1,4.1-2,2.47,2.47,0,0,1-1.64,4.32Zm0-3.85h-.09a1.35,1.35,0,0,0-1,.46,1.39,1.39,0,0,0-.34,1,1.37,1.37,0,0,0,.46.94h0a1.38,1.38,0,1,0,1.83-2.06A1.42,1.42,0,0,0,703.91,343.44Z" transform="translate(-23.27 -13.96)"/><path d="M677.33,354.37H672.7a.18.18,0,0,1-.18-.18.19.19,0,0,1,.18-.19h4.63a.2.2,0,0,1,.19.19A.19.19,0,0,1,677.33,354.37Z" transform="translate(-23.27 -13.96)"/><path d="M686.83,354.37H682.2a.18.18,0,0,1-.18-.18.19.19,0,0,1,.18-.19h4.63a.2.2,0,0,1,.19.19A.19.19,0,0,1,686.83,354.37Z" transform="translate(-23.27 -13.96)"/><path d="M463.69,32.91a2.11,2.11,0,1,0-2.1,2.06A2.09,2.09,0,0,0,463.69,32.91Z" transform="translate(-23.27 -13.96)"/><path d="M461.59,35.52a2.62,2.62,0,1,1,2.65-2.61A2.64,2.64,0,0,1,461.59,35.52Zm0-4.13a1.52,1.52,0,1,0,1.55,1.52A1.54,1.54,0,0,0,461.59,31.39Z" transform="translate(-23.27 -13.96)"/><path d="M475.13,20.72a.58.58,0,0,1-.4-.17c-9.07-9.48-20.63-4.61-24.81-.77a.55.55,0,0,1-.77,0,.56.56,0,0,1,0-.78c4.44-4.08,16.71-9.25,26.35.82a.55.55,0,0,1-.4.93Z" transform="translate(-23.27 -13.96)"/><path d="M469.12,26.25a.54.54,0,0,1-.39-.17,9.47,9.47,0,0,0-13.17-.41.54.54,0,0,1-.74-.8,10.58,10.58,0,0,1,14.7.45.55.55,0,0,1-.4.93Z" transform="translate(-23.27 -13.96)"/><path class="cls-1" d="M655,112.35c-6.7-6.38-15.34-11.73-24.56-11.06A22,22,0,0,0,611,118.74c-1.88,10.28,3.93,20.4,10.68,28.38,5.11,6,11,11.62,18.2,15s15.93,4.83,23,1.35C681.52,154.38,664.6,121.53,655,112.35Z" transform="translate(-23.27 -13.96)"/><path class="cls-1" d="M659.39,296.88c41.39-27,29.71-69.65,12.7-93-13-17.77-37.33-23.12-53-38.51-18.14-17.77-22-45.93-38.21-65.43-9-10.85-21.42-18.38-34.11-24.58C522.93,63.74,496.85,56,470.35,55.86s-53.47,7.64-74.09,24.29c-16.33,13.19-29.05,31.93-48.76,39.15-13.75,5-28.87,3.65-43.49,4.37-35,1.72-71.67,18.86-85.77,50.93-4.77,10.84-11.53,21.13-13.36,32.83-4.37,27.93-24.57,59.18,26.17,91.62,28.83,18.43,99.41,46.17,239.34,1.83,28.94-9.18,60.2,12.65,90.48,14.86S626.9,318.07,659.39,296.88Z" transform="translate(-23.27 -13.96)"/><rect class="cls-2" x="103.38" y="19.33" width="83.98" height="33.98" rx="6.57"/><path d="M208.23,67.81H129a2.94,2.94,0,0,1-2.94-2.94V35.68A2.94,2.94,0,0,1,129,32.74h79.19a2.94,2.94,0,0,1,2.94,2.94V64.87A2.94,2.94,0,0,1,208.23,67.81ZM129,33.83a1.85,1.85,0,0,0-1.85,1.85V64.87A1.85,1.85,0,0,0,129,66.72h79.19a1.85,1.85,0,0,0,1.85-1.85V35.68a1.85,1.85,0,0,0-1.85-1.85Z" transform="translate(-23.27 -13.96)"/><rect class="cls-2" x="115.65" y="43.85" width="59.44" height="9.46"/><path d="M198.36,67.81H138.91a.54.54,0,0,1-.54-.54V57.81a.54.54,0,0,1,.54-.55h59.45a.54.54,0,0,1,.54.55v9.46A.54.54,0,0,1,198.36,67.81Zm-58.9-1.09h58.35V58.36H139.46Z" transform="translate(-23.27 -13.96)"/><circle cx="173.1" cy="26.29" r="1.46"/><path d="M196.37,42.25a2,2,0,1,1,2-2A2,2,0,0,1,196.37,42.25Zm0-2.92a.92.92,0,1,0,.91.92A.92.92,0,0,0,196.37,39.33Z" transform="translate(-23.27 -13.96)"/><circle cx="164.75" cy="26.29" r="1.46"/><path d="M188,42.25a2,2,0,1,1,2-2A2,2,0,0,1,188,42.25Zm0-2.92a.92.92,0,1,0,.91.92A.92.92,0,0,0,188,39.33Z" transform="translate(-23.27 -13.96)"/><path d="M198.36,63.3H139a.18.18,0,0,1-.18-.18.19.19,0,0,1,.18-.19h59.37a.19.19,0,0,1,.18.19A.18.18,0,0,1,198.36,63.3Z" transform="translate(-23.27 -13.96)"/><rect class="cls-1" x="115.72" y="23.91" width="9.87" height="4.75"/><path d="M148.85,43.17H139a.55.55,0,0,1-.55-.55V37.87a.55.55,0,0,1,.55-.55h9.86a.55.55,0,0,1,.55.55v4.75A.55.55,0,0,1,148.85,43.17Zm-9.31-1.1h8.77V38.42h-8.77Z" transform="translate(-23.27 -13.96)"/><path d="M167.2,88.64a.55.55,0,0,1-.54-.55v-13a.55.55,0,1,1,1.09,0v13A.55.55,0,0,1,167.2,88.64Z" transform="translate(-23.27 -13.96)"/><path d="M150.61,88.65a.57.57,0,0,1-.33-.11.55.55,0,0,1-.11-.77L160,74.71a.54.54,0,0,1,.76-.11.54.54,0,0,1,.11.77l-9.8,13.06A.57.57,0,0,1,150.61,88.65Z" transform="translate(-23.27 -13.96)"/><path d="M183.8,88.65a.56.56,0,0,1-.44-.22l-9.81-13.06a.55.55,0,1,1,.88-.66l9.81,13.06a.55.55,0,0,1-.11.77A.59.59,0,0,1,183.8,88.65Z" transform="translate(-23.27 -13.96)"/><circle class="cls-2" cx="305.18" cy="345.42" r="29.5" transform="translate(-123.74 550.31) rotate(-76.89)"/><path d="M305.18,375.47a30.06,30.06,0,1,1,30.06-30.05A30.08,30.08,0,0,1,305.18,375.47Zm0-59a29,29,0,1,0,29,29A29,29,0,0,0,305.18,316.46Z" transform="translate(-23.27 -13.96)"/><path d="M324.09,359.28H286.27a.18.18,0,1,1,0-.36h37.82a.18.18,0,1,1,0,.36Z" transform="translate(-23.27 -13.96)"/><path d="M305.18,370.9a25.49,25.49,0,1,1,25.49-25.48A25.51,25.51,0,0,1,305.18,370.9Zm0-50.6a25.12,25.12,0,1,0,25.12,25.12A25.15,25.15,0,0,0,305.18,320.3Z" transform="translate(-23.27 -13.96)"/><path d="M335.63,366.21a.54.54,0,0,1-.21,0l-6.52-2.8a.55.55,0,1,1,.44-1l6.51,2.8a.55.55,0,0,1-.22,1.06Z" transform="translate(-23.27 -13.96)"/><path d="M330.8,372.57a.56.56,0,0,1-.44-.22l-4.19-5.6a.54.54,0,0,1,.11-.77.54.54,0,0,1,.76.11l4.2,5.6a.55.55,0,0,1-.11.77A.59.59,0,0,1,330.8,372.57Z" transform="translate(-23.27 -13.96)"/><path d="M274.37,366.21a.56.56,0,0,1-.22-1.06l6.52-2.8a.55.55,0,1,1,.43,1l-6.51,2.8A.59.59,0,0,1,274.37,366.21Z" transform="translate(-23.27 -13.96)"/><path d="M279.2,372.57a.55.55,0,0,1-.43-.88l4.19-5.6a.55.55,0,1,1,.88.66l-4.2,5.6A.54.54,0,0,1,279.2,372.57Z" transform="translate(-23.27 -13.96)"/><path class="cls-1" d="M299.88,359.1a5.3,5.3,0,1,1,5.3,5.3A5.3,5.3,0,0,1,299.88,359.1Z" transform="translate(-23.27 -13.96)"/><path d="M305.18,365A5.85,5.85,0,1,1,311,359.1,5.85,5.85,0,0,1,305.18,365Zm0-10.6a4.75,4.75,0,1,0,4.75,4.75A4.75,4.75,0,0,0,305.18,354.35Z" transform="translate(-23.27 -13.96)"/><path d="M303.32,328a1.46,1.46,0,1,1,1.46,1.46A1.47,1.47,0,0,1,303.32,328Z" transform="translate(-23.27 -13.96)"/><path d="M304.78,330a2,2,0,1,1,2-2A2,2,0,0,1,304.78,330Zm0-2.93a.92.92,0,1,0,.92.92A.92.92,0,0,0,304.78,327.06Z" transform="translate(-23.27 -13.96)"/><polygon class="cls-2" points="428.42 277.77 428.42 81.38 551.66 80.83 551.66 277.77 428.42 277.77"/><path d="M574.92,292.28H451.69a.55.55,0,0,1-.55-.55V95.33a.55.55,0,0,1,.54-.55l123.24-.54h0a.55.55,0,0,1,.39.16.59.59,0,0,1,.16.39V291.73A.55.55,0,0,1,574.92,292.28Zm-122.69-1.1H574.38V95.34l-122.15.54Z" transform="translate(-23.27 -13.96)"/><rect class="cls-2" x="470.63" y="60.24" width="29.02" height="17.2"/><path d="M522.92,91.94h-29a.54.54,0,0,1-.55-.55V74.19a.54.54,0,0,1,.55-.54h29a.55.55,0,0,1,.55.54v17.2A.55.55,0,0,1,522.92,91.94Zm-28.48-1.09h27.93V74.74H494.44Z" transform="translate(-23.27 -13.96)"/><rect class="cls-2" x="452.73" y="163.51" width="17.25" height="12.05"/><path d="M493.25,190.07H476a.55.55,0,0,1-.55-.55V177.47a.55.55,0,0,1,.55-.55h17.25a.55.55,0,0,1,.54.55v12.05A.55.55,0,0,1,493.25,190.07Zm-16.7-1.1H492.7V178H476.55Z" transform="translate(-23.27 -13.96)"/><rect class="cls-2" x="481.62" y="163.51" width="17.25" height="12.05"/><path d="M522.14,190.07H504.89a.55.55,0,0,1-.55-.55V177.47a.55.55,0,0,1,.55-.55h17.25a.55.55,0,0,1,.55.55v12.05A.55.55,0,0,1,522.14,190.07Zm-16.7-1.1h16.15V178H505.44Z" transform="translate(-23.27 -13.96)"/><rect class="cls-2" x="510.51" y="163.51" width="17.25" height="12.05"/><path d="M551,190.07H533.78a.55.55,0,0,1-.55-.55V177.47a.55.55,0,0,1,.55-.55H551a.55.55,0,0,1,.55.55v12.05A.55.55,0,0,1,551,190.07Zm-16.7-1.1h16.15V178H534.33Z" transform="translate(-23.27 -13.96)"/><rect class="cls-1" x="452.16" y="107.7" width="17.25" height="32.25"/><path d="M492.68,154.45H475.43a.55.55,0,0,1-.55-.55V121.65a.54.54,0,0,1,.55-.54h17.25a.54.54,0,0,1,.54.54V153.9A.55.55,0,0,1,492.68,154.45ZM476,153.35h16.16V122.2H476Z" transform="translate(-23.27 -13.96)"/><rect class="cls-1" x="481.05" y="107.7" width="17.25" height="32.25"/><path d="M521.57,154.45H504.32a.55.55,0,0,1-.55-.55V121.65a.54.54,0,0,1,.55-.54h17.25a.54.54,0,0,1,.54.54V153.9A.55.55,0,0,1,521.57,154.45Zm-16.7-1.1H521V122.2H504.87Z" transform="translate(-23.27 -13.96)"/><rect x="481.05" y="245.79" width="17.25" height="31.98"/><path d="M521.57,292.28H504.32a.55.55,0,0,1-.55-.55v-32a.54.54,0,0,1,.55-.55h17.25a.54.54,0,0,1,.54.55v32A.55.55,0,0,1,521.57,292.28Zm-16.7-1.1H521V260.29H504.87Z" transform="translate(-23.27 -13.96)"/><rect class="cls-1" x="509.94" y="107.7" width="17.25" height="32.25"/><path d="M550.46,154.45H533.21a.55.55,0,0,1-.55-.55V121.65a.55.55,0,0,1,.55-.54h17.25a.55.55,0,0,1,.55.54V153.9A.55.55,0,0,1,550.46,154.45Zm-16.7-1.1h16.15V122.2H533.76Z" transform="translate(-23.27 -13.96)"/><rect class="cls-2" x="452.55" y="199.13" width="17.25" height="12.05"/><path d="M493.07,225.68H475.82a.55.55,0,0,1-.55-.55v-12a.55.55,0,0,1,.55-.54h17.25a.55.55,0,0,1,.55.54v12A.55.55,0,0,1,493.07,225.68Zm-16.7-1.1h16.15v-11H476.37Z" transform="translate(-23.27 -13.96)"/><rect class="cls-2" x="481.44" y="199.13" width="17.25" height="12.05"/><path d="M522,225.68H504.71a.55.55,0,0,1-.55-.55v-12a.55.55,0,0,1,.55-.54H522a.55.55,0,0,1,.55.54v12A.55.55,0,0,1,522,225.68Zm-16.7-1.1h16.15v-11H505.26Z" transform="translate(-23.27 -13.96)"/><rect class="cls-2" x="510.33" y="199.13" width="17.25" height="12.05"/><path d="M550.85,225.68H533.6a.55.55,0,0,1-.55-.55v-12a.55.55,0,0,1,.55-.54h17.25a.55.55,0,0,1,.55.54v12A.55.55,0,0,1,550.85,225.68Zm-16.7-1.1H550.3v-11H534.15Z" transform="translate(-23.27 -13.96)"/><rect class="cls-2" x="476.52" y="53.25" width="9.14" height="6.99"/><path d="M508.92,74.74h-9.14a.55.55,0,0,1-.55-.55v-7a.55.55,0,0,1,.55-.55h9.14a.55.55,0,0,1,.55.55v7A.55.55,0,0,1,508.92,74.74Zm-8.59-1.09h8V67.76h-8Z" transform="translate(-23.27 -13.96)"/><rect class="cls-2" x="485.65" y="53.25" width="9.14" height="6.99"/><path d="M518.06,74.74h-9.14a.55.55,0,0,1-.55-.55v-7a.55.55,0,0,1,.55-.55h9.14a.54.54,0,0,1,.54.55v7A.54.54,0,0,1,518.06,74.74Zm-8.59-1.09h8V67.76h-8Z" transform="translate(-23.27 -13.96)"/><rect class="cls-2" x="425.02" y="76.07" width="129.53" height="5.91"/><path d="M577.82,96.49H448.29a.55.55,0,0,1-.55-.55V90a.54.54,0,0,1,.55-.55H577.82a.55.55,0,0,1,.55.55v5.91A.55.55,0,0,1,577.82,96.49Zm-129-1.1H577.27V90.57H448.84Z" transform="translate(-23.27 -13.96)"/><rect class="cls-2" x="428.34" y="81.98" width="123.24" height="15.05"/><path d="M574.85,111.54H451.61a.55.55,0,0,1-.55-.55v-15a.55.55,0,0,1,.55-.55H574.85a.55.55,0,0,1,.54.55v15A.55.55,0,0,1,574.85,111.54Zm-122.69-1.1H574.3v-14H452.16Z" transform="translate(-23.27 -13.96)"/><rect x="452.16" y="107.7" width="17.25" height="6.71"/><path d="M492.68,128.92H475.43a.55.55,0,0,1-.55-.55v-6.72a.54.54,0,0,1,.55-.54h17.25a.54.54,0,0,1,.54.54v6.72A.55.55,0,0,1,492.68,128.92ZM476,127.82h16.16V122.2H476Z" transform="translate(-23.27 -13.96)"/><rect x="481.05" y="107.7" width="17.25" height="6.71"/><path d="M521.57,128.92H504.32a.55.55,0,0,1-.55-.55v-6.72a.54.54,0,0,1,.55-.54h17.25a.54.54,0,0,1,.54.54v6.72A.55.55,0,0,1,521.57,128.92Zm-16.7-1.1H521V122.2H504.87Z" transform="translate(-23.27 -13.96)"/><rect x="509.94" y="107.7" width="17.25" height="6.71"/><path d="M550.46,128.92H533.21a.55.55,0,0,1-.55-.55v-6.72a.55.55,0,0,1,.55-.54h17.25a.55.55,0,0,1,.55.54v6.72A.55.55,0,0,1,550.46,128.92Zm-16.7-1.1h16.15V122.2H533.76Z" transform="translate(-23.27 -13.96)"/><polygon class="cls-2" points="242.27 277.77 242.27 112.36 339.77 111.9 339.77 277.77 242.27 277.77"/><path d="M363,292.28H265.53a.55.55,0,0,1-.54-.55V126.31a.54.54,0,0,1,.54-.54l97.51-.46h0a.55.55,0,0,1,.38.16.52.52,0,0,1,.17.39V291.73A.55.55,0,0,1,363,292.28Zm-97-1.1h96.41V126.41l-96.41.45Z" transform="translate(-23.27 -13.96)"/><polygon class="cls-2" points="239.21 120.21 239.21 108.64 342.83 108.61 342.83 120.21 239.21 120.21"/><path d="M366.1,134.72H262.47a.55.55,0,0,1-.55-.55V122.6a.55.55,0,0,1,.55-.55l103.63,0a.55.55,0,0,1,.55.55v11.6A.55.55,0,0,1,366.1,134.72ZM263,133.62H365.55V123.11l-102.53,0Z" transform="translate(-23.27 -13.96)"/><polygon class="cls-1" points="242.27 125.67 242.27 120.21 339.77 120.19 339.77 125.67 242.27 125.67"/><path d="M363,140.18H265.53a.55.55,0,0,1-.54-.55v-5.47a.54.54,0,0,1,.54-.54l97.51,0a.59.59,0,0,1,.39.16.55.55,0,0,1,.16.39v5.48A.55.55,0,0,1,363,140.18Zm-97-1.1h96.41V134.7H266.08Z" transform="translate(-23.27 -13.96)"/><polygon class="cls-2" points="257.66 158 257.66 139.89 270.23 139.84 270.23 158 257.66 158"/><path d="M293.5,172.5H280.93a.54.54,0,0,1-.55-.55v-18.1a.54.54,0,0,1,.54-.55l12.57-.05a.48.48,0,0,1,.39.16.52.52,0,0,1,.17.39V172A.55.55,0,0,1,293.5,172.5Zm-12-1.09H293V154.35l-11.48,0Z" transform="translate(-23.27 -13.96)"/><polygon class="cls-2" points="285.06 158 285.06 139.89 297.63 139.84 297.63 158 285.06 158"/><path d="M320.89,172.5H308.32a.54.54,0,0,1-.54-.55v-18.1a.54.54,0,0,1,.54-.55l12.57-.05h0a.51.51,0,0,1,.39.16.55.55,0,0,1,.16.39V172A.54.54,0,0,1,320.89,172.5Zm-12-1.09h11.48V154.35l-11.48,0Z" transform="translate(-23.27 -13.96)"/><polygon class="cls-2" points="312.13 158 312.13 139.89 324.7 139.84 324.7 158 312.13 158"/><path d="M348,172.5H335.4a.55.55,0,0,1-.55-.55v-18.1a.54.54,0,0,1,.55-.55l12.57-.05h0a.54.54,0,0,1,.39.16.55.55,0,0,1,.16.39V172A.55.55,0,0,1,348,172.5Zm-12-1.09h11.47V154.35l-11.47,0Z" transform="translate(-23.27 -13.96)"/><polygon class="cls-2" points="257.66 144.03 257.66 139.85 270.23 139.84 270.23 144.03 257.66 144.03"/><path d="M293.5,158.53H280.93a.54.54,0,0,1-.55-.54v-4.18a.54.54,0,0,1,.55-.55H293.5a.51.51,0,0,1,.38.16.52.52,0,0,1,.17.39V158A.55.55,0,0,1,293.5,158.53Zm-12-1.09H293v-3.1H281.47Z" transform="translate(-23.27 -13.96)"/><polygon class="cls-2" points="285.06 144.03 285.06 139.85 297.63 139.84 297.63 144.03 285.06 144.03"/><path d="M320.89,158.53H308.32a.54.54,0,0,1-.54-.54v-4.18a.54.54,0,0,1,.54-.55h12.57a.51.51,0,0,1,.39.16.55.55,0,0,1,.16.39V158A.54.54,0,0,1,320.89,158.53Zm-12-1.09h11.48v-3.1H308.87Z" transform="translate(-23.27 -13.96)"/><polygon class="cls-2" points="285.06 201.72 285.06 183.61 297.63 183.56 297.63 201.72 285.06 201.72"/><path d="M320.89,216.23H308.32a.55.55,0,0,1-.54-.55V197.57a.55.55,0,0,1,.54-.55l12.57-.05h0a.55.55,0,0,1,.55.55v18.16A.55.55,0,0,1,320.89,216.23Zm-12-1.1h11.48V198.07l-11.48,0Z" transform="translate(-23.27 -13.96)"/><polygon class="cls-2" points="285.06 187.75 285.06 183.57 297.63 183.56 297.63 187.75 285.06 187.75"/><path d="M320.89,202.26H308.32a.55.55,0,0,1-.54-.55v-4.18a.55.55,0,0,1,.54-.55h12.57a.55.55,0,0,1,.55.55v4.19A.55.55,0,0,1,320.89,202.26Zm-12-1.1h11.48v-3.09H308.87Z" transform="translate(-23.27 -13.96)"/><polygon class="cls-2" points="285.06 242.41 285.06 224.3 297.63 224.25 297.63 242.41 285.06 242.41"/><path d="M320.89,256.92H308.32a.55.55,0,0,1-.54-.55V238.26a.55.55,0,0,1,.54-.55l12.57-.05h0a.55.55,0,0,1,.39.16.59.59,0,0,1,.16.39v18.16A.55.55,0,0,1,320.89,256.92Zm-12-1.1h11.48V238.76l-11.48.05Z" transform="translate(-23.27 -13.96)"/><polygon class="cls-2" points="285.06 228.44 285.06 224.26 297.63 224.25 297.63 228.44 285.06 228.44"/><path d="M320.89,243H308.32a.55.55,0,0,1-.54-.55v-4.18a.55.55,0,0,1,.54-.55h12.57a.55.55,0,0,1,.39.16.59.59,0,0,1,.16.39v4.19A.55.55,0,0,1,320.89,243Zm-12-1.1h11.48v-3.09H308.87Z" transform="translate(-23.27 -13.96)"/><polygon class="cls-2" points="312.13 144.03 312.13 139.85 324.7 139.84 324.7 144.03 312.13 144.03"/><path d="M348,158.53H335.4a.55.55,0,0,1-.55-.54v-4.18a.55.55,0,0,1,.55-.55H348a.54.54,0,0,1,.39.16.55.55,0,0,1,.16.39V158A.55.55,0,0,1,348,158.53Zm-12-1.09h11.47v-3.1H336Z" transform="translate(-23.27 -13.96)"/><polygon class="cls-2" points="541.1 277.77 541.1 184.13 587.22 154.43 633.34 184.13 633.34 277.77 541.1 277.77"/><path d="M656.6,292.28H564.37a.55.55,0,0,1-.55-.55V198.08a.54.54,0,0,1,.25-.46l46.12-29.69a.53.53,0,0,1,.59,0l46.12,29.69a.54.54,0,0,1,.25.46v93.65A.55.55,0,0,1,656.6,292.28Zm-91.68-1.1h91.14v-92.8L610.49,169l-45.57,29.34Z" transform="translate(-23.27 -13.96)"/><rect x="576.63" y="178.42" width="10.59" height="7.16"/><path class="cls-2" d="M610.49,200.08h-10.6a.54.54,0,0,1-.54-.55v-7.16a.55.55,0,0,1,.54-.55h10.6a.55.55,0,0,1,.54.55v7.16A.54.54,0,0,1,610.49,200.08Zm-10-1.1h9.5v-6.06h-9.5Z" transform="translate(-23.27 -13.96)"/><rect x="587.22" y="178.42" width="10.59" height="7.16"/><path class="cls-2" d="M621.08,200.08H610.49a.54.54,0,0,1-.55-.55v-7.16a.55.55,0,0,1,.55-.55h10.59a.55.55,0,0,1,.55.55v7.16A.55.55,0,0,1,621.08,200.08ZM611,199h9.5v-6.06H611Z" transform="translate(-23.27 -13.96)"/><rect x="576.63" y="171.33" width="10.59" height="7.16"/><path class="cls-2" d="M610.49,193h-10.6a.55.55,0,0,1-.54-.55v-7.16a.55.55,0,0,1,.54-.55h10.6a.55.55,0,0,1,.54.55v7.16A.55.55,0,0,1,610.49,193Zm-10-1.1h9.5v-6.06h-9.5Z" transform="translate(-23.27 -13.96)"/><rect x="587.22" y="171.33" width="10.59" height="7.16"/><path class="cls-2" d="M621.08,193H610.49a.55.55,0,0,1-.55-.55v-7.16a.55.55,0,0,1,.55-.55h10.59a.55.55,0,0,1,.55.55v7.16A.55.55,0,0,1,621.08,193ZM611,191.9h9.5v-6.06H611Z" transform="translate(-23.27 -13.96)"/><rect class="cls-1" x="574.83" y="216.85" width="20.94" height="12.05" transform="translate(784.9 -376.38) rotate(90)"/><path d="M591.32,233.89H579.27a.55.55,0,0,1-.55-.54V212.4a.55.55,0,0,1,.55-.55h12.05a.55.55,0,0,1,.55.55v20.95A.55.55,0,0,1,591.32,233.89Zm-11.5-1.09h10.95V213H579.82Z" transform="translate(-23.27 -13.96)"/><rect class="cls-1" x="574.83" y="253.72" width="20.94" height="12.05" transform="translate(821.78 -339.51) rotate(90)"/><path d="M591.32,270.77H579.27a.55.55,0,0,1-.55-.55V249.28a.55.55,0,0,1,.55-.55h12.05a.55.55,0,0,1,.55.55v20.94A.55.55,0,0,1,591.32,270.77Zm-11.5-1.1h10.95V249.82H579.82Z" transform="translate(-23.27 -13.96)"/><rect class="cls-2" x="313.24" y="208.63" width="129.89" height="61.03"/><path d="M466.4,284.16H336.51a.55.55,0,0,1-.55-.55v-61a.55.55,0,0,1,.55-.54H466.4a.55.55,0,0,1,.55.54v61A.55.55,0,0,1,466.4,284.16Zm-129.34-1.1H465.85V223.13H337.06Z" transform="translate(-23.27 -13.96)"/><polygon class="cls-2" points="313.11 208.63 324.85 177.62 431.26 177.62 443 208.63 313.11 208.63"/><path d="M466.27,223.13H336.38a.54.54,0,0,1-.45-.24.52.52,0,0,1-.07-.5l11.74-31a.54.54,0,0,1,.51-.36H454.53a.54.54,0,0,1,.51.36l11.74,31a.55.55,0,0,1-.06.5A.54.54,0,0,1,466.27,223.13ZM337.17,222h128.3l-11.32-29.91H348.49Z" transform="translate(-23.27 -13.96)"/><polygon class="cls-2" points="378.06 158.1 332.4 208.63 423.71 208.63 378.06 158.1"/><path d="M447,223.13h-91.3a.55.55,0,0,1-.41-.91l45.66-50.53a.56.56,0,0,1,.81,0l45.65,50.53a.55.55,0,0,1,.09.59A.54.54,0,0,1,447,223.13ZM356.9,222h88.84l-44.42-49.16Z" transform="translate(-23.27 -13.96)"/><polygon class="cls-2" points="378.06 166.7 341.51 208.63 414.6 208.63 378.06 166.7"/><path d="M437.87,223.13h-73.1a.52.52,0,0,1-.49-.32.55.55,0,0,1,.08-.59l36.55-41.92a.57.57,0,0,1,.83,0l36.54,41.92a.56.56,0,0,1,.09.59A.55.55,0,0,1,437.87,223.13ZM366,222h70.68l-35.34-40.55Z" transform="translate(-23.27 -13.96)"/><rect x="362.74" y="191.51" width="10.21" height="6.45"/><path class="cls-2" d="M396.22,212.47H386a.55.55,0,0,1-.54-.55v-6.45a.55.55,0,0,1,.54-.55h10.22a.55.55,0,0,1,.54.55v6.45A.55.55,0,0,1,396.22,212.47Zm-9.67-1.1h9.12V206h-9.12Z" transform="translate(-23.27 -13.96)"/><rect x="372.95" y="191.51" width="10.21" height="6.45"/><path class="cls-2" d="M406.43,212.47H396.22a.55.55,0,0,1-.55-.55v-6.45a.55.55,0,0,1,.55-.55h10.21a.55.55,0,0,1,.55.55v6.45A.55.55,0,0,1,406.43,212.47Zm-9.67-1.1h9.12V206h-9.12Z" transform="translate(-23.27 -13.96)"/><rect x="383.16" y="191.51" width="10.21" height="6.45"/><path class="cls-2" d="M416.64,212.47H406.43a.55.55,0,0,1-.55-.55v-6.45a.55.55,0,0,1,.55-.55h10.21a.55.55,0,0,1,.55.55v6.45A.55.55,0,0,1,416.64,212.47Zm-9.66-1.1h9.11V206H407Z" transform="translate(-23.27 -13.96)"/><rect class="cls-1" x="339.42" y="235.17" width="9.14" height="21.6"/><path d="M371.83,271.27h-9.14a.55.55,0,0,1-.55-.54V249.12a.55.55,0,0,1,.55-.54h9.14a.55.55,0,0,1,.55.54v21.61A.55.55,0,0,1,371.83,271.27Zm-8.59-1.09h8V249.67h-8Z" transform="translate(-23.27 -13.96)"/><rect class="cls-1" x="330.29" y="235.17" width="9.14" height="21.6"/><path d="M362.69,271.27h-9.14a.54.54,0,0,1-.54-.54V249.12a.54.54,0,0,1,.54-.54h9.14a.55.55,0,0,1,.55.54v21.61A.55.55,0,0,1,362.69,271.27Zm-8.59-1.09h8V249.67h-8Z" transform="translate(-23.27 -13.96)"/><rect class="cls-1" x="339.42" y="224.74" width="9.14" height="10.43"/><path d="M371.83,249.67h-9.14a.55.55,0,0,1-.55-.55V238.69a.55.55,0,0,1,.55-.54h9.14a.55.55,0,0,1,.55.54v10.43A.55.55,0,0,1,371.83,249.67Zm-8.59-1.09h8v-9.34h-8Z" transform="translate(-23.27 -13.96)"/><rect class="cls-1" x="330.29" y="224.74" width="9.14" height="10.43"/><path d="M362.69,249.67h-9.14a.54.54,0,0,1-.54-.55V238.69a.54.54,0,0,1,.54-.54h9.14a.55.55,0,0,1,.55.54v10.43A.55.55,0,0,1,362.69,249.67Zm-8.59-1.09h8v-9.34h-8Z" transform="translate(-23.27 -13.96)"/><rect class="cls-1" x="416.69" y="235.17" width="9.14" height="21.6"/><path d="M449.09,271.27H440a.55.55,0,0,1-.55-.54V249.12a.55.55,0,0,1,.55-.54h9.14a.55.55,0,0,1,.55.54v21.61A.55.55,0,0,1,449.09,271.27Zm-8.59-1.09h8V249.67h-8Z" transform="translate(-23.27 -13.96)"/><rect class="cls-1" x="407.55" y="235.17" width="9.14" height="21.6"/><path d="M440,271.27h-9.13a.54.54,0,0,1-.55-.54V249.12a.54.54,0,0,1,.55-.54H440a.54.54,0,0,1,.55.54v21.61A.54.54,0,0,1,440,271.27Zm-8.59-1.09h8V249.67h-8Z" transform="translate(-23.27 -13.96)"/><rect class="cls-1" x="416.69" y="224.74" width="9.14" height="10.43"/><path d="M449.09,249.67H440a.55.55,0,0,1-.55-.55V238.69a.55.55,0,0,1,.55-.54h9.14a.55.55,0,0,1,.55.54v10.43A.55.55,0,0,1,449.09,249.67Zm-8.59-1.09h8v-9.34h-8Z" transform="translate(-23.27 -13.96)"/><rect class="cls-1" x="407.55" y="224.74" width="9.14" height="10.43"/><path d="M440,249.67h-9.13a.54.54,0,0,1-.55-.55V238.69a.54.54,0,0,1,.55-.54H440a.54.54,0,0,1,.55.54v10.43A.54.54,0,0,1,440,249.67Zm-8.59-1.09h8v-9.34h-8Z" transform="translate(-23.27 -13.96)"/><rect class="cls-1" x="378.52" y="235.17" width="9.14" height="21.6"/><path d="M410.93,271.27h-9.14a.55.55,0,0,1-.55-.54V249.12a.55.55,0,0,1,.55-.54h9.14a.55.55,0,0,1,.55.54v21.61A.55.55,0,0,1,410.93,271.27Zm-8.59-1.09h8V249.67h-8Z" transform="translate(-23.27 -13.96)"/><rect class="cls-1" x="369.39" y="235.17" width="9.14" height="21.6"/><path d="M401.79,271.27h-9.13a.54.54,0,0,1-.55-.54V249.12a.54.54,0,0,1,.55-.54h9.13a.54.54,0,0,1,.55.54v21.61A.54.54,0,0,1,401.79,271.27Zm-8.59-1.09h8V249.67h-8Z" transform="translate(-23.27 -13.96)"/><rect class="cls-1" x="378.52" y="224.74" width="9.14" height="10.43"/><path d="M410.93,249.67h-9.14a.55.55,0,0,1-.55-.55V238.69a.55.55,0,0,1,.55-.54h9.14a.55.55,0,0,1,.55.54v10.43A.55.55,0,0,1,410.93,249.67Zm-8.59-1.09h8v-9.34h-8Z" transform="translate(-23.27 -13.96)"/><rect class="cls-1" x="369.39" y="224.74" width="9.14" height="10.43"/><path d="M401.79,249.67h-9.13a.54.54,0,0,1-.55-.55V238.69a.54.54,0,0,1,.55-.54h9.13a.54.54,0,0,1,.55.54v10.43A.54.54,0,0,1,401.79,249.67Zm-8.59-1.09h8v-9.34h-8Z" transform="translate(-23.27 -13.96)"/><polygon class="cls-2" points="308.81 215.07 313.11 208.63 443 208.63 447.57 214 308.81 215.07"/><path d="M332.08,229.58a.55.55,0,0,1-.46-.85l4.3-6.45a.55.55,0,0,1,.46-.24H466.27a.53.53,0,0,1,.41.19l4.57,5.37a.55.55,0,0,1,.08.59.57.57,0,0,1-.49.32l-138.76,1.07Zm4.59-6.45-3.56,5.35,136.55-1.06L466,223.13Z" transform="translate(-23.27 -13.96)"/><rect x="308.81" y="269.65" width="138.76" height="8.11"/><path d="M470.83,292.28H332.08a.55.55,0,0,1-.55-.55v-8.12a.55.55,0,0,1,.55-.55H470.83a.55.55,0,0,1,.55.55v8.12A.55.55,0,0,1,470.83,292.28Zm-138.2-1.1H470.29v-7H332.63Z" transform="translate(-23.27 -13.96)"/><rect class="cls-2" x="585.11" y="214.8" width="86" height="59.07"/><path d="M694.38,288.37h-86a.55.55,0,0,1-.55-.54V228.76a.55.55,0,0,1,.55-.55h86a.54.54,0,0,1,.54.55v59.07A.54.54,0,0,1,694.38,288.37Zm-85.45-1.09h84.9v-58h-84.9Z" transform="translate(-23.27 -13.96)"/><polygon points="581.35 214.8 589.8 204.05 666.42 204.05 674.87 214.8 581.35 214.8"/><path d="M698.14,229.3H604.62a.55.55,0,0,1-.49-.3.53.53,0,0,1,.06-.58l8.45-10.75a.52.52,0,0,1,.43-.21h76.62a.52.52,0,0,1,.43.21l8.45,10.75a.54.54,0,0,1-.43.88Zm-92.39-1.09H697l-7.59-9.66H613.33Z" transform="translate(-23.27 -13.96)"/><rect class="cls-2" x="621.93" y="240.27" width="6.45" height="9.78"/><path d="M651.65,264.55H645.2a.54.54,0,0,1-.55-.55v-9.78a.55.55,0,0,1,.55-.55h6.45a.55.55,0,0,1,.54.55V264A.54.54,0,0,1,651.65,264.55Zm-5.9-1.1h5.35v-8.68h-5.35Z" transform="translate(-23.27 -13.96)"/><rect class="cls-2" x="628.38" y="240.27" width="6.45" height="9.78"/><path d="M658.1,264.55h-6.45a.54.54,0,0,1-.55-.55v-9.78a.55.55,0,0,1,.55-.55h6.45a.55.55,0,0,1,.54.55V264A.54.54,0,0,1,658.1,264.55Zm-5.91-1.1h5.36v-8.68h-5.36Z" transform="translate(-23.27 -13.96)"/><rect class="cls-2" x="621.93" y="230.59" width="6.45" height="9.78"/><path d="M651.65,254.88H645.2a.55.55,0,0,1-.55-.55v-9.78a.55.55,0,0,1,.55-.55h6.45a.55.55,0,0,1,.54.55v9.78A.55.55,0,0,1,651.65,254.88Zm-5.9-1.1h5.35V245.1h-5.35Z" transform="translate(-23.27 -13.96)"/><rect class="cls-2" x="628.38" y="230.59" width="6.45" height="9.78"/><path d="M658.1,254.88h-6.45a.55.55,0,0,1-.55-.55v-9.78a.55.55,0,0,1,.55-.55h6.45a.55.55,0,0,1,.54.55v9.78A.55.55,0,0,1,658.1,254.88Zm-5.91-1.1h5.36V245.1h-5.36Z" transform="translate(-23.27 -13.96)"/><rect class="cls-2" x="646.38" y="240.27" width="6.45" height="9.78"/><path d="M676.1,264.55h-6.45a.55.55,0,0,1-.55-.55v-9.78a.55.55,0,0,1,.55-.55h6.45a.55.55,0,0,1,.55.55V264A.55.55,0,0,1,676.1,264.55Zm-5.9-1.1h5.35v-8.68H670.2Z" transform="translate(-23.27 -13.96)"/><rect class="cls-2" x="652.83" y="240.27" width="6.45" height="9.78"/><path d="M682.55,264.55H676.1a.55.55,0,0,1-.55-.55v-9.78a.55.55,0,0,1,.55-.55h6.45a.55.55,0,0,1,.55.55V264A.55.55,0,0,1,682.55,264.55Zm-5.9-1.1H682v-8.68h-5.35Z" transform="translate(-23.27 -13.96)"/><rect class="cls-2" x="646.38" y="230.59" width="6.45" height="9.78"/><path d="M676.1,254.88h-6.45a.55.55,0,0,1-.55-.55v-9.78a.55.55,0,0,1,.55-.55h6.45a.55.55,0,0,1,.55.55v9.78A.55.55,0,0,1,676.1,254.88Zm-5.9-1.1h5.35V245.1H670.2Z" transform="translate(-23.27 -13.96)"/><rect class="cls-2" x="652.83" y="230.59" width="6.45" height="9.78"/><path d="M682.55,254.88H676.1a.55.55,0,0,1-.55-.55v-9.78a.55.55,0,0,1,.55-.55h6.45a.55.55,0,0,1,.55.55v9.78A.55.55,0,0,1,682.55,254.88Zm-5.9-1.1H682V245.1h-5.35Z" transform="translate(-23.27 -13.96)"/><rect class="cls-2" x="597.56" y="240.27" width="6.45" height="9.78"/><path d="M627.28,264.55h-6.45a.55.55,0,0,1-.55-.55v-9.78a.55.55,0,0,1,.55-.55h6.45a.55.55,0,0,1,.55.55V264A.55.55,0,0,1,627.28,264.55Zm-5.9-1.1h5.35v-8.68h-5.35Z" transform="translate(-23.27 -13.96)"/><rect class="cls-2" x="604.01" y="240.27" width="6.45" height="9.78"/><path d="M633.73,264.55h-6.45a.55.55,0,0,1-.55-.55v-9.78a.55.55,0,0,1,.55-.55h6.45a.55.55,0,0,1,.55.55V264A.55.55,0,0,1,633.73,264.55Zm-5.9-1.1h5.35v-8.68h-5.35Z" transform="translate(-23.27 -13.96)"/><rect class="cls-2" x="597.56" y="230.59" width="6.45" height="9.78"/><path d="M627.28,254.88h-6.45a.55.55,0,0,1-.55-.55v-9.78a.55.55,0,0,1,.55-.55h6.45a.55.55,0,0,1,.55.55v9.78A.55.55,0,0,1,627.28,254.88Zm-5.9-1.1h5.35V245.1h-5.35Z" transform="translate(-23.27 -13.96)"/><rect class="cls-2" x="604.01" y="230.59" width="6.45" height="9.78"/><path d="M633.73,254.88h-6.45a.55.55,0,0,1-.55-.55v-9.78a.55.55,0,0,1,.55-.55h6.45a.55.55,0,0,1,.55.55v9.78A.55.55,0,0,1,633.73,254.88Zm-5.9-1.1h5.35V245.1h-5.35Z" transform="translate(-23.27 -13.96)"/><rect class="cls-1" x="582.35" y="271" width="91.22" height="6.77"/><path d="M696.83,292.28H605.62a.55.55,0,0,1-.55-.55V285a.55.55,0,0,1,.55-.55h91.21a.55.55,0,0,1,.55.55v6.77A.55.55,0,0,1,696.83,292.28Zm-90.67-1.1h90.12v-5.67H606.16Z" transform="translate(-23.27 -13.96)"/><rect x="258.84" y="100.89" width="17.08" height="7.74"/><path d="M299.19,123.13H282.11a.54.54,0,0,1-.55-.54v-7.74a.55.55,0,0,1,.55-.55h17.08a.55.55,0,0,1,.55.55v7.74A.55.55,0,0,1,299.19,123.13ZM282.66,122h16V115.4h-16Z" transform="translate(-23.27 -13.96)"/><polygon class="cls-2" points="186.22 277.77 186.22 186.01 225.68 156.92 265.14 186.01 265.14 277.77 186.22 277.77"/><path d="M288.41,292.28H209.49a.55.55,0,0,1-.55-.55V200a.56.56,0,0,1,.22-.44l39.46-29.09a.56.56,0,0,1,.65,0l39.46,29.09a.56.56,0,0,1,.22.44v91.76A.55.55,0,0,1,288.41,292.28ZM210,291.18h77.83V200.25L249,171.56,210,200.25Z" transform="translate(-23.27 -13.96)"/><rect x="224.07" y="213.05" width="10.38" height="7.62" transform="translate(422.85 -26.35) rotate(90)"/><path class="cls-2" d="M233.07,222.6h-7.63a.54.54,0,0,1-.54-.55V211.67a.54.54,0,0,1,.54-.54h7.63a.54.54,0,0,1,.54.54v10.38A.54.54,0,0,1,233.07,222.6ZM226,221.51h6.53v-9.29H226Z" transform="translate(-23.27 -13.96)"/><rect x="224.07" y="223.43" width="10.38" height="7.62" transform="translate(433.23 -15.97) rotate(90)"/><path class="cls-2" d="M233.07,233h-7.63a.55.55,0,0,1-.54-.55V222.05a.54.54,0,0,1,.54-.54h7.63a.54.54,0,0,1,.54.54v10.38A.55.55,0,0,1,233.07,233Zm-7.08-1.1h6.53V222.6H226Z" transform="translate(-23.27 -13.96)"/><rect x="231.61" y="213.05" width="10.38" height="7.62" transform="translate(430.39 -33.89) rotate(90)"/><path class="cls-2" d="M240.61,222.6H233a.54.54,0,0,1-.54-.55V211.67a.54.54,0,0,1,.54-.54h7.63a.54.54,0,0,1,.54.54v10.38A.54.54,0,0,1,240.61,222.6Zm-7.08-1.09h6.53v-9.29h-6.53Z" transform="translate(-23.27 -13.96)"/><rect x="231.61" y="223.43" width="10.38" height="7.62" transform="translate(440.77 -23.51) rotate(90)"/><path class="cls-2" d="M240.61,233H233a.55.55,0,0,1-.54-.55V222.05a.54.54,0,0,1,.54-.54h7.63a.54.54,0,0,1,.54.54v10.38A.55.55,0,0,1,240.61,233Zm-7.08-1.1h6.53V222.6h-6.53Z" transform="translate(-23.27 -13.96)"/><rect x="255.91" y="213.05" width="10.38" height="7.62" transform="translate(454.69 -58.19) rotate(90)"/><path class="cls-2" d="M264.91,222.6h-7.62a.54.54,0,0,1-.55-.55V211.67a.54.54,0,0,1,.55-.54h7.62a.55.55,0,0,1,.55.54v10.38A.55.55,0,0,1,264.91,222.6Zm-7.08-1.09h6.53v-9.29h-6.53Z" transform="translate(-23.27 -13.96)"/><rect x="255.91" y="223.43" width="10.38" height="7.62" transform="translate(465.08 -47.81) rotate(90)"/><path class="cls-2" d="M264.91,233h-7.62a.55.55,0,0,1-.55-.55V222.05a.54.54,0,0,1,.55-.54h7.62a.55.55,0,0,1,.55.54v10.38A.55.55,0,0,1,264.91,233Zm-7.08-1.1h6.53V222.6h-6.53Z" transform="translate(-23.27 -13.96)"/><rect x="263.45" y="213.05" width="10.38" height="7.62" transform="translate(462.23 -65.73) rotate(90)"/><path class="cls-2" d="M272.45,222.6h-7.62a.54.54,0,0,1-.55-.55V211.67a.54.54,0,0,1,.55-.54h7.62a.55.55,0,0,1,.55.54v10.38A.55.55,0,0,1,272.45,222.6Zm-7.08-1.09h6.53v-9.29h-6.53Z" transform="translate(-23.27 -13.96)"/><rect x="263.45" y="223.43" width="10.38" height="7.62" transform="translate(472.61 -55.35) rotate(90)"/><path class="cls-2" d="M272.45,233h-7.62a.55.55,0,0,1-.55-.55V222.05a.54.54,0,0,1,.55-.54h7.62a.55.55,0,0,1,.55.54v10.38A.55.55,0,0,1,272.45,233Zm-7.08-1.1h6.53V222.6h-6.53Z" transform="translate(-23.27 -13.96)"/><rect x="224.06" y="246.46" width="10.38" height="7.62" transform="translate(456.26 7.06) rotate(90)"/><path class="cls-2" d="M233.07,256h-7.63a.55.55,0,0,1-.54-.55V245.08a.55.55,0,0,1,.54-.55h7.63a.55.55,0,0,1,.54.55v10.38A.55.55,0,0,1,233.07,256Zm-7.08-1.1h6.53v-9.28H226Z" transform="translate(-23.27 -13.96)"/><rect x="224.06" y="256.84" width="10.38" height="7.62" transform="translate(466.63 17.44) rotate(90)"/><path class="cls-2" d="M233.07,266.38h-7.63a.54.54,0,0,1-.54-.54V255.46a.54.54,0,0,1,.54-.55h7.63a.54.54,0,0,1,.54.55v10.38A.54.54,0,0,1,233.07,266.38ZM226,265.29h6.53V256H226Z" transform="translate(-23.27 -13.96)"/><rect x="231.61" y="246.46" width="10.38" height="7.62" transform="translate(463.8 -0.48) rotate(90)"/><path class="cls-2" d="M240.61,256H233a.55.55,0,0,1-.54-.55V245.08a.55.55,0,0,1,.54-.55h7.63a.55.55,0,0,1,.54.55v10.38a.55.55,0,0,1-.54.55Zm-7.08-1.1h6.53v-9.28h-6.53Z" transform="translate(-23.27 -13.96)"/><rect x="231.61" y="256.84" width="10.38" height="7.62" transform="translate(474.17 9.89) rotate(90)"/><path class="cls-2" d="M240.61,266.38H233a.54.54,0,0,1-.54-.54V255.46a.51.51,0,0,1,.16-.39.55.55,0,0,1,.38-.16h7.63a.55.55,0,0,1,.54.55v10.38A.54.54,0,0,1,240.61,266.38Zm-7.08-1.09h6.53V256h-6.53Z" transform="translate(-23.27 -13.96)"/><rect x="255.91" y="246.46" width="10.38" height="7.62" transform="translate(488.1 -24.79) rotate(90)"/><path class="cls-2" d="M264.91,256h-7.62a.55.55,0,0,1-.55-.55V245.08a.55.55,0,0,1,.55-.55h7.62a.55.55,0,0,1,.55.55v10.38A.55.55,0,0,1,264.91,256Zm-7.08-1.1h6.53v-9.28h-6.53Z" transform="translate(-23.27 -13.96)"/><rect x="255.91" y="256.84" width="10.38" height="7.62" transform="translate(498.48 -14.41) rotate(90)"/><path class="cls-2" d="M264.91,266.38h-7.62a.54.54,0,0,1-.55-.54V255.46a.54.54,0,0,1,.55-.55h7.62a.55.55,0,0,1,.55.55v10.38A.55.55,0,0,1,264.91,266.38Zm-7.08-1.09h6.53V256h-6.53Z" transform="translate(-23.27 -13.96)"/><rect x="263.45" y="246.46" width="10.38" height="7.62" transform="translate(495.64 -32.33) rotate(90)"/><path class="cls-2" d="M272.45,256h-7.62a.55.55,0,0,1-.55-.55V245.08a.55.55,0,0,1,.55-.55h7.62a.55.55,0,0,1,.55.55v10.38a.55.55,0,0,1-.55.55Zm-7.08-1.1h6.53v-9.28h-6.53Z" transform="translate(-23.27 -13.96)"/><rect x="263.45" y="256.84" width="10.38" height="7.62" transform="translate(506.02 -21.95) rotate(90)"/><path class="cls-2" d="M272.45,266.38h-7.62a.54.54,0,0,1-.55-.54V255.46a.55.55,0,0,1,.55-.55h7.62a.55.55,0,0,1,.55.55v10.38A.55.55,0,0,1,272.45,266.38Zm-7.08-1.09h6.53V256h-6.53Z" transform="translate(-23.27 -13.96)"/><rect class="cls-1" x="184.5" y="269.82" width="82.35" height="7.95"/><path d="M290.12,292.28H207.77a.55.55,0,0,1-.55-.55v-8a.55.55,0,0,1,.55-.55h82.35a.55.55,0,0,1,.55.55v8A.55.55,0,0,1,290.12,292.28Zm-81.8-1.1h81.25v-6.86H208.32Z" transform="translate(-23.27 -13.96)"/><polygon class="cls-2" points="225.68 151.52 177.39 189.42 273.97 189.42 225.68 151.52"/><path d="M297.23,203.92H200.66a.55.55,0,0,1-.34-1l48.29-37.89a.53.53,0,0,1,.67,0l48.29,37.89a.55.55,0,0,1-.34,1Zm-95-1.09h93.41L249,166.17Z" transform="translate(-23.27 -13.96)"/><path class="cls-1" d="M342.48,76.81c-3.23-.06-6.26,2-8.3,4.46a17.69,17.69,0,0,0-3.58,8.88,10.09,10.09,0,0,0,0,3.51,8.27,8.27,0,0,0,1.78,3.39,12.71,12.71,0,0,0,15.1,2.86,14.25,14.25,0,0,0,7.32-13.8,10.15,10.15,0,0,0-1.28-4.26C351.61,78.58,347.58,76.89,342.48,76.81Z" transform="translate(-23.27 -13.96)"/><path d="M222.4,166h0a20.85,20.85,0,0,1-4.45-.63.54.54,0,0,1-.39-.67.54.54,0,0,1,.66-.39,19.88,19.88,0,0,0,4.22.6.55.55,0,0,1,0,1.09Zm4.36-.32a.54.54,0,0,1-.1-1.08,20,20,0,0,0,4.08-1.22.56.56,0,0,1,.72.3.53.53,0,0,1-.29.71,20.54,20.54,0,0,1-4.31,1.29ZM214,163.86a.53.53,0,0,1-.25-.05,20.83,20.83,0,0,1-3.77-2.45.54.54,0,0,1-.08-.77.55.55,0,0,1,.77-.08,19.86,19.86,0,0,0,3.57,2.32.54.54,0,0,1,.25.73A.55.55,0,0,1,214,163.86Zm20.81-1.53a.56.56,0,0,1-.45-.23.57.57,0,0,1,.13-.77,19.89,19.89,0,0,0,3.2-2.81.55.55,0,0,1,.81.74,20.67,20.67,0,0,1-3.37,3A.55.55,0,0,1,234.78,162.33Zm-27.57-4a.51.51,0,0,1-.42-.21,20.26,20.26,0,0,1-2.41-3.79.54.54,0,0,1,.24-.73.56.56,0,0,1,.74.25,19.81,19.81,0,0,0,2.28,3.59.55.55,0,0,1-.08.77A.59.59,0,0,1,207.21,158.38Zm33.45-2.46a.53.53,0,0,1-.27-.08.54.54,0,0,1-.2-.75,19.63,19.63,0,0,0,1.73-3.89.55.55,0,0,1,.69-.35.54.54,0,0,1,.35.69,19.82,19.82,0,0,1-1.83,4.1A.53.53,0,0,1,240.66,155.92Zm-37.29-5.34a.56.56,0,0,1-.54-.42,21.37,21.37,0,0,1-.59-4.45.6.6,0,0,1,.06-.27.64.64,0,0,1-.07-.28,20.79,20.79,0,0,1,.48-4.46.55.55,0,1,1,1.07.23,20,20,0,0,0-.45,4.23.53.53,0,0,1-.07.26.59.59,0,0,1,.07.26,19.85,19.85,0,0,0,.57,4.22.54.54,0,0,1-.4.66A.32.32,0,0,1,203.37,150.58Zm39.95-3h0a.56.56,0,0,1-.5-.6c.06-.61.09-1.24.09-1.87a20.83,20.83,0,0,0-.14-2.38.55.55,0,0,1,1.09-.14,23.51,23.51,0,0,1,.15,2.52c0,.66,0,1.32-.1,2A.54.54,0,0,1,243.32,147.63Zm-1-8.63a.56.56,0,0,1-.52-.37,19,19,0,0,0-1.83-3.84.55.55,0,0,1,.18-.76.54.54,0,0,1,.75.18,21,21,0,0,1,1.94,4.06.55.55,0,0,1-.34.7A.57.57,0,0,1,242.27,139Zm-37.63-1.79a.46.46,0,0,1-.23-.05.54.54,0,0,1-.27-.73,21.24,21.24,0,0,1,2.31-3.85.55.55,0,0,1,.77-.11.55.55,0,0,1,.1.77,20.53,20.53,0,0,0-2.19,3.65A.54.54,0,0,1,204.64,137.21Zm33.06-5.61a.56.56,0,0,1-.39-.17A20.33,20.33,0,0,0,234,128.7a.55.55,0,0,1,.61-.91,21.52,21.52,0,0,1,3.45,2.88.54.54,0,0,1,0,.77A.55.55,0,0,1,237.7,131.6Zm-27.81-1.33a.54.54,0,0,1-.42-.19.54.54,0,0,1,.06-.77,20.83,20.83,0,0,1,3.71-2.54.55.55,0,0,1,.74.22.56.56,0,0,1-.23.75,20,20,0,0,0-3.51,2.4A.53.53,0,0,1,209.89,130.27Zm20.57-3.5a.69.69,0,0,1-.2,0,19.35,19.35,0,0,0-4.11-1.11.55.55,0,1,1,.17-1.08,21.07,21.07,0,0,1,4.34,1.16.55.55,0,0,1,.31.71A.54.54,0,0,1,230.46,126.77Zm-12.91-.61a.56.56,0,0,1-.53-.4.54.54,0,0,1,.38-.67,20.73,20.73,0,0,1,4.43-.75.55.55,0,1,1,.07,1.09,20.38,20.38,0,0,0-4.2.71Z" transform="translate(-23.27 -13.96)"/><path d="M402,155.1a9.93,9.93,0,0,1-4.06-.86.54.54,0,0,1-.27-.73.54.54,0,0,1,.72-.27,8.93,8.93,0,0,0,4,.76.53.53,0,0,1,.57.52.55.55,0,0,1-.52.57Zm4.61-1.2a.55.55,0,0,1-.27-1,8.69,8.69,0,0,0,3-2.78.56.56,0,0,1,.77-.14.54.54,0,0,1,.14.76,10.07,10.07,0,0,1-3.37,3.12A.68.68,0,0,1,406.65,153.9Zm-11.89-2.26a.57.57,0,0,1-.43-.2,9.92,9.92,0,0,1-2-4.14.54.54,0,0,1,.42-.65.54.54,0,0,1,.65.42,9,9,0,0,0,1.78,3.68.54.54,0,0,1-.42.89Zm16.6-4.76h-.07a.54.54,0,0,1-.47-.61,10.34,10.34,0,0,0,.07-1.11,8.73,8.73,0,0,0-.51-3,.54.54,0,0,1,.33-.7.55.55,0,0,1,.7.33,9.92,9.92,0,0,1,.57,3.33,10.19,10.19,0,0,1-.07,1.24A.55.55,0,0,1,411.36,146.88Zm-18.71-1.17a.55.55,0,0,1-.55-.55,9.87,9.87,0,0,1,1.06-4.47.55.55,0,0,1,.74-.24.54.54,0,0,1,.24.73,8.83,8.83,0,0,0-.94,4A.55.55,0,0,1,392.65,145.71Zm15.88-6.79a.55.55,0,0,1-.38-.15,8.84,8.84,0,0,0-3.53-2.07.55.55,0,0,1,.32-1,10,10,0,0,1,4,2.32.56.56,0,0,1,0,.78A.58.58,0,0,1,408.53,138.92Zm-12.08-.76a.53.53,0,0,1-.44-.22.55.55,0,0,1,.12-.77,10.06,10.06,0,0,1,4.22-1.81.55.55,0,1,1,.19,1.09,8.86,8.86,0,0,0-3.76,1.6A.51.51,0,0,1,396.45,138.16Z" transform="translate(-23.27 -13.96)"/><path d="M37,231.91A9.78,9.78,0,0,1,33,231a.55.55,0,0,1,.45-1,8.8,8.8,0,0,0,3.61.77h.41a.55.55,0,0,1,0,1.1Zm4.61-1.21a.55.55,0,0,1-.48-.28.54.54,0,0,1,.21-.74,9,9,0,0,0,3-2.78.55.55,0,0,1,.76-.15.56.56,0,0,1,.15.76,10.1,10.1,0,0,1-3.38,3.12A.54.54,0,0,1,41.65,230.7Zm-11.89-2.25a.51.51,0,0,1-.42-.21,9.94,9.94,0,0,1-2-4.14.55.55,0,0,1,1.08-.23,8.71,8.71,0,0,0,1.78,3.68.55.55,0,0,1-.08.77A.53.53,0,0,1,29.76,228.45Zm16.6-4.76H46.3a.55.55,0,0,1-.48-.61,8,8,0,0,0,.07-1.1,8.79,8.79,0,0,0-.51-3,.55.55,0,0,1,.33-.7.55.55,0,0,1,.7.34A9.83,9.83,0,0,1,47,222a10.31,10.31,0,0,1-.07,1.24A.56.56,0,0,1,46.36,223.69Zm-18.71-1.17a.55.55,0,0,1-.55-.55,9.91,9.91,0,0,1,1.06-4.48.56.56,0,0,1,.74-.24.55.55,0,0,1,.24.74,8.83,8.83,0,0,0-.94,4A.55.55,0,0,1,27.65,222.52Zm15.88-6.8a.57.57,0,0,1-.38-.15,8.89,8.89,0,0,0-3.53-2.07.54.54,0,1,1,.32-1,10,10,0,0,1,4,2.32.54.54,0,0,1,0,.77A.52.52,0,0,1,43.53,215.72ZM31.45,215a.57.57,0,0,1-.44-.22.55.55,0,0,1,.12-.77,9.94,9.94,0,0,1,4.22-1.81.56.56,0,0,1,.64.45.55.55,0,0,1-.45.63,8.88,8.88,0,0,0-3.76,1.61A.57.57,0,0,1,31.45,215Z" transform="translate(-23.27 -13.96)"/><path d="M877.45,269.79a9.94,9.94,0,0,1-4.07-.86.55.55,0,0,1-.27-.73.54.54,0,0,1,.72-.27,8.81,8.81,0,0,0,3.62.77h.4a.55.55,0,0,1,.57.52.54.54,0,0,1-.52.57Zm4.6-1.2a.55.55,0,0,1-.48-.28.56.56,0,0,1,.21-.75,8.81,8.81,0,0,0,3-2.78.55.55,0,0,1,.91.62,10.1,10.1,0,0,1-3.38,3.12A.52.52,0,0,1,882.05,268.59Zm-11.89-2.26a.53.53,0,0,1-.42-.2,9.92,9.92,0,0,1-2-4.14.54.54,0,0,1,.41-.65.55.55,0,0,1,.66.42,8.89,8.89,0,0,0,1.78,3.68.55.55,0,0,1-.08.77A.57.57,0,0,1,870.16,266.33Zm16.61-4.76h-.07a.55.55,0,0,1-.48-.61,8.27,8.27,0,0,0,.07-1.11,8.78,8.78,0,0,0-.51-3,.55.55,0,0,1,1-.37,9.93,9.93,0,0,1,.58,3.33,10.19,10.19,0,0,1-.08,1.24A.55.55,0,0,1,886.77,261.57Zm-18.72-1.17a.55.55,0,0,1-.55-.55,9.75,9.75,0,0,1,1.07-4.47.54.54,0,1,1,1,.49,8.83,8.83,0,0,0-.94,4A.54.54,0,0,1,868.05,260.4Zm15.88-6.79a.57.57,0,0,1-.38-.15,8.71,8.71,0,0,0-3.53-2.07.54.54,0,0,1-.36-.68.55.55,0,0,1,.68-.37,10,10,0,0,1,4,2.32.55.55,0,0,1,0,.78A.56.56,0,0,1,883.93,253.61Zm-12.07-.76a.55.55,0,0,1-.45-.22.56.56,0,0,1,.12-.77,9.91,9.91,0,0,1,4.23-1.8.55.55,0,0,1,.63.44.56.56,0,0,1-.45.64,8.86,8.86,0,0,0-3.76,1.6A.5.5,0,0,1,871.86,252.85Z" transform="translate(-23.27 -13.96)"/><path d="M628.8,118.44h-.27a.56.56,0,0,1-.54-.56.55.55,0,0,1,.55-.54h.26a18.94,18.94,0,0,0,4-.42A.55.55,0,0,1,633,118,19.81,19.81,0,0,1,628.8,118.44Zm-4.6-.55-.13,0a19.75,19.75,0,0,1-4.22-1.54.56.56,0,0,1-.25-.74.55.55,0,0,1,.74-.24,19.46,19.46,0,0,0,4,1.46.55.55,0,0,1-.13,1.08ZM637,116.61a.54.54,0,0,1-.23-1,19.21,19.21,0,0,0,3.62-2.22.55.55,0,0,1,.77.09.54.54,0,0,1-.1.77,19.3,19.3,0,0,1-3.83,2.35A.46.46,0,0,1,637,116.61ZM616.42,114a.5.5,0,0,1-.34-.13,19.93,19.93,0,0,1-3.13-3.23.53.53,0,0,1,.1-.76.54.54,0,0,1,.77.09,19,19,0,0,0,2.95,3.06.54.54,0,0,1,.08.77A.57.57,0,0,1,616.42,114Zm27.47-2.73a.54.54,0,0,1-.42-.89,19,19,0,0,0,2.3-3.58.55.55,0,0,1,1,.49,20.33,20.33,0,0,1-2.44,3.78A.57.57,0,0,1,643.89,111.27Zm-32.78-4.15a.54.54,0,0,1-.49-.32,20,20,0,0,1-1.42-4.27.55.55,0,0,1,.43-.65.56.56,0,0,1,.65.43,19.23,19.23,0,0,0,1.33,4,.54.54,0,0,1-.27.73A.59.59,0,0,1,611.11,107.12Zm36.64-3.64-.13,0a.54.54,0,0,1-.4-.66,18.6,18.6,0,0,0,.51-4.22.55.55,0,0,1,.55-.54h0a.55.55,0,0,1,.55.55,20.33,20.33,0,0,1-.55,4.47A.54.54,0,0,1,647.75,103.48ZM609.33,99a.55.55,0,0,1-.55-.55,20.35,20.35,0,0,1,.5-4.47.55.55,0,0,1,1.07.25,18.7,18.7,0,0,0-.47,4.22A.55.55,0,0,1,609.33,99Zm38.5-4.17a.56.56,0,0,1-.54-.44,18.52,18.52,0,0,0-1.37-4,.55.55,0,1,1,1-.47,19.47,19.47,0,0,1,1.45,4.26.54.54,0,0,1-.41.65Zm-36.57-4.3a.53.53,0,0,1-.24-.06.55.55,0,0,1-.25-.73,19.79,19.79,0,0,1,2.4-3.8.55.55,0,0,1,.86.68,18.5,18.5,0,0,0-2.27,3.6A.57.57,0,0,1,611.26,90.49Zm32.86-3.56a.52.52,0,0,1-.43-.21,19,19,0,0,0-3-3,.54.54,0,0,1-.08-.77.55.55,0,0,1,.77-.08,19.93,19.93,0,0,1,3.16,3.2.56.56,0,0,1-.09.77A.54.54,0,0,1,644.12,86.93ZM616.7,83.7a.55.55,0,0,1-.34-1,20.6,20.6,0,0,1,3.81-2.38.55.55,0,1,1,.47,1,19.21,19.21,0,0,0-3.6,2.25A.54.54,0,0,1,616.7,83.7Zm20.66-2.24a.5.5,0,0,1-.24-.06,19.14,19.14,0,0,0-4-1.42.55.55,0,0,1,.25-1.07,20,20,0,0,1,4.24,1.51.55.55,0,0,1-.24,1ZM624.54,80a.53.53,0,0,1-.53-.43.55.55,0,0,1,.41-.65,20.13,20.13,0,0,1,4.38-.48h.09a.55.55,0,0,1,.55.55.55.55,0,0,1-.55.55h-.09a19.16,19.16,0,0,0-4.14.45Z" transform="translate(-23.27 -13.96)"/><path d="M491.7,351.67h-.27a.55.55,0,0,1-.54-.56.56.56,0,0,1,.56-.54h.25a19.63,19.63,0,0,0,4-.42.54.54,0,0,1,.65.42.56.56,0,0,1-.42.65A20.47,20.47,0,0,1,491.7,351.67Zm-4.6-.55H487a19.78,19.78,0,0,1-4.22-1.55.54.54,0,0,1-.25-.73.56.56,0,0,1,.74-.25,18.36,18.36,0,0,0,4,1.46.56.56,0,0,1,.4.67A.54.54,0,0,1,487.1,351.12Zm12.84-1.27a.56.56,0,0,1-.5-.32.55.55,0,0,1,.27-.73,18.71,18.71,0,0,0,3.62-2.22.55.55,0,0,1,.67.87,20.29,20.29,0,0,1-3.83,2.35A.59.59,0,0,1,499.94,349.85Zm-20.62-2.62a.54.54,0,0,1-.34-.12,19.92,19.92,0,0,1-3.13-3.23.55.55,0,1,1,.86-.67,19.41,19.41,0,0,0,3,3.05.54.54,0,0,1,.08.77A.53.53,0,0,1,479.32,347.23Zm27.47-2.72a.5.5,0,0,1-.34-.13.54.54,0,0,1-.08-.77,18.9,18.9,0,0,0,2.3-3.57.56.56,0,0,1,.74-.25.55.55,0,0,1,.25.73,20,20,0,0,1-2.44,3.78A.54.54,0,0,1,506.79,344.51ZM474,340.35a.55.55,0,0,1-.5-.32,20,20,0,0,1-1.41-4.27.54.54,0,0,1,.43-.64.54.54,0,0,1,.64.42,18.6,18.6,0,0,0,1.34,4,.53.53,0,0,1-.27.72A.46.46,0,0,1,474,340.35Zm36.64-3.64h-.13a.55.55,0,0,1-.4-.66,19.33,19.33,0,0,0,.51-4.22.55.55,0,0,1,.55-.54h0a.54.54,0,0,1,.54.55,19.58,19.58,0,0,1-.54,4.46A.54.54,0,0,1,510.65,336.71Zm-38.42-4.51a.55.55,0,0,1-.55-.55,20.28,20.28,0,0,1,.5-4.47.55.55,0,0,1,1.07.24,18.73,18.73,0,0,0-.48,4.23A.55.55,0,0,1,472.23,332.2Zm38.5-4.18a.55.55,0,0,1-.54-.43,18.34,18.34,0,0,0-1.37-4,.55.55,0,0,1,.26-.73.54.54,0,0,1,.73.26,19.47,19.47,0,0,1,1.45,4.26.55.55,0,0,1-.41.65Zm-36.57-4.3a.69.69,0,0,1-.24-.05.56.56,0,0,1-.25-.74,20.1,20.1,0,0,1,2.4-3.8.55.55,0,0,1,.77-.08.54.54,0,0,1,.09.77,18.73,18.73,0,0,0-2.27,3.59A.55.55,0,0,1,474.16,323.72ZM507,320.16a.52.52,0,0,1-.43-.21,19.41,19.41,0,0,0-3-3,.55.55,0,0,1,.69-.86,20.41,20.41,0,0,1,3.16,3.21.56.56,0,0,1-.1.77A.59.59,0,0,1,507,320.16Zm-27.42-3.22a.55.55,0,0,1-.34-1,19.59,19.59,0,0,1,3.81-2.38.54.54,0,1,1,.47,1,19.25,19.25,0,0,0-3.6,2.26A.54.54,0,0,1,479.6,316.94Zm20.66-2.24a.54.54,0,0,1-.25-.06,18.35,18.35,0,0,0-4-1.43.54.54,0,0,1-.41-.65.54.54,0,0,1,.66-.41,20,20,0,0,1,4.24,1.5.55.55,0,0,1-.24,1.05Zm-12.82-1.51a.55.55,0,0,1-.53-.43.54.54,0,0,1,.41-.65,20.07,20.07,0,0,1,4.38-.49h.09a.56.56,0,0,1,.55.56.55.55,0,0,1-.55.54h-.09a18.5,18.5,0,0,0-4.14.46Z" transform="translate(-23.27 -13.96)"/><path d="M743,239.67H701.34a.55.55,0,0,1-.55-.55.54.54,0,0,1,.55-.55h41.08V127a.55.55,0,1,1,1.09,0V239.12A.55.55,0,0,1,743,239.67Z" transform="translate(-23.27 -13.96)"/><path d="M422.85,340h-83.3a.55.55,0,1,1,0-1.09h82.76V298.07a.55.55,0,1,1,1.09,0v41.34A.54.54,0,0,1,422.85,340Z" transform="translate(-23.27 -13.96)"/><rect x="715.86" y="220.78" width="7.67" height="7.67"/><path d="M746.8,243h-7.67a.54.54,0,0,1-.55-.54v-7.68a.55.55,0,0,1,.55-.55h7.67a.55.55,0,0,1,.55.55v7.68A.55.55,0,0,1,746.8,243Zm-7.13-1.09h6.58v-6.58h-6.58Z" transform="translate(-23.27 -13.96)"/><rect x="582.22" y="327.62" width="7.67" height="7.67"/><path d="M613.16,349.8h-7.67a.55.55,0,0,1-.55-.55v-7.67a.55.55,0,0,1,.55-.55h7.67a.55.55,0,0,1,.55.55v7.67A.54.54,0,0,1,613.16,349.8ZM606,348.71h6.58v-6.58H606Z" transform="translate(-23.27 -13.96)"/><rect x="395.75" y="321.61" width="7.67" height="7.67"/><path d="M426.69,343.79H419a.55.55,0,0,1-.55-.55v-7.67A.55.55,0,0,1,419,335h7.67a.55.55,0,0,1,.55.55v7.67A.55.55,0,0,1,426.69,343.79Zm-7.12-1.1h6.57v-6.57h-6.57Z" transform="translate(-23.27 -13.96)"/><rect x="134.34" y="203.03" width="7.67" height="7.67"/><path d="M165.28,225.2h-7.67a.55.55,0,0,1-.55-.54V217a.55.55,0,0,1,.55-.54h7.67a.54.54,0,0,1,.55.54v7.68A.54.54,0,0,1,165.28,225.2Zm-7.12-1.09h6.58v-6.58h-6.58Z" transform="translate(-23.27 -13.96)"/><rect x="837.47" y="341.31" width="7.67" height="7.67"/><path d="M868.41,363.49h-7.67a.55.55,0,0,1-.55-.55v-7.68a.55.55,0,0,1,.55-.54h7.67a.54.54,0,0,1,.55.54v7.68A.55.55,0,0,1,868.41,363.49Zm-7.12-1.1h6.57v-6.58h-6.57Z" transform="translate(-23.27 -13.96)"/><rect x="0.55" y="294.38" width="7.67" height="7.67"/><path d="M31.49,316.56H23.82a.55.55,0,0,1-.55-.55v-7.67a.54.54,0,0,1,.55-.55h7.67a.55.55,0,0,1,.55.55V316A.55.55,0,0,1,31.49,316.56Zm-7.13-1.1h6.58v-6.58H24.36Z" transform="translate(-23.27 -13.96)"/><rect x="640.33" y="17.73" width="7.67" height="7.67"/><path d="M671.27,39.9h-7.68a.54.54,0,0,1-.54-.54V31.68a.54.54,0,0,1,.54-.54h7.68a.54.54,0,0,1,.54.54v7.68A.54.54,0,0,1,671.27,39.9Zm-7.13-1.09h6.58V32.23h-6.58Z" transform="translate(-23.27 -13.96)"/><rect x="365.55" y="31.66" width="7.67" height="7.67"/><path d="M396.49,53.84h-7.68a.54.54,0,0,1-.54-.55V45.62a.55.55,0,0,1,.54-.55h7.68a.55.55,0,0,1,.54.55v7.67A.54.54,0,0,1,396.49,53.84Zm-7.13-1.1h6.58V46.17h-6.58Z" transform="translate(-23.27 -13.96)"/><path d="M819.32,350.35h-61.8a.55.55,0,0,1-.55-.55V270.66H702.89a.55.55,0,1,1,0-1.09h54.63a.54.54,0,0,1,.55.54v79.14h60.7V312a.55.55,0,1,1,1.09,0V349.8A.55.55,0,0,1,819.32,350.35Z" transform="translate(-23.27 -13.96)"/><path class="cls-2" d="M753.14,349.8a4.39,4.39,0,1,1,4.38,4.39A4.38,4.38,0,0,1,753.14,349.8Z" transform="translate(-23.27 -13.96)"/><path d="M757.52,354.73a4.93,4.93,0,1,1,4.94-4.93A4.93,4.93,0,0,1,757.52,354.73Zm0-8.76a3.84,3.84,0,1,0,3.84,3.83A3.84,3.84,0,0,0,757.52,346Z" transform="translate(-23.27 -13.96)"/><path class="cls-2" d="M224.86,381.11a4.38,4.38,0,1,1,4.38,4.38A4.38,4.38,0,0,1,224.86,381.11Z" transform="translate(-23.27 -13.96)"/><path d="M229.24,386a4.93,4.93,0,1,1,4.93-4.93A4.93,4.93,0,0,1,229.24,386Zm0-8.77a3.84,3.84,0,1,0,3.84,3.84A3.84,3.84,0,0,0,229.24,377.27Z" transform="translate(-23.27 -13.96)"/><circle class="cls-2" cx="229.49" cy="67.44" r="4.38"/><path d="M252.75,86.33a4.94,4.94,0,1,1,4.94-4.94A4.94,4.94,0,0,1,252.75,86.33Zm0-8.77a3.84,3.84,0,1,0,3.84,3.83A3.84,3.84,0,0,0,252.75,77.56Z" transform="translate(-23.27 -13.96)"/><path class="cls-2" d="M543.42,331.65A4.39,4.39,0,1,1,547.8,336,4.39,4.39,0,0,1,543.42,331.65Z" transform="translate(-23.27 -13.96)"/><path d="M547.8,336.58a4.93,4.93,0,1,1,4.93-4.93A4.93,4.93,0,0,1,547.8,336.58Zm0-8.77a3.84,3.84,0,1,0,3.84,3.84A3.84,3.84,0,0,0,547.8,327.81Z" transform="translate(-23.27 -13.96)"/><path class="cls-2" d="M569.19,45.83a4.39,4.39,0,1,1,4.38,4.38A4.38,4.38,0,0,1,569.19,45.83Z" transform="translate(-23.27 -13.96)"/><path d="M573.57,50.76a4.94,4.94,0,1,1,4.93-4.93A4.93,4.93,0,0,1,573.57,50.76Zm0-8.77a3.84,3.84,0,1,0,3.84,3.84A3.84,3.84,0,0,0,573.57,42Z" transform="translate(-23.27 -13.96)"/><path class="cls-2" d="M897.42,205.53a4.38,4.38,0,1,1,4.38,4.38A4.38,4.38,0,0,1,897.42,205.53Z" transform="translate(-23.27 -13.96)"/><path d="M901.8,210.46a4.93,4.93,0,1,1,4.93-4.93A4.93,4.93,0,0,1,901.8,210.46Zm0-8.77a3.84,3.84,0,1,0,3.84,3.84A3.84,3.84,0,0,0,901.8,201.69Z" transform="translate(-23.27 -13.96)"/><circle class="cls-2" cx="679.62" cy="151.52" r="7.4"/><path d="M702.89,173.42a7.95,7.95,0,1,1,7.94-7.94A7.95,7.95,0,0,1,702.89,173.42Zm0-14.79a6.85,6.85,0,1,0,6.85,6.85A6.85,6.85,0,0,0,702.89,158.63Z" transform="translate(-23.27 -13.96)"/><circle class="cls-2" cx="72.81" cy="53.29" r="7.4" transform="translate(-14.72 102.67) rotate(-80.78)"/><path d="M72.81,61.24a7.95,7.95,0,1,1,8-8A8,8,0,0,1,72.81,61.24Zm0-14.8a6.85,6.85,0,1,0,6.85,6.85A6.86,6.86,0,0,0,72.81,46.44Z" transform="translate(-23.27 -13.96)"/><path d="M461.25,85.18a.55.55,0,0,1-.55-.55V42.81a.55.55,0,1,1,1.09,0V84.63A.55.55,0,0,1,461.25,85.18Z" transform="translate(-23.27 -13.96)"/><path class="cls-2" d="M831.13,291.61c3.4-2.67,7.6-3.31,10.81-.37s3.64,9.17.43,12.11c-3.49,3.21-11.79,3.16-16.32,3.09-8.73-.14-17.61.26-26.34.26-16.37,0-14.59-13.37-10.23-16.22a5.8,5.8,0,0,1,6.93.54c-.82-5.63,2.82-11.61,7.84-12.9s10.68,2.3,12.19,7.75a7.76,7.76,0,0,1,9-2A10.88,10.88,0,0,1,831.13,291.61Z" transform="translate(-23.27 -13.96)"/><path d="M799.71,307.24c-9.75,0-12.57-4.6-13.39-7.34-1.19-4,.52-8.35,2.86-9.88a6.31,6.31,0,0,1,6.58-.15c-.23-5.55,3.39-11,8.36-12.28s10.63,2,12.57,7.24a8.22,8.22,0,0,1,9-1.5,11.12,11.12,0,0,1,5.77,7.35c3.78-2.61,7.88-2.57,10.85.16a9.45,9.45,0,0,1,2.81,6.92,8.07,8.07,0,0,1-2.38,6c-3.75,3.44-12.5,3.3-16.7,3.23-5-.09-10.19,0-15.18.11C807.2,307.17,803.41,307.24,799.71,307.24Zm-7.15-17.11a5.12,5.12,0,0,0-2.78.81c-2,1.29-3.45,5.16-2.41,8.65.73,2.45,3.3,6.56,12.34,6.56,3.69,0,7.47-.08,11.13-.15,5-.09,10.17-.19,15.21-.11,3.75.06,12.52.21,16-2.94a7,7,0,0,0,2-5.19,8.33,8.33,0,0,0-2.46-6.11c-2.77-2.54-6.55-2.4-10.11.39a.54.54,0,0,1-.52.08.53.53,0,0,1-.35-.4,10.3,10.3,0,0,0-5.36-7.39,7.23,7.23,0,0,0-8.37,1.9.55.55,0,0,1-.54.17.54.54,0,0,1-.41-.39c-1.42-5.13-6.81-8.57-11.52-7.36s-8.21,7-7.44,12.29a.53.53,0,0,1-.28.56.54.54,0,0,1-.62-.07A5.27,5.27,0,0,0,792.56,290.13Z" transform="translate(-23.27 -13.96)"/><path class="cls-2" d="M187.52,344.75c3.4-2.67,7.61-3.31,10.82-.36s3.64,9.16.43,12.11c-3.5,3.2-11.8,3.16-16.33,3.08-8.73-.14-17.61.26-26.34.26-16.36,0-14.59-13.37-10.22-16.22a5.8,5.8,0,0,1,6.93.54c-.82-5.63,2.81-11.61,7.84-12.9s10.67,2.3,12.19,7.75a7.76,7.76,0,0,1,9-2A10.87,10.87,0,0,1,187.52,344.75Z" transform="translate(-23.27 -13.96)"/><path d="M156.1,360.39c-9.75,0-12.57-4.6-13.38-7.35-1.2-4,.51-8.35,2.86-9.88a6.29,6.29,0,0,1,6.57-.15c-.23-5.55,3.39-11,8.36-12.28s10.63,2,12.57,7.24a8.2,8.2,0,0,1,9-1.49,11.1,11.1,0,0,1,5.77,7.34c3.78-2.61,7.88-2.57,10.86.16a9.47,9.47,0,0,1,2.81,6.92,8.11,8.11,0,0,1-2.38,6c-3.76,3.44-12.51,3.3-16.71,3.23-5-.08-10.19,0-15.18.11C163.59,360.31,159.8,360.39,156.1,360.39ZM149,343.27a5.09,5.09,0,0,0-2.78.81c-2,1.29-3.45,5.16-2.41,8.65.72,2.45,3.3,6.56,12.33,6.56,3.69,0,7.47-.07,11.13-.14,5-.1,10.17-.2,15.22-.12,3.74.07,12.51.21,15.94-2.94a7,7,0,0,0,2-5.19,8.37,8.37,0,0,0-2.45-6.11c-2.77-2.54-6.55-2.4-10.11.39a.53.53,0,0,1-.53.08.55.55,0,0,1-.35-.4,10.28,10.28,0,0,0-5.36-7.39,7.24,7.24,0,0,0-8.37,1.9.54.54,0,0,1-.54.17.53.53,0,0,1-.4-.38c-1.43-5.14-6.82-8.58-11.53-7.37s-8.21,7-7.43,12.29a.55.55,0,0,1-.28.56.56.56,0,0,1-.63-.07A5.26,5.26,0,0,0,149,343.27Z" transform="translate(-23.27 -13.96)"/><path d="M832.1,283.87a.55.55,0,0,1-.55-.55V243.59a.55.55,0,1,1,1.1,0v39.73A.55.55,0,0,1,832.1,283.87Z" transform="translate(-23.27 -13.96)"/><path d="M864.58,96.13a.55.55,0,0,1-.55-.55V70a.55.55,0,1,1,1.09,0V95.58A.55.55,0,0,1,864.58,96.13Z" transform="translate(-23.27 -13.96)"/><path d="M170.65,327.81a.54.54,0,0,1-.54-.55V258.14a.54.54,0,0,1,.54-.55H203a.55.55,0,0,1,0,1.09H171.2v68.58A.54.54,0,0,1,170.65,327.81Z" transform="translate(-23.27 -13.96)"/><path d="M138.53,350.08H72.94a.55.55,0,0,1-.55-.55V302.71a.55.55,0,0,1,1.09,0V349h65.05a.55.55,0,0,1,0,1.1Z" transform="translate(-23.27 -13.96)"/><path class="cls-2" d="M67.7,348a5.24,5.24,0,1,1,5.24,5.24A5.24,5.24,0,0,1,67.7,348Z" transform="translate(-23.27 -13.96)"/><path d="M72.94,353.82A5.79,5.79,0,1,1,78.72,348,5.79,5.79,0,0,1,72.94,353.82Zm0-10.48A4.7,4.7,0,1,0,77.63,348,4.71,4.71,0,0,0,72.94,343.34Z" transform="translate(-23.27 -13.96)"/><path d="M203.39,221.37H161.45a.55.55,0,0,1-.55-.55V148.7H101.71a.55.55,0,1,1,0-1.09h59.74a.55.55,0,0,1,.55.55v72.11h41.39a.55.55,0,0,1,0,1.1Z" transform="translate(-23.27 -13.96)"/><path d="M341.57,117.51A.55.55,0,0,1,341,117V46.37H216.87a.55.55,0,1,1,0-1.09h124.7a.54.54,0,0,1,.55.55V117A.55.55,0,0,1,341.57,117.51Z" transform="translate(-23.27 -13.96)"/><path class="cls-2" d="M337.19,45.83a4.39,4.39,0,1,1,4.38,4.38A4.38,4.38,0,0,1,337.19,45.83Z" transform="translate(-23.27 -13.96)"/><path d="M341.57,50.76a4.94,4.94,0,1,1,4.94-4.93A4.93,4.93,0,0,1,341.57,50.76Zm0-8.77a3.84,3.84,0,1,0,3.84,3.84A3.84,3.84,0,0,0,341.57,42Z" transform="translate(-23.27 -13.96)"/></svg>